<?xml version="1.0" standalone="no"?>
<!DOCTYPE svg PUBLIC "-//W3C//DTD SVG 1.1//EN" "http://www.w3.org/Graphics/SVG/1.1/DTD/svg11.dtd">
<svg width="115mm" height="102mm" viewBox="-66 -205 115 102" xmlns="http://www.w3.org/2000/svg" version="1.1">
<title>OpenSCAD Model</title>
<path d="
M 48.5999,-204.24 L -65.52,-204.24 L -65.52,-103.12 L 48.5999,-103.12 z
M 45.6,-187.34 L 42.54,-187.34 L 42.54,-198.18 L 31.32,-198.18 L 31.32,-201.24 L 45.6,-201.24
 z
M -48.24,-201.24 L -48.24,-198.18 L -59.46,-198.18 L -59.46,-187.34 L -62.52,-187.34 L -62.52,-201.24
 z
M -42.12,-198.18 L -42.12,-201.24 L -36,-201.24 L -36,-198.18 z
M -29.88,-198.18 L -29.88,-201.24 L -23.76,-201.24 L -23.76,-198.18 z
M -17.64,-198.18 L -17.64,-201.24 L -11.52,-201.24 L -11.52,-198.18 z
M -5.4,-198.18 L -5.4,-201.24 L 0.71999,-201.24 L 0.71999,-198.18 z
M 6.83999,-198.18 L 6.83999,-201.24 L 12.96,-201.24 L 12.96,-198.18 z
M 19.08,-198.18 L 19.08,-201.24 L 25.2,-201.24 L 25.2,-198.18 z
M -54.4557,-191.353 L -54.6998,-191.412 L -54.9318,-191.508 L -55.1459,-191.639 L -55.3368,-191.802 L -55.4998,-191.993
 L -55.631,-192.207 L -55.7271,-192.439 L -55.7857,-192.683 L -55.8054,-192.933 L -55.7857,-193.183 L -55.7271,-193.428
 L -55.631,-193.66 L -55.4998,-193.874 L -55.3368,-194.065 L -55.1459,-194.228 L -54.9318,-194.359 L -54.6998,-194.455
 L -54.4557,-194.513 L -54.2054,-194.533 L -53.9551,-194.513 L -53.711,-194.455 L -53.479,-194.359 L -53.2649,-194.228
 L -53.074,-194.065 L -52.911,-193.874 L -52.7798,-193.66 L -52.6837,-193.428 L -52.6251,-193.183 L -52.6054,-192.933
 L -52.6251,-192.683 L -52.6837,-192.439 L -52.7798,-192.207 L -52.911,-191.993 L -53.074,-191.802 L -53.2649,-191.639
 L -53.479,-191.508 L -53.711,-191.412 L -53.9551,-191.353 L -54.2054,-191.333 z
M 36.9843,-191.353 L 36.7402,-191.412 L 36.5082,-191.508 L 36.2941,-191.639 L 36.1032,-191.802 L 35.9402,-191.993
 L 35.809,-192.207 L 35.7129,-192.439 L 35.6543,-192.683 L 35.6346,-192.933 L 35.6543,-193.183 L 35.7129,-193.428
 L 35.809,-193.66 L 35.9402,-193.874 L 36.1032,-194.065 L 36.2941,-194.228 L 36.5082,-194.359 L 36.7402,-194.455
 L 36.9843,-194.513 L 37.2346,-194.533 L 37.4849,-194.513 L 37.729,-194.455 L 37.961,-194.359 L 38.1751,-194.228
 L 38.366,-194.065 L 38.529,-193.874 L 38.6602,-193.66 L 38.7563,-193.428 L 38.8149,-193.183 L 38.8346,-192.933
 L 38.8149,-192.683 L 38.7563,-192.439 L 38.6602,-192.207 L 38.529,-191.993 L 38.366,-191.802 L 38.1751,-191.639
 L 37.961,-191.508 L 37.729,-191.412 L 37.4849,-191.353 L 37.2346,-191.333 z
M -44.2274,-164.933 L -44.2274,-190.233 L 27.7726,-190.233 L 27.7726,-164.933 z
M 42.54,-175.1 L 42.54,-181.22 L 45.6,-181.22 L 45.6,-175.1 z
M -62.52,-175.1 L -62.52,-181.22 L -59.46,-181.22 L -59.46,-175.1 z
M 42.54,-162.86 L 42.54,-168.98 L 45.6,-168.98 L 45.6,-162.86 z
M -62.52,-162.86 L -62.52,-168.98 L -59.46,-168.98 L -59.46,-162.86 z
M 33.155,-144.466 L 32.0869,-144.723 L 31.0721,-145.143 L 30.1355,-145.717 L 29.3003,-146.43 L 28.5869,-147.265
 L 28.0129,-148.202 L 27.5926,-149.217 L 27.3362,-150.285 L 27.25,-151.38 L 27.3362,-152.475 L 27.5926,-153.543
 L 28.0129,-154.558 L 28.5869,-155.494 L 29.3003,-156.33 L 30.1355,-157.043 L 31.0721,-157.617 L 32.0869,-158.037
 L 33.155,-158.294 L 34.25,-158.38 L 35.345,-158.294 L 36.4131,-158.037 L 37.4279,-157.617 L 38.3645,-157.043
 L 39.1997,-156.33 L 39.9131,-155.494 L 40.487,-154.558 L 40.9074,-153.543 L 41.1638,-152.475 L 41.25,-151.38
 L 41.1638,-150.285 L 40.9074,-149.217 L 40.487,-148.202 L 39.9131,-147.265 L 39.1997,-146.43 L 38.3645,-145.717
 L 37.4279,-145.143 L 36.4131,-144.723 L 35.345,-144.466 L 34.25,-144.38 z
M 42.54,-150.62 L 42.54,-156.74 L 45.6,-156.74 L 45.6,-150.62 z
M -62.52,-150.62 L -62.52,-156.74 L -59.46,-156.74 L -59.46,-150.62 z
M 42.54,-138.38 L 42.54,-144.5 L 45.6,-144.5 L 45.6,-138.38 z
M -62.52,-138.38 L -62.52,-144.5 L -59.46,-144.5 L -59.46,-138.38 z
M 33.155,-127.686 L 32.0869,-127.943 L 31.0721,-128.363 L 30.1355,-128.937 L 29.3003,-129.65 L 28.5869,-130.485
 L 28.0129,-131.422 L 27.5926,-132.437 L 27.3362,-133.505 L 27.25,-134.6 L 27.3362,-135.695 L 27.5926,-136.763
 L 28.0129,-137.778 L 28.5869,-138.714 L 29.3003,-139.55 L 30.1355,-140.263 L 31.0721,-140.837 L 32.0869,-141.257
 L 33.155,-141.514 L 34.25,-141.6 L 35.345,-141.514 L 36.4131,-141.257 L 37.4279,-140.837 L 38.3645,-140.263
 L 39.1997,-139.55 L 39.9131,-138.714 L 40.487,-137.778 L 40.9074,-136.763 L 41.1638,-135.695 L 41.25,-134.6
 L 41.1638,-133.505 L 40.9074,-132.437 L 40.487,-131.422 L 39.9131,-130.485 L 39.1997,-129.65 L 38.3645,-128.937
 L 37.4279,-128.363 L 36.4131,-127.943 L 35.345,-127.686 L 34.25,-127.6 z
M -62.52,-126.14 L -62.52,-132.26 L -59.46,-132.26 L -59.46,-126.14 z
M 42.54,-126.14 L 42.54,-132.26 L 45.6,-132.26 L 45.6,-126.14 z
M 21.8143,-115.349 L 21.2039,-115.496 L 20.624,-115.736 L 20.0889,-116.064 L 19.6116,-116.472 L 19.2039,-116.949
 L 18.876,-117.484 L 18.6358,-118.064 L 18.4892,-118.674 L 18.44,-119.3 L 18.4892,-119.926 L 18.6358,-120.536
 L 18.876,-121.116 L 19.2039,-121.651 L 19.6116,-122.128 L 20.0889,-122.536 L 20.624,-122.864 L 21.2039,-123.104
 L 21.8143,-123.251 L 22.44,-123.3 L 23.0657,-123.251 L 23.6761,-123.104 L 24.256,-122.864 L 24.7911,-122.536
 L 25.2684,-122.128 L 25.6761,-121.651 L 26.004,-121.116 L 26.2442,-120.536 L 26.3908,-119.926 L 26.44,-119.3
 L 26.3908,-118.674 L 26.2442,-118.064 L 26.004,-117.484 L 25.6761,-116.949 L 25.2684,-116.472 L 24.7911,-116.064
 L 24.256,-115.736 L 23.6761,-115.496 L 23.0657,-115.349 L 22.44,-115.3 z
M 31.32,-106.12 L 31.32,-109.18 L 42.54,-109.18 L 42.54,-120.02 L 45.6,-120.02 L 45.6,-106.12
 z
M -62.52,-120.02 L -59.46,-120.02 L -59.46,-109.18 L -48.24,-109.18 L -48.24,-106.12 L -62.52,-106.12
 z
M -54.4557,-112.867 L -54.6998,-112.925 L -54.9318,-113.022 L -55.1459,-113.153 L -55.3368,-113.316 L -55.4998,-113.507
 L -55.631,-113.721 L -55.7271,-113.953 L -55.7857,-114.197 L -55.8054,-114.447 L -55.7857,-114.697 L -55.7271,-114.942
 L -55.631,-115.174 L -55.4998,-115.388 L -55.3368,-115.579 L -55.1459,-115.742 L -54.9318,-115.873 L -54.6998,-115.969
 L -54.4557,-116.028 L -54.2054,-116.047 L -53.9551,-116.028 L -53.711,-115.969 L -53.479,-115.873 L -53.2649,-115.742
 L -53.074,-115.579 L -52.911,-115.388 L -52.7798,-115.174 L -52.6837,-114.942 L -52.6251,-114.697 L -52.6054,-114.447
 L -52.6251,-114.197 L -52.6837,-113.953 L -52.7798,-113.721 L -52.911,-113.507 L -53.074,-113.316 L -53.2649,-113.153
 L -53.479,-113.022 L -53.711,-112.925 L -53.9551,-112.867 L -54.2054,-112.847 z
M 36.9843,-112.867 L 36.7402,-112.925 L 36.5082,-113.022 L 36.2941,-113.153 L 36.1032,-113.316 L 35.9402,-113.507
 L 35.809,-113.721 L 35.7129,-113.953 L 35.6543,-114.197 L 35.6346,-114.447 L 35.6543,-114.697 L 35.7129,-114.942
 L 35.809,-115.174 L 35.9402,-115.388 L 36.1032,-115.579 L 36.2941,-115.742 L 36.5082,-115.873 L 36.7402,-115.969
 L 36.9843,-116.028 L 37.2346,-116.047 L 37.4849,-116.028 L 37.729,-115.969 L 37.961,-115.873 L 38.1751,-115.742
 L 38.366,-115.579 L 38.529,-115.388 L 38.6602,-115.174 L 38.7563,-114.942 L 38.8149,-114.697 L 38.8346,-114.447
 L 38.8149,-114.197 L 38.7563,-113.953 L 38.6602,-113.721 L 38.529,-113.507 L 38.366,-113.316 L 38.1751,-113.153
 L 37.961,-113.022 L 37.729,-112.925 L 37.4849,-112.867 L 37.2346,-112.847 z
M 19.08,-106.12 L 19.08,-109.18 L 25.2,-109.18 L 25.2,-106.12 z
M 6.84,-106.12 L 6.84,-109.18 L 12.96,-109.18 L 12.96,-106.12 z
M -5.4,-106.12 L -5.4,-109.18 L 0.720005,-109.18 L 0.720005,-106.12 z
M -17.64,-106.12 L -17.64,-109.18 L -11.52,-109.18 L -11.52,-106.12 z
M -29.88,-106.12 L -29.88,-109.18 L -23.76,-109.18 L -23.76,-106.12 z
M -42.12,-106.12 L -42.12,-109.18 L -36,-109.18 L -36,-106.12 z
" stroke="black" fill="lightgray" stroke-width="0.5"/>
</svg>
