<?xml version="1.0" standalone="no"?>
<!DOCTYPE svg PUBLIC "-//W3C//DTD SVG 1.1//EN" "http://www.w3.org/Graphics/SVG/1.1/DTD/svg11.dtd">
<svg width="225mm" height="205mm" viewBox="-66 -205 225 205" xmlns="http://www.w3.org/2000/svg" version="1.1">
<title>OpenSCAD Model</title>
<path d="
M 48.5999,-204.24 L -65.52,-204.24 L -65.52,-103.12 L 48.5999,-103.12 z
M 42.54,-187.34 L 42.54,-198.18 L 31.32,-198.18 L 31.32,-201.24 L 45.6,-201.24 L 45.6,-187.34
 z
M 19.08,-198.18 L 19.08,-201.24 L 25.2,-201.24 L 25.2,-198.18 z
M 6.83999,-198.18 L 6.83999,-201.24 L 12.96,-201.24 L 12.96,-198.18 z
M -5.4,-198.18 L -5.4,-201.24 L 0.71999,-201.24 L 0.71999,-198.18 z
M -29.88,-198.18 L -29.88,-201.24 L -23.76,-201.24 L -23.76,-198.18 z
M -42.12,-198.18 L -42.12,-201.24 L -36,-201.24 L -36,-198.18 z
M -62.52,-187.34 L -62.52,-201.24 L -48.24,-201.24 L -48.24,-198.18 L -59.46,-198.18 L -59.46,-187.34
 z
M -17.64,-198.18 L -17.64,-201.24 L -11.52,-201.24 L -11.52,-198.18 z
M -54.4557,-191.353 L -54.6998,-191.411 L -54.9318,-191.508 L -55.1459,-191.639 L -55.3368,-191.802 L -55.4998,-191.993
 L -55.631,-192.207 L -55.7271,-192.439 L -55.7857,-192.683 L -55.8054,-192.933 L -55.7857,-193.183 L -55.7271,-193.428
 L -55.631,-193.66 L -55.4998,-193.874 L -55.3368,-194.065 L -55.1459,-194.228 L -54.9318,-194.359 L -54.6998,-194.455
 L -54.4557,-194.513 L -54.2054,-194.533 L -53.9551,-194.513 L -53.711,-194.455 L -53.479,-194.359 L -53.2649,-194.228
 L -53.074,-194.065 L -52.911,-193.874 L -52.7798,-193.66 L -52.6837,-193.428 L -52.6251,-193.183 L -52.6054,-192.933
 L -52.6251,-192.683 L -52.6837,-192.439 L -52.7798,-192.207 L -52.911,-191.993 L -53.074,-191.802 L -53.2649,-191.639
 L -53.479,-191.508 L -53.711,-191.411 L -53.9551,-191.353 L -54.2054,-191.333 z
M 36.9843,-191.353 L 36.7402,-191.411 L 36.5082,-191.508 L 36.2941,-191.639 L 36.1032,-191.802 L 35.9402,-191.993
 L 35.809,-192.207 L 35.7129,-192.439 L 35.6543,-192.683 L 35.6346,-192.933 L 35.6543,-193.183 L 35.7129,-193.428
 L 35.809,-193.66 L 35.9402,-193.874 L 36.1032,-194.065 L 36.2941,-194.228 L 36.5082,-194.359 L 36.7402,-194.455
 L 36.9843,-194.513 L 37.2346,-194.533 L 37.4849,-194.513 L 37.729,-194.455 L 37.961,-194.359 L 38.1751,-194.228
 L 38.366,-194.065 L 38.529,-193.874 L 38.6602,-193.66 L 38.7563,-193.428 L 38.8149,-193.183 L 38.8346,-192.933
 L 38.8149,-192.683 L 38.7563,-192.439 L 38.6602,-192.207 L 38.529,-191.993 L 38.366,-191.802 L 38.1751,-191.639
 L 37.961,-191.508 L 37.729,-191.411 L 37.4849,-191.353 L 37.2346,-191.333 z
M -44.2274,-164.933 L -44.2274,-190.233 L 27.7726,-190.233 L 27.7726,-164.933 z
M 42.54,-175.1 L 42.54,-181.22 L 45.6,-181.22 L 45.6,-175.1 z
M -62.52,-175.1 L -62.52,-181.22 L -59.46,-181.22 L -59.46,-175.1 z
M 42.54,-162.86 L 42.54,-168.98 L 45.6,-168.98 L 45.6,-162.86 z
M -62.52,-162.86 L -62.52,-168.98 L -59.46,-168.98 L -59.46,-162.86 z
M 33.055,-144.456 L 31.9869,-144.713 L 30.9721,-145.133 L 30.0355,-145.707 L 29.2002,-146.42 L 28.4869,-147.255
 L 27.913,-148.192 L 27.4926,-149.207 L 27.2362,-150.275 L 27.15,-151.37 L 27.2362,-152.465 L 27.4926,-153.533
 L 27.913,-154.548 L 28.4869,-155.484 L 29.2002,-156.32 L 30.0355,-157.033 L 30.9721,-157.607 L 31.9869,-158.027
 L 33.055,-158.284 L 34.15,-158.37 L 35.245,-158.284 L 36.3131,-158.027 L 37.3279,-157.607 L 38.2645,-157.033
 L 39.0997,-156.32 L 39.8131,-155.484 L 40.387,-154.548 L 40.8074,-153.533 L 41.0638,-152.465 L 41.15,-151.37
 L 41.0638,-150.275 L 40.8074,-149.207 L 40.387,-148.192 L 39.8131,-147.255 L 39.0997,-146.42 L 38.2645,-145.707
 L 37.3279,-145.133 L 36.3131,-144.713 L 35.245,-144.456 L 34.15,-144.37 z
M 42.54,-150.62 L 42.54,-156.74 L 45.6,-156.74 L 45.6,-150.62 z
M -62.52,-150.62 L -62.52,-156.74 L -59.46,-156.74 L -59.46,-150.62 z
M 42.54,-138.38 L 42.54,-144.5 L 45.6,-144.5 L 45.6,-138.38 z
M -62.52,-138.38 L -62.52,-144.5 L -59.46,-144.5 L -59.46,-138.38 z
M 33.055,-127.686 L 31.9869,-127.943 L 30.9721,-128.363 L 30.0355,-128.937 L 29.2002,-129.65 L 28.4869,-130.485
 L 27.913,-131.422 L 27.4926,-132.437 L 27.2362,-133.505 L 27.15,-134.6 L 27.2362,-135.695 L 27.4926,-136.763
 L 27.913,-137.778 L 28.4869,-138.714 L 29.2002,-139.55 L 30.0355,-140.263 L 30.9721,-140.837 L 31.9869,-141.257
 L 33.055,-141.514 L 34.15,-141.6 L 35.245,-141.514 L 36.3131,-141.257 L 37.3279,-140.837 L 38.2645,-140.263
 L 39.0997,-139.55 L 39.8131,-138.714 L 40.387,-137.778 L 40.8074,-136.763 L 41.0638,-135.695 L 41.15,-134.6
 L 41.0638,-133.505 L 40.8074,-132.437 L 40.387,-131.422 L 39.8131,-130.485 L 39.0997,-129.65 L 38.2645,-128.937
 L 37.3279,-128.363 L 36.3131,-127.943 L 35.245,-127.686 L 34.15,-127.6 z
M 42.54,-126.14 L 42.54,-132.26 L 45.6,-132.26 L 45.6,-126.14 z
M -62.52,-126.14 L -62.52,-132.26 L -59.46,-132.26 L -59.46,-126.14 z
M 21.6969,-114.708 L 20.9722,-114.882 L 20.2835,-115.168 L 19.648,-115.557 L 19.0812,-116.041 L 18.5972,-116.608
 L 18.2077,-117.244 L 17.9225,-117.932 L 17.7485,-118.657 L 17.69,-119.4 L 17.7485,-120.143 L 17.9225,-120.868
 L 18.2077,-121.556 L 18.5972,-122.192 L 19.0812,-122.759 L 19.648,-123.243 L 20.2835,-123.632 L 20.9722,-123.918
 L 21.6969,-124.092 L 22.44,-124.15 L 23.183,-124.092 L 23.9078,-123.918 L 24.5964,-123.632 L 25.232,-123.243
 L 25.7988,-122.759 L 26.2828,-122.192 L 26.6723,-121.556 L 26.9575,-120.868 L 27.1315,-120.143 L 27.19,-119.4
 L 27.1315,-118.657 L 26.9575,-117.932 L 26.6723,-117.244 L 26.2828,-116.608 L 25.7988,-116.041 L 25.232,-115.557
 L 24.5964,-115.168 L 23.9078,-114.882 L 23.183,-114.708 L 22.44,-114.65 z
M 31.32,-106.12 L 31.32,-109.18 L 42.54,-109.18 L 42.54,-120.02 L 45.6,-120.02 L 45.6,-106.12
 z
M -62.52,-106.12 L -62.52,-120.02 L -59.46,-120.02 L -59.46,-109.18 L -48.24,-109.18 L -48.24,-106.12
 z
M -54.4557,-112.867 L -54.6998,-112.925 L -54.9318,-113.022 L -55.1459,-113.153 L -55.3368,-113.316 L -55.4998,-113.507
 L -55.631,-113.721 L -55.7271,-113.953 L -55.7857,-114.197 L -55.8054,-114.447 L -55.7857,-114.697 L -55.7271,-114.942
 L -55.631,-115.174 L -55.4998,-115.388 L -55.3368,-115.579 L -55.1459,-115.742 L -54.9318,-115.873 L -54.6998,-115.969
 L -54.4557,-116.027 L -54.2054,-116.047 L -53.9551,-116.027 L -53.711,-115.969 L -53.479,-115.873 L -53.2649,-115.742
 L -53.074,-115.579 L -52.911,-115.388 L -52.7798,-115.174 L -52.6837,-114.942 L -52.6251,-114.697 L -52.6054,-114.447
 L -52.6251,-114.197 L -52.6837,-113.953 L -52.7798,-113.721 L -52.911,-113.507 L -53.074,-113.316 L -53.2649,-113.153
 L -53.479,-113.022 L -53.711,-112.925 L -53.9551,-112.867 L -54.2054,-112.847 z
M 36.9843,-112.867 L 36.7402,-112.925 L 36.5082,-113.022 L 36.2941,-113.153 L 36.1032,-113.316 L 35.9402,-113.507
 L 35.809,-113.721 L 35.7129,-113.953 L 35.6543,-114.197 L 35.6346,-114.447 L 35.6543,-114.697 L 35.7129,-114.942
 L 35.809,-115.174 L 35.9402,-115.388 L 36.1032,-115.579 L 36.2941,-115.742 L 36.5082,-115.873 L 36.7402,-115.969
 L 36.9843,-116.027 L 37.2346,-116.047 L 37.4849,-116.027 L 37.729,-115.969 L 37.961,-115.873 L 38.1751,-115.742
 L 38.366,-115.579 L 38.529,-115.388 L 38.6602,-115.174 L 38.7563,-114.942 L 38.8149,-114.697 L 38.8346,-114.447
 L 38.8149,-114.197 L 38.7563,-113.953 L 38.6602,-113.721 L 38.529,-113.507 L 38.366,-113.316 L 38.1751,-113.153
 L 37.961,-113.022 L 37.729,-112.925 L 37.4849,-112.867 L 37.2346,-112.847 z
M 6.84,-106.12 L 6.84,-109.18 L 12.96,-109.18 L 12.96,-106.12 z
M 19.08,-106.12 L 19.08,-109.18 L 25.2,-109.18 L 25.2,-106.12 z
M -5.4,-106.12 L -5.4,-109.18 L 0.720005,-109.18 L 0.720005,-106.12 z
M -17.64,-106.12 L -17.64,-109.18 L -11.52,-109.18 L -11.52,-106.12 z
M -29.88,-106.12 L -29.88,-109.18 L -23.76,-109.18 L -23.76,-106.12 z
M -42.12,-106.12 L -42.12,-109.18 L -36,-109.18 L -36,-106.12 z
M 64.5,-109.86 L 70.62,-109.86 L 70.62,-106.8 L 76.74,-106.8 L 76.74,-109.86 L 82.86,-109.86
 L 82.86,-106.8 L 88.98,-106.8 L 88.98,-109.86 L 95.1,-109.86 L 95.1,-106.8 L 101.22,-106.8
 L 101.22,-109.86 L 107.34,-109.86 L 107.34,-106.8 L 113.46,-106.8 L 113.46,-109.86 L 119.58,-109.86
 L 119.58,-106.8 L 125.7,-106.8 L 125.7,-109.86 L 131.82,-109.86 L 131.82,-106.8 L 145.72,-106.8
 L 145.72,-120.54 L 142.66,-120.54 L 142.66,-126.66 L 145.72,-126.66 L 145.72,-140.4 L 131.82,-140.4
 L 131.82,-137.34 L 125.7,-137.34 L 125.7,-140.4 L 119.58,-140.4 L 119.58,-137.34 L 113.46,-137.34
 L 113.46,-140.4 L 107.34,-140.4 L 107.34,-137.34 L 101.22,-137.34 L 101.22,-140.4 L 95.1,-140.4
 L 95.1,-137.34 L 88.98,-137.34 L 88.98,-140.4 L 82.86,-140.4 L 82.86,-137.34 L 76.74,-137.34
 L 76.74,-140.4 L 70.62,-140.4 L 70.62,-137.34 L 64.5,-137.34 L 64.5,-140.4 L 50.6,-140.4
 L 50.6,-126.66 L 53.66,-126.66 L 53.66,-120.54 L 50.6,-120.54 L 50.6,-106.8 L 64.5,-106.8
 z
M 64.5,-74.26 L 70.62,-74.26 L 70.62,-71.2 L 76.74,-71.2 L 76.74,-74.26 L 82.86,-74.26
 L 82.86,-71.2 L 88.98,-71.2 L 88.98,-74.26 L 95.1,-74.26 L 95.1,-71.2 L 101.22,-71.2
 L 101.22,-74.26 L 107.34,-74.26 L 107.34,-71.2 L 113.46,-71.2 L 113.46,-74.26 L 119.58,-74.26
 L 119.58,-71.2 L 125.7,-71.2 L 125.7,-74.26 L 131.82,-74.26 L 131.82,-71.2 L 145.72,-71.2
 L 145.72,-84.94 L 142.66,-84.94 L 142.66,-91.06 L 145.72,-91.06 L 145.72,-104.8 L 131.82,-104.8
 L 131.82,-101.74 L 125.7,-101.74 L 125.7,-104.8 L 119.58,-104.8 L 119.58,-101.74 L 113.46,-101.74
 L 113.46,-104.8 L 107.34,-104.8 L 107.34,-101.74 L 101.22,-101.74 L 101.22,-104.8 L 95.1,-104.8
 L 95.1,-101.74 L 88.98,-101.74 L 88.98,-104.8 L 82.86,-104.8 L 82.86,-101.74 L 76.74,-101.74
 L 76.74,-104.8 L 70.62,-104.8 L 70.62,-101.74 L 64.5,-101.74 L 64.5,-104.8 L 50.6,-104.8
 L 50.6,-91.06 L 53.66,-91.06 L 53.66,-84.94 L 50.6,-84.94 L 50.6,-71.2 L 64.5,-71.2
 z
M 48.5999,-101.12 L -65.52,-101.12 L -65.52,-0 L 48.5999,-0 z
M 6.83999,-95.06 L 6.83999,-98.12 L 12.96,-98.12 L 12.96,-95.06 z
M 19.08,-95.06 L 19.08,-98.12 L 25.2,-98.12 L 25.2,-95.06 z
M -5.4,-95.06 L -5.4,-98.12 L 0.71999,-98.12 L 0.71999,-95.06 z
M 42.54,-84.22 L 42.54,-95.06 L 31.32,-95.06 L 31.32,-98.12 L 45.6,-98.12 L 45.6,-84.22
 z
M -17.64,-95.06 L -17.64,-98.12 L -11.52,-98.12 L -11.52,-95.06 z
M -29.88,-95.06 L -29.88,-98.12 L -23.76,-98.12 L -23.76,-95.06 z
M -42.12,-95.06 L -42.12,-98.12 L -36,-98.12 L -36,-95.06 z
M -62.52,-84.22 L -62.52,-98.12 L -48.24,-98.12 L -48.24,-95.06 L -59.46,-95.06 L -59.46,-84.22
 z
M -54.4049,-88.2329 L -54.649,-88.2915 L -54.881,-88.3876 L -55.0951,-88.5188 L -55.286,-88.6818 L -55.449,-88.8727
 L -55.5802,-89.0868 L -55.6763,-89.3188 L -55.7349,-89.5629 L -55.7546,-89.8132 L -55.7349,-90.0635 L -55.6763,-90.3076
 L -55.5802,-90.5396 L -55.449,-90.7536 L -55.286,-90.9446 L -55.0951,-91.1076 L -54.881,-91.2388 L -54.649,-91.3349
 L -54.4049,-91.3935 L -54.1546,-91.4132 L -53.9043,-91.3935 L -53.6602,-91.3349 L -53.4282,-91.2388 L -53.2142,-91.1076
 L -53.0232,-90.9446 L -52.8602,-90.7536 L -52.729,-90.5396 L -52.6329,-90.3076 L -52.5743,-90.0635 L -52.5546,-89.8132
 L -52.5743,-89.5629 L -52.6329,-89.3188 L -52.729,-89.0868 L -52.8602,-88.8727 L -53.0232,-88.6818 L -53.2142,-88.5188
 L -53.4282,-88.3876 L -53.6602,-88.2915 L -53.9043,-88.2329 L -54.1546,-88.2132 z
M 37.0351,-88.2329 L 36.791,-88.2915 L 36.559,-88.3876 L 36.3449,-88.5188 L 36.154,-88.6818 L 35.991,-88.8727
 L 35.8598,-89.0868 L 35.7637,-89.3188 L 35.7051,-89.5629 L 35.6854,-89.8132 L 35.7051,-90.0635 L 35.7637,-90.3076
 L 35.8598,-90.5396 L 35.991,-90.7536 L 36.154,-90.9446 L 36.3449,-91.1076 L 36.559,-91.2388 L 36.791,-91.3349
 L 37.0351,-91.3935 L 37.2854,-91.4132 L 37.5357,-91.3935 L 37.7798,-91.3349 L 38.0118,-91.2388 L 38.2258,-91.1076
 L 38.4168,-90.9446 L 38.5798,-90.7536 L 38.711,-90.5396 L 38.8071,-90.3076 L 38.8657,-90.0635 L 38.8854,-89.8132
 L 38.8657,-89.5629 L 38.8071,-89.3188 L 38.711,-89.0868 L 38.5798,-88.8727 L 38.4168,-88.6818 L 38.2258,-88.5188
 L 38.0118,-88.3876 L 37.7798,-88.2915 L 37.5357,-88.2329 L 37.2854,-88.2132 z
M 42.54,-71.98 L 42.54,-78.1 L 45.6,-78.1 L 45.6,-71.98 z
M -62.52,-71.98 L -62.52,-78.1 L -59.46,-78.1 L -59.46,-71.98 z
M 42.54,-59.74 L 42.54,-65.86 L 45.6,-65.86 L 45.6,-59.74 z
M -62.52,-59.74 L -62.52,-65.86 L -59.46,-65.86 L -59.46,-59.74 z
M 42.54,-47.5 L 42.54,-53.62 L 45.6,-53.62 L 45.6,-47.5 z
M -62.52,-47.5 L -62.52,-53.62 L -59.46,-53.62 L -59.46,-47.5 z
M 42.54,-35.26 L 42.54,-41.38 L 45.6,-41.38 L 45.6,-35.26 z
M -62.52,-35.26 L -62.52,-41.38 L -59.46,-41.38 L -59.46,-35.26 z
M 42.54,-23.02 L 42.54,-29.14 L 45.6,-29.14 L 45.6,-23.02 z
M -62.52,-23.02 L -62.52,-29.14 L -59.46,-29.14 L -59.46,-23.02 z
M 31.32,-3 L 31.32,-6.06 L 42.54,-6.06 L 42.54,-16.9 L 45.6,-16.9 L 45.6,-3
 z
M -62.52,-3 L -62.52,-16.9 L -59.46,-16.9 L -59.46,-6.06 L -48.24,-6.06 L -48.24,-3
 z
M 37.0351,-9.74689 L 36.791,-9.8055 L 36.559,-9.90158 L 36.3449,-10.0328 L 36.154,-10.1958 L 35.991,-10.3867
 L 35.8598,-10.6008 L 35.7637,-10.8328 L 35.7051,-11.0769 L 35.6854,-11.3272 L 35.7051,-11.5775 L 35.7637,-11.8216
 L 35.8598,-12.0536 L 35.991,-12.2677 L 36.154,-12.4586 L 36.3449,-12.6216 L 36.559,-12.7528 L 36.791,-12.8489
 L 37.0351,-12.9075 L 37.2854,-12.9272 L 37.5357,-12.9075 L 37.7798,-12.8489 L 38.0118,-12.7528 L 38.2258,-12.6216
 L 38.4168,-12.4586 L 38.5798,-12.2677 L 38.711,-12.0536 L 38.8071,-11.8216 L 38.8657,-11.5775 L 38.8854,-11.3272
 L 38.8657,-11.0769 L 38.8071,-10.8328 L 38.711,-10.6008 L 38.5798,-10.3867 L 38.4168,-10.1958 L 38.2258,-10.0328
 L 38.0118,-9.90158 L 37.7798,-9.8055 L 37.5357,-9.74689 L 37.2854,-9.72719 z
M -54.4049,-9.74689 L -54.649,-9.8055 L -54.881,-9.90158 L -55.0951,-10.0328 L -55.286,-10.1958 L -55.449,-10.3867
 L -55.5802,-10.6008 L -55.6763,-10.8328 L -55.7349,-11.0769 L -55.7546,-11.3272 L -55.7349,-11.5775 L -55.6763,-11.8216
 L -55.5802,-12.0536 L -55.449,-12.2677 L -55.286,-12.4586 L -55.0951,-12.6216 L -54.881,-12.7528 L -54.649,-12.8489
 L -54.4049,-12.9075 L -54.1546,-12.9272 L -53.9043,-12.9075 L -53.6602,-12.8489 L -53.4282,-12.7528 L -53.2142,-12.6216
 L -53.0232,-12.4586 L -52.8602,-12.2677 L -52.729,-12.0536 L -52.6329,-11.8216 L -52.5743,-11.5775 L -52.5546,-11.3272
 L -52.5743,-11.0769 L -52.6329,-10.8328 L -52.729,-10.6008 L -52.8602,-10.3867 L -53.0232,-10.1958 L -53.2142,-10.0328
 L -53.4282,-9.90158 L -53.6602,-9.8055 L -53.9043,-9.74689 L -54.1546,-9.72719 z
M -29.88,-3 L -29.88,-6.06 L -23.76,-6.06 L -23.76,-3 z
M -17.64,-3 L -17.64,-6.06 L -11.52,-6.06 L -11.52,-3 z
M -5.4,-3 L -5.4,-6.06 L 0.720005,-6.06 L 0.720005,-3 z
M 19.08,-3 L 19.08,-6.06 L 25.2,-6.06 L 25.2,-3 z
M 6.84,-3 L 6.84,-6.06 L 12.96,-6.06 L 12.96,-3 z
M -42.12,-3 L -42.12,-6.06 L -36,-6.06 L -36,-3 z
M 64.88,-38.66 L 71,-38.66 L 71,-35.6 L 77.12,-35.6 L 77.12,-38.66 L 83.24,-38.66
 L 83.24,-35.6 L 89.36,-35.6 L 89.36,-38.66 L 95.48,-38.66 L 95.48,-35.6 L 101.6,-35.6
 L 101.6,-38.66 L 107.72,-38.66 L 107.72,-35.6 L 113.84,-35.6 L 113.84,-38.66 L 119.96,-38.66
 L 119.96,-35.6 L 126.08,-35.6 L 126.08,-38.66 L 132.2,-38.66 L 132.2,-35.6 L 138.32,-35.6
 L 138.32,-38.66 L 144.44,-38.66 L 144.44,-35.6 L 155.66,-35.6 L 155.66,-49.34 L 158.72,-49.34
 L 158.72,-55.46 L 155.66,-55.46 L 155.66,-69.1999 L 144.44,-69.1999 L 144.44,-66.14 L 138.32,-66.14
 L 138.32,-69.1999 L 132.2,-69.1999 L 132.2,-66.14 L 126.08,-66.14 L 126.08,-69.1999 L 119.96,-69.1999
 L 119.96,-66.14 L 113.84,-66.14 L 113.84,-69.1999 L 107.72,-69.1999 L 107.72,-66.14 L 101.6,-66.14
 L 101.6,-69.1999 L 95.48,-69.1999 L 95.48,-66.14 L 89.36,-66.14 L 89.36,-69.1999 L 83.24,-69.1999
 L 83.24,-66.14 L 77.12,-66.14 L 77.12,-69.1999 L 71,-69.1999 L 71,-66.14 L 64.88,-66.14
 L 64.88,-69.1999 L 53.66,-69.1999 L 53.66,-55.46 L 50.6,-55.46 L 50.6,-49.34 L 53.66,-49.34
 L 53.66,-35.6 L 64.88,-35.6 z
M 105.019,-45.7505 L 104.393,-45.9007 L 103.799,-46.1469 L 103.25,-46.483 L 102.761,-46.9008 L 102.343,-47.3901
 L 102.007,-47.9386 L 101.761,-48.533 L 101.61,-49.1586 L 101.56,-49.8 L 101.61,-50.4414 L 101.761,-51.067
 L 102.007,-51.6613 L 102.343,-52.2099 L 102.761,-52.6991 L 103.25,-53.117 L 103.799,-53.4531 L 104.393,-53.6993
 L 105.019,-53.8495 L 105.66,-53.9 L 106.301,-53.8495 L 106.927,-53.6993 L 107.521,-53.4531 L 108.07,-53.117
 L 108.559,-52.6991 L 108.977,-52.2099 L 109.313,-51.6613 L 109.559,-51.067 L 109.71,-50.4414 L 109.76,-49.8
 L 109.71,-49.1586 L 109.559,-48.533 L 109.313,-47.9386 L 108.977,-47.3901 L 108.559,-46.9008 L 108.07,-46.483
 L 107.521,-46.1469 L 106.927,-45.9007 L 106.301,-45.7505 L 105.66,-45.7 z
M 93.0186,-45.7505 L 92.393,-45.9007 L 91.7986,-46.1469 L 91.2501,-46.483 L 90.7609,-46.9008 L 90.343,-47.3901
 L 90.0069,-47.9386 L 89.7607,-48.533 L 89.6105,-49.1586 L 89.56,-49.8 L 89.6105,-50.4414 L 89.7607,-51.067
 L 90.0069,-51.6613 L 90.343,-52.2099 L 90.7609,-52.6991 L 91.2501,-53.117 L 91.7986,-53.4531 L 92.393,-53.6993
 L 93.0186,-53.8495 L 93.66,-53.9 L 94.3014,-53.8495 L 94.927,-53.6993 L 95.5214,-53.4531 L 96.0699,-53.117
 L 96.5591,-52.6991 L 96.977,-52.2099 L 97.3131,-51.6613 L 97.5593,-51.067 L 97.7095,-50.4414 L 97.76,-49.8
 L 97.7095,-49.1586 L 97.5593,-48.533 L 97.3131,-47.9386 L 96.977,-47.3901 L 96.5591,-46.9008 L 96.0699,-46.483
 L 95.5214,-46.1469 L 94.927,-45.9007 L 94.3014,-45.7505 L 93.66,-45.7 z
M 82.0186,-45.7505 L 81.393,-45.9007 L 80.7986,-46.1469 L 80.2501,-46.483 L 79.7609,-46.9008 L 79.343,-47.3901
 L 79.0069,-47.9386 L 78.7607,-48.533 L 78.6105,-49.1586 L 78.56,-49.8 L 78.6105,-50.4414 L 78.7607,-51.067
 L 79.0069,-51.6613 L 79.343,-52.2099 L 79.7609,-52.6991 L 80.2501,-53.117 L 80.7986,-53.4531 L 81.393,-53.6993
 L 82.0186,-53.8495 L 82.66,-53.9 L 83.3014,-53.8495 L 83.927,-53.6993 L 84.5214,-53.4531 L 85.0699,-53.117
 L 85.5591,-52.6991 L 85.977,-52.2099 L 86.3131,-51.6613 L 86.5593,-51.067 L 86.7095,-50.4414 L 86.76,-49.8
 L 86.7095,-49.1586 L 86.5593,-48.533 L 86.3131,-47.9386 L 85.977,-47.3901 L 85.5591,-46.9008 L 85.0699,-46.483
 L 84.5214,-46.1469 L 83.927,-45.9007 L 83.3014,-45.7505 L 82.66,-45.7 z
M 71.0186,-45.7505 L 70.393,-45.9007 L 69.7986,-46.1469 L 69.2501,-46.483 L 68.7609,-46.9008 L 68.343,-47.3901
 L 68.0069,-47.9386 L 67.7607,-48.533 L 67.6105,-49.1586 L 67.56,-49.8 L 67.6105,-50.4414 L 67.7607,-51.067
 L 68.0069,-51.6613 L 68.343,-52.2099 L 68.7609,-52.6991 L 69.2501,-53.117 L 69.7986,-53.4531 L 70.393,-53.6993
 L 71.0186,-53.8495 L 71.66,-53.9 L 72.3014,-53.8495 L 72.927,-53.6993 L 73.5214,-53.4531 L 74.0699,-53.117
 L 74.5591,-52.6991 L 74.977,-52.2099 L 75.3131,-51.6613 L 75.5593,-51.067 L 75.7095,-50.4414 L 75.76,-49.8
 L 75.7095,-49.1586 L 75.5593,-48.533 L 75.3131,-47.9386 L 74.977,-47.3901 L 74.5591,-46.9008 L 74.0699,-46.483
 L 73.5214,-46.1469 L 72.927,-45.9007 L 72.3014,-45.7505 L 71.66,-45.7 z
M 64.88,-3.06 L 71,-3.06 L 71,-0 L 77.12,-0 L 77.12,-3.06 L 83.24,-3.06
 L 83.24,-0 L 89.36,-0 L 89.36,-3.06 L 95.48,-3.06 L 95.48,-0 L 101.6,-0
 L 101.6,-3.06 L 107.72,-3.06 L 107.72,-0 L 113.84,-0 L 113.84,-3.06 L 119.96,-3.06
 L 119.96,-0 L 126.08,-0 L 126.08,-3.06 L 132.2,-3.06 L 132.2,-0 L 138.32,-0
 L 138.32,-3.06 L 144.44,-3.06 L 144.44,-0 L 155.66,-0 L 155.66,-13.74 L 158.72,-13.74
 L 158.72,-19.86 L 155.66,-19.86 L 155.66,-33.5999 L 144.44,-33.5999 L 144.44,-30.54 L 138.32,-30.54
 L 138.32,-33.5999 L 132.2,-33.5999 L 132.2,-30.54 L 126.08,-30.54 L 126.08,-33.5999 L 119.96,-33.5999
 L 119.96,-30.54 L 113.84,-30.54 L 113.84,-33.5999 L 107.72,-33.5999 L 107.72,-30.54 L 101.6,-30.54
 L 101.6,-33.5999 L 95.48,-33.5999 L 95.48,-30.54 L 89.36,-30.54 L 89.36,-33.5999 L 83.24,-33.5999
 L 83.24,-30.54 L 77.12,-30.54 L 77.12,-33.5999 L 71,-33.5999 L 71,-30.54 L 64.88,-30.54
 L 64.88,-33.5999 L 53.66,-33.5999 L 53.66,-19.86 L 50.6,-19.86 L 50.6,-13.74 L 53.66,-13.74
 L 53.66,-0 L 64.88,-0 z
M 77.0608,-4.5 L 77.0608,-21 L 91.0608,-21 L 91.0608,-4.5 z
M 63.5794,-13.5 L 63.5794,-21 L 75.1794,-21 L 75.1794,-13.5 z
M 98.3578,-11.0616 L 97.5949,-11.2447 L 96.87,-11.545 L 96.2011,-11.9549 L 95.6045,-12.4645 L 95.0949,-13.0611
 L 94.685,-13.73 L 94.3847,-14.4549 L 94.2015,-15.2178 L 94.14,-16 L 94.2015,-16.7822 L 94.3847,-17.5451
 L 94.685,-18.2699 L 95.0949,-18.9389 L 95.6045,-19.5355 L 96.2011,-20.0451 L 96.87,-20.455 L 97.5949,-20.7553
 L 98.3578,-20.9384 L 99.14,-21 L 99.9222,-20.9384 L 100.685,-20.7553 L 101.41,-20.455 L 102.079,-20.0451
 L 102.676,-19.5355 L 103.185,-18.9389 L 103.595,-18.2699 L 103.895,-17.5451 L 104.078,-16.7822 L 104.14,-16
 L 104.078,-15.2178 L 103.895,-14.4549 L 103.595,-13.73 L 103.185,-13.0611 L 102.676,-12.4645 L 102.079,-11.9549
 L 101.41,-11.545 L 100.685,-11.2447 L 99.9222,-11.0616 L 99.14,-11 z
M 112.598,-11.0616 L 111.835,-11.2447 L 111.11,-11.545 L 110.441,-11.9549 L 109.844,-12.4645 L 109.335,-13.0611
 L 108.925,-13.73 L 108.625,-14.4549 L 108.442,-15.2178 L 108.38,-16 L 108.442,-16.7822 L 108.625,-17.5451
 L 108.925,-18.2699 L 109.335,-18.9389 L 109.844,-19.5355 L 110.441,-20.0451 L 111.11,-20.455 L 111.835,-20.7553
 L 112.598,-20.9384 L 113.38,-21 L 114.162,-20.9384 L 114.925,-20.7553 L 115.65,-20.455 L 116.319,-20.0451
 L 116.916,-19.5355 L 117.425,-18.9389 L 117.835,-18.2699 L 118.135,-17.5451 L 118.318,-16.7822 L 118.38,-16
 L 118.318,-15.2178 L 118.135,-14.4549 L 117.835,-13.73 L 117.425,-13.0611 L 116.916,-12.4645 L 116.319,-11.9549
 L 115.65,-11.545 L 114.925,-11.2447 L 114.162,-11.0616 L 113.38,-11 z
" stroke="black" fill="lightgray" stroke-width="0.5"/>
</svg>
