<?xml version="1.0" standalone="no"?>
<!DOCTYPE svg PUBLIC "-//W3C//DTD SVG 1.1//EN" "http://www.w3.org/Graphics/SVG/1.1/DTD/svg11.dtd">
<svg width="225mm" height="205mm" viewBox="-66 -205 225 205" xmlns="http://www.w3.org/2000/svg" version="1.1">
<title>OpenSCAD Model</title>
<path d="
M 48.5999,-204.24 L -65.52,-204.24 L -65.52,-103.12 L 48.5999,-103.12 z
M 42.54,-187.34 L 42.54,-198.18 L 31.32,-198.18 L 31.32,-201.24 L 45.6,-201.24 L 45.6,-187.34
 z
M 19.08,-198.18 L 19.08,-201.24 L 25.2,-201.24 L 25.2,-198.18 z
M 6.83999,-198.18 L 6.83999,-201.24 L 12.96,-201.24 L 12.96,-198.18 z
M -5.4,-198.18 L -5.4,-201.24 L 0.71999,-201.24 L 0.71999,-198.18 z
M -29.88,-198.18 L -29.88,-201.24 L -23.76,-201.24 L -23.76,-198.18 z
M -42.12,-198.18 L -42.12,-201.24 L -36,-201.24 L -36,-198.18 z
M -62.52,-187.34 L -62.52,-201.24 L -48.24,-201.24 L -48.24,-198.18 L -59.46,-198.18 L -59.46,-187.34
 z
M -17.64,-198.18 L -17.64,-201.24 L -11.52,-201.24 L -11.52,-198.18 z
M -54.4557,-191.353 L -54.6998,-191.411 L -54.9318,-191.508 L -55.1459,-191.639 L -55.3368,-191.802 L -55.4998,-191.993
 L -55.631,-192.207 L -55.7271,-192.439 L -55.7857,-192.683 L -55.8054,-192.933 L -55.7857,-193.183 L -55.7271,-193.428
 L -55.631,-193.66 L -55.4998,-193.874 L -55.3368,-194.065 L -55.1459,-194.228 L -54.9318,-194.359 L -54.6998,-194.455
 L -54.4557,-194.513 L -54.2054,-194.533 L -53.9551,-194.513 L -53.711,-194.455 L -53.479,-194.359 L -53.2649,-194.228
 L -53.074,-194.065 L -52.911,-193.874 L -52.7798,-193.66 L -52.6837,-193.428 L -52.6251,-193.183 L -52.6054,-192.933
 L -52.6251,-192.683 L -52.6837,-192.439 L -52.7798,-192.207 L -52.911,-191.993 L -53.074,-191.802 L -53.2649,-191.639
 L -53.479,-191.508 L -53.711,-191.411 L -53.9551,-191.353 L -54.2054,-191.333 z
M 36.9843,-191.353 L 36.7402,-191.411 L 36.5082,-191.508 L 36.2941,-191.639 L 36.1032,-191.802 L 35.9402,-191.993
 L 35.809,-192.207 L 35.7129,-192.439 L 35.6543,-192.683 L 35.6346,-192.933 L 35.6543,-193.183 L 35.7129,-193.428
 L 35.809,-193.66 L 35.9402,-193.874 L 36.1032,-194.065 L 36.2941,-194.228 L 36.5082,-194.359 L 36.7402,-194.455
 L 36.9843,-194.513 L 37.2346,-194.533 L 37.4849,-194.513 L 37.729,-194.455 L 37.961,-194.359 L 38.1751,-194.228
 L 38.366,-194.065 L 38.529,-193.874 L 38.6602,-193.66 L 38.7563,-193.428 L 38.8149,-193.183 L 38.8346,-192.933
 L 38.8149,-192.683 L 38.7563,-192.439 L 38.6602,-192.207 L 38.529,-191.993 L 38.366,-191.802 L 38.1751,-191.639
 L 37.961,-191.508 L 37.729,-191.411 L 37.4849,-191.353 L 37.2346,-191.333 z
M -47.8274,-167.813 L -47.8274,-192.913 L 23.7726,-192.913 L 23.7726,-167.813 z
M 42.54,-175.1 L 42.54,-181.22 L 45.6,-181.22 L 45.6,-175.1 z
M -62.52,-175.1 L -62.52,-181.22 L -59.46,-181.22 L -59.46,-175.1 z
M 42.54,-162.86 L 42.54,-168.98 L 45.6,-168.98 L 45.6,-162.86 z
M -62.52,-162.86 L -62.52,-168.98 L -59.46,-168.98 L -59.46,-162.86 z
M 33.155,-144.466 L 32.0869,-144.723 L 31.0721,-145.143 L 30.1355,-145.717 L 29.3003,-146.43 L 28.5869,-147.265
 L 28.0129,-148.202 L 27.5926,-149.217 L 27.3362,-150.285 L 27.25,-151.38 L 27.3362,-152.475 L 27.5926,-153.543
 L 28.0129,-154.558 L 28.5869,-155.494 L 29.3003,-156.33 L 30.1355,-157.043 L 31.0721,-157.617 L 32.0869,-158.037
 L 33.155,-158.294 L 34.25,-158.38 L 35.345,-158.294 L 36.4131,-158.037 L 37.4279,-157.617 L 38.3645,-157.043
 L 39.1997,-156.33 L 39.9131,-155.494 L 40.487,-154.558 L 40.9074,-153.543 L 41.1638,-152.475 L 41.25,-151.38
 L 41.1638,-150.285 L 40.9074,-149.217 L 40.487,-148.202 L 39.9131,-147.265 L 39.1997,-146.43 L 38.3645,-145.717
 L 37.4279,-145.143 L 36.4131,-144.723 L 35.345,-144.466 L 34.25,-144.38 z
M 42.54,-150.62 L 42.54,-156.74 L 45.6,-156.74 L 45.6,-150.62 z
M -62.52,-150.62 L -62.52,-156.74 L -59.46,-156.74 L -59.46,-150.62 z
M 42.54,-138.38 L 42.54,-144.5 L 45.6,-144.5 L 45.6,-138.38 z
M -62.52,-138.38 L -62.52,-144.5 L -59.46,-144.5 L -59.46,-138.38 z
M 33.155,-127.686 L 32.0869,-127.943 L 31.0721,-128.363 L 30.1355,-128.937 L 29.3003,-129.65 L 28.5869,-130.485
 L 28.0129,-131.422 L 27.5926,-132.437 L 27.3362,-133.505 L 27.25,-134.6 L 27.3362,-135.695 L 27.5926,-136.763
 L 28.0129,-137.778 L 28.5869,-138.714 L 29.3003,-139.55 L 30.1355,-140.263 L 31.0721,-140.837 L 32.0869,-141.257
 L 33.155,-141.514 L 34.25,-141.6 L 35.345,-141.514 L 36.4131,-141.257 L 37.4279,-140.837 L 38.3645,-140.263
 L 39.1997,-139.55 L 39.9131,-138.714 L 40.487,-137.778 L 40.9074,-136.763 L 41.1638,-135.695 L 41.25,-134.6
 L 41.1638,-133.505 L 40.9074,-132.437 L 40.487,-131.422 L 39.9131,-130.485 L 39.1997,-129.65 L 38.3645,-128.937
 L 37.4279,-128.363 L 36.4131,-127.943 L 35.345,-127.686 L 34.25,-127.6 z
M 42.54,-126.14 L 42.54,-132.26 L 45.6,-132.26 L 45.6,-126.14 z
M -62.52,-126.14 L -62.52,-132.26 L -59.46,-132.26 L -59.46,-126.14 z
M 21.8143,-115.349 L 21.2039,-115.496 L 20.624,-115.736 L 20.0889,-116.064 L 19.6116,-116.472 L 19.2039,-116.949
 L 18.876,-117.484 L 18.6358,-118.064 L 18.4892,-118.674 L 18.44,-119.3 L 18.4892,-119.926 L 18.6358,-120.536
 L 18.876,-121.116 L 19.2039,-121.651 L 19.6116,-122.128 L 20.0889,-122.536 L 20.624,-122.864 L 21.2039,-123.104
 L 21.8143,-123.251 L 22.44,-123.3 L 23.0657,-123.251 L 23.6761,-123.104 L 24.256,-122.864 L 24.7911,-122.536
 L 25.2684,-122.128 L 25.6761,-121.651 L 26.004,-121.116 L 26.2442,-120.536 L 26.3908,-119.926 L 26.44,-119.3
 L 26.3908,-118.674 L 26.2442,-118.064 L 26.004,-117.484 L 25.6761,-116.949 L 25.2684,-116.472 L 24.7911,-116.064
 L 24.256,-115.736 L 23.6761,-115.496 L 23.0657,-115.349 L 22.44,-115.3 z
M 31.32,-106.12 L 31.32,-109.18 L 42.54,-109.18 L 42.54,-120.02 L 45.6,-120.02 L 45.6,-106.12
 z
M -62.52,-106.12 L -62.52,-120.02 L -59.46,-120.02 L -59.46,-109.18 L -48.24,-109.18 L -48.24,-106.12
 z
M 36.9843,-112.867 L 36.7402,-112.925 L 36.5082,-113.022 L 36.2941,-113.153 L 36.1032,-113.316 L 35.9402,-113.507
 L 35.809,-113.721 L 35.7129,-113.953 L 35.6543,-114.197 L 35.6346,-114.447 L 35.6543,-114.697 L 35.7129,-114.942
 L 35.809,-115.174 L 35.9402,-115.388 L 36.1032,-115.579 L 36.2941,-115.742 L 36.5082,-115.873 L 36.7402,-115.969
 L 36.9843,-116.027 L 37.2346,-116.047 L 37.4849,-116.027 L 37.729,-115.969 L 37.961,-115.873 L 38.1751,-115.742
 L 38.366,-115.579 L 38.529,-115.388 L 38.6602,-115.174 L 38.7563,-114.942 L 38.8149,-114.697 L 38.8346,-114.447
 L 38.8149,-114.197 L 38.7563,-113.953 L 38.6602,-113.721 L 38.529,-113.507 L 38.366,-113.316 L 38.1751,-113.153
 L 37.961,-113.022 L 37.729,-112.925 L 37.4849,-112.867 L 37.2346,-112.847 z
M -54.4557,-112.867 L -54.6998,-112.925 L -54.9318,-113.022 L -55.1459,-113.153 L -55.3368,-113.316 L -55.4998,-113.507
 L -55.631,-113.721 L -55.7271,-113.953 L -55.7857,-114.197 L -55.8054,-114.447 L -55.7857,-114.697 L -55.7271,-114.942
 L -55.631,-115.174 L -55.4998,-115.388 L -55.3368,-115.579 L -55.1459,-115.742 L -54.9318,-115.873 L -54.6998,-115.969
 L -54.4557,-116.027 L -54.2054,-116.047 L -53.9551,-116.027 L -53.711,-115.969 L -53.479,-115.873 L -53.2649,-115.742
 L -53.074,-115.579 L -52.911,-115.388 L -52.7798,-115.174 L -52.6837,-114.942 L -52.6251,-114.697 L -52.6054,-114.447
 L -52.6251,-114.197 L -52.6837,-113.953 L -52.7798,-113.721 L -52.911,-113.507 L -53.074,-113.316 L -53.2649,-113.153
 L -53.479,-113.022 L -53.711,-112.925 L -53.9551,-112.867 L -54.2054,-112.847 z
M 19.08,-106.12 L 19.08,-109.18 L 25.2,-109.18 L 25.2,-106.12 z
M 6.84,-106.12 L 6.84,-109.18 L 12.96,-109.18 L 12.96,-106.12 z
M -5.4,-106.12 L -5.4,-109.18 L 0.720005,-109.18 L 0.720005,-106.12 z
M -17.64,-106.12 L -17.64,-109.18 L -11.52,-109.18 L -11.52,-106.12 z
M -29.88,-106.12 L -29.88,-109.18 L -23.76,-109.18 L -23.76,-106.12 z
M -42.12,-106.12 L -42.12,-109.18 L -36,-109.18 L -36,-106.12 z
M 64.5,-109.86 L 70.62,-109.86 L 70.62,-106.8 L 76.74,-106.8 L 76.74,-109.86 L 82.86,-109.86
 L 82.86,-106.8 L 88.98,-106.8 L 88.98,-109.86 L 95.1,-109.86 L 95.1,-106.8 L 101.22,-106.8
 L 101.22,-109.86 L 107.34,-109.86 L 107.34,-106.8 L 113.46,-106.8 L 113.46,-109.86 L 119.58,-109.86
 L 119.58,-106.8 L 125.7,-106.8 L 125.7,-109.86 L 131.82,-109.86 L 131.82,-106.8 L 145.72,-106.8
 L 145.72,-120.54 L 142.66,-120.54 L 142.66,-126.66 L 145.72,-126.66 L 145.72,-140.4 L 131.82,-140.4
 L 131.82,-137.34 L 125.7,-137.34 L 125.7,-140.4 L 119.58,-140.4 L 119.58,-137.34 L 113.46,-137.34
 L 113.46,-140.4 L 107.34,-140.4 L 107.34,-137.34 L 101.22,-137.34 L 101.22,-140.4 L 95.1,-140.4
 L 95.1,-137.34 L 88.98,-137.34 L 88.98,-140.4 L 82.86,-140.4 L 82.86,-137.34 L 76.74,-137.34
 L 76.74,-140.4 L 70.62,-140.4 L 70.62,-137.34 L 64.5,-137.34 L 64.5,-140.4 L 50.6,-140.4
 L 50.6,-126.66 L 53.66,-126.66 L 53.66,-120.54 L 50.6,-120.54 L 50.6,-106.8 L 64.5,-106.8
 z
M 64.5,-74.26 L 70.62,-74.26 L 70.62,-71.2 L 76.74,-71.2 L 76.74,-74.26 L 82.86,-74.26
 L 82.86,-71.2 L 88.98,-71.2 L 88.98,-74.26 L 95.1,-74.26 L 95.1,-71.2 L 101.22,-71.2
 L 101.22,-74.26 L 107.34,-74.26 L 107.34,-71.2 L 113.46,-71.2 L 113.46,-74.26 L 119.58,-74.26
 L 119.58,-71.2 L 125.7,-71.2 L 125.7,-74.26 L 131.82,-74.26 L 131.82,-71.2 L 145.72,-71.2
 L 145.72,-84.94 L 142.66,-84.94 L 142.66,-91.06 L 145.72,-91.06 L 145.72,-104.8 L 131.82,-104.8
 L 131.82,-101.74 L 125.7,-101.74 L 125.7,-104.8 L 119.58,-104.8 L 119.58,-101.74 L 113.46,-101.74
 L 113.46,-104.8 L 107.34,-104.8 L 107.34,-101.74 L 101.22,-101.74 L 101.22,-104.8 L 95.1,-104.8
 L 95.1,-101.74 L 88.98,-101.74 L 88.98,-104.8 L 82.86,-104.8 L 82.86,-101.74 L 76.74,-101.74
 L 76.74,-104.8 L 70.62,-104.8 L 70.62,-101.74 L 64.5,-101.74 L 64.5,-104.8 L 50.6,-104.8
 L 50.6,-91.06 L 53.66,-91.06 L 53.66,-84.94 L 50.6,-84.94 L 50.6,-71.2 L 64.5,-71.2
 z
M 67.56,-84.1 L 67.56,-92.3 L 75.76,-92.3 L 75.76,-84.1 z
M 78.56,-84.1 L 78.56,-92.3 L 86.76,-92.3 L 86.76,-84.1 z
M 89.56,-84.1 L 89.56,-92.3 L 97.76,-92.3 L 97.76,-84.1 z
M 101.56,-84.1 L 101.56,-92.3 L 109.76,-92.3 L 109.76,-84.1 z
M 48.5999,-101.12 L -65.52,-101.12 L -65.52,-0 L 48.5999,-0 z
M -62.52,-84.22 L -62.52,-98.12 L -48.24,-98.12 L -48.24,-95.06 L -59.46,-95.06 L -59.46,-84.22
 z
M -42.12,-95.06 L -42.12,-98.12 L -36,-98.12 L -36,-95.06 z
M -5.4,-95.06 L -5.4,-98.12 L 0.71999,-98.12 L 0.71999,-95.06 z
M -29.88,-95.06 L -29.88,-98.12 L -23.76,-98.12 L -23.76,-95.06 z
M -17.64,-95.06 L -17.64,-98.12 L -11.52,-98.12 L -11.52,-95.06 z
M 42.54,-84.22 L 42.54,-95.06 L 31.32,-95.06 L 31.32,-98.12 L 45.6,-98.12 L 45.6,-84.22
 z
M 19.08,-95.06 L 19.08,-98.12 L 25.2,-98.12 L 25.2,-95.06 z
M 6.83999,-95.06 L 6.83999,-98.12 L 12.96,-98.12 L 12.96,-95.06 z
M 37.0351,-88.2329 L 36.791,-88.2915 L 36.559,-88.3876 L 36.3449,-88.5188 L 36.154,-88.6818 L 35.991,-88.8727
 L 35.8598,-89.0868 L 35.7637,-89.3188 L 35.7051,-89.5629 L 35.6854,-89.8132 L 35.7051,-90.0635 L 35.7637,-90.3076
 L 35.8598,-90.5396 L 35.991,-90.7536 L 36.154,-90.9446 L 36.3449,-91.1076 L 36.559,-91.2388 L 36.791,-91.3349
 L 37.0351,-91.3935 L 37.2854,-91.4132 L 37.5357,-91.3935 L 37.7798,-91.3349 L 38.0118,-91.2388 L 38.2258,-91.1076
 L 38.4168,-90.9446 L 38.5798,-90.7536 L 38.711,-90.5396 L 38.8071,-90.3076 L 38.8657,-90.0635 L 38.8854,-89.8132
 L 38.8657,-89.5629 L 38.8071,-89.3188 L 38.711,-89.0868 L 38.5798,-88.8727 L 38.4168,-88.6818 L 38.2258,-88.5188
 L 38.0118,-88.3876 L 37.7798,-88.2915 L 37.5357,-88.2329 L 37.2854,-88.2132 z
M -54.4049,-88.2329 L -54.649,-88.2915 L -54.881,-88.3876 L -55.0951,-88.5188 L -55.286,-88.6818 L -55.449,-88.8727
 L -55.5802,-89.0868 L -55.6763,-89.3188 L -55.7349,-89.5629 L -55.7546,-89.8132 L -55.7349,-90.0635 L -55.6763,-90.3076
 L -55.5802,-90.5396 L -55.449,-90.7536 L -55.286,-90.9446 L -55.0951,-91.1076 L -54.881,-91.2388 L -54.649,-91.3349
 L -54.4049,-91.3935 L -54.1546,-91.4132 L -53.9043,-91.3935 L -53.6602,-91.3349 L -53.4282,-91.2388 L -53.2142,-91.1076
 L -53.0232,-90.9446 L -52.8602,-90.7536 L -52.729,-90.5396 L -52.6329,-90.3076 L -52.5743,-90.0635 L -52.5546,-89.8132
 L -52.5743,-89.5629 L -52.6329,-89.3188 L -52.729,-89.0868 L -52.8602,-88.8727 L -53.0232,-88.6818 L -53.2142,-88.5188
 L -53.4282,-88.3876 L -53.6602,-88.2915 L -53.9043,-88.2329 L -54.1546,-88.2132 z
M 42.54,-71.98 L 42.54,-78.1 L 45.6,-78.1 L 45.6,-71.98 z
M -62.52,-71.98 L -62.52,-78.1 L -59.46,-78.1 L -59.46,-71.98 z
M 42.54,-59.74 L 42.54,-65.86 L 45.6,-65.86 L 45.6,-59.74 z
M -62.52,-59.74 L -62.52,-65.86 L -59.46,-65.86 L -59.46,-59.74 z
M 42.54,-47.5 L 42.54,-53.62 L 45.6,-53.62 L 45.6,-47.5 z
M -62.52,-47.5 L -62.52,-53.62 L -59.46,-53.62 L -59.46,-47.5 z
M 42.54,-35.26 L 42.54,-41.38 L 45.6,-41.38 L 45.6,-35.26 z
M -62.52,-35.26 L -62.52,-41.38 L -59.46,-41.38 L -59.46,-35.26 z
M -62.52,-23.02 L -62.52,-29.14 L -59.46,-29.14 L -59.46,-23.02 z
M 42.54,-23.02 L 42.54,-29.14 L 45.6,-29.14 L 45.6,-23.02 z
M 31.32,-3 L 31.32,-6.06 L 42.54,-6.06 L 42.54,-16.9 L 45.6,-16.9 L 45.6,-3
 z
M -62.52,-3 L -62.52,-16.9 L -59.46,-16.9 L -59.46,-6.06 L -48.24,-6.06 L -48.24,-3
 z
M -54.4049,-9.74689 L -54.649,-9.8055 L -54.881,-9.90158 L -55.0951,-10.0328 L -55.286,-10.1958 L -55.449,-10.3867
 L -55.5802,-10.6008 L -55.6763,-10.8328 L -55.7349,-11.0769 L -55.7546,-11.3272 L -55.7349,-11.5775 L -55.6763,-11.8216
 L -55.5802,-12.0536 L -55.449,-12.2677 L -55.286,-12.4586 L -55.0951,-12.6216 L -54.881,-12.7528 L -54.649,-12.8489
 L -54.4049,-12.9075 L -54.1546,-12.9272 L -53.9043,-12.9075 L -53.6602,-12.8489 L -53.4282,-12.7528 L -53.2142,-12.6216
 L -53.0232,-12.4586 L -52.8602,-12.2677 L -52.729,-12.0536 L -52.6329,-11.8216 L -52.5743,-11.5775 L -52.5546,-11.3272
 L -52.5743,-11.0769 L -52.6329,-10.8328 L -52.729,-10.6008 L -52.8602,-10.3867 L -53.0232,-10.1958 L -53.2142,-10.0328
 L -53.4282,-9.90158 L -53.6602,-9.8055 L -53.9043,-9.74689 L -54.1546,-9.72719 z
M 37.0351,-9.74689 L 36.791,-9.8055 L 36.559,-9.90158 L 36.3449,-10.0328 L 36.154,-10.1958 L 35.991,-10.3867
 L 35.8598,-10.6008 L 35.7637,-10.8328 L 35.7051,-11.0769 L 35.6854,-11.3272 L 35.7051,-11.5775 L 35.7637,-11.8216
 L 35.8598,-12.0536 L 35.991,-12.2677 L 36.154,-12.4586 L 36.3449,-12.6216 L 36.559,-12.7528 L 36.791,-12.8489
 L 37.0351,-12.9075 L 37.2854,-12.9272 L 37.5357,-12.9075 L 37.7798,-12.8489 L 38.0118,-12.7528 L 38.2258,-12.6216
 L 38.4168,-12.4586 L 38.5798,-12.2677 L 38.711,-12.0536 L 38.8071,-11.8216 L 38.8657,-11.5775 L 38.8854,-11.3272
 L 38.8657,-11.0769 L 38.8071,-10.8328 L 38.711,-10.6008 L 38.5798,-10.3867 L 38.4168,-10.1958 L 38.2258,-10.0328
 L 38.0118,-9.90158 L 37.7798,-9.8055 L 37.5357,-9.74689 L 37.2854,-9.72719 z
M -42.12,-3 L -42.12,-6.06 L -36,-6.06 L -36,-3 z
M -29.88,-3 L -29.88,-6.06 L -23.76,-6.06 L -23.76,-3 z
M -17.64,-3 L -17.64,-6.06 L -11.52,-6.06 L -11.52,-3 z
M -5.4,-3 L -5.4,-6.06 L 0.720005,-6.06 L 0.720005,-3 z
M 6.84,-3 L 6.84,-6.06 L 12.96,-6.06 L 12.96,-3 z
M 19.08,-3 L 19.08,-6.06 L 25.2,-6.06 L 25.2,-3 z
M 64.88,-38.66 L 71,-38.66 L 71,-35.6 L 77.12,-35.6 L 77.12,-38.66 L 83.24,-38.66
 L 83.24,-35.6 L 89.36,-35.6 L 89.36,-38.66 L 95.48,-38.66 L 95.48,-35.6 L 101.6,-35.6
 L 101.6,-38.66 L 107.72,-38.66 L 107.72,-35.6 L 113.84,-35.6 L 113.84,-38.66 L 119.96,-38.66
 L 119.96,-35.6 L 126.08,-35.6 L 126.08,-38.66 L 132.2,-38.66 L 132.2,-35.6 L 138.32,-35.6
 L 138.32,-38.66 L 144.44,-38.66 L 144.44,-35.6 L 155.66,-35.6 L 155.66,-49.34 L 158.72,-49.34
 L 158.72,-55.46 L 155.66,-55.46 L 155.66,-69.1999 L 144.44,-69.1999 L 144.44,-66.14 L 138.32,-66.14
 L 138.32,-69.1999 L 132.2,-69.1999 L 132.2,-66.14 L 126.08,-66.14 L 126.08,-69.1999 L 119.96,-69.1999
 L 119.96,-66.14 L 113.84,-66.14 L 113.84,-69.1999 L 107.72,-69.1999 L 107.72,-66.14 L 101.6,-66.14
 L 101.6,-69.1999 L 95.48,-69.1999 L 95.48,-66.14 L 89.36,-66.14 L 89.36,-69.1999 L 83.24,-69.1999
 L 83.24,-66.14 L 77.12,-66.14 L 77.12,-69.1999 L 71,-69.1999 L 71,-66.14 L 64.88,-66.14
 L 64.88,-69.1999 L 53.66,-69.1999 L 53.66,-55.46 L 50.6,-55.46 L 50.6,-49.34 L 53.66,-49.34
 L 53.66,-35.6 L 64.88,-35.6 z
M 64.88,-3.06 L 71,-3.06 L 71,-0 L 77.12,-0 L 77.12,-3.06 L 83.24,-3.06
 L 83.24,-0 L 89.36,-0 L 89.36,-3.06 L 95.48,-3.06 L 95.48,-0 L 101.6,-0
 L 101.6,-3.06 L 107.72,-3.06 L 107.72,-0 L 113.84,-0 L 113.84,-3.06 L 119.96,-3.06
 L 119.96,-0 L 126.08,-0 L 126.08,-3.06 L 132.2,-3.06 L 132.2,-0 L 138.32,-0
 L 138.32,-3.06 L 144.44,-3.06 L 144.44,-0 L 155.66,-0 L 155.66,-13.74 L 158.72,-13.74
 L 158.72,-19.86 L 155.66,-19.86 L 155.66,-33.5999 L 144.44,-33.5999 L 144.44,-30.54 L 138.32,-30.54
 L 138.32,-33.5999 L 132.2,-33.5999 L 132.2,-30.54 L 126.08,-30.54 L 126.08,-33.5999 L 119.96,-33.5999
 L 119.96,-30.54 L 113.84,-30.54 L 113.84,-33.5999 L 107.72,-33.5999 L 107.72,-30.54 L 101.6,-30.54
 L 101.6,-33.5999 L 95.48,-33.5999 L 95.48,-30.54 L 89.36,-30.54 L 89.36,-33.5999 L 83.24,-33.5999
 L 83.24,-30.54 L 77.12,-30.54 L 77.12,-33.5999 L 71,-33.5999 L 71,-30.54 L 64.88,-30.54
 L 64.88,-33.5999 L 53.66,-33.5999 L 53.66,-19.86 L 50.6,-19.86 L 50.6,-13.74 L 53.66,-13.74
 L 53.66,-0 L 64.88,-0 z
M 77.0608,-6 L 77.0608,-22.5 L 91.0608,-22.5 L 91.0608,-6 z
M 63.5794,-13 L 63.5794,-22.5 L 75.1794,-22.5 L 75.1794,-13 z
M 98.5885,-15.0431 L 98.0544,-15.1713 L 97.547,-15.3815 L 97.0787,-15.6684 L 96.6611,-16.0251 L 96.3044,-16.4427
 L 96.0175,-16.911 L 95.8073,-17.4184 L 95.6791,-17.9525 L 95.636,-18.5 L 95.6791,-19.0475 L 95.8073,-19.5816
 L 96.0175,-20.089 L 96.3044,-20.5572 L 96.6611,-20.9749 L 97.0787,-21.3316 L 97.547,-21.6185 L 98.0544,-21.8287
 L 98.5885,-21.9569 L 99.136,-22 L 99.6835,-21.9569 L 100.218,-21.8287 L 100.725,-21.6185 L 101.193,-21.3316
 L 101.611,-20.9749 L 101.968,-20.5572 L 102.255,-20.089 L 102.465,-19.5816 L 102.593,-19.0475 L 102.636,-18.5
 L 102.593,-17.9525 L 102.465,-17.4184 L 102.255,-16.911 L 101.968,-16.4427 L 101.611,-16.0251 L 101.193,-15.6684
 L 100.725,-15.3815 L 100.218,-15.1713 L 99.6835,-15.0431 L 99.136,-15 z
M 112.837,-15.0431 L 112.303,-15.1713 L 111.796,-15.3815 L 111.328,-15.6684 L 110.91,-16.0251 L 110.553,-16.4427
 L 110.266,-16.911 L 110.056,-17.4184 L 109.928,-17.9525 L 109.885,-18.5 L 109.928,-19.0475 L 110.056,-19.5816
 L 110.266,-20.089 L 110.553,-20.5572 L 110.91,-20.9749 L 111.328,-21.3316 L 111.796,-21.6185 L 112.303,-21.8287
 L 112.837,-21.9569 L 113.385,-22 L 113.933,-21.9569 L 114.467,-21.8287 L 114.974,-21.6185 L 115.442,-21.3316
 L 115.86,-20.9749 L 116.217,-20.5572 L 116.504,-20.089 L 116.714,-19.5816 L 116.842,-19.0475 L 116.885,-18.5
 L 116.842,-17.9525 L 116.714,-17.4184 L 116.504,-16.911 L 116.217,-16.4427 L 115.86,-16.0251 L 115.442,-15.6684
 L 114.974,-15.3815 L 114.467,-15.1713 L 113.933,-15.0431 L 113.385,-15 z
" stroke="black" fill="lightgray" stroke-width="0.5"/>
</svg>
