%TF.GenerationSoftware,KiCad,Pcbnew,(6.0.2)*%
%TF.CreationDate,2022-04-26T20:30:59-05:00*%
%TF.ProjectId,pHMeter,70484d65-7465-4722-9e6b-696361645f70,1.0*%
%TF.SameCoordinates,Original*%
%TF.FileFunction,Soldermask,Bot*%
%TF.FilePolarity,Negative*%
%FSLAX46Y46*%
G04 Gerber Fmt 4.6, Leading zero omitted, Abs format (unit mm)*
G04 Created by KiCad (PCBNEW (6.0.2)) date 2022-04-26 20:30:59*
%MOMM*%
%LPD*%
G01*
G04 APERTURE LIST*
G04 Aperture macros list*
%AMRoundRect*
0 Rectangle with rounded corners*
0 $1 Rounding radius*
0 $2 $3 $4 $5 $6 $7 $8 $9 X,Y pos of 4 corners*
0 Add a 4 corners polygon primitive as box body*
4,1,4,$2,$3,$4,$5,$6,$7,$8,$9,$2,$3,0*
0 Add four circle primitives for the rounded corners*
1,1,$1+$1,$2,$3*
1,1,$1+$1,$4,$5*
1,1,$1+$1,$6,$7*
1,1,$1+$1,$8,$9*
0 Add four rect primitives between the rounded corners*
20,1,$1+$1,$2,$3,$4,$5,0*
20,1,$1+$1,$4,$5,$6,$7,0*
20,1,$1+$1,$6,$7,$8,$9,0*
20,1,$1+$1,$8,$9,$2,$3,0*%
G04 Aperture macros list end*
%ADD10C,3.656000*%
%ADD11C,3.910000*%
%ADD12C,1.100000*%
%ADD13C,3.300000*%
%ADD14C,2.513000*%
%ADD15C,1.497000*%
%ADD16O,2.300000X4.100000*%
%ADD17O,4.100000X2.300000*%
%ADD18RoundRect,0.050000X1.100000X-2.000000X1.100000X2.000000X-1.100000X2.000000X-1.100000X-2.000000X0*%
%ADD19RoundRect,0.050000X0.850000X-0.850000X0.850000X0.850000X-0.850000X0.850000X-0.850000X-0.850000X0*%
%ADD20O,1.800000X1.800000*%
%ADD21C,1.090600*%
%ADD22RoundRect,0.300000X-0.620000X-0.845000X0.620000X-0.845000X0.620000X0.845000X-0.620000X0.845000X0*%
%ADD23O,1.840000X2.290000*%
%ADD24C,3.100000*%
%ADD25RoundRect,0.050000X0.900000X1.300000X-0.900000X1.300000X-0.900000X-1.300000X0.900000X-1.300000X0*%
%ADD26O,1.900000X2.700000*%
%ADD27RoundRect,0.050000X-1.000000X-1.000000X1.000000X-1.000000X1.000000X1.000000X-1.000000X1.000000X0*%
%ADD28C,2.100000*%
%ADD29RoundRect,0.050000X-1.600000X-1.000000X1.600000X-1.000000X1.600000X1.000000X-1.600000X1.000000X0*%
%ADD30C,1.850000*%
G04 APERTURE END LIST*
D10*
%TO.C,J3*%
X57302600Y-95923200D03*
D11*
X60477600Y-92748200D03*
X54127600Y-92748200D03*
X54127600Y-99098200D03*
X60477600Y-99098200D03*
%TD*%
D12*
%TO.C,X1*%
X137480600Y-132245200D03*
X133080600Y-132245200D03*
%TD*%
D13*
%TO.C,H3*%
X54254600Y-54267200D03*
%TD*%
%TO.C,H4*%
X145694600Y-54267200D03*
%TD*%
D14*
%TO.C,J5*%
X114596602Y-132511200D03*
X126596600Y-132511200D03*
D15*
X123596600Y-126911200D03*
X122396600Y-129451200D03*
X121196600Y-126911200D03*
X119996600Y-129451200D03*
X118796599Y-126911200D03*
X117596599Y-129451200D03*
%TD*%
D16*
%TO.C,J4*%
X100334600Y-126875200D03*
X103034600Y-128075200D03*
D17*
X105534600Y-134875200D03*
D18*
X110134600Y-130975200D03*
D17*
X109634600Y-123675200D03*
%TD*%
D13*
%TO.C,H2*%
X145694600Y-132753200D03*
%TD*%
D19*
%TO.C,JP2*%
X99441000Y-101981000D03*
D20*
X101981000Y-101981000D03*
%TD*%
D21*
%TO.C,J1*%
X131724600Y-83096200D03*
X136804600Y-82080200D03*
X131724600Y-81064200D03*
%TD*%
D19*
%TO.C,JP1*%
X99441000Y-96393000D03*
D20*
X101981000Y-96393000D03*
%TD*%
D22*
%TO.C,JP3*%
X90576600Y-79667200D03*
D23*
X93116600Y-79667200D03*
%TD*%
D22*
%TO.C,JP4*%
X90576600Y-67221200D03*
D23*
X93116600Y-67221200D03*
%TD*%
D22*
%TO.C,JP6*%
X103276600Y-67475200D03*
D23*
X105816600Y-67475200D03*
%TD*%
D22*
%TO.C,JP7*%
X103276600Y-79667200D03*
D23*
X105816600Y-79667200D03*
%TD*%
D22*
%TO.C,JP5*%
X121818600Y-111417200D03*
D23*
X124358600Y-111417200D03*
%TD*%
D13*
%TO.C,H1*%
X54254600Y-132753200D03*
%TD*%
D10*
%TO.C,J2*%
X57302600Y-112687200D03*
D11*
X60477600Y-109512200D03*
X54127600Y-109512200D03*
X60477600Y-115862200D03*
X54127600Y-115862200D03*
%TD*%
D16*
%TO.C,J6*%
X85958000Y-126964000D03*
X88658000Y-128164000D03*
D17*
X91158000Y-134964000D03*
D18*
X95758000Y-131064000D03*
D17*
X95258000Y-123764000D03*
%TD*%
D24*
%TO.C,DS1*%
X62733120Y-85267900D03*
X137731700Y-85267900D03*
X137731700Y-54267200D03*
X62732600Y-54267200D03*
D25*
X132232600Y-54267200D03*
D26*
X129692600Y-54267200D03*
X127152600Y-54267200D03*
X124612600Y-54267200D03*
X122072600Y-54267200D03*
X119532600Y-54267200D03*
X116992600Y-54267200D03*
X114452600Y-54267200D03*
X111912600Y-54267200D03*
X109372600Y-54267200D03*
X106832600Y-54267200D03*
X104292600Y-54267200D03*
X101752600Y-54267200D03*
X99212600Y-54267200D03*
X96672600Y-54267200D03*
X94132600Y-54267200D03*
%TD*%
D27*
%TO.C,SW1*%
X61620600Y-130467200D03*
D28*
X61620600Y-125467200D03*
X61620600Y-127967200D03*
D29*
X69120600Y-122367200D03*
X69120600Y-133567200D03*
D28*
X76120600Y-125467200D03*
X76120600Y-130467200D03*
%TD*%
D30*
%TO.C,RV1*%
X144297600Y-90081200D03*
X141757600Y-92621200D03*
X144297600Y-95161200D03*
%TD*%
M02*
