M48
; DRILL file {KiCad 5.1.6-c6e7f7d~87~ubuntu18.04.1} date Thu Jul 30 09:42:12 2020
; FORMAT={-:-/ absolute / inch / decimal}
; #@! TF.CreationDate,2020-07-30T09:42:12-05:00
; #@! TF.GenerationSoftware,Kicad,Pcbnew,5.1.6-c6e7f7d~87~ubuntu18.04.1
; #@! TF.FileFunction,Plated,1,2,PTH
FMAT,2
INCH
T1C0.0157
T2C0.0315
T3C0.0350
T4C0.0394
T5C0.0469
T6C0.0472
T7C0.0500
T8C0.0512
T9C0.0591
T10C0.0600
T11C0.0984
%
G90
G05
T1
X7.136Y-3.279
X7.28Y-5.44
X7.73Y-3.383
X7.74Y-3.97
X7.741Y-2.961
X7.751Y-4.203
X7.88Y-4.25
X7.89Y-4.15
X7.948Y-3.483
X7.95Y-3.93
X8.038Y-4.156
X8.07Y-4.26
X8.115Y-3.815
X8.115Y-4.055
X8.176Y-2.933
X8.275Y-2.938
X8.325Y-2.972
X8.4191Y-3.7299
X8.4394Y-5.0796
X8.471Y-3.313
X8.5266Y-3.8374
X8.67Y-4.613
X8.977Y-5.08
X8.9848Y-3.0548
X9.257Y-3.84
X9.417Y-3.283
X9.51Y-2.938
X9.51Y-3.03
X9.5913Y-5.2293
X9.6Y-3.47
X9.64Y-3.44
X9.64Y-4.67
X9.78Y-4.99
X9.81Y-2.99
X9.89Y-4.66
X9.921Y-3.499
X9.956Y-3.162
X9.96Y-3.52
X9.98Y-5.17
X9.99Y-2.85
X10.017Y-3.7
X10.026Y-3.531
X10.043Y-3.088
X10.06Y-4.48
X10.083Y-3.297
X10.1Y-4.66
X10.13Y-3.3
X10.18Y-3.58
X10.183Y-2.98
X10.19Y-2.69
X10.227Y-3.159
X10.228Y-3.843
X10.24Y-3.27
X10.26Y-2.69
X10.284Y-3.421
X10.29Y-3.03
X10.29Y-3.47
X10.31Y-4.71
X10.345Y-3.371
X10.36Y-5.245
X10.366Y-4.433
X10.37Y-4.21
X10.38Y-3.61
X10.39Y-3.38
X10.399Y-4.711
X10.4Y-2.93
X10.404Y-3.784
X10.43Y-3.41
X10.43Y-3.537
X10.43Y-4.08
X10.45Y-5.245
X10.47Y-2.93
X10.539Y-4.981
X10.58Y-3.39
X10.58Y-3.511
X10.612Y-3.588
X10.62Y-2.83
X10.63Y-2.88
X10.65Y-3.86
X10.79Y-4.51
T2
X10.67Y-4.11
X10.77Y-4.01
X10.77Y-4.21
T3
X9.7238Y-5.55
X9.771Y-5.45
X9.8183Y-5.55
X9.8655Y-5.45
X9.9128Y-5.55
X9.96Y-5.45
T4
X7.52Y-5.3931
X7.52Y-5.4916
X7.52Y-5.59
X8.0909Y-5.3931
X8.0909Y-5.59
X8.89Y-4.25
X8.99Y-4.25
X8.89Y-4.47
X8.99Y-4.47
T5
X8.66Y-3.59
X8.76Y-3.59
X9.16Y-3.59
X9.26Y-3.59
X8.66Y-3.1
X8.76Y-3.1
X9.89Y-4.84
X9.99Y-4.84
X9.16Y-3.11
X9.26Y-3.11
T6
X8.8Y-2.59
X8.9Y-2.59
X9.0Y-2.59
X9.1Y-2.59
X9.2Y-2.59
X9.3Y-2.59
X9.4Y-2.59
X9.5Y-2.59
X9.6Y-2.59
X9.7Y-2.59
X9.8Y-2.59
X9.9Y-2.59
X10.0Y-2.59
X10.1Y-2.59
X10.2Y-2.59
X10.3Y-2.59
T7
X7.35Y-4.89
X7.35Y-4.23
T8
X9.0442Y-5.4486
X9.1505Y-5.4958
X9.2489Y-5.7635
X9.4103Y-5.3226
X9.43Y-5.61
X8.4839Y-5.4486
X8.5902Y-5.4958
X8.6886Y-5.7635
X8.85Y-5.3226
X8.8697Y-5.61
T10
X7.225Y-4.765
X7.225Y-5.015
X7.475Y-4.765
X7.475Y-5.015
X7.225Y-4.105
X7.225Y-4.355
X7.475Y-4.105
X7.475Y-4.355
T11
X7.5638Y-2.59
X7.5638Y-3.8105
X10.5165Y-2.59
X10.5165Y-3.8105
T9
G00X7.7897Y-5.2711
M15
G01X7.8409Y-5.2711
M16
G05
G00X7.7897Y-5.712
M15
G01X7.8409Y-5.712
M16
G05
T0
M30
