%TF.GenerationSoftware,KiCad,Pcbnew,(6.0.2)*%
%TF.CreationDate,2022-07-25T16:54:15-05:00*%
%TF.ProjectId,pHMeter,70484d65-7465-4722-9e6b-696361645f70,1.0*%
%TF.SameCoordinates,Original*%
%TF.FileFunction,Soldermask,Top*%
%TF.FilePolarity,Negative*%
%FSLAX46Y46*%
G04 Gerber Fmt 4.6, Leading zero omitted, Abs format (unit mm)*
G04 Created by KiCad (PCBNEW (6.0.2)) date 2022-07-25 16:54:15*
%MOMM*%
%LPD*%
G01*
G04 APERTURE LIST*
G04 Aperture macros list*
%AMRoundRect*
0 Rectangle with rounded corners*
0 $1 Rounding radius*
0 $2 $3 $4 $5 $6 $7 $8 $9 X,Y pos of 4 corners*
0 Add a 4 corners polygon primitive as box body*
4,1,4,$2,$3,$4,$5,$6,$7,$8,$9,$2,$3,0*
0 Add four circle primitives for the rounded corners*
1,1,$1+$1,$2,$3*
1,1,$1+$1,$4,$5*
1,1,$1+$1,$6,$7*
1,1,$1+$1,$8,$9*
0 Add four rect primitives between the rounded corners*
20,1,$1+$1,$2,$3,$4,$5,0*
20,1,$1+$1,$4,$5,$6,$7,0*
20,1,$1+$1,$6,$7,$8,$9,0*
20,1,$1+$1,$8,$9,$2,$3,0*%
%AMFreePoly0*
4,1,37,0.535355,0.785355,0.550000,0.750000,0.550000,-0.750000,0.535355,-0.785355,0.500000,-0.800000,0.000000,-0.800000,-0.012524,-0.794812,-0.080857,-0.793560,-0.094851,-0.791293,-0.230166,-0.749018,-0.242962,-0.742915,-0.360972,-0.664360,-0.371540,-0.654911,-0.462760,-0.546392,-0.470252,-0.534356,-0.527347,-0.404597,-0.531159,-0.390943,-0.548742,-0.256483,-0.547388,-0.256306,-0.550000,-0.250000,
-0.550000,0.250000,-0.549522,0.251153,-0.549368,0.263802,-0.527557,0.403879,-0.523412,0.417435,-0.463164,0.545760,-0.455381,0.557609,-0.361537,0.663867,-0.350741,0.673055,-0.230846,0.748703,-0.217905,0.754492,-0.081598,0.793449,-0.067552,0.795373,-0.011991,0.795033,0.000000,0.800000,0.500000,0.800000,0.535355,0.785355,0.535355,0.785355,$1*%
%AMFreePoly1*
4,1,37,0.012350,0.794884,0.074210,0.794507,0.088231,0.792412,0.224052,0.751793,0.236921,0.745846,0.355883,0.668739,0.366566,0.659420,0.459104,0.552023,0.466742,0.540080,0.525419,0.411028,0.529398,0.397421,0.549495,0.257088,0.550000,0.250000,0.550000,-0.250000,0.549996,-0.250610,0.549847,-0.262826,0.549158,-0.270511,0.525638,-0.410312,0.521328,-0.423818,0.459516,-0.551397,
0.451589,-0.563150,0.356454,-0.668254,0.345546,-0.677309,0.224736,-0.751486,0.211726,-0.757116,0.074953,-0.794405,0.060885,-0.796158,0.011462,-0.795252,0.000000,-0.800000,-0.500000,-0.800000,-0.535355,-0.785355,-0.550000,-0.750000,-0.550000,0.750000,-0.535355,0.785355,-0.500000,0.800000,0.000000,0.800000,0.012350,0.794884,0.012350,0.794884,$1*%
G04 Aperture macros list end*
%ADD10RoundRect,0.300000X-0.450000X0.350000X-0.450000X-0.350000X0.450000X-0.350000X0.450000X0.350000X0*%
%ADD11RoundRect,0.300000X-0.450000X0.325000X-0.450000X-0.325000X0.450000X-0.325000X0.450000X0.325000X0*%
%ADD12RoundRect,0.300000X-0.350000X-0.450000X0.350000X-0.450000X0.350000X0.450000X-0.350000X0.450000X0*%
%ADD13RoundRect,0.050000X-1.100000X0.912500X-1.100000X-0.912500X1.100000X-0.912500X1.100000X0.912500X0*%
%ADD14RoundRect,0.300000X0.450000X-0.325000X0.450000X0.325000X-0.450000X0.325000X-0.450000X-0.325000X0*%
%ADD15RoundRect,0.300000X0.337500X0.475000X-0.337500X0.475000X-0.337500X-0.475000X0.337500X-0.475000X0*%
%ADD16RoundRect,0.200000X0.150000X-0.512500X0.150000X0.512500X-0.150000X0.512500X-0.150000X-0.512500X0*%
%ADD17RoundRect,0.050000X0.600000X-0.450000X0.600000X0.450000X-0.600000X0.450000X-0.600000X-0.450000X0*%
%ADD18RoundRect,0.300000X-0.475000X0.337500X-0.475000X-0.337500X0.475000X-0.337500X0.475000X0.337500X0*%
%ADD19RoundRect,0.050000X0.450000X0.600000X-0.450000X0.600000X-0.450000X-0.600000X0.450000X-0.600000X0*%
%ADD20RoundRect,0.300000X-0.325000X-0.450000X0.325000X-0.450000X0.325000X0.450000X-0.325000X0.450000X0*%
%ADD21C,1.100000*%
%ADD22RoundRect,0.050000X-0.250000X-1.000000X0.250000X-1.000000X0.250000X1.000000X-0.250000X1.000000X0*%
%ADD23RoundRect,0.050000X-1.000000X-0.850000X1.000000X-0.850000X1.000000X0.850000X-1.000000X0.850000X0*%
%ADD24RoundRect,0.300000X0.325000X0.450000X-0.325000X0.450000X-0.325000X-0.450000X0.325000X-0.450000X0*%
%ADD25RoundRect,0.200000X-0.150000X0.587500X-0.150000X-0.587500X0.150000X-0.587500X0.150000X0.587500X0*%
%ADD26RoundRect,0.300000X0.350000X0.450000X-0.350000X0.450000X-0.350000X-0.450000X0.350000X-0.450000X0*%
%ADD27C,3.300000*%
%ADD28C,2.513000*%
%ADD29C,1.497000*%
%ADD30O,2.300000X4.100000*%
%ADD31O,4.100000X2.300000*%
%ADD32RoundRect,0.050000X1.100000X-2.000000X1.100000X2.000000X-1.100000X2.000000X-1.100000X-2.000000X0*%
%ADD33RoundRect,0.300000X-0.337500X-0.475000X0.337500X-0.475000X0.337500X0.475000X-0.337500X0.475000X0*%
%ADD34RoundRect,0.050000X0.850000X-0.850000X0.850000X0.850000X-0.850000X0.850000X-0.850000X-0.850000X0*%
%ADD35O,1.800000X1.800000*%
%ADD36C,1.090600*%
%ADD37C,0.887400*%
%ADD38FreePoly0,90.000000*%
%ADD39FreePoly1,90.000000*%
%ADD40RoundRect,0.050000X-1.250000X1.662500X-1.250000X-1.662500X1.250000X-1.662500X1.250000X1.662500X0*%
%ADD41RoundRect,0.050000X0.275000X-0.750000X0.275000X0.750000X-0.275000X0.750000X-0.275000X-0.750000X0*%
%ADD42RoundRect,0.050000X0.750000X0.275000X-0.750000X0.275000X-0.750000X-0.275000X0.750000X-0.275000X0*%
%ADD43RoundRect,0.300000X0.450000X-0.350000X0.450000X0.350000X-0.450000X0.350000X-0.450000X-0.350000X0*%
%ADD44FreePoly0,270.000000*%
%ADD45FreePoly1,270.000000*%
%ADD46RoundRect,0.300000X0.475000X-0.337500X0.475000X0.337500X-0.475000X0.337500X-0.475000X-0.337500X0*%
%ADD47RoundRect,0.050000X-0.850000X-0.325000X0.850000X-0.325000X0.850000X0.325000X-0.850000X0.325000X0*%
%ADD48RoundRect,0.200000X0.150000X-0.825000X0.150000X0.825000X-0.150000X0.825000X-0.150000X-0.825000X0*%
%ADD49RoundRect,0.150000X0.637500X0.100000X-0.637500X0.100000X-0.637500X-0.100000X0.637500X-0.100000X0*%
%ADD50FreePoly0,180.000000*%
%ADD51FreePoly1,180.000000*%
%ADD52RoundRect,0.300000X-0.620000X-0.845000X0.620000X-0.845000X0.620000X0.845000X-0.620000X0.845000X0*%
%ADD53O,1.840000X2.290000*%
%ADD54RoundRect,0.200000X-0.587500X-0.150000X0.587500X-0.150000X0.587500X0.150000X-0.587500X0.150000X0*%
%ADD55RoundRect,0.200000X0.150000X-0.587500X0.150000X0.587500X-0.150000X0.587500X-0.150000X-0.587500X0*%
%ADD56RoundRect,0.200000X-0.512500X-0.150000X0.512500X-0.150000X0.512500X0.150000X-0.512500X0.150000X0*%
%ADD57RoundRect,0.300000X-1.000000X1.500000X-1.000000X-1.500000X1.000000X-1.500000X1.000000X1.500000X0*%
%ADD58RoundRect,0.300000X-1.500000X-1.000000X1.500000X-1.000000X1.500000X1.000000X-1.500000X1.000000X0*%
%ADD59RoundRect,0.150000X-0.637500X-0.100000X0.637500X-0.100000X0.637500X0.100000X-0.637500X0.100000X0*%
%ADD60RoundRect,0.050000X-0.727449X-0.279000X0.727449X-0.279000X0.727449X0.279000X-0.727449X0.279000X0*%
%ADD61RoundRect,0.050000X-0.600000X0.450000X-0.600000X-0.450000X0.600000X-0.450000X0.600000X0.450000X0*%
%ADD62C,3.656000*%
%ADD63C,3.910000*%
%ADD64C,3.100000*%
%ADD65RoundRect,0.050000X0.900000X1.300000X-0.900000X1.300000X-0.900000X-1.300000X0.900000X-1.300000X0*%
%ADD66O,1.900000X2.700000*%
%ADD67RoundRect,0.050000X-1.000000X-1.000000X1.000000X-1.000000X1.000000X1.000000X-1.000000X1.000000X0*%
%ADD68C,2.100000*%
%ADD69RoundRect,0.050000X-1.600000X-1.000000X1.600000X-1.000000X1.600000X1.000000X-1.600000X1.000000X0*%
%ADD70C,1.850000*%
G04 APERTURE END LIST*
D10*
%TO.C,R39*%
X120548600Y-99740200D03*
X120548600Y-101740200D03*
%TD*%
D11*
%TO.C,R40*%
X106705600Y-99707800D03*
X106705600Y-101757800D03*
%TD*%
D12*
%TO.C,R3*%
X62389600Y-79159200D03*
X64389600Y-79159200D03*
%TD*%
D13*
%TO.C,L2*%
X109880600Y-93111700D03*
X109880600Y-95686700D03*
%TD*%
D14*
%TO.C,C25*%
X110134600Y-101765200D03*
X110134600Y-99715200D03*
%TD*%
D11*
%TO.C,R14*%
X133756600Y-123083200D03*
X133756600Y-125133200D03*
%TD*%
D15*
%TO.C,C22*%
X117259100Y-91351200D03*
X115184100Y-91351200D03*
%TD*%
D14*
%TO.C,C24*%
X113690600Y-101765200D03*
X113690600Y-99715200D03*
%TD*%
D11*
%TO.C,R15*%
X136042600Y-123083200D03*
X136042600Y-125133200D03*
%TD*%
D10*
%TO.C,R25*%
X114046000Y-121330200D03*
X114046000Y-123330200D03*
%TD*%
D16*
%TO.C,U5*%
X115783601Y-97149699D03*
X116733601Y-97149699D03*
X117683601Y-97149699D03*
X117683601Y-94874699D03*
X116733601Y-94874699D03*
X115783601Y-94874699D03*
%TD*%
D17*
%TO.C,D3*%
X138582600Y-113067200D03*
X138582600Y-109767200D03*
%TD*%
D18*
%TO.C,C19*%
X117246600Y-99702700D03*
X117246600Y-101777700D03*
%TD*%
D19*
%TO.C,D4*%
X141909000Y-116548000D03*
X138609000Y-116548000D03*
%TD*%
D20*
%TO.C,D15*%
X118262600Y-104305200D03*
X120312600Y-104305200D03*
%TD*%
D21*
%TO.C,X1*%
X137480600Y-132245200D03*
X133080600Y-132245200D03*
D22*
X133680600Y-129545200D03*
X134480600Y-129545200D03*
X135280600Y-129545200D03*
X136080600Y-129545200D03*
X136880600Y-129545200D03*
D23*
X130830600Y-129645200D03*
X139730600Y-129645200D03*
X139730600Y-135095200D03*
X130830600Y-135095200D03*
%TD*%
D24*
%TO.C,D16*%
X108882600Y-104305200D03*
X106832600Y-104305200D03*
%TD*%
D14*
%TO.C,D7*%
X82168599Y-132142201D03*
X82168599Y-130092201D03*
%TD*%
D20*
%TO.C,R31*%
X83210600Y-54775200D03*
X85260600Y-54775200D03*
%TD*%
D10*
%TO.C,R16*%
X82194600Y-125902200D03*
X82194600Y-127902200D03*
%TD*%
D20*
%TO.C,D17*%
X103512600Y-61125200D03*
X105562600Y-61125200D03*
%TD*%
%TO.C,D18*%
X103004600Y-73571200D03*
X105054600Y-73571200D03*
%TD*%
D25*
%TO.C,Q4*%
X111338600Y-68077700D03*
X109438600Y-68077700D03*
X110388600Y-69952700D03*
%TD*%
%TO.C,Q5*%
X111338600Y-80269700D03*
X109438600Y-80269700D03*
X110388600Y-82144700D03*
%TD*%
D26*
%TO.C,R47*%
X111125600Y-61125200D03*
X109125600Y-61125200D03*
%TD*%
%TO.C,R48*%
X111125600Y-73571200D03*
X109125600Y-73571200D03*
%TD*%
D27*
%TO.C,H3*%
X54254600Y-54267200D03*
%TD*%
%TO.C,H4*%
X145694600Y-54267200D03*
%TD*%
D17*
%TO.C,D5*%
X141376600Y-112941200D03*
X141376600Y-109641200D03*
%TD*%
D15*
%TO.C,C20*%
X145716100Y-105067200D03*
X143641100Y-105067200D03*
%TD*%
D11*
%TO.C,R49*%
X110388600Y-117495200D03*
X110388600Y-119545200D03*
%TD*%
D14*
%TO.C,R51*%
X107848600Y-119563200D03*
X107848600Y-117513200D03*
%TD*%
%TO.C,R53*%
X99974600Y-119563200D03*
X99974600Y-117513200D03*
%TD*%
%TO.C,R55*%
X102260600Y-119563200D03*
X102260600Y-117513200D03*
%TD*%
D28*
%TO.C,J5*%
X114596602Y-132511200D03*
X126596600Y-132511200D03*
D29*
X123596600Y-126911200D03*
X122396600Y-129451200D03*
X121196600Y-126911200D03*
X119996600Y-129451200D03*
X118796599Y-126911200D03*
X117596599Y-129451200D03*
%TD*%
D30*
%TO.C,J4*%
X100309000Y-126614000D03*
X103009000Y-127814000D03*
D31*
X105509000Y-134614000D03*
D32*
X110109000Y-130714000D03*
D31*
X109609000Y-123414000D03*
%TD*%
D11*
%TO.C,D19*%
X104546600Y-117495200D03*
X104546600Y-119545200D03*
%TD*%
D27*
%TO.C,H2*%
X145694600Y-132753200D03*
%TD*%
D33*
%TO.C,C1*%
X62282600Y-72301200D03*
X64357600Y-72301200D03*
%TD*%
%TO.C,C3*%
X62282600Y-74587200D03*
X64357600Y-74587200D03*
%TD*%
D18*
%TO.C,C11*%
X129184600Y-76089700D03*
X129184600Y-78164700D03*
%TD*%
D14*
%TO.C,C9*%
X60096600Y-68070700D03*
X60096600Y-66020700D03*
%TD*%
D34*
%TO.C,JP2*%
X99441000Y-101981000D03*
D35*
X101981000Y-101981000D03*
%TD*%
D33*
%TO.C,C29*%
X78354100Y-77127200D03*
X80429100Y-77127200D03*
%TD*%
%TO.C,C31*%
X135522100Y-93637200D03*
X137597100Y-93637200D03*
%TD*%
D36*
%TO.C,J1*%
X131724600Y-83096200D03*
X136804600Y-82080200D03*
X131724600Y-81064200D03*
D37*
X135534600Y-81445200D03*
X135534600Y-82715200D03*
X134264600Y-81445200D03*
X134264600Y-82715200D03*
X132994600Y-81445200D03*
X132994600Y-82715200D03*
%TD*%
D15*
%TO.C,C27*%
X73326100Y-71285200D03*
X71251100Y-71285200D03*
%TD*%
D34*
%TO.C,JP1*%
X99441000Y-96393000D03*
D35*
X101981000Y-96393000D03*
%TD*%
D38*
%TO.C,J8*%
X70510600Y-65077200D03*
D39*
X70510600Y-63777200D03*
%TD*%
D18*
%TO.C,C26*%
X75082600Y-73558700D03*
X75082600Y-75633700D03*
%TD*%
D33*
%TO.C,C28*%
X78354100Y-73571200D03*
X80429100Y-73571200D03*
%TD*%
D12*
%TO.C,R4*%
X62389600Y-76873200D03*
X64389600Y-76873200D03*
%TD*%
D40*
%TO.C,Y1*%
X140360600Y-65413500D03*
X140360600Y-71238500D03*
%TD*%
D41*
%TO.C,U3*%
X123660600Y-73683200D03*
X124460600Y-73683200D03*
X125260600Y-73683200D03*
X126060600Y-73683200D03*
X126860600Y-73683200D03*
X127660600Y-73683200D03*
X128460600Y-73683200D03*
X129260600Y-73683200D03*
X130060600Y-73683200D03*
X130860600Y-73683200D03*
X131660600Y-73683200D03*
D42*
X133360600Y-71983200D03*
X133360600Y-71183200D03*
X133360600Y-70383200D03*
X133360600Y-69583200D03*
X133360600Y-68783200D03*
X133360600Y-67983200D03*
X133360600Y-67183200D03*
X133360600Y-66383200D03*
X133360600Y-65583200D03*
X133360600Y-64783200D03*
X133360600Y-63983200D03*
D41*
X131660600Y-62283200D03*
X130860600Y-62283200D03*
X130060600Y-62283200D03*
X129260600Y-62283200D03*
X128460600Y-62283200D03*
X127660600Y-62283200D03*
X126860600Y-62283200D03*
X126060600Y-62283200D03*
X125260600Y-62283200D03*
X124460600Y-62283200D03*
X123660600Y-62283200D03*
D42*
X121960600Y-63983200D03*
X121960600Y-64783200D03*
X121960600Y-65583200D03*
X121960600Y-66383200D03*
X121960600Y-67183200D03*
X121960600Y-67983200D03*
X121960600Y-68783200D03*
X121960600Y-69583200D03*
X121960600Y-70383200D03*
X121960600Y-71183200D03*
X121960600Y-71983200D03*
%TD*%
D43*
%TO.C,R36*%
X119532600Y-63141200D03*
X119532600Y-61141200D03*
%TD*%
%TO.C,R34*%
X137566600Y-77628200D03*
X137566600Y-75628200D03*
%TD*%
D44*
%TO.C,J7*%
X144424600Y-75969200D03*
D45*
X144424600Y-77269200D03*
%TD*%
D11*
%TO.C,C18*%
X127152600Y-75839200D03*
X127152600Y-77889200D03*
%TD*%
D18*
%TO.C,C17*%
X119634000Y-72241500D03*
X119634000Y-74316500D03*
%TD*%
%TO.C,C16*%
X116967000Y-71018700D03*
X116967000Y-73093700D03*
%TD*%
D46*
%TO.C,C15*%
X141122600Y-77656700D03*
X141122600Y-75581700D03*
%TD*%
D11*
%TO.C,C14*%
X144678600Y-69743200D03*
X144678600Y-71793200D03*
%TD*%
D14*
%TO.C,C13*%
X144678600Y-65951200D03*
X144678600Y-63901200D03*
%TD*%
D47*
%TO.C,U7*%
X128582600Y-97320200D03*
X128582600Y-98590200D03*
X128582600Y-99860200D03*
X128582600Y-101130200D03*
X135882600Y-101130200D03*
X135882600Y-99860200D03*
X135882600Y-98590200D03*
X135882600Y-97320200D03*
%TD*%
D48*
%TO.C,U6*%
X75717600Y-70712200D03*
X76987600Y-70712200D03*
X78257600Y-70712200D03*
X79527600Y-70712200D03*
X80797600Y-70712200D03*
X82067600Y-70712200D03*
X83337600Y-70712200D03*
X84607600Y-70712200D03*
X84607600Y-65762200D03*
X83337600Y-65762200D03*
X82067600Y-65762200D03*
X80797600Y-65762200D03*
X79527600Y-65762200D03*
X78257600Y-65762200D03*
X76987600Y-65762200D03*
X75717600Y-65762200D03*
%TD*%
D49*
%TO.C,U1*%
X59657100Y-73743200D03*
X59657100Y-73093200D03*
X59657100Y-72443200D03*
X59657100Y-71793200D03*
X59657100Y-71143200D03*
X59657100Y-70493200D03*
X59657100Y-69843200D03*
X53932100Y-69843200D03*
X53932100Y-70493200D03*
X53932100Y-71143200D03*
X53932100Y-71793200D03*
X53932100Y-72443200D03*
X53932100Y-73093200D03*
X53932100Y-73743200D03*
%TD*%
D11*
%TO.C,R33*%
X146964600Y-99225200D03*
X146964600Y-101275200D03*
%TD*%
D14*
%TO.C,R32*%
X143408600Y-101257200D03*
X143408600Y-99207200D03*
%TD*%
D20*
%TO.C,D12*%
X90576600Y-73571200D03*
X92626600Y-73571200D03*
%TD*%
%TO.C,D11*%
X126136600Y-93637200D03*
X128186600Y-93637200D03*
%TD*%
D50*
%TO.C,SJ1*%
X84622600Y-74841200D03*
D51*
X83322600Y-74841200D03*
%TD*%
D14*
%TO.C,R44*%
X126136600Y-97973200D03*
X126136600Y-95923200D03*
%TD*%
D20*
%TO.C,R43*%
X128727400Y-103543200D03*
X130777400Y-103543200D03*
%TD*%
%TO.C,R42*%
X135280600Y-103543200D03*
X137330600Y-103543200D03*
%TD*%
D43*
%TO.C,R41*%
X73304600Y-65436200D03*
X73304600Y-63436200D03*
%TD*%
D26*
%TO.C,R27*%
X98679600Y-73571200D03*
X96679600Y-73571200D03*
%TD*%
D24*
%TO.C,R24*%
X132758600Y-93637200D03*
X130708600Y-93637200D03*
%TD*%
D43*
%TO.C,R13*%
X62636600Y-70008200D03*
X62636600Y-68008200D03*
%TD*%
D24*
%TO.C,R11*%
X57828600Y-67729200D03*
X55778600Y-67729200D03*
%TD*%
D20*
%TO.C,D13*%
X90558600Y-61125200D03*
X92608600Y-61125200D03*
%TD*%
D26*
%TO.C,R26*%
X98697600Y-61125200D03*
X96697600Y-61125200D03*
%TD*%
D25*
%TO.C,Q1*%
X98826600Y-67791700D03*
X96926600Y-67791700D03*
X97876600Y-69666700D03*
%TD*%
D52*
%TO.C,JP3*%
X90576600Y-79667200D03*
D53*
X93116600Y-79667200D03*
%TD*%
D52*
%TO.C,JP4*%
X90576600Y-67221200D03*
D53*
X93116600Y-67221200D03*
%TD*%
D52*
%TO.C,JP6*%
X103276600Y-67475200D03*
D53*
X105816600Y-67475200D03*
%TD*%
D52*
%TO.C,JP7*%
X103276600Y-79667200D03*
D53*
X105816600Y-79667200D03*
%TD*%
D25*
%TO.C,Q2*%
X98892600Y-80237700D03*
X96992600Y-80237700D03*
X97942600Y-82112700D03*
%TD*%
D54*
%TO.C,U4*%
X143757100Y-107419200D03*
X143757100Y-109319200D03*
X145632100Y-108369200D03*
%TD*%
D33*
%TO.C,C6*%
X143973600Y-114211200D03*
X146048600Y-114211200D03*
%TD*%
%TO.C,C7*%
X143973600Y-111671200D03*
X146048600Y-111671200D03*
%TD*%
D19*
%TO.C,D14*%
X118642600Y-118021200D03*
X115342600Y-118021200D03*
%TD*%
D24*
%TO.C,R45*%
X124104600Y-115989200D03*
X122054600Y-115989200D03*
%TD*%
D46*
%TO.C,C23*%
X129946600Y-116001700D03*
X129946600Y-113926700D03*
%TD*%
%TO.C,C21*%
X127660600Y-111955700D03*
X127660600Y-109880700D03*
%TD*%
D55*
%TO.C,Q3*%
X115468600Y-115402700D03*
X117368600Y-115402700D03*
X116418600Y-113527700D03*
%TD*%
D43*
%TO.C,R29*%
X129946600Y-111900200D03*
X129946600Y-109900200D03*
%TD*%
D24*
%TO.C,R38*%
X131978600Y-118275200D03*
X129928600Y-118275200D03*
%TD*%
D12*
%TO.C,R46*%
X134543600Y-118275200D03*
X136543600Y-118275200D03*
%TD*%
D10*
%TO.C,R37*%
X134772600Y-109909200D03*
X134772600Y-111909200D03*
%TD*%
D15*
%TO.C,C33*%
X124117100Y-118275200D03*
X122042100Y-118275200D03*
%TD*%
D56*
%TO.C,U9*%
X132160101Y-114070201D03*
X132160101Y-115020201D03*
X132160101Y-115970201D03*
X134435101Y-115970201D03*
X134435101Y-114070201D03*
%TD*%
D10*
%TO.C,R28*%
X117348000Y-121330200D03*
X117348000Y-123330200D03*
%TD*%
D43*
%TO.C,R30*%
X132486600Y-111900200D03*
X132486600Y-109900200D03*
%TD*%
D11*
%TO.C,R35*%
X136804600Y-67221200D03*
X136804600Y-69271200D03*
%TD*%
D52*
%TO.C,JP5*%
X121818600Y-111417200D03*
D53*
X124358600Y-111417200D03*
%TD*%
D11*
%TO.C,R20*%
X117500600Y-61116200D03*
X117500600Y-63166200D03*
%TD*%
%TO.C,D8*%
X115468600Y-61116200D03*
X115468600Y-63166200D03*
%TD*%
D27*
%TO.C,H1*%
X54254600Y-132753200D03*
%TD*%
D33*
%TO.C,C2*%
X77956500Y-99060000D03*
X80031500Y-99060000D03*
%TD*%
D15*
%TO.C,C4*%
X80031500Y-97028000D03*
X77956500Y-97028000D03*
%TD*%
D33*
%TO.C,C5*%
X77956500Y-105156000D03*
X80031500Y-105156000D03*
%TD*%
D15*
%TO.C,C8*%
X66845000Y-114046000D03*
X64770000Y-114046000D03*
%TD*%
D33*
%TO.C,C12*%
X75416500Y-92456000D03*
X77491500Y-92456000D03*
%TD*%
D15*
%TO.C,C30*%
X66083000Y-116078000D03*
X64008000Y-116078000D03*
%TD*%
%TO.C,C32*%
X78994000Y-120523000D03*
X76919000Y-120523000D03*
%TD*%
D33*
%TO.C,C34*%
X76940500Y-117475000D03*
X79015500Y-117475000D03*
%TD*%
D57*
%TO.C,C36*%
X69596000Y-83364000D03*
X69596000Y-89864000D03*
%TD*%
D58*
%TO.C,C37*%
X83872000Y-93726000D03*
X90372000Y-93726000D03*
%TD*%
D17*
%TO.C,D1*%
X82296000Y-115188000D03*
X82296000Y-111888000D03*
%TD*%
%TO.C,D2*%
X82296000Y-120014000D03*
X82296000Y-116714000D03*
%TD*%
%TO.C,D6*%
X72898000Y-110362000D03*
X72898000Y-107062000D03*
%TD*%
D12*
%TO.C,R1*%
X68850000Y-117856000D03*
X70850000Y-117856000D03*
%TD*%
%TO.C,R2*%
X77994000Y-101092000D03*
X79994000Y-101092000D03*
%TD*%
D26*
%TO.C,R5*%
X70850000Y-119761000D03*
X68850000Y-119761000D03*
%TD*%
D12*
%TO.C,R6*%
X77994000Y-103124000D03*
X79994000Y-103124000D03*
%TD*%
D26*
%TO.C,R7*%
X79089000Y-115493800D03*
X77089000Y-115493800D03*
%TD*%
D12*
%TO.C,R8*%
X76978000Y-113538000D03*
X78978000Y-113538000D03*
%TD*%
D10*
%TO.C,R9*%
X79883000Y-108109000D03*
X79883000Y-110109000D03*
%TD*%
%TO.C,R12*%
X75285600Y-105984800D03*
X75285600Y-107984800D03*
%TD*%
D26*
%TO.C,R17*%
X68513200Y-109016800D03*
X66513200Y-109016800D03*
%TD*%
%TO.C,R18*%
X66795400Y-111810800D03*
X64795400Y-111810800D03*
%TD*%
D59*
%TO.C,U2*%
X69019500Y-112096000D03*
X69019500Y-112746000D03*
X69019500Y-113396000D03*
X69019500Y-114046000D03*
X69019500Y-114696000D03*
X69019500Y-115346000D03*
X69019500Y-115996000D03*
X74744500Y-115996000D03*
X74744500Y-115346000D03*
X74744500Y-114696000D03*
X74744500Y-114046000D03*
X74744500Y-113396000D03*
X74744500Y-112746000D03*
X74744500Y-112096000D03*
%TD*%
D60*
%TO.C,U8*%
X69922652Y-94869000D03*
X69922652Y-96139000D03*
X69922652Y-97409000D03*
X69922652Y-98679000D03*
X69922652Y-99949000D03*
X69922652Y-101219000D03*
X69922652Y-102489000D03*
X69922652Y-103759000D03*
X75365348Y-103759000D03*
X75365348Y-102489000D03*
X75365348Y-101219000D03*
X75365348Y-99949000D03*
X75365348Y-98679000D03*
X75365348Y-97409000D03*
X75365348Y-96139000D03*
X75365348Y-94869000D03*
%TD*%
%TO.C,U10*%
X77034652Y-84709000D03*
X77034652Y-85979000D03*
X77034652Y-87249000D03*
X77034652Y-88519000D03*
X82477348Y-88519000D03*
X82477348Y-87249000D03*
X82477348Y-85979000D03*
X82477348Y-84709000D03*
%TD*%
D12*
%TO.C,R10*%
X74946000Y-109982000D03*
X76946000Y-109982000D03*
%TD*%
D11*
%TO.C,D9*%
X90932000Y-117593000D03*
X90932000Y-119643000D03*
%TD*%
D30*
%TO.C,J6*%
X85958000Y-126614000D03*
X88658000Y-127814000D03*
D31*
X91158000Y-134614000D03*
D32*
X95758000Y-130714000D03*
D31*
X95258000Y-123414000D03*
%TD*%
D11*
%TO.C,R19*%
X96012000Y-117584000D03*
X96012000Y-119634000D03*
%TD*%
D14*
%TO.C,R21*%
X93980000Y-119643000D03*
X93980000Y-117593000D03*
%TD*%
%TO.C,R22*%
X86360000Y-119643000D03*
X86360000Y-117593000D03*
%TD*%
%TO.C,R23*%
X88646000Y-119652000D03*
X88646000Y-117602000D03*
%TD*%
D33*
%TO.C,C10*%
X75416500Y-90424000D03*
X77491500Y-90424000D03*
%TD*%
D46*
%TO.C,C35*%
X70739000Y-108733500D03*
X70739000Y-106658500D03*
%TD*%
D61*
%TO.C,D10*%
X121158000Y-120651000D03*
X121158000Y-123951000D03*
%TD*%
D62*
%TO.C,J3*%
X57302600Y-95923200D03*
D63*
X54127600Y-92748200D03*
X60477600Y-92748200D03*
X60477600Y-99098200D03*
X54127600Y-99098200D03*
%TD*%
D64*
%TO.C,DS1*%
X62733120Y-85267900D03*
X137731700Y-85267900D03*
X137731700Y-54267200D03*
X62732600Y-54267200D03*
D65*
X132232600Y-54267200D03*
D66*
X129692600Y-54267200D03*
X127152600Y-54267200D03*
X124612600Y-54267200D03*
X122072600Y-54267200D03*
X119532600Y-54267200D03*
X116992600Y-54267200D03*
X114452600Y-54267200D03*
X111912600Y-54267200D03*
X109372600Y-54267200D03*
X106832600Y-54267200D03*
X104292600Y-54267200D03*
X101752600Y-54267200D03*
X99212600Y-54267200D03*
X96672600Y-54267200D03*
X94132600Y-54267200D03*
%TD*%
D67*
%TO.C,SW1*%
X61620600Y-130467200D03*
D68*
X61620600Y-125467200D03*
X61620600Y-127967200D03*
D69*
X69120600Y-122367200D03*
X69120600Y-133567200D03*
D68*
X76120600Y-125467200D03*
X76120600Y-130467200D03*
%TD*%
D70*
%TO.C,RV1*%
X144297600Y-90081200D03*
X141757600Y-92621200D03*
X144297600Y-95161200D03*
%TD*%
D62*
%TO.C,J2*%
X57302600Y-112687200D03*
D63*
X54127600Y-109512200D03*
X60477600Y-109512200D03*
X54127600Y-115862200D03*
X60477600Y-115862200D03*
%TD*%
M02*
