M48
; DRILL file {KiCad (5.1.5)-3} date 30/11/2021 10:29:54 a. m.
; FORMAT={-:-/ absolute / inch / decimal}
; #@! TF.CreationDate,2021-11-30T10:29:54+01:00
; #@! TF.GenerationSoftware,Kicad,Pcbnew,(5.1.5)-3
; #@! TF.FileFunction,Plated,1,2,PTH
FMAT,2
INCH
T1C0.0157
T2C0.0276
T3C0.0350
T4C0.0394
T5C0.0469
T6C0.0472
T7C0.0500
T8C0.0512
T9C0.0591
T10C0.0600
T11C0.0984
%
G90
G05
T1
X2.042Y-2.8255
X2.274Y-5.236
X2.475Y-4.52
X2.636Y-2.9295
X2.647Y-2.5075
X2.69Y-4.1748
X2.81Y-4.13
X2.815Y-4.435
X2.815Y-4.48
X2.815Y-4.53
X2.854Y-3.0295
X2.88Y-4.445
X2.905Y-4.12
X2.91Y-3.56
X2.91Y-4.6
X2.98Y-4.62
X3.005Y-4.4644
X3.025Y-4.39
X3.08Y-4.42
X3.082Y-2.4795
X3.15Y-3.35
X3.17Y-4.615
X3.181Y-2.4845
X3.231Y-2.5185
X3.24Y-4.67
X3.24Y-4.9
X3.325Y-3.85
X3.3252Y-3.2764
X3.33Y-3.57
X3.3454Y-4.6261
X3.377Y-2.8595
X3.404Y-4.118
X3.405Y-3.695
X3.4281Y-4.2381
X3.4327Y-3.3839
X3.576Y-4.1595
X3.622Y-4.512
X3.66Y-4.285
X3.75Y-3.66
X3.805Y-4.1
X3.883Y-4.6265
X3.8908Y-2.6013
X3.9Y-3.46
X3.916Y-4.45
X4.042Y-4.112
X4.163Y-3.3865
X4.196Y-4.448
X4.323Y-2.8295
X4.416Y-2.4845
X4.416Y-2.5765
X4.4973Y-4.7758
X4.506Y-3.0165
X4.546Y-2.9865
X4.546Y-4.2165
X4.686Y-4.5365
X4.716Y-2.5365
X4.7903Y-3.4047
X4.827Y-3.0455
X4.862Y-2.7085
X4.866Y-3.0665
X4.886Y-4.7165
X4.896Y-2.3965
X4.905Y-3.425
X4.92Y-3.27
X4.92Y-3.35
X4.932Y-3.0775
X4.94Y-3.175
X4.949Y-2.6345
X4.966Y-4.0265
X4.989Y-2.8435
X5.01Y-3.41
X5.0536Y-2.82
X5.086Y-3.1265
X5.089Y-2.5265
X5.096Y-2.2365
X5.133Y-2.7055
X5.134Y-3.3895
X5.146Y-2.8165
X5.166Y-2.2365
X5.19Y-2.9675
X5.196Y-2.5765
X5.196Y-3.0165
X5.251Y-2.9175
X5.266Y-4.7915
X5.272Y-3.9795
X5.276Y-3.7565
X5.286Y-3.1565
X5.3Y-2.49
X5.305Y-4.2575
X5.31Y-3.3305
X5.336Y-2.9565
X5.336Y-3.0835
X5.336Y-3.6265
X5.356Y-4.7915
X5.376Y-2.4765
X5.445Y-4.5275
X5.486Y-2.9365
X5.486Y-3.0575
X5.518Y-3.1345
X5.526Y-2.3765
X5.536Y-2.4265
X5.556Y-3.4065
X5.696Y-4.0565
T2
X5.581Y-3.6465
X5.681Y-3.5465
X5.681Y-3.7465
T3
X4.6298Y-5.0965
X4.677Y-4.9965
X4.7243Y-5.0965
X4.7715Y-4.9965
X4.8188Y-5.0965
X4.866Y-4.9965
T4
X3.915Y-4.015
X4.015Y-4.015
X2.426Y-4.9397
X2.426Y-5.0381
X2.426Y-5.1365
X2.9969Y-4.9397
X2.9969Y-5.1365
X3.915Y-3.795
X4.015Y-3.795
T5
X3.566Y-3.1365
X3.666Y-3.1365
X4.796Y-4.3865
X4.896Y-4.3865
X3.566Y-2.6465
X3.666Y-2.6465
X4.066Y-3.1365
X4.166Y-3.1365
X4.066Y-2.6565
X4.166Y-2.6565
T6
X3.706Y-2.1365
X3.806Y-2.1365
X3.906Y-2.1365
X4.006Y-2.1365
X4.106Y-2.1365
X4.206Y-2.1365
X4.306Y-2.1365
X4.406Y-2.1365
X4.506Y-2.1365
X4.606Y-2.1365
X4.706Y-2.1365
X4.806Y-2.1365
X4.906Y-2.1365
X5.006Y-2.1365
X5.106Y-2.1365
X5.206Y-2.1365
T7
X2.256Y-4.4365
X2.256Y-3.7765
T8
X3.9502Y-4.9951
X4.0565Y-5.0423
X4.1549Y-5.31
X4.3163Y-4.8691
X4.336Y-5.1565
X3.3842Y-4.9986
X3.4905Y-5.0458
X3.5889Y-5.3135
X3.7503Y-4.8726
X3.77Y-5.16
T10
X2.131Y-4.3115
X2.131Y-4.5615
X2.381Y-4.3115
X2.381Y-4.5615
X2.131Y-3.6515
X2.131Y-3.9015
X2.381Y-3.6515
X2.381Y-3.9015
T11
X2.4698Y-2.1365
X2.4698Y-3.357
X5.4225Y-2.1365
X5.4225Y-3.357
T9
G00X2.6957Y-4.8176
M15
G01X2.7469Y-4.8176
M16
G05
G00X2.6957Y-5.2586
M15
G01X2.7469Y-5.2586
M16
G05
T0
M30
