%TF.GenerationSoftware,KiCad,Pcbnew,5.1.6-c6e7f7d~87~ubuntu18.04.1*%
%TF.CreationDate,2020-07-30T09:40:34-05:00*%
%TF.ProjectId,pHMeter,70484d65-7465-4722-9e6b-696361645f70,0.1*%
%TF.SameCoordinates,Original*%
%TF.FileFunction,Soldermask,Bot*%
%TF.FilePolarity,Negative*%
%FSLAX46Y46*%
G04 Gerber Fmt 4.6, Leading zero omitted, Abs format (unit mm)*
G04 Created by KiCad (PCBNEW 5.1.6-c6e7f7d~87~ubuntu18.04.1) date 2020-07-30 09:40:34*
%MOMM*%
%LPD*%
G01*
G04 APERTURE LIST*
%ADD10R,1.800000X1.800000*%
%ADD11O,1.800000X1.800000*%
%ADD12R,1.900000X2.700000*%
%ADD13O,1.900000X2.700000*%
%ADD14C,3.100000*%
%ADD15C,1.090600*%
%ADD16C,3.910000*%
%ADD17C,3.656000*%
%ADD18C,1.100000*%
%ADD19C,2.100000*%
%ADD20R,3.300000X2.100000*%
%ADD21R,2.100000X2.100000*%
%ADD22C,3.300000*%
%ADD23C,2.513000*%
%ADD24C,1.497000*%
%ADD25R,2.300000X4.100000*%
%ADD26O,4.100000X2.300000*%
%ADD27O,2.300000X4.100000*%
%ADD28O,1.840000X2.290000*%
%ADD29C,1.540000*%
G04 APERTURE END LIST*
D10*
%TO.C,JP2*%
X225806000Y-113538000D03*
D11*
X228346000Y-113538000D03*
%TD*%
%TO.C,JP1*%
X228346000Y-107950000D03*
D10*
X225806000Y-107950000D03*
%TD*%
D12*
%TO.C,DS1*%
X261620000Y-65786000D03*
D13*
X259080000Y-65786000D03*
X256540000Y-65786000D03*
X254000000Y-65786000D03*
X251460000Y-65786000D03*
X248920000Y-65786000D03*
X246380000Y-65786000D03*
X243840000Y-65786000D03*
X241300000Y-65786000D03*
X238760000Y-65786000D03*
X236220000Y-65786000D03*
X233680000Y-65786000D03*
X231140000Y-65786000D03*
X228600000Y-65786000D03*
X226060000Y-65786000D03*
X223520000Y-65786000D03*
D14*
X267119100Y-65786000D03*
X267119100Y-96786700D03*
X192120520Y-96786700D03*
X192120000Y-65786000D03*
%TD*%
D15*
%TO.C,J1*%
X261112000Y-94615000D03*
X261112000Y-92583000D03*
X266192000Y-93599000D03*
%TD*%
D16*
%TO.C,J2*%
X183515000Y-121031000D03*
D17*
X186690000Y-124206000D03*
D16*
X189865000Y-121031000D03*
X183515000Y-127381000D03*
X189865000Y-127381000D03*
%TD*%
%TO.C,J3*%
X189865000Y-110617000D03*
X183515000Y-110617000D03*
X189865000Y-104267000D03*
D17*
X186690000Y-107442000D03*
D16*
X183515000Y-104267000D03*
%TD*%
D18*
%TO.C,X1*%
X262468000Y-143764000D03*
X266868000Y-143764000D03*
%TD*%
D19*
%TO.C,SW1*%
X205508000Y-136986000D03*
X205508000Y-141986000D03*
D20*
X198508000Y-133886000D03*
X198508000Y-145086000D03*
D19*
X191008000Y-136986000D03*
X191008000Y-139486000D03*
D21*
X191008000Y-141986000D03*
%TD*%
D22*
%TO.C,H1*%
X183642000Y-144272000D03*
%TD*%
%TO.C,H2*%
X275082000Y-144272000D03*
%TD*%
%TO.C,H3*%
X183642000Y-65786000D03*
%TD*%
%TO.C,H4*%
X275082000Y-65786000D03*
%TD*%
D23*
%TO.C,J5*%
X243984002Y-144030000D03*
X255984000Y-144030000D03*
D24*
X246983999Y-140970000D03*
X248183999Y-138430000D03*
X249384000Y-140970000D03*
X250584000Y-138430000D03*
X251784000Y-140970000D03*
X252984000Y-138430000D03*
%TD*%
D25*
%TO.C,J4*%
X239522000Y-142494000D03*
D26*
X239022000Y-135194000D03*
D27*
X232422000Y-139594000D03*
X229722000Y-138394000D03*
D26*
X234922000Y-146394000D03*
%TD*%
%TO.C,J6*%
X220690000Y-146394000D03*
D27*
X215490000Y-138394000D03*
X218190000Y-139594000D03*
D26*
X224790000Y-135194000D03*
D25*
X225290000Y-142494000D03*
%TD*%
%TO.C,JP3*%
G36*
G01*
X219044000Y-92066633D02*
X219044000Y-90305367D01*
G75*
G02*
X219308367Y-90041000I264367J0D01*
G01*
X220619633Y-90041000D01*
G75*
G02*
X220884000Y-90305367I0J-264367D01*
G01*
X220884000Y-92066633D01*
G75*
G02*
X220619633Y-92331000I-264367J0D01*
G01*
X219308367Y-92331000D01*
G75*
G02*
X219044000Y-92066633I0J264367D01*
G01*
G37*
D28*
X222504000Y-91186000D03*
%TD*%
%TO.C,JP4*%
X222504000Y-78740000D03*
G36*
G01*
X219044000Y-79620633D02*
X219044000Y-77859367D01*
G75*
G02*
X219308367Y-77595000I264367J0D01*
G01*
X220619633Y-77595000D01*
G75*
G02*
X220884000Y-77859367I0J-264367D01*
G01*
X220884000Y-79620633D01*
G75*
G02*
X220619633Y-79885000I-264367J0D01*
G01*
X219308367Y-79885000D01*
G75*
G02*
X219044000Y-79620633I0J264367D01*
G01*
G37*
%TD*%
%TO.C,JP6*%
X235204000Y-78994000D03*
G36*
G01*
X231744000Y-79874633D02*
X231744000Y-78113367D01*
G75*
G02*
X232008367Y-77849000I264367J0D01*
G01*
X233319633Y-77849000D01*
G75*
G02*
X233584000Y-78113367I0J-264367D01*
G01*
X233584000Y-79874633D01*
G75*
G02*
X233319633Y-80139000I-264367J0D01*
G01*
X232008367Y-80139000D01*
G75*
G02*
X231744000Y-79874633I0J264367D01*
G01*
G37*
%TD*%
%TO.C,JP7*%
G36*
G01*
X231744000Y-92066633D02*
X231744000Y-90305367D01*
G75*
G02*
X232008367Y-90041000I264367J0D01*
G01*
X233319633Y-90041000D01*
G75*
G02*
X233584000Y-90305367I0J-264367D01*
G01*
X233584000Y-92066633D01*
G75*
G02*
X233319633Y-92331000I-264367J0D01*
G01*
X232008367Y-92331000D01*
G75*
G02*
X231744000Y-92066633I0J264367D01*
G01*
G37*
X235204000Y-91186000D03*
%TD*%
D29*
%TO.C,RV1*%
X273558000Y-101854000D03*
X271018000Y-104394000D03*
X273558000Y-106934000D03*
%TD*%
%TO.C,JP5*%
G36*
G01*
X250286000Y-123816633D02*
X250286000Y-122055367D01*
G75*
G02*
X250550367Y-121791000I264367J0D01*
G01*
X251861633Y-121791000D01*
G75*
G02*
X252126000Y-122055367I0J-264367D01*
G01*
X252126000Y-123816633D01*
G75*
G02*
X251861633Y-124081000I-264367J0D01*
G01*
X250550367Y-124081000D01*
G75*
G02*
X250286000Y-123816633I0J264367D01*
G01*
G37*
D28*
X253746000Y-122936000D03*
%TD*%
M02*
