%TF.GenerationSoftware,KiCad,Pcbnew,5.1.6-c6e7f7d~87~ubuntu18.04.1*%
%TF.CreationDate,2020-08-04T17:41:11-05:00*%
%TF.ProjectId,pHMeter,70484d65-7465-4722-9e6b-696361645f70,0.1*%
%TF.SameCoordinates,Original*%
%TF.FileFunction,Other,Fab,Bot*%
%FSLAX46Y46*%
G04 Gerber Fmt 4.6, Leading zero omitted, Abs format (unit mm)*
G04 Created by KiCad (PCBNEW 5.1.6-c6e7f7d~87~ubuntu18.04.1) date 2020-08-04 17:41:11*
%MOMM*%
%LPD*%
G01*
G04 APERTURE LIST*
%ADD10C,0.100000*%
%ADD11C,0.120000*%
%ADD12C,0.150000*%
G04 APERTURE END LIST*
D10*
%TO.C,DS1*%
X269620000Y-99286000D02*
X269620000Y-63286000D01*
X189620000Y-99286000D02*
X269620000Y-99286000D01*
X189620000Y-63286000D02*
X189620000Y-99286000D01*
X260620000Y-63286000D02*
X189620000Y-63286000D01*
X262620000Y-63286000D02*
X269620000Y-63286000D01*
X261620000Y-64286000D02*
X262620000Y-63286000D01*
X260620000Y-63286000D02*
X261620000Y-64286000D01*
D11*
%TO.C,SW1*%
X201508000Y-139486000D02*
G75*
G03*
X201508000Y-139486000I-3000000J0D01*
G01*
X193508000Y-145286000D02*
X204508000Y-145286000D01*
X204508000Y-145286000D02*
X204508000Y-133686000D01*
X204508000Y-133686000D02*
X192508000Y-133686000D01*
X192508000Y-133686000D02*
X192508000Y-144186000D01*
X192508000Y-144186000D02*
X193508000Y-145286000D01*
X198508000Y-142486000D02*
X198508000Y-136486000D01*
X195508000Y-139486000D02*
X201508000Y-139486000D01*
D10*
%TO.C,RV1*%
X270128000Y-108459000D02*
X270128000Y-100329000D01*
X270128000Y-100329000D02*
X276098000Y-100329000D01*
X276098000Y-100329000D02*
X276098000Y-108459000D01*
X276098000Y-108459000D02*
X270128000Y-108459000D01*
X276098000Y-108204000D02*
X276098000Y-100584000D01*
X276098000Y-100584000D02*
X278128000Y-100584000D01*
X278128000Y-100584000D02*
X278128000Y-108204000D01*
X278128000Y-108204000D02*
X276098000Y-108204000D01*
%TD*%
%TO.C,DS1*%
X232464285Y-80978380D02*
X232464285Y-79978380D01*
X232226190Y-79978380D01*
X232083333Y-80026000D01*
X231988095Y-80121238D01*
X231940476Y-80216476D01*
X231892857Y-80406952D01*
X231892857Y-80549809D01*
X231940476Y-80740285D01*
X231988095Y-80835523D01*
X232083333Y-80930761D01*
X232226190Y-80978380D01*
X232464285Y-80978380D01*
X231511904Y-80930761D02*
X231369047Y-80978380D01*
X231130952Y-80978380D01*
X231035714Y-80930761D01*
X230988095Y-80883142D01*
X230940476Y-80787904D01*
X230940476Y-80692666D01*
X230988095Y-80597428D01*
X231035714Y-80549809D01*
X231130952Y-80502190D01*
X231321428Y-80454571D01*
X231416666Y-80406952D01*
X231464285Y-80359333D01*
X231511904Y-80264095D01*
X231511904Y-80168857D01*
X231464285Y-80073619D01*
X231416666Y-80026000D01*
X231321428Y-79978380D01*
X231083333Y-79978380D01*
X230940476Y-80026000D01*
X229988095Y-80978380D02*
X230559523Y-80978380D01*
X230273809Y-80978380D02*
X230273809Y-79978380D01*
X230369047Y-80121238D01*
X230464285Y-80216476D01*
X230559523Y-80264095D01*
%TO.C,SW1*%
D12*
X203441333Y-136090761D02*
X203298476Y-136138380D01*
X203060380Y-136138380D01*
X202965142Y-136090761D01*
X202917523Y-136043142D01*
X202869904Y-135947904D01*
X202869904Y-135852666D01*
X202917523Y-135757428D01*
X202965142Y-135709809D01*
X203060380Y-135662190D01*
X203250857Y-135614571D01*
X203346095Y-135566952D01*
X203393714Y-135519333D01*
X203441333Y-135424095D01*
X203441333Y-135328857D01*
X203393714Y-135233619D01*
X203346095Y-135186000D01*
X203250857Y-135138380D01*
X203012761Y-135138380D01*
X202869904Y-135186000D01*
X202536571Y-135138380D02*
X202298476Y-136138380D01*
X202108000Y-135424095D01*
X201917523Y-136138380D01*
X201679428Y-135138380D01*
X200774666Y-136138380D02*
X201346095Y-136138380D01*
X201060380Y-136138380D02*
X201060380Y-135138380D01*
X201155619Y-135281238D01*
X201250857Y-135376476D01*
X201346095Y-135424095D01*
%TO.C,RV1*%
X273708238Y-104846380D02*
X274041571Y-104370190D01*
X274279666Y-104846380D02*
X274279666Y-103846380D01*
X273898714Y-103846380D01*
X273803476Y-103894000D01*
X273755857Y-103941619D01*
X273708238Y-104036857D01*
X273708238Y-104179714D01*
X273755857Y-104274952D01*
X273803476Y-104322571D01*
X273898714Y-104370190D01*
X274279666Y-104370190D01*
X273422523Y-103846380D02*
X273089190Y-104846380D01*
X272755857Y-103846380D01*
X271898714Y-104846380D02*
X272470142Y-104846380D01*
X272184428Y-104846380D02*
X272184428Y-103846380D01*
X272279666Y-103989238D01*
X272374904Y-104084476D01*
X272470142Y-104132095D01*
%TD*%
M02*
