%TF.GenerationSoftware,KiCad,Pcbnew,5.1.6-c6e7f7d~87~ubuntu18.04.1*%
%TF.CreationDate,2020-07-30T09:40:34-05:00*%
%TF.ProjectId,pHMeter,70484d65-7465-4722-9e6b-696361645f70,0.1*%
%TF.SameCoordinates,Original*%
%TF.FileFunction,Legend,Bot*%
%TF.FilePolarity,Positive*%
%FSLAX46Y46*%
G04 Gerber Fmt 4.6, Leading zero omitted, Abs format (unit mm)*
G04 Created by KiCad (PCBNEW 5.1.6-c6e7f7d~87~ubuntu18.04.1) date 2020-07-30 09:40:34*
%MOMM*%
%LPD*%
G01*
G04 APERTURE LIST*
%ADD10C,0.120000*%
%ADD11C,0.150000*%
G04 APERTURE END LIST*
D10*
%TO.C,DS1*%
X266620000Y-93786000D02*
X266620000Y-68786000D01*
X193620000Y-93786000D02*
X266620000Y-93786000D01*
X193620000Y-68786000D02*
X193620000Y-93786000D01*
X266620000Y-68786000D02*
X193620000Y-68786000D01*
X197420000Y-74286000D02*
X197420000Y-88286000D01*
X197919340Y-88786000D02*
X261420000Y-88786000D01*
X261919720Y-88285320D02*
X261919720Y-74286000D01*
X261420000Y-73786000D02*
X197920000Y-73786000D01*
X263120000Y-62786000D02*
X260120000Y-62786000D01*
X269750000Y-63146000D02*
X268960000Y-63146000D01*
X269760000Y-63146000D02*
X269760000Y-99426000D01*
X189480000Y-63146000D02*
X268960000Y-63146000D01*
X189480000Y-99426000D02*
X189480000Y-63146000D01*
X269760000Y-99426000D02*
X189480000Y-99426000D01*
X197420000Y-74286000D02*
G75*
G02*
X197920000Y-73786000I500000J0D01*
G01*
X197919340Y-88785700D02*
G75*
G02*
X197418960Y-88285320I0J500380D01*
G01*
X261919720Y-88285320D02*
G75*
G02*
X261419340Y-88785700I-500380J0D01*
G01*
X261419340Y-73784460D02*
G75*
G02*
X261919720Y-74284840I0J-500380D01*
G01*
%TO.C,SW1*%
X201508000Y-139486000D02*
G75*
G03*
X201508000Y-139486000I-3000000J0D01*
G01*
X200508000Y-145386000D02*
X204608000Y-145386000D01*
X204608000Y-133586000D02*
X200508000Y-133586000D01*
X196508000Y-133586000D02*
X192408000Y-133586000D01*
X196508000Y-145386000D02*
X192408000Y-145386000D01*
X192408000Y-145386000D02*
X192408000Y-133586000D01*
X191008000Y-143286000D02*
X190708000Y-143586000D01*
X190708000Y-143586000D02*
X191308000Y-143586000D01*
X191308000Y-143586000D02*
X191008000Y-143286000D01*
X204608000Y-145386000D02*
X204608000Y-142986000D01*
X204608000Y-140786000D02*
X204608000Y-138186000D01*
X204608000Y-135986000D02*
X204608000Y-133586000D01*
X198508000Y-139986000D02*
X198508000Y-138986000D01*
X198008000Y-139486000D02*
X199008000Y-139486000D01*
%TO.C,RV1*%
X270008000Y-108580000D02*
X276218000Y-108580000D01*
X270008000Y-100209000D02*
X276218000Y-100209000D01*
X270008000Y-108580000D02*
X270008000Y-100209000D01*
X276218000Y-108580000D02*
X276218000Y-100209000D01*
X276218000Y-108324000D02*
X278248000Y-108324000D01*
X276218000Y-100463000D02*
X278248000Y-100463000D01*
X276218000Y-108324000D02*
X276218000Y-100463000D01*
X278248000Y-108324000D02*
X278248000Y-100463000D01*
%TO.C,DS1*%
D11*
X268654285Y-62428380D02*
X268654285Y-61428380D01*
X268416190Y-61428380D01*
X268273333Y-61476000D01*
X268178095Y-61571238D01*
X268130476Y-61666476D01*
X268082857Y-61856952D01*
X268082857Y-61999809D01*
X268130476Y-62190285D01*
X268178095Y-62285523D01*
X268273333Y-62380761D01*
X268416190Y-62428380D01*
X268654285Y-62428380D01*
X267701904Y-62380761D02*
X267559047Y-62428380D01*
X267320952Y-62428380D01*
X267225714Y-62380761D01*
X267178095Y-62333142D01*
X267130476Y-62237904D01*
X267130476Y-62142666D01*
X267178095Y-62047428D01*
X267225714Y-61999809D01*
X267320952Y-61952190D01*
X267511428Y-61904571D01*
X267606666Y-61856952D01*
X267654285Y-61809333D01*
X267701904Y-61714095D01*
X267701904Y-61618857D01*
X267654285Y-61523619D01*
X267606666Y-61476000D01*
X267511428Y-61428380D01*
X267273333Y-61428380D01*
X267130476Y-61476000D01*
X266178095Y-62428380D02*
X266749523Y-62428380D01*
X266463809Y-62428380D02*
X266463809Y-61428380D01*
X266559047Y-61571238D01*
X266654285Y-61666476D01*
X266749523Y-61714095D01*
%TO.C,SW1*%
X195141333Y-147090761D02*
X194998476Y-147138380D01*
X194760380Y-147138380D01*
X194665142Y-147090761D01*
X194617523Y-147043142D01*
X194569904Y-146947904D01*
X194569904Y-146852666D01*
X194617523Y-146757428D01*
X194665142Y-146709809D01*
X194760380Y-146662190D01*
X194950857Y-146614571D01*
X195046095Y-146566952D01*
X195093714Y-146519333D01*
X195141333Y-146424095D01*
X195141333Y-146328857D01*
X195093714Y-146233619D01*
X195046095Y-146186000D01*
X194950857Y-146138380D01*
X194712761Y-146138380D01*
X194569904Y-146186000D01*
X194236571Y-146138380D02*
X193998476Y-147138380D01*
X193808000Y-146424095D01*
X193617523Y-147138380D01*
X193379428Y-146138380D01*
X192474666Y-147138380D02*
X193046095Y-147138380D01*
X192760380Y-147138380D02*
X192760380Y-146138380D01*
X192855619Y-146281238D01*
X192950857Y-146376476D01*
X193046095Y-146424095D01*
%TO.C,RV1*%
X274153238Y-110161380D02*
X274486571Y-109685190D01*
X274724666Y-110161380D02*
X274724666Y-109161380D01*
X274343714Y-109161380D01*
X274248476Y-109209000D01*
X274200857Y-109256619D01*
X274153238Y-109351857D01*
X274153238Y-109494714D01*
X274200857Y-109589952D01*
X274248476Y-109637571D01*
X274343714Y-109685190D01*
X274724666Y-109685190D01*
X273867523Y-109161380D02*
X273534190Y-110161380D01*
X273200857Y-109161380D01*
X272343714Y-110161380D02*
X272915142Y-110161380D01*
X272629428Y-110161380D02*
X272629428Y-109161380D01*
X272724666Y-109304238D01*
X272819904Y-109399476D01*
X272915142Y-109447095D01*
%TD*%
M02*
