%TF.GenerationSoftware,KiCad,Pcbnew,(5.1.5-0-10_14)*%
%TF.CreationDate,2020-07-31T13:06:06+02:00*%
%TF.ProjectId,pHMeter,70484d65-7465-4722-9e6b-696361645f70,0.1*%
%TF.SameCoordinates,Original*%
%TF.FileFunction,Soldermask,Bot*%
%TF.FilePolarity,Negative*%
%FSLAX46Y46*%
G04 Gerber Fmt 4.6, Leading zero omitted, Abs format (unit mm)*
G04 Created by KiCad (PCBNEW (5.1.5-0-10_14)) date 2020-07-31 13:06:06*
%MOMM*%
%LPD*%
G04 APERTURE LIST*
%ADD10R,1.800000X1.800000*%
%ADD11O,1.800000X1.800000*%
%ADD12R,1.900000X2.700000*%
%ADD13O,1.900000X2.700000*%
%ADD14C,3.100000*%
%ADD15C,1.090600*%
%ADD16C,3.910000*%
%ADD17C,3.656000*%
%ADD18C,1.100000*%
%ADD19C,2.100000*%
%ADD20R,3.300000X2.100000*%
%ADD21R,2.100000X2.100000*%
%ADD22C,3.300000*%
%ADD23C,2.513000*%
%ADD24C,1.497000*%
%ADD25R,2.300000X4.100000*%
%ADD26O,4.100000X2.300000*%
%ADD27O,2.300000X4.100000*%
%ADD28C,0.100000*%
%ADD29O,1.840000X2.290000*%
%ADD30C,1.540000*%
G04 APERTURE END LIST*
D10*
%TO.C,JP2*%
X225806000Y-113538000D03*
D11*
X228346000Y-113538000D03*
%TD*%
%TO.C,JP1*%
X228346000Y-107950000D03*
D10*
X225806000Y-107950000D03*
%TD*%
D12*
%TO.C,DS1*%
X261620000Y-65786000D03*
D13*
X259080000Y-65786000D03*
X256540000Y-65786000D03*
X254000000Y-65786000D03*
X251460000Y-65786000D03*
X248920000Y-65786000D03*
X246380000Y-65786000D03*
X243840000Y-65786000D03*
X241300000Y-65786000D03*
X238760000Y-65786000D03*
X236220000Y-65786000D03*
X233680000Y-65786000D03*
X231140000Y-65786000D03*
X228600000Y-65786000D03*
X226060000Y-65786000D03*
X223520000Y-65786000D03*
D14*
X267119100Y-65786000D03*
X267119100Y-96786700D03*
X192120520Y-96786700D03*
X192120000Y-65786000D03*
%TD*%
D15*
%TO.C,J1*%
X261112000Y-94615000D03*
X261112000Y-92583000D03*
X266192000Y-93599000D03*
%TD*%
D16*
%TO.C,J2*%
X183515000Y-121031000D03*
D17*
X186690000Y-124206000D03*
D16*
X189865000Y-121031000D03*
X183515000Y-127381000D03*
X189865000Y-127381000D03*
%TD*%
%TO.C,J3*%
X189865000Y-110617000D03*
X183515000Y-110617000D03*
X189865000Y-104267000D03*
D17*
X186690000Y-107442000D03*
D16*
X183515000Y-104267000D03*
%TD*%
D18*
%TO.C,X1*%
X262468000Y-143764000D03*
X266868000Y-143764000D03*
%TD*%
D19*
%TO.C,SW1*%
X205508000Y-136986000D03*
X205508000Y-141986000D03*
D20*
X198508000Y-133886000D03*
X198508000Y-145086000D03*
D19*
X191008000Y-136986000D03*
X191008000Y-139486000D03*
D21*
X191008000Y-141986000D03*
%TD*%
D22*
%TO.C,H1*%
X183642000Y-144272000D03*
%TD*%
%TO.C,H2*%
X275082000Y-144272000D03*
%TD*%
%TO.C,H3*%
X183642000Y-65786000D03*
%TD*%
%TO.C,H4*%
X275082000Y-65786000D03*
%TD*%
D23*
%TO.C,J5*%
X243984002Y-144030000D03*
X255984000Y-144030000D03*
D24*
X246983999Y-140970000D03*
X248183999Y-138430000D03*
X249384000Y-140970000D03*
X250584000Y-138430000D03*
X251784000Y-140970000D03*
X252984000Y-138430000D03*
%TD*%
D25*
%TO.C,J4*%
X239522000Y-142494000D03*
D26*
X239022000Y-135194000D03*
D27*
X232422000Y-139594000D03*
X229722000Y-138394000D03*
D26*
X234922000Y-146394000D03*
%TD*%
%TO.C,J6*%
X220690000Y-146394000D03*
D27*
X215490000Y-138394000D03*
X218190000Y-139594000D03*
D26*
X224790000Y-135194000D03*
D25*
X225290000Y-142494000D03*
%TD*%
D28*
%TO.C,JP3*%
G36*
X220645545Y-90042273D02*
G01*
X220671208Y-90046080D01*
X220696375Y-90052384D01*
X220720802Y-90061124D01*
X220744255Y-90072216D01*
X220766507Y-90085554D01*
X220787346Y-90101009D01*
X220806569Y-90118431D01*
X220823991Y-90137654D01*
X220839446Y-90158493D01*
X220852784Y-90180745D01*
X220863876Y-90204198D01*
X220872616Y-90228625D01*
X220878920Y-90253792D01*
X220882727Y-90279455D01*
X220884000Y-90305367D01*
X220884000Y-92066633D01*
X220882727Y-92092545D01*
X220878920Y-92118208D01*
X220872616Y-92143375D01*
X220863876Y-92167802D01*
X220852784Y-92191255D01*
X220839446Y-92213507D01*
X220823991Y-92234346D01*
X220806569Y-92253569D01*
X220787346Y-92270991D01*
X220766507Y-92286446D01*
X220744255Y-92299784D01*
X220720802Y-92310876D01*
X220696375Y-92319616D01*
X220671208Y-92325920D01*
X220645545Y-92329727D01*
X220619633Y-92331000D01*
X219308367Y-92331000D01*
X219282455Y-92329727D01*
X219256792Y-92325920D01*
X219231625Y-92319616D01*
X219207198Y-92310876D01*
X219183745Y-92299784D01*
X219161493Y-92286446D01*
X219140654Y-92270991D01*
X219121431Y-92253569D01*
X219104009Y-92234346D01*
X219088554Y-92213507D01*
X219075216Y-92191255D01*
X219064124Y-92167802D01*
X219055384Y-92143375D01*
X219049080Y-92118208D01*
X219045273Y-92092545D01*
X219044000Y-92066633D01*
X219044000Y-90305367D01*
X219045273Y-90279455D01*
X219049080Y-90253792D01*
X219055384Y-90228625D01*
X219064124Y-90204198D01*
X219075216Y-90180745D01*
X219088554Y-90158493D01*
X219104009Y-90137654D01*
X219121431Y-90118431D01*
X219140654Y-90101009D01*
X219161493Y-90085554D01*
X219183745Y-90072216D01*
X219207198Y-90061124D01*
X219231625Y-90052384D01*
X219256792Y-90046080D01*
X219282455Y-90042273D01*
X219308367Y-90041000D01*
X220619633Y-90041000D01*
X220645545Y-90042273D01*
G37*
D29*
X222504000Y-91186000D03*
%TD*%
%TO.C,JP4*%
X222504000Y-78740000D03*
D28*
G36*
X220645545Y-77596273D02*
G01*
X220671208Y-77600080D01*
X220696375Y-77606384D01*
X220720802Y-77615124D01*
X220744255Y-77626216D01*
X220766507Y-77639554D01*
X220787346Y-77655009D01*
X220806569Y-77672431D01*
X220823991Y-77691654D01*
X220839446Y-77712493D01*
X220852784Y-77734745D01*
X220863876Y-77758198D01*
X220872616Y-77782625D01*
X220878920Y-77807792D01*
X220882727Y-77833455D01*
X220884000Y-77859367D01*
X220884000Y-79620633D01*
X220882727Y-79646545D01*
X220878920Y-79672208D01*
X220872616Y-79697375D01*
X220863876Y-79721802D01*
X220852784Y-79745255D01*
X220839446Y-79767507D01*
X220823991Y-79788346D01*
X220806569Y-79807569D01*
X220787346Y-79824991D01*
X220766507Y-79840446D01*
X220744255Y-79853784D01*
X220720802Y-79864876D01*
X220696375Y-79873616D01*
X220671208Y-79879920D01*
X220645545Y-79883727D01*
X220619633Y-79885000D01*
X219308367Y-79885000D01*
X219282455Y-79883727D01*
X219256792Y-79879920D01*
X219231625Y-79873616D01*
X219207198Y-79864876D01*
X219183745Y-79853784D01*
X219161493Y-79840446D01*
X219140654Y-79824991D01*
X219121431Y-79807569D01*
X219104009Y-79788346D01*
X219088554Y-79767507D01*
X219075216Y-79745255D01*
X219064124Y-79721802D01*
X219055384Y-79697375D01*
X219049080Y-79672208D01*
X219045273Y-79646545D01*
X219044000Y-79620633D01*
X219044000Y-77859367D01*
X219045273Y-77833455D01*
X219049080Y-77807792D01*
X219055384Y-77782625D01*
X219064124Y-77758198D01*
X219075216Y-77734745D01*
X219088554Y-77712493D01*
X219104009Y-77691654D01*
X219121431Y-77672431D01*
X219140654Y-77655009D01*
X219161493Y-77639554D01*
X219183745Y-77626216D01*
X219207198Y-77615124D01*
X219231625Y-77606384D01*
X219256792Y-77600080D01*
X219282455Y-77596273D01*
X219308367Y-77595000D01*
X220619633Y-77595000D01*
X220645545Y-77596273D01*
G37*
%TD*%
D29*
%TO.C,JP6*%
X235204000Y-78994000D03*
D28*
G36*
X233345545Y-77850273D02*
G01*
X233371208Y-77854080D01*
X233396375Y-77860384D01*
X233420802Y-77869124D01*
X233444255Y-77880216D01*
X233466507Y-77893554D01*
X233487346Y-77909009D01*
X233506569Y-77926431D01*
X233523991Y-77945654D01*
X233539446Y-77966493D01*
X233552784Y-77988745D01*
X233563876Y-78012198D01*
X233572616Y-78036625D01*
X233578920Y-78061792D01*
X233582727Y-78087455D01*
X233584000Y-78113367D01*
X233584000Y-79874633D01*
X233582727Y-79900545D01*
X233578920Y-79926208D01*
X233572616Y-79951375D01*
X233563876Y-79975802D01*
X233552784Y-79999255D01*
X233539446Y-80021507D01*
X233523991Y-80042346D01*
X233506569Y-80061569D01*
X233487346Y-80078991D01*
X233466507Y-80094446D01*
X233444255Y-80107784D01*
X233420802Y-80118876D01*
X233396375Y-80127616D01*
X233371208Y-80133920D01*
X233345545Y-80137727D01*
X233319633Y-80139000D01*
X232008367Y-80139000D01*
X231982455Y-80137727D01*
X231956792Y-80133920D01*
X231931625Y-80127616D01*
X231907198Y-80118876D01*
X231883745Y-80107784D01*
X231861493Y-80094446D01*
X231840654Y-80078991D01*
X231821431Y-80061569D01*
X231804009Y-80042346D01*
X231788554Y-80021507D01*
X231775216Y-79999255D01*
X231764124Y-79975802D01*
X231755384Y-79951375D01*
X231749080Y-79926208D01*
X231745273Y-79900545D01*
X231744000Y-79874633D01*
X231744000Y-78113367D01*
X231745273Y-78087455D01*
X231749080Y-78061792D01*
X231755384Y-78036625D01*
X231764124Y-78012198D01*
X231775216Y-77988745D01*
X231788554Y-77966493D01*
X231804009Y-77945654D01*
X231821431Y-77926431D01*
X231840654Y-77909009D01*
X231861493Y-77893554D01*
X231883745Y-77880216D01*
X231907198Y-77869124D01*
X231931625Y-77860384D01*
X231956792Y-77854080D01*
X231982455Y-77850273D01*
X232008367Y-77849000D01*
X233319633Y-77849000D01*
X233345545Y-77850273D01*
G37*
%TD*%
%TO.C,JP7*%
G36*
X233345545Y-90042273D02*
G01*
X233371208Y-90046080D01*
X233396375Y-90052384D01*
X233420802Y-90061124D01*
X233444255Y-90072216D01*
X233466507Y-90085554D01*
X233487346Y-90101009D01*
X233506569Y-90118431D01*
X233523991Y-90137654D01*
X233539446Y-90158493D01*
X233552784Y-90180745D01*
X233563876Y-90204198D01*
X233572616Y-90228625D01*
X233578920Y-90253792D01*
X233582727Y-90279455D01*
X233584000Y-90305367D01*
X233584000Y-92066633D01*
X233582727Y-92092545D01*
X233578920Y-92118208D01*
X233572616Y-92143375D01*
X233563876Y-92167802D01*
X233552784Y-92191255D01*
X233539446Y-92213507D01*
X233523991Y-92234346D01*
X233506569Y-92253569D01*
X233487346Y-92270991D01*
X233466507Y-92286446D01*
X233444255Y-92299784D01*
X233420802Y-92310876D01*
X233396375Y-92319616D01*
X233371208Y-92325920D01*
X233345545Y-92329727D01*
X233319633Y-92331000D01*
X232008367Y-92331000D01*
X231982455Y-92329727D01*
X231956792Y-92325920D01*
X231931625Y-92319616D01*
X231907198Y-92310876D01*
X231883745Y-92299784D01*
X231861493Y-92286446D01*
X231840654Y-92270991D01*
X231821431Y-92253569D01*
X231804009Y-92234346D01*
X231788554Y-92213507D01*
X231775216Y-92191255D01*
X231764124Y-92167802D01*
X231755384Y-92143375D01*
X231749080Y-92118208D01*
X231745273Y-92092545D01*
X231744000Y-92066633D01*
X231744000Y-90305367D01*
X231745273Y-90279455D01*
X231749080Y-90253792D01*
X231755384Y-90228625D01*
X231764124Y-90204198D01*
X231775216Y-90180745D01*
X231788554Y-90158493D01*
X231804009Y-90137654D01*
X231821431Y-90118431D01*
X231840654Y-90101009D01*
X231861493Y-90085554D01*
X231883745Y-90072216D01*
X231907198Y-90061124D01*
X231931625Y-90052384D01*
X231956792Y-90046080D01*
X231982455Y-90042273D01*
X232008367Y-90041000D01*
X233319633Y-90041000D01*
X233345545Y-90042273D01*
G37*
D29*
X235204000Y-91186000D03*
%TD*%
D30*
%TO.C,RV1*%
X273558000Y-101854000D03*
X271018000Y-104394000D03*
X273558000Y-106934000D03*
%TD*%
D28*
%TO.C,JP5*%
G36*
X251887545Y-121792273D02*
G01*
X251913208Y-121796080D01*
X251938375Y-121802384D01*
X251962802Y-121811124D01*
X251986255Y-121822216D01*
X252008507Y-121835554D01*
X252029346Y-121851009D01*
X252048569Y-121868431D01*
X252065991Y-121887654D01*
X252081446Y-121908493D01*
X252094784Y-121930745D01*
X252105876Y-121954198D01*
X252114616Y-121978625D01*
X252120920Y-122003792D01*
X252124727Y-122029455D01*
X252126000Y-122055367D01*
X252126000Y-123816633D01*
X252124727Y-123842545D01*
X252120920Y-123868208D01*
X252114616Y-123893375D01*
X252105876Y-123917802D01*
X252094784Y-123941255D01*
X252081446Y-123963507D01*
X252065991Y-123984346D01*
X252048569Y-124003569D01*
X252029346Y-124020991D01*
X252008507Y-124036446D01*
X251986255Y-124049784D01*
X251962802Y-124060876D01*
X251938375Y-124069616D01*
X251913208Y-124075920D01*
X251887545Y-124079727D01*
X251861633Y-124081000D01*
X250550367Y-124081000D01*
X250524455Y-124079727D01*
X250498792Y-124075920D01*
X250473625Y-124069616D01*
X250449198Y-124060876D01*
X250425745Y-124049784D01*
X250403493Y-124036446D01*
X250382654Y-124020991D01*
X250363431Y-124003569D01*
X250346009Y-123984346D01*
X250330554Y-123963507D01*
X250317216Y-123941255D01*
X250306124Y-123917802D01*
X250297384Y-123893375D01*
X250291080Y-123868208D01*
X250287273Y-123842545D01*
X250286000Y-123816633D01*
X250286000Y-122055367D01*
X250287273Y-122029455D01*
X250291080Y-122003792D01*
X250297384Y-121978625D01*
X250306124Y-121954198D01*
X250317216Y-121930745D01*
X250330554Y-121908493D01*
X250346009Y-121887654D01*
X250363431Y-121868431D01*
X250382654Y-121851009D01*
X250403493Y-121835554D01*
X250425745Y-121822216D01*
X250449198Y-121811124D01*
X250473625Y-121802384D01*
X250498792Y-121796080D01*
X250524455Y-121792273D01*
X250550367Y-121791000D01*
X251861633Y-121791000D01*
X251887545Y-121792273D01*
G37*
D29*
X253746000Y-122936000D03*
%TD*%
M02*
