%TF.GenerationSoftware,KiCad,Pcbnew,5.1.6-c6e7f7d~87~ubuntu18.04.1*%
%TF.CreationDate,2020-07-30T09:40:34-05:00*%
%TF.ProjectId,pHMeter,70484d65-7465-4722-9e6b-696361645f70,0.1*%
%TF.SameCoordinates,Original*%
%TF.FileFunction,Legend,Top*%
%TF.FilePolarity,Positive*%
%FSLAX46Y46*%
G04 Gerber Fmt 4.6, Leading zero omitted, Abs format (unit mm)*
G04 Created by KiCad (PCBNEW 5.1.6-c6e7f7d~87~ubuntu18.04.1) date 2020-07-30 09:40:34*
%MOMM*%
%LPD*%
G01*
G04 APERTURE LIST*
%ADD10C,0.120000*%
%ADD11C,0.508000*%
%ADD12C,0.300000*%
%ADD13C,0.150000*%
%ADD14C,0.152400*%
G04 APERTURE END LIST*
D10*
X246888000Y-117348000D02*
X243586000Y-120650000D01*
X252222000Y-117348000D02*
X246888000Y-117348000D01*
D11*
X243997238Y-122500571D02*
X244360095Y-122621523D01*
X244481047Y-122742476D01*
X244602000Y-122984380D01*
X244602000Y-123347238D01*
X244481047Y-123589142D01*
X244360095Y-123710095D01*
X244118190Y-123831047D01*
X243150571Y-123831047D01*
X243150571Y-121291047D01*
X243997238Y-121291047D01*
X244239142Y-121412000D01*
X244360095Y-121532952D01*
X244481047Y-121774857D01*
X244481047Y-122016761D01*
X244360095Y-122258666D01*
X244239142Y-122379619D01*
X243997238Y-122500571D01*
X243150571Y-122500571D01*
X245569619Y-123105333D02*
X246779142Y-123105333D01*
X245327714Y-123831047D02*
X246174380Y-121291047D01*
X247021047Y-123831047D01*
X247504857Y-121291047D02*
X248956285Y-121291047D01*
X248230571Y-123831047D02*
X248230571Y-121291047D01*
D12*
X222570523Y-110048523D02*
X223296238Y-110048523D01*
X222933380Y-111318523D02*
X222933380Y-110048523D01*
X224203380Y-111258047D02*
X224082428Y-111318523D01*
X223840523Y-111318523D01*
X223719571Y-111258047D01*
X223659095Y-111137095D01*
X223659095Y-110653285D01*
X223719571Y-110532333D01*
X223840523Y-110471857D01*
X224082428Y-110471857D01*
X224203380Y-110532333D01*
X224263857Y-110653285D01*
X224263857Y-110774238D01*
X223659095Y-110895190D01*
X224747666Y-111258047D02*
X224868619Y-111318523D01*
X225110523Y-111318523D01*
X225231476Y-111258047D01*
X225291952Y-111137095D01*
X225291952Y-111076619D01*
X225231476Y-110955666D01*
X225110523Y-110895190D01*
X224929095Y-110895190D01*
X224808142Y-110834714D01*
X224747666Y-110713761D01*
X224747666Y-110653285D01*
X224808142Y-110532333D01*
X224929095Y-110471857D01*
X225110523Y-110471857D01*
X225231476Y-110532333D01*
X225654809Y-110471857D02*
X226138619Y-110471857D01*
X225836238Y-110048523D02*
X225836238Y-111137095D01*
X225896714Y-111258047D01*
X226017666Y-111318523D01*
X226138619Y-111318523D01*
X228194809Y-111318523D02*
X227469095Y-111318523D01*
X227831952Y-111318523D02*
X227831952Y-110048523D01*
X227711000Y-110229952D01*
X227590047Y-110350904D01*
X227469095Y-110411380D01*
X228678619Y-110169476D02*
X228739095Y-110109000D01*
X228860047Y-110048523D01*
X229162428Y-110048523D01*
X229283380Y-110109000D01*
X229343857Y-110169476D01*
X229404333Y-110290428D01*
X229404333Y-110411380D01*
X229343857Y-110592809D01*
X228618142Y-111318523D01*
X229404333Y-111318523D01*
X230734809Y-110048523D02*
X231158142Y-111318523D01*
X231581476Y-110048523D01*
D10*
X257810000Y-148590000D02*
X242316000Y-148590000D01*
X257810000Y-131318000D02*
X257810000Y-148590000D01*
X242316000Y-131318000D02*
X257810000Y-131318000D01*
X242316000Y-148590000D02*
X242316000Y-131318000D01*
X242062000Y-148590000D02*
X213360000Y-148590000D01*
X242062000Y-121158000D02*
X242062000Y-148590000D01*
X224790000Y-121158000D02*
X242062000Y-121158000D01*
X224790000Y-124460000D02*
X224790000Y-121158000D01*
X213360000Y-124460000D02*
X224790000Y-124460000D01*
X213360000Y-148590000D02*
X213360000Y-124460000D01*
X197866000Y-71120000D02*
X197866000Y-92202000D01*
X216916000Y-71120000D02*
X197866000Y-71120000D01*
X216916000Y-92202000D02*
X216916000Y-71120000D01*
X197866000Y-92202000D02*
X216916000Y-92202000D01*
D12*
X206469428Y-73532500D02*
X207556571Y-73532500D01*
X206252000Y-74184785D02*
X207013000Y-71901785D01*
X207774000Y-74184785D01*
X208535000Y-74184785D02*
X208535000Y-71901785D01*
X209078571Y-71901785D01*
X209404714Y-72010500D01*
X209622142Y-72227928D01*
X209730857Y-72445357D01*
X209839571Y-72880214D01*
X209839571Y-73206357D01*
X209730857Y-73641214D01*
X209622142Y-73858642D01*
X209404714Y-74076071D01*
X209078571Y-74184785D01*
X208535000Y-74184785D01*
X212122571Y-73967357D02*
X212013857Y-74076071D01*
X211687714Y-74184785D01*
X211470285Y-74184785D01*
X211144142Y-74076071D01*
X210926714Y-73858642D01*
X210818000Y-73641214D01*
X210709285Y-73206357D01*
X210709285Y-72880214D01*
X210818000Y-72445357D01*
X210926714Y-72227928D01*
X211144142Y-72010500D01*
X211470285Y-71901785D01*
X211687714Y-71901785D01*
X212013857Y-72010500D01*
X212122571Y-72119214D01*
X256002666Y-94749047D02*
X255436000Y-93939523D01*
X255031238Y-94749047D02*
X255031238Y-93049047D01*
X255678857Y-93049047D01*
X255840761Y-93130000D01*
X255921714Y-93210952D01*
X256002666Y-93372857D01*
X256002666Y-93615714D01*
X255921714Y-93777619D01*
X255840761Y-93858571D01*
X255678857Y-93939523D01*
X255031238Y-93939523D01*
X256569333Y-93049047D02*
X257702666Y-94749047D01*
X257702666Y-93049047D02*
X256569333Y-94749047D01*
X254990761Y-96605047D02*
X255962190Y-96605047D01*
X255476476Y-98305047D02*
X255476476Y-96605047D01*
X256366952Y-96605047D02*
X257500285Y-98305047D01*
X257500285Y-96605047D02*
X256366952Y-98305047D01*
X217064285Y-68342785D02*
X217064285Y-66059785D01*
X219782142Y-65951071D02*
X217825285Y-68886357D01*
X220978000Y-66059785D02*
X221412857Y-66059785D01*
X221630285Y-66168500D01*
X221847714Y-66385928D01*
X221956428Y-66820785D01*
X221956428Y-67581785D01*
X221847714Y-68016642D01*
X221630285Y-68234071D01*
X221412857Y-68342785D01*
X220978000Y-68342785D01*
X220760571Y-68234071D01*
X220543142Y-68016642D01*
X220434428Y-67581785D01*
X220434428Y-66820785D01*
X220543142Y-66385928D01*
X220760571Y-66168500D01*
X220978000Y-66059785D01*
D10*
X217424000Y-95250000D02*
X243332000Y-95250000D01*
X217424000Y-69596000D02*
X217424000Y-95250000D01*
X243332000Y-69596000D02*
X217424000Y-69596000D01*
X243332000Y-95250000D02*
X243332000Y-69596000D01*
D11*
X238929333Y-75317047D02*
X240501714Y-75317047D01*
X239655047Y-76284666D01*
X240017904Y-76284666D01*
X240259809Y-76405619D01*
X240380761Y-76526571D01*
X240501714Y-76768476D01*
X240501714Y-77373238D01*
X240380761Y-77615142D01*
X240259809Y-77736095D01*
X240017904Y-77857047D01*
X239292190Y-77857047D01*
X239050285Y-77736095D01*
X238929333Y-77615142D01*
X240259809Y-88355714D02*
X240259809Y-90049047D01*
X239655047Y-87388095D02*
X239050285Y-89202380D01*
X240622666Y-89202380D01*
X226604285Y-87750952D02*
X226725238Y-87630000D01*
X226967142Y-87509047D01*
X227571904Y-87509047D01*
X227813809Y-87630000D01*
X227934761Y-87750952D01*
X228055714Y-87992857D01*
X228055714Y-88234761D01*
X227934761Y-88597619D01*
X226483333Y-90049047D01*
X228055714Y-90049047D01*
X228055714Y-77603047D02*
X226604285Y-77603047D01*
X227330000Y-77603047D02*
X227330000Y-75063047D01*
X227088095Y-75425904D01*
X226846190Y-75667809D01*
X226604285Y-75788761D01*
D12*
X269915071Y-134639785D02*
X269915071Y-136487928D01*
X270023785Y-136705357D01*
X270132500Y-136814071D01*
X270349928Y-136922785D01*
X270784785Y-136922785D01*
X271002214Y-136814071D01*
X271110928Y-136705357D01*
X271219642Y-136487928D01*
X271219642Y-134639785D01*
X272198071Y-136814071D02*
X272524214Y-136922785D01*
X273067785Y-136922785D01*
X273285214Y-136814071D01*
X273393928Y-136705357D01*
X273502642Y-136487928D01*
X273502642Y-136270500D01*
X273393928Y-136053071D01*
X273285214Y-135944357D01*
X273067785Y-135835642D01*
X272632928Y-135726928D01*
X272415500Y-135618214D01*
X272306785Y-135509500D01*
X272198071Y-135292071D01*
X272198071Y-135074642D01*
X272306785Y-134857214D01*
X272415500Y-134748500D01*
X272632928Y-134639785D01*
X273176500Y-134639785D01*
X273502642Y-134748500D01*
X275242071Y-135726928D02*
X275568214Y-135835642D01*
X275676928Y-135944357D01*
X275785642Y-136161785D01*
X275785642Y-136487928D01*
X275676928Y-136705357D01*
X275568214Y-136814071D01*
X275350785Y-136922785D01*
X274481071Y-136922785D01*
X274481071Y-134639785D01*
X275242071Y-134639785D01*
X275459500Y-134748500D01*
X275568214Y-134857214D01*
X275676928Y-135074642D01*
X275676928Y-135292071D01*
X275568214Y-135509500D01*
X275459500Y-135618214D01*
X275242071Y-135726928D01*
X274481071Y-135726928D01*
X251517357Y-134636785D02*
X251517357Y-132353785D01*
X252495785Y-132571214D02*
X252604500Y-132462500D01*
X252821928Y-132353785D01*
X253365500Y-132353785D01*
X253582928Y-132462500D01*
X253691642Y-132571214D01*
X253800357Y-132788642D01*
X253800357Y-133006071D01*
X253691642Y-133332214D01*
X252387071Y-134636785D01*
X253800357Y-134636785D01*
X256083357Y-134419357D02*
X255974642Y-134528071D01*
X255648500Y-134636785D01*
X255431071Y-134636785D01*
X255104928Y-134528071D01*
X254887500Y-134310642D01*
X254778785Y-134093214D01*
X254670071Y-133658357D01*
X254670071Y-133332214D01*
X254778785Y-132897357D01*
X254887500Y-132679928D01*
X255104928Y-132462500D01*
X255431071Y-132353785D01*
X255648500Y-132353785D01*
X255974642Y-132462500D01*
X256083357Y-132571214D01*
X226286428Y-121685785D02*
X226721285Y-121685785D01*
X226938714Y-121794500D01*
X227156142Y-122011928D01*
X227264857Y-122446785D01*
X227264857Y-123207785D01*
X227156142Y-123642642D01*
X226938714Y-123860071D01*
X226721285Y-123968785D01*
X226286428Y-123968785D01*
X226069000Y-123860071D01*
X225851571Y-123642642D01*
X225742857Y-123207785D01*
X225742857Y-122446785D01*
X225851571Y-122011928D01*
X226069000Y-121794500D01*
X226286428Y-121685785D01*
X228243285Y-122446785D02*
X228243285Y-123968785D01*
X228243285Y-122664214D02*
X228352000Y-122555500D01*
X228569428Y-122446785D01*
X228895571Y-122446785D01*
X229113000Y-122555500D01*
X229221714Y-122772928D01*
X229221714Y-123968785D01*
X231178571Y-123860071D02*
X230961142Y-123968785D01*
X230526285Y-123968785D01*
X230308857Y-123860071D01*
X230200142Y-123642642D01*
X230200142Y-122772928D01*
X230308857Y-122555500D01*
X230526285Y-122446785D01*
X230961142Y-122446785D01*
X231178571Y-122555500D01*
X231287285Y-122772928D01*
X231287285Y-122990357D01*
X230200142Y-123207785D01*
X233787714Y-121685785D02*
X234331285Y-123968785D01*
X234766142Y-122338071D01*
X235201000Y-123968785D01*
X235744571Y-121685785D01*
X236614285Y-123968785D02*
X236614285Y-122446785D01*
X236614285Y-121685785D02*
X236505571Y-121794500D01*
X236614285Y-121903214D01*
X236723000Y-121794500D01*
X236614285Y-121685785D01*
X236614285Y-121903214D01*
X237701428Y-123968785D02*
X237701428Y-122446785D01*
X237701428Y-122881642D02*
X237810142Y-122664214D01*
X237918857Y-122555500D01*
X238136285Y-122446785D01*
X238353714Y-122446785D01*
X239984428Y-123860071D02*
X239767000Y-123968785D01*
X239332142Y-123968785D01*
X239114714Y-123860071D01*
X239006000Y-123642642D01*
X239006000Y-122772928D01*
X239114714Y-122555500D01*
X239332142Y-122446785D01*
X239767000Y-122446785D01*
X239984428Y-122555500D01*
X240093142Y-122772928D01*
X240093142Y-122990357D01*
X239006000Y-123207785D01*
D10*
X259334000Y-91186000D02*
X243586000Y-91186000D01*
X259334000Y-96266000D02*
X259334000Y-91186000D01*
D12*
X209820785Y-142745000D02*
X209820785Y-144049571D01*
X209820785Y-143397285D02*
X207537785Y-143397285D01*
X207863928Y-143614714D01*
X208081357Y-143832142D01*
X208190071Y-144049571D01*
X207755214Y-141875285D02*
X207646500Y-141766571D01*
X207537785Y-141549142D01*
X207537785Y-141005571D01*
X207646500Y-140788142D01*
X207755214Y-140679428D01*
X207972642Y-140570714D01*
X208190071Y-140570714D01*
X208516214Y-140679428D01*
X209820785Y-141984000D01*
X209820785Y-140570714D01*
X207537785Y-138179000D02*
X209820785Y-137418000D01*
X207537785Y-136657000D01*
D10*
X221488000Y-122174000D02*
X221488000Y-100838000D01*
X221488000Y-122174000D02*
X220980000Y-122174000D01*
X214630000Y-93980000D02*
X221488000Y-100838000D01*
X193294000Y-93980000D02*
X214630000Y-93980000D01*
X193294000Y-122174000D02*
X193294000Y-93980000D01*
X220980000Y-122174000D02*
X193294000Y-122174000D01*
D12*
X196592214Y-120703357D02*
X196483500Y-120812071D01*
X196157357Y-120920785D01*
X195939928Y-120920785D01*
X195613785Y-120812071D01*
X195396357Y-120594642D01*
X195287642Y-120377214D01*
X195178928Y-119942357D01*
X195178928Y-119616214D01*
X195287642Y-119181357D01*
X195396357Y-118963928D01*
X195613785Y-118746500D01*
X195939928Y-118637785D01*
X196157357Y-118637785D01*
X196483500Y-118746500D01*
X196592214Y-118855214D01*
X197896785Y-120920785D02*
X197679357Y-120812071D01*
X197570642Y-120703357D01*
X197461928Y-120485928D01*
X197461928Y-119833642D01*
X197570642Y-119616214D01*
X197679357Y-119507500D01*
X197896785Y-119398785D01*
X198222928Y-119398785D01*
X198440357Y-119507500D01*
X198549071Y-119616214D01*
X198657785Y-119833642D01*
X198657785Y-120485928D01*
X198549071Y-120703357D01*
X198440357Y-120812071D01*
X198222928Y-120920785D01*
X197896785Y-120920785D01*
X199636214Y-119398785D02*
X199636214Y-120920785D01*
X199636214Y-119616214D02*
X199744928Y-119507500D01*
X199962357Y-119398785D01*
X200288500Y-119398785D01*
X200505928Y-119507500D01*
X200614642Y-119724928D01*
X200614642Y-120920785D01*
X202680214Y-120920785D02*
X202680214Y-118637785D01*
X202680214Y-120812071D02*
X202462785Y-120920785D01*
X202027928Y-120920785D01*
X201810500Y-120812071D01*
X201701785Y-120703357D01*
X201593071Y-120485928D01*
X201593071Y-119833642D01*
X201701785Y-119616214D01*
X201810500Y-119507500D01*
X202027928Y-119398785D01*
X202462785Y-119398785D01*
X202680214Y-119507500D01*
X204745785Y-119398785D02*
X204745785Y-120920785D01*
X203767357Y-119398785D02*
X203767357Y-120594642D01*
X203876071Y-120812071D01*
X204093500Y-120920785D01*
X204419642Y-120920785D01*
X204637071Y-120812071D01*
X204745785Y-120703357D01*
X206811357Y-120812071D02*
X206593928Y-120920785D01*
X206159071Y-120920785D01*
X205941642Y-120812071D01*
X205832928Y-120703357D01*
X205724214Y-120485928D01*
X205724214Y-119833642D01*
X205832928Y-119616214D01*
X205941642Y-119507500D01*
X206159071Y-119398785D01*
X206593928Y-119398785D01*
X206811357Y-119507500D01*
X207463642Y-119398785D02*
X208333357Y-119398785D01*
X207789785Y-118637785D02*
X207789785Y-120594642D01*
X207898500Y-120812071D01*
X208115928Y-120920785D01*
X208333357Y-120920785D01*
X209420500Y-120920785D02*
X209203071Y-120812071D01*
X209094357Y-120703357D01*
X208985642Y-120485928D01*
X208985642Y-119833642D01*
X209094357Y-119616214D01*
X209203071Y-119507500D01*
X209420500Y-119398785D01*
X209746642Y-119398785D01*
X209964071Y-119507500D01*
X210072785Y-119616214D01*
X210181500Y-119833642D01*
X210181500Y-120485928D01*
X210072785Y-120703357D01*
X209964071Y-120812071D01*
X209746642Y-120920785D01*
X209420500Y-120920785D01*
X211159928Y-120920785D02*
X211159928Y-119398785D01*
X211159928Y-119616214D02*
X211268642Y-119507500D01*
X211486071Y-119398785D01*
X211812214Y-119398785D01*
X212029642Y-119507500D01*
X212138357Y-119724928D01*
X212138357Y-120920785D01*
X212138357Y-119724928D02*
X212247071Y-119507500D01*
X212464500Y-119398785D01*
X212790642Y-119398785D01*
X213008071Y-119507500D01*
X213116785Y-119724928D01*
X213116785Y-120920785D01*
X215073642Y-120812071D02*
X214856214Y-120920785D01*
X214421357Y-120920785D01*
X214203928Y-120812071D01*
X214095214Y-120594642D01*
X214095214Y-119724928D01*
X214203928Y-119507500D01*
X214421357Y-119398785D01*
X214856214Y-119398785D01*
X215073642Y-119507500D01*
X215182357Y-119724928D01*
X215182357Y-119942357D01*
X214095214Y-120159785D01*
X215834642Y-119398785D02*
X216704357Y-119398785D01*
X216160785Y-118637785D02*
X216160785Y-120594642D01*
X216269500Y-120812071D01*
X216486928Y-120920785D01*
X216704357Y-120920785D01*
X218335071Y-120812071D02*
X218117642Y-120920785D01*
X217682785Y-120920785D01*
X217465357Y-120812071D01*
X217356642Y-120594642D01*
X217356642Y-119724928D01*
X217465357Y-119507500D01*
X217682785Y-119398785D01*
X218117642Y-119398785D01*
X218335071Y-119507500D01*
X218443785Y-119724928D01*
X218443785Y-119942357D01*
X217356642Y-120159785D01*
X219422214Y-120920785D02*
X219422214Y-119398785D01*
X219422214Y-119833642D02*
X219530928Y-119616214D01*
X219639642Y-119507500D01*
X219857071Y-119398785D01*
X220074500Y-119398785D01*
D10*
X197104000Y-75946000D02*
X197104000Y-92202000D01*
X181356000Y-75946000D02*
X197104000Y-75946000D01*
X181356000Y-88900000D02*
X181356000Y-75946000D01*
X184658000Y-92202000D02*
X181356000Y-88900000D01*
X197104000Y-92202000D02*
X184658000Y-92202000D01*
D12*
X184642214Y-90440785D02*
X184642214Y-88157785D01*
X185511928Y-88157785D01*
X185729357Y-88266500D01*
X185838071Y-88375214D01*
X185946785Y-88592642D01*
X185946785Y-88918785D01*
X185838071Y-89136214D01*
X185729357Y-89244928D01*
X185511928Y-89353642D01*
X184642214Y-89353642D01*
X186925214Y-90440785D02*
X186925214Y-88157785D01*
X186925214Y-89244928D02*
X188229785Y-89244928D01*
X188229785Y-90440785D02*
X188229785Y-88157785D01*
D10*
X252222000Y-119126000D02*
X252222000Y-118618000D01*
X233172000Y-100584000D02*
X233172000Y-120650000D01*
X252222000Y-100584000D02*
X233172000Y-100584000D01*
X252222000Y-117348000D02*
X252222000Y-100584000D01*
X233172000Y-120650000D02*
X243586000Y-120650000D01*
D12*
X222522142Y-104460523D02*
X223247857Y-104460523D01*
X222885000Y-105730523D02*
X222885000Y-104460523D01*
X224155000Y-105670047D02*
X224034047Y-105730523D01*
X223792142Y-105730523D01*
X223671190Y-105670047D01*
X223610714Y-105549095D01*
X223610714Y-105065285D01*
X223671190Y-104944333D01*
X223792142Y-104883857D01*
X224034047Y-104883857D01*
X224155000Y-104944333D01*
X224215476Y-105065285D01*
X224215476Y-105186238D01*
X223610714Y-105307190D01*
X224699285Y-105670047D02*
X224820238Y-105730523D01*
X225062142Y-105730523D01*
X225183095Y-105670047D01*
X225243571Y-105549095D01*
X225243571Y-105488619D01*
X225183095Y-105367666D01*
X225062142Y-105307190D01*
X224880714Y-105307190D01*
X224759761Y-105246714D01*
X224699285Y-105125761D01*
X224699285Y-105065285D01*
X224759761Y-104944333D01*
X224880714Y-104883857D01*
X225062142Y-104883857D01*
X225183095Y-104944333D01*
X225606428Y-104883857D02*
X226090238Y-104883857D01*
X225787857Y-104460523D02*
X225787857Y-105549095D01*
X225848333Y-105670047D01*
X225969285Y-105730523D01*
X226090238Y-105730523D01*
X227360238Y-104460523D02*
X228146428Y-104460523D01*
X227723095Y-104944333D01*
X227904523Y-104944333D01*
X228025476Y-105004809D01*
X228085952Y-105065285D01*
X228146428Y-105186238D01*
X228146428Y-105488619D01*
X228085952Y-105609571D01*
X228025476Y-105670047D01*
X227904523Y-105730523D01*
X227541666Y-105730523D01*
X227420714Y-105670047D01*
X227360238Y-105609571D01*
X228690714Y-105609571D02*
X228751190Y-105670047D01*
X228690714Y-105730523D01*
X228630238Y-105670047D01*
X228690714Y-105609571D01*
X228690714Y-105730523D01*
X229174523Y-104460523D02*
X229960714Y-104460523D01*
X229537380Y-104944333D01*
X229718809Y-104944333D01*
X229839761Y-105004809D01*
X229900238Y-105065285D01*
X229960714Y-105186238D01*
X229960714Y-105488619D01*
X229900238Y-105609571D01*
X229839761Y-105670047D01*
X229718809Y-105730523D01*
X229355952Y-105730523D01*
X229235000Y-105670047D01*
X229174523Y-105609571D01*
X231291190Y-104460523D02*
X231714523Y-105730523D01*
X232137857Y-104460523D01*
D10*
X254000000Y-117348000D02*
X254000000Y-102108000D01*
X268478000Y-117348000D02*
X254000000Y-117348000D01*
X268478000Y-99822000D02*
X268478000Y-117348000D01*
X256286000Y-99822000D02*
X268478000Y-99822000D01*
X254000000Y-102108000D02*
X256286000Y-99822000D01*
D12*
X259628571Y-101436928D02*
X258867571Y-101436928D01*
X258867571Y-102632785D02*
X258867571Y-100349785D01*
X259954714Y-100349785D01*
X261150571Y-102632785D02*
X260933142Y-102524071D01*
X260824428Y-102306642D01*
X260824428Y-100349785D01*
X262998714Y-102632785D02*
X262998714Y-101436928D01*
X262890000Y-101219500D01*
X262672571Y-101110785D01*
X262237714Y-101110785D01*
X262020285Y-101219500D01*
X262998714Y-102524071D02*
X262781285Y-102632785D01*
X262237714Y-102632785D01*
X262020285Y-102524071D01*
X261911571Y-102306642D01*
X261911571Y-102089214D01*
X262020285Y-101871785D01*
X262237714Y-101763071D01*
X262781285Y-101763071D01*
X262998714Y-101654357D01*
X263977142Y-102524071D02*
X264194571Y-102632785D01*
X264629428Y-102632785D01*
X264846857Y-102524071D01*
X264955571Y-102306642D01*
X264955571Y-102197928D01*
X264846857Y-101980500D01*
X264629428Y-101871785D01*
X264303285Y-101871785D01*
X264085857Y-101763071D01*
X263977142Y-101545642D01*
X263977142Y-101436928D01*
X264085857Y-101219500D01*
X264303285Y-101110785D01*
X264629428Y-101110785D01*
X264846857Y-101219500D01*
X265934000Y-102632785D02*
X265934000Y-100349785D01*
X266912428Y-102632785D02*
X266912428Y-101436928D01*
X266803714Y-101219500D01*
X266586285Y-101110785D01*
X266260142Y-101110785D01*
X266042714Y-101219500D01*
X265934000Y-101328214D01*
X267063714Y-71392785D02*
X267063714Y-72914785D01*
X266085285Y-71392785D02*
X266085285Y-72588642D01*
X266194000Y-72806071D01*
X266411428Y-72914785D01*
X266737571Y-72914785D01*
X266955000Y-72806071D01*
X267063714Y-72697357D01*
X269455428Y-72697357D02*
X269346714Y-72806071D01*
X269020571Y-72914785D01*
X268803142Y-72914785D01*
X268477000Y-72806071D01*
X268259571Y-72588642D01*
X268150857Y-72371214D01*
X268042142Y-71936357D01*
X268042142Y-71610214D01*
X268150857Y-71175357D01*
X268259571Y-70957928D01*
X268477000Y-70740500D01*
X268803142Y-70631785D01*
X269020571Y-70631785D01*
X269346714Y-70740500D01*
X269455428Y-70849214D01*
D10*
X243586000Y-69596000D02*
X243586000Y-91186000D01*
X271526000Y-69596000D02*
X243586000Y-69596000D01*
X276860000Y-74930000D02*
X271526000Y-69596000D01*
X276860000Y-96266000D02*
X276860000Y-74930000D01*
X259334000Y-96266000D02*
X276860000Y-96266000D01*
D12*
X235389857Y-117621785D02*
X236803142Y-117621785D01*
X236042142Y-118491500D01*
X236368285Y-118491500D01*
X236585714Y-118600214D01*
X236694428Y-118708928D01*
X236803142Y-118926357D01*
X236803142Y-119469928D01*
X236694428Y-119687357D01*
X236585714Y-119796071D01*
X236368285Y-119904785D01*
X235716000Y-119904785D01*
X235498571Y-119796071D01*
X235389857Y-119687357D01*
X237781571Y-119687357D02*
X237890285Y-119796071D01*
X237781571Y-119904785D01*
X237672857Y-119796071D01*
X237781571Y-119687357D01*
X237781571Y-119904785D01*
X238651285Y-117621785D02*
X240064571Y-117621785D01*
X239303571Y-118491500D01*
X239629714Y-118491500D01*
X239847142Y-118600214D01*
X239955857Y-118708928D01*
X240064571Y-118926357D01*
X240064571Y-119469928D01*
X239955857Y-119687357D01*
X239847142Y-119796071D01*
X239629714Y-119904785D01*
X238977428Y-119904785D01*
X238760000Y-119796071D01*
X238651285Y-119687357D01*
X242456285Y-117621785D02*
X243217285Y-119904785D01*
X243978285Y-117621785D01*
D10*
%TO.C,R33*%
X277062000Y-111507748D02*
X277062000Y-112030252D01*
X275642000Y-111507748D02*
X275642000Y-112030252D01*
%TO.C,C11*%
X259282000Y-88384748D02*
X259282000Y-88907252D01*
X257862000Y-88384748D02*
X257862000Y-88907252D01*
%TO.C,TP1*%
X212536000Y-99822000D02*
G75*
G03*
X212536000Y-99822000I-700000J0D01*
G01*
%TO.C,D15*%
X246815000Y-116784000D02*
X249675000Y-116784000D01*
X246815000Y-114864000D02*
X246815000Y-116784000D01*
X249675000Y-114864000D02*
X246815000Y-114864000D01*
%TO.C,C19*%
X245924000Y-111997748D02*
X245924000Y-112520252D01*
X247344000Y-111997748D02*
X247344000Y-112520252D01*
%TO.C,JP2*%
X224476000Y-114868000D02*
X224476000Y-113538000D01*
X225806000Y-114868000D02*
X224476000Y-114868000D01*
X227076000Y-114868000D02*
X227076000Y-112208000D01*
X227076000Y-112208000D02*
X229676000Y-112208000D01*
X227076000Y-114868000D02*
X229676000Y-114868000D01*
X229676000Y-114868000D02*
X229676000Y-112208000D01*
%TO.C,C25*%
X238812000Y-112520252D02*
X238812000Y-111997748D01*
X240232000Y-112520252D02*
X240232000Y-111997748D01*
%TO.C,D16*%
X236245000Y-116784000D02*
X239105000Y-116784000D01*
X239105000Y-116784000D02*
X239105000Y-114864000D01*
X239105000Y-114864000D02*
X236245000Y-114864000D01*
%TO.C,C22*%
X245870252Y-103580000D02*
X245347748Y-103580000D01*
X245870252Y-102160000D02*
X245347748Y-102160000D01*
%TO.C,JP1*%
X229676000Y-109280000D02*
X229676000Y-106620000D01*
X227076000Y-109280000D02*
X229676000Y-109280000D01*
X227076000Y-106620000D02*
X229676000Y-106620000D01*
X227076000Y-109280000D02*
X227076000Y-106620000D01*
X225806000Y-109280000D02*
X224476000Y-109280000D01*
X224476000Y-109280000D02*
X224476000Y-107950000D01*
%TO.C,L2*%
X237918000Y-102798000D02*
X236148000Y-102798000D01*
X242388000Y-102798000D02*
X240618000Y-102798000D01*
X236148000Y-102798000D02*
X236148000Y-109038000D01*
X237918000Y-109038000D02*
X236148000Y-109038000D01*
X242388000Y-109038000D02*
X240618000Y-109038000D01*
X242388000Y-102798000D02*
X242388000Y-109038000D01*
X242768000Y-102418000D02*
X242768000Y-104418000D01*
X240768000Y-102418000D02*
X242768000Y-102418000D01*
%TO.C,C24*%
X242368000Y-112520252D02*
X242368000Y-111997748D01*
X243788000Y-112520252D02*
X243788000Y-111997748D01*
%TO.C,R39*%
X250646000Y-111997748D02*
X250646000Y-112520252D01*
X249226000Y-111997748D02*
X249226000Y-112520252D01*
%TO.C,R40*%
X235383000Y-111990348D02*
X235383000Y-112512852D01*
X236803000Y-111990348D02*
X236803000Y-112512852D01*
%TO.C,U5*%
X244611001Y-106650999D02*
X244611001Y-109080999D01*
X247681001Y-108410999D02*
X247681001Y-106650999D01*
%TO.C,C26*%
X205180000Y-85853748D02*
X205180000Y-86376252D01*
X203760000Y-85853748D02*
X203760000Y-86376252D01*
%TO.C,C27*%
X201937252Y-83514000D02*
X201414748Y-83514000D01*
X201937252Y-82094000D02*
X201414748Y-82094000D01*
%TO.C,C28*%
X208517748Y-84380000D02*
X209040252Y-84380000D01*
X208517748Y-85800000D02*
X209040252Y-85800000D01*
%TO.C,C29*%
X208517748Y-89356000D02*
X209040252Y-89356000D01*
X208517748Y-87936000D02*
X209040252Y-87936000D01*
%TO.C,C30*%
X212800000Y-86884252D02*
X212800000Y-86361748D01*
X211380000Y-86884252D02*
X211380000Y-86361748D01*
%TO.C,C31*%
X265685748Y-105866000D02*
X266208252Y-105866000D01*
X265685748Y-104446000D02*
X266208252Y-104446000D01*
%TO.C,D1*%
X200750000Y-111490000D02*
X200750000Y-109490000D01*
X200750000Y-109490000D02*
X196850000Y-109490000D01*
X200750000Y-111490000D02*
X196850000Y-111490000D01*
%TO.C,D2*%
X196252000Y-112030000D02*
X200152000Y-112030000D01*
X196252000Y-114030000D02*
X200152000Y-114030000D01*
X196252000Y-112030000D02*
X196252000Y-114030000D01*
%TO.C,D3*%
X266970000Y-125186000D02*
X266970000Y-121286000D01*
X268970000Y-125186000D02*
X268970000Y-121286000D01*
X266970000Y-125186000D02*
X268970000Y-125186000D01*
%TO.C,D4*%
X271896400Y-129066800D02*
X271896400Y-127066800D01*
X271896400Y-127066800D02*
X267996400Y-127066800D01*
X271896400Y-129066800D02*
X267996400Y-129066800D01*
%TO.C,D5*%
X269764000Y-125060000D02*
X271764000Y-125060000D01*
X271764000Y-125060000D02*
X271764000Y-121160000D01*
X269764000Y-125060000D02*
X269764000Y-121160000D01*
%TO.C,D6*%
X214036000Y-115784000D02*
X214036000Y-115284000D01*
X214036000Y-115284000D02*
X215436000Y-115284000D01*
X209636000Y-114084000D02*
X209636000Y-112484000D01*
X214036000Y-114084000D02*
X214036000Y-112484000D01*
X209636000Y-114984000D02*
X209636000Y-115784000D01*
X209636000Y-115784000D02*
X214036000Y-115784000D01*
X209636000Y-111584000D02*
X209636000Y-110784000D01*
X209636000Y-110784000D02*
X214036000Y-110784000D01*
X214036000Y-110784000D02*
X214036000Y-111584000D01*
%TO.C,J1*%
X264922000Y-92329000D02*
X265557000Y-92329000D01*
X265557000Y-92329000D02*
X265557000Y-92964000D01*
%TO.C,J2*%
X181926411Y-122493337D02*
G75*
G03*
X181940000Y-125956000I4763589J-1712663D01*
G01*
X184977337Y-128969589D02*
G75*
G03*
X188440000Y-128956000I1712663J4763589D01*
G01*
X191453589Y-125918663D02*
G75*
G03*
X191440000Y-122456000I-4763589J1712663D01*
G01*
X188402663Y-119442411D02*
G75*
G03*
X184940000Y-119456000I-1712663J-4763589D01*
G01*
%TO.C,J3*%
X188402663Y-102678411D02*
G75*
G03*
X184940000Y-102692000I-1712663J-4763589D01*
G01*
X191453589Y-109154663D02*
G75*
G03*
X191440000Y-105692000I-4763589J1712663D01*
G01*
X184977337Y-112205589D02*
G75*
G03*
X188440000Y-112192000I1712663J4763589D01*
G01*
X181926411Y-105729337D02*
G75*
G03*
X181940000Y-109192000I4763589J-1712663D01*
G01*
%TO.C,J8*%
X200198000Y-77346000D02*
X199598000Y-77346000D01*
X200898000Y-75246000D02*
X200898000Y-76646000D01*
X199598000Y-74546000D02*
X200198000Y-74546000D01*
X198898000Y-76646000D02*
X198898000Y-75246000D01*
X199598000Y-77346000D02*
G75*
G02*
X198898000Y-76646000I0J700000D01*
G01*
X200898000Y-76646000D02*
G75*
G02*
X200198000Y-77346000I-700000J0D01*
G01*
X200198000Y-74546000D02*
G75*
G02*
X200898000Y-75246000I0J-700000D01*
G01*
X198898000Y-75246000D02*
G75*
G02*
X199598000Y-74546000I700000J0D01*
G01*
%TO.C,R1*%
X199152252Y-95556000D02*
X198629748Y-95556000D01*
X199152252Y-96976000D02*
X198629748Y-96976000D01*
%TO.C,R2*%
X198136252Y-107367000D02*
X197613748Y-107367000D01*
X198136252Y-108787000D02*
X197613748Y-108787000D01*
%TO.C,R3*%
X192515748Y-89968000D02*
X193038252Y-89968000D01*
X192515748Y-91388000D02*
X193038252Y-91388000D01*
%TO.C,R4*%
X192515748Y-89102000D02*
X193038252Y-89102000D01*
X192515748Y-87682000D02*
X193038252Y-87682000D01*
%TO.C,R5*%
X199134252Y-100128000D02*
X198611748Y-100128000D01*
X199134252Y-101548000D02*
X198611748Y-101548000D01*
%TO.C,R6*%
X203506000Y-99575252D02*
X203506000Y-99052748D01*
X204926000Y-99575252D02*
X204926000Y-99052748D01*
%TO.C,R7*%
X207788252Y-100786000D02*
X207265748Y-100786000D01*
X207788252Y-99366000D02*
X207265748Y-99366000D01*
%TO.C,R8*%
X207824000Y-96503748D02*
X207824000Y-97026252D01*
X209244000Y-96503748D02*
X209244000Y-97026252D01*
%TO.C,R9*%
X202947748Y-109780000D02*
X203470252Y-109780000D01*
X202947748Y-111200000D02*
X203470252Y-111200000D01*
%TO.C,R10*%
X212360252Y-105970000D02*
X211837748Y-105970000D01*
X212360252Y-107390000D02*
X211837748Y-107390000D01*
%TO.C,R11*%
X186452252Y-78538000D02*
X185929748Y-78538000D01*
X186452252Y-79958000D02*
X185929748Y-79958000D01*
%TO.C,R12*%
X212360252Y-109676000D02*
X211837748Y-109676000D01*
X212360252Y-108256000D02*
X211837748Y-108256000D01*
%TO.C,R13*%
X191314000Y-80788252D02*
X191314000Y-80265748D01*
X192734000Y-80788252D02*
X192734000Y-80265748D01*
%TO.C,R14*%
X263854000Y-135365748D02*
X263854000Y-135888252D01*
X262434000Y-135365748D02*
X262434000Y-135888252D01*
%TO.C,R15*%
X266140000Y-135365748D02*
X266140000Y-135888252D01*
X264720000Y-135365748D02*
X264720000Y-135888252D01*
%TO.C,R16*%
X212292000Y-138159748D02*
X212292000Y-138682252D01*
X210872000Y-138159748D02*
X210872000Y-138682252D01*
%TO.C,R17*%
X217880000Y-113554252D02*
X217880000Y-113031748D01*
X216460000Y-113554252D02*
X216460000Y-113031748D01*
%TO.C,R18*%
X218746000Y-108220252D02*
X218746000Y-107697748D01*
X220166000Y-108220252D02*
X220166000Y-107697748D01*
%TO.C,R19*%
X216406252Y-103430000D02*
X215883748Y-103430000D01*
X216406252Y-104850000D02*
X215883748Y-104850000D01*
%TO.C,R20*%
X247598000Y-73398748D02*
X247598000Y-73921252D01*
X246178000Y-73398748D02*
X246178000Y-73921252D01*
%TO.C,R21*%
X246617748Y-94690000D02*
X247140252Y-94690000D01*
X246617748Y-93270000D02*
X247140252Y-93270000D01*
%TO.C,R22*%
X216406252Y-102564000D02*
X215883748Y-102564000D01*
X216406252Y-101144000D02*
X215883748Y-101144000D01*
%TO.C,R23*%
X246617748Y-98246000D02*
X247140252Y-98246000D01*
X246617748Y-96826000D02*
X247140252Y-96826000D01*
%TO.C,R24*%
X261382252Y-105866000D02*
X260859748Y-105866000D01*
X261382252Y-104446000D02*
X260859748Y-104446000D01*
%TO.C,R25*%
X246074000Y-133587748D02*
X246074000Y-134110252D01*
X244654000Y-133587748D02*
X244654000Y-134110252D01*
%TO.C,R26*%
X227346252Y-71934000D02*
X226823748Y-71934000D01*
X227346252Y-73354000D02*
X226823748Y-73354000D01*
%TO.C,R27*%
X227328252Y-85800000D02*
X226805748Y-85800000D01*
X227328252Y-84380000D02*
X226805748Y-84380000D01*
%TO.C,R28*%
X248464000Y-133587748D02*
X248464000Y-134110252D01*
X249884000Y-133587748D02*
X249884000Y-134110252D01*
%TO.C,R41*%
X203402000Y-76216252D02*
X203402000Y-75693748D01*
X201982000Y-76216252D02*
X201982000Y-75693748D01*
%TO.C,R42*%
X265431748Y-115772000D02*
X265954252Y-115772000D01*
X265431748Y-114352000D02*
X265954252Y-114352000D01*
%TO.C,R43*%
X258878548Y-114352000D02*
X259401052Y-114352000D01*
X258878548Y-115772000D02*
X259401052Y-115772000D01*
%TO.C,R44*%
X256234000Y-108728252D02*
X256234000Y-108205748D01*
X254814000Y-108728252D02*
X254814000Y-108205748D01*
%TO.C,SJ1*%
X215884000Y-85802000D02*
X215884000Y-87202000D01*
X215184000Y-87902000D02*
X214584000Y-87902000D01*
X213884000Y-87202000D02*
X213884000Y-85802000D01*
X214584000Y-85102000D02*
X215184000Y-85102000D01*
X215884000Y-87202000D02*
G75*
G02*
X215184000Y-87902000I-700000J0D01*
G01*
X214584000Y-87902000D02*
G75*
G02*
X213884000Y-87202000I0J700000D01*
G01*
X213884000Y-85802000D02*
G75*
G02*
X214584000Y-85102000I700000J0D01*
G01*
X215184000Y-85102000D02*
G75*
G02*
X215884000Y-85802000I0J-700000D01*
G01*
%TO.C,X1*%
X260758000Y-149674000D02*
X260758000Y-147724000D01*
X260758000Y-145504000D02*
X260758000Y-142274000D01*
X261478000Y-140354000D02*
X262558000Y-140354000D01*
X266778000Y-140354000D02*
X267858000Y-140354000D01*
X268578000Y-145504000D02*
X268578000Y-142274000D01*
X268578000Y-149674000D02*
X268578000Y-147724000D01*
X262558000Y-140354000D02*
X262558000Y-139924000D01*
X268578000Y-149674000D02*
X260758000Y-149674000D01*
%TO.C,D7*%
X210595999Y-141636001D02*
X210595999Y-144496001D01*
X210595999Y-144496001D02*
X212515999Y-144496001D01*
X212515999Y-144496001D02*
X212515999Y-141636001D01*
%TO.C,D8*%
X243896000Y-71800000D02*
X243896000Y-74660000D01*
X245816000Y-71800000D02*
X243896000Y-71800000D01*
X245816000Y-74660000D02*
X245816000Y-71800000D01*
%TO.C,D9*%
X250959000Y-94940000D02*
X253819000Y-94940000D01*
X253819000Y-94940000D02*
X253819000Y-93020000D01*
X253819000Y-93020000D02*
X250959000Y-93020000D01*
%TO.C,D10*%
X250968000Y-98496000D02*
X253828000Y-98496000D01*
X253828000Y-98496000D02*
X253828000Y-96576000D01*
X253828000Y-96576000D02*
X250968000Y-96576000D01*
%TO.C,D11*%
X254689000Y-106116000D02*
X257549000Y-106116000D01*
X254689000Y-104196000D02*
X254689000Y-106116000D01*
X257549000Y-104196000D02*
X254689000Y-104196000D01*
%TO.C,D12*%
X219129000Y-86050000D02*
X221989000Y-86050000D01*
X219129000Y-84130000D02*
X219129000Y-86050000D01*
X221989000Y-84130000D02*
X219129000Y-84130000D01*
%TO.C,D13*%
X221971000Y-71684000D02*
X219111000Y-71684000D01*
X219111000Y-71684000D02*
X219111000Y-73604000D01*
X219111000Y-73604000D02*
X221971000Y-73604000D01*
%TO.C,R31*%
X213361748Y-67004000D02*
X213884252Y-67004000D01*
X213361748Y-65584000D02*
X213884252Y-65584000D01*
%TO.C,R32*%
X273506000Y-112012252D02*
X273506000Y-111489748D01*
X272086000Y-112012252D02*
X272086000Y-111489748D01*
%TO.C,U1*%
X186182000Y-85922000D02*
X189782000Y-85922000D01*
X186182000Y-85922000D02*
X183982000Y-85922000D01*
X186182000Y-80702000D02*
X188382000Y-80702000D01*
X186182000Y-80702000D02*
X183982000Y-80702000D01*
%TO.C,U6*%
X204490000Y-79756000D02*
X204490000Y-83206000D01*
X204490000Y-79756000D02*
X204490000Y-77806000D01*
X214610000Y-79756000D02*
X214610000Y-81706000D01*
X214610000Y-79756000D02*
X214610000Y-77806000D01*
D13*
%TO.C,U7*%
X258870000Y-107989000D02*
X258870000Y-108194000D01*
X264370000Y-107989000D02*
X264370000Y-108289000D01*
X264370000Y-113499000D02*
X264370000Y-113199000D01*
X258870000Y-113499000D02*
X258870000Y-113199000D01*
X258870000Y-107989000D02*
X264370000Y-107989000D01*
X258870000Y-113499000D02*
X264370000Y-113499000D01*
X258870000Y-108194000D02*
X257120000Y-108194000D01*
D10*
%TO.C,U2*%
X205232000Y-103816000D02*
X201632000Y-103816000D01*
X205232000Y-103816000D02*
X207432000Y-103816000D01*
X205232000Y-109036000D02*
X203032000Y-109036000D01*
X205232000Y-109036000D02*
X207432000Y-109036000D01*
%TO.C,C13*%
X273356000Y-76706252D02*
X273356000Y-76183748D01*
X274776000Y-76706252D02*
X274776000Y-76183748D01*
%TO.C,C14*%
X273356000Y-82025748D02*
X273356000Y-82548252D01*
X274776000Y-82025748D02*
X274776000Y-82548252D01*
%TO.C,C15*%
X271220000Y-88399252D02*
X271220000Y-87876748D01*
X269800000Y-88399252D02*
X269800000Y-87876748D01*
%TO.C,C16*%
X247344000Y-83313748D02*
X247344000Y-83836252D01*
X245924000Y-83313748D02*
X245924000Y-83836252D01*
%TO.C,C17*%
X248210000Y-84583748D02*
X248210000Y-85106252D01*
X249630000Y-84583748D02*
X249630000Y-85106252D01*
%TO.C,C18*%
X257250000Y-88121748D02*
X257250000Y-88644252D01*
X255830000Y-88121748D02*
X255830000Y-88644252D01*
%TO.C,J7*%
X273512000Y-86738000D02*
X274112000Y-86738000D01*
X272812000Y-88838000D02*
X272812000Y-87438000D01*
X274112000Y-89538000D02*
X273512000Y-89538000D01*
X274812000Y-87438000D02*
X274812000Y-88838000D01*
X274812000Y-88838000D02*
G75*
G02*
X274112000Y-89538000I-700000J0D01*
G01*
X273512000Y-89538000D02*
G75*
G02*
X272812000Y-88838000I0J700000D01*
G01*
X272812000Y-87438000D02*
G75*
G02*
X273512000Y-86738000I700000J0D01*
G01*
X274112000Y-86738000D02*
G75*
G02*
X274812000Y-87438000I0J-700000D01*
G01*
%TO.C,R34*%
X266244000Y-88408252D02*
X266244000Y-87885748D01*
X267664000Y-88408252D02*
X267664000Y-87885748D01*
%TO.C,R35*%
X265482000Y-79503748D02*
X265482000Y-80026252D01*
X266902000Y-79503748D02*
X266902000Y-80026252D01*
%TO.C,R36*%
X248210000Y-73921252D02*
X248210000Y-73398748D01*
X249630000Y-73921252D02*
X249630000Y-73398748D01*
D13*
%TO.C,U3*%
X251873000Y-84677000D02*
X252448000Y-84677000D01*
X251873000Y-74327000D02*
X252548000Y-74327000D01*
X262223000Y-74327000D02*
X261548000Y-74327000D01*
X262223000Y-84677000D02*
X261548000Y-84677000D01*
X251873000Y-84677000D02*
X251873000Y-84002000D01*
X262223000Y-84677000D02*
X262223000Y-84002000D01*
X262223000Y-74327000D02*
X262223000Y-75002000D01*
X251873000Y-74327000D02*
X251873000Y-75002000D01*
X252448000Y-84677000D02*
X252448000Y-85952000D01*
D10*
%TO.C,Y1*%
X271698000Y-82566500D02*
X271698000Y-74591500D01*
X271698000Y-74591500D02*
X267798000Y-74591500D01*
X267798000Y-74591500D02*
X267798000Y-82566500D01*
%TO.C,Q1*%
X225684000Y-81008000D02*
X226614000Y-81008000D01*
X228844000Y-81008000D02*
X227914000Y-81008000D01*
X228844000Y-81008000D02*
X228844000Y-78848000D01*
X225684000Y-81008000D02*
X225684000Y-79548000D01*
%TO.C,Q2*%
X225750000Y-93454000D02*
X225750000Y-91994000D01*
X228910000Y-93454000D02*
X228910000Y-91294000D01*
X228910000Y-93454000D02*
X227980000Y-93454000D01*
X225750000Y-93454000D02*
X226680000Y-93454000D01*
%TO.C,C21*%
X257758000Y-122698252D02*
X257758000Y-122175748D01*
X256338000Y-122698252D02*
X256338000Y-122175748D01*
%TO.C,C23*%
X258624000Y-126744252D02*
X258624000Y-126221748D01*
X260044000Y-126744252D02*
X260044000Y-126221748D01*
%TO.C,C33*%
X252728252Y-129084000D02*
X252205748Y-129084000D01*
X252728252Y-130504000D02*
X252205748Y-130504000D01*
%TO.C,D14*%
X248630000Y-130540000D02*
X244730000Y-130540000D01*
X248630000Y-128540000D02*
X244730000Y-128540000D01*
X248630000Y-130540000D02*
X248630000Y-128540000D01*
%TO.C,D17*%
X234925000Y-71684000D02*
X232065000Y-71684000D01*
X232065000Y-71684000D02*
X232065000Y-73604000D01*
X232065000Y-73604000D02*
X234925000Y-73604000D01*
%TO.C,D18*%
X231557000Y-86050000D02*
X234417000Y-86050000D01*
X231557000Y-84130000D02*
X231557000Y-86050000D01*
X234417000Y-84130000D02*
X231557000Y-84130000D01*
%TO.C,Q3*%
X247386000Y-125224000D02*
X246456000Y-125224000D01*
X244226000Y-125224000D02*
X245156000Y-125224000D01*
X244226000Y-125224000D02*
X244226000Y-127384000D01*
X247386000Y-125224000D02*
X247386000Y-126684000D01*
%TO.C,Q4*%
X238196000Y-81294000D02*
X238196000Y-79834000D01*
X241356000Y-81294000D02*
X241356000Y-79134000D01*
X241356000Y-81294000D02*
X240426000Y-81294000D01*
X238196000Y-81294000D02*
X239126000Y-81294000D01*
%TO.C,Q5*%
X238196000Y-93486000D02*
X239126000Y-93486000D01*
X241356000Y-93486000D02*
X240426000Y-93486000D01*
X241356000Y-93486000D02*
X241356000Y-91326000D01*
X238196000Y-93486000D02*
X238196000Y-92026000D01*
%TO.C,R29*%
X260044000Y-122680252D02*
X260044000Y-122157748D01*
X258624000Y-122680252D02*
X258624000Y-122157748D01*
%TO.C,R30*%
X261164000Y-122680252D02*
X261164000Y-122157748D01*
X262584000Y-122680252D02*
X262584000Y-122157748D01*
%TO.C,R37*%
X264870000Y-122166748D02*
X264870000Y-122689252D01*
X263450000Y-122166748D02*
X263450000Y-122689252D01*
%TO.C,R38*%
X260602252Y-129084000D02*
X260079748Y-129084000D01*
X260602252Y-130504000D02*
X260079748Y-130504000D01*
%TO.C,R45*%
X252728252Y-126798000D02*
X252205748Y-126798000D01*
X252728252Y-128218000D02*
X252205748Y-128218000D01*
%TO.C,R46*%
X264669748Y-129084000D02*
X265192252Y-129084000D01*
X264669748Y-130504000D02*
X265192252Y-130504000D01*
%TO.C,R47*%
X239774252Y-73354000D02*
X239251748Y-73354000D01*
X239774252Y-71934000D02*
X239251748Y-71934000D01*
%TO.C,R48*%
X239774252Y-84380000D02*
X239251748Y-84380000D01*
X239774252Y-85800000D02*
X239251748Y-85800000D01*
%TO.C,U4*%
X274842000Y-121468000D02*
X274842000Y-120538000D01*
X274842000Y-118308000D02*
X274842000Y-119238000D01*
X274842000Y-118308000D02*
X272682000Y-118308000D01*
X274842000Y-121468000D02*
X273382000Y-121468000D01*
%TO.C,U9*%
X263585001Y-124929001D02*
X261135001Y-124929001D01*
X261785001Y-128149001D02*
X263585001Y-128149001D01*
%TO.C,C1*%
X192446248Y-83110000D02*
X192968752Y-83110000D01*
X192446248Y-84530000D02*
X192968752Y-84530000D01*
%TO.C,C2*%
X198629748Y-99262000D02*
X199152252Y-99262000D01*
X198629748Y-97842000D02*
X199152252Y-97842000D01*
%TO.C,C3*%
X192446248Y-86816000D02*
X192968752Y-86816000D01*
X192446248Y-85396000D02*
X192968752Y-85396000D01*
%TO.C,C4*%
X201220000Y-97210752D02*
X201220000Y-96688248D01*
X202640000Y-97210752D02*
X202640000Y-96688248D01*
%TO.C,C5*%
X198800848Y-102414000D02*
X199323352Y-102414000D01*
X198800848Y-103834000D02*
X199323352Y-103834000D01*
%TO.C,C6*%
X274137248Y-126440000D02*
X274659752Y-126440000D01*
X274137248Y-125020000D02*
X274659752Y-125020000D01*
%TO.C,C7*%
X274137248Y-123900000D02*
X274659752Y-123900000D01*
X274137248Y-122480000D02*
X274659752Y-122480000D01*
%TO.C,C8*%
X202860248Y-112066000D02*
X203382752Y-112066000D01*
X202860248Y-113486000D02*
X203382752Y-113486000D01*
%TO.C,C9*%
X190194000Y-78825752D02*
X190194000Y-78303248D01*
X188774000Y-78825752D02*
X188774000Y-78303248D01*
%TO.C,C10*%
X198118252Y-106170800D02*
X197595748Y-106170800D01*
X198118252Y-104750800D02*
X197595748Y-104750800D01*
%TO.C,C12*%
X218746000Y-113545252D02*
X218746000Y-113022748D01*
X220166000Y-113545252D02*
X220166000Y-113022748D01*
%TO.C,C20*%
X274327252Y-117296000D02*
X273804748Y-117296000D01*
X274327252Y-115876000D02*
X273804748Y-115876000D01*
%TO.C,R49*%
X239066000Y-129777748D02*
X239066000Y-130300252D01*
X240486000Y-129777748D02*
X240486000Y-130300252D01*
%TO.C,R50*%
X224842000Y-129777748D02*
X224842000Y-130300252D01*
X226262000Y-129777748D02*
X226262000Y-130300252D01*
%TO.C,R51*%
X236526000Y-130318252D02*
X236526000Y-129795748D01*
X237946000Y-130318252D02*
X237946000Y-129795748D01*
%TO.C,R52*%
X222556000Y-130318252D02*
X222556000Y-129795748D01*
X223976000Y-130318252D02*
X223976000Y-129795748D01*
%TO.C,R53*%
X230072000Y-130318252D02*
X230072000Y-129795748D01*
X228652000Y-130318252D02*
X228652000Y-129795748D01*
%TO.C,R54*%
X216356000Y-130309252D02*
X216356000Y-129786748D01*
X214936000Y-130309252D02*
X214936000Y-129786748D01*
%TO.C,R55*%
X230938000Y-130318252D02*
X230938000Y-129795748D01*
X232358000Y-130318252D02*
X232358000Y-129795748D01*
%TO.C,R56*%
X217222000Y-130318252D02*
X217222000Y-129795748D01*
X218642000Y-130318252D02*
X218642000Y-129795748D01*
D14*
%TO.C,J5*%
X243761001Y-145553000D02*
X243761001Y-150153400D01*
X256207001Y-142506999D02*
X256207001Y-136386600D01*
X256207001Y-150153400D02*
X256207001Y-145553000D01*
X243761001Y-150153400D02*
X256207001Y-150153400D01*
X243761001Y-136386600D02*
X243761001Y-142506999D01*
X256207001Y-136386600D02*
X243761001Y-136386600D01*
D13*
%TO.C,J4*%
X238022000Y-151894000D02*
X238022000Y-148294000D01*
X231822000Y-151894000D02*
X238022000Y-151894000D01*
X231822000Y-148294000D02*
X231822000Y-151894000D01*
X240522000Y-148294000D02*
X228722000Y-148294000D01*
X240522000Y-144744000D02*
X240522000Y-148294000D01*
X240522000Y-136494000D02*
X240522000Y-140244000D01*
X240522000Y-133794000D02*
X240522000Y-133894000D01*
X228722000Y-133794000D02*
X240522000Y-133794000D01*
X228722000Y-136194000D02*
X228722000Y-133794000D01*
X228722000Y-148294000D02*
X228722000Y-140544000D01*
D10*
X241022000Y-142494000D02*
X241572000Y-142994000D01*
X241572000Y-142994000D02*
X241572000Y-141994000D01*
X241572000Y-141994000D02*
X241022000Y-142494000D01*
%TO.C,J6*%
X227340000Y-141994000D02*
X226790000Y-142494000D01*
X227340000Y-142994000D02*
X227340000Y-141994000D01*
X226790000Y-142494000D02*
X227340000Y-142994000D01*
D13*
X214490000Y-148294000D02*
X214490000Y-140544000D01*
X214490000Y-136194000D02*
X214490000Y-133794000D01*
X214490000Y-133794000D02*
X226290000Y-133794000D01*
X226290000Y-133794000D02*
X226290000Y-133894000D01*
X226290000Y-136494000D02*
X226290000Y-140244000D01*
X226290000Y-144744000D02*
X226290000Y-148294000D01*
X226290000Y-148294000D02*
X214490000Y-148294000D01*
X217590000Y-148294000D02*
X217590000Y-151894000D01*
X217590000Y-151894000D02*
X223790000Y-151894000D01*
X223790000Y-151894000D02*
X223790000Y-148294000D01*
D10*
%TO.C,D19*%
X234894000Y-131039000D02*
X234894000Y-128179000D01*
X234894000Y-128179000D02*
X232974000Y-128179000D01*
X232974000Y-128179000D02*
X232974000Y-131039000D01*
%TO.C,D20*%
X219258000Y-128188000D02*
X219258000Y-131048000D01*
X221178000Y-128188000D02*
X219258000Y-128188000D01*
X221178000Y-131048000D02*
X221178000Y-128188000D01*
%TO.C,JP3*%
X218584000Y-88156000D02*
X218584000Y-94176000D01*
X218584000Y-94176000D02*
X223884000Y-94176000D01*
X223884000Y-94176000D02*
X223884000Y-88156000D01*
X223884000Y-88156000D02*
X218584000Y-88156000D01*
X218294000Y-89186000D02*
X218294000Y-93186000D01*
X219964000Y-94176000D02*
X219964000Y-93176000D01*
X219964000Y-93176000D02*
X222504000Y-93176000D01*
X222504000Y-93176000D02*
X222504000Y-94176000D01*
X219964000Y-93176000D02*
X220214000Y-92646000D01*
X220214000Y-92646000D02*
X222254000Y-92646000D01*
X222254000Y-92646000D02*
X222504000Y-93176000D01*
X220214000Y-94176000D02*
X220214000Y-93176000D01*
X222254000Y-94176000D02*
X222254000Y-93176000D01*
X219164000Y-88156000D02*
X219164000Y-88756000D01*
X219164000Y-88756000D02*
X220764000Y-88756000D01*
X220764000Y-88756000D02*
X220764000Y-88156000D01*
X221704000Y-88156000D02*
X221704000Y-88756000D01*
X221704000Y-88756000D02*
X223304000Y-88756000D01*
X223304000Y-88756000D02*
X223304000Y-88156000D01*
%TO.C,JP4*%
X223304000Y-76310000D02*
X223304000Y-75710000D01*
X221704000Y-76310000D02*
X223304000Y-76310000D01*
X221704000Y-75710000D02*
X221704000Y-76310000D01*
X220764000Y-76310000D02*
X220764000Y-75710000D01*
X219164000Y-76310000D02*
X220764000Y-76310000D01*
X219164000Y-75710000D02*
X219164000Y-76310000D01*
X222254000Y-81730000D02*
X222254000Y-80730000D01*
X220214000Y-81730000D02*
X220214000Y-80730000D01*
X222254000Y-80200000D02*
X222504000Y-80730000D01*
X220214000Y-80200000D02*
X222254000Y-80200000D01*
X219964000Y-80730000D02*
X220214000Y-80200000D01*
X222504000Y-80730000D02*
X222504000Y-81730000D01*
X219964000Y-80730000D02*
X222504000Y-80730000D01*
X219964000Y-81730000D02*
X219964000Y-80730000D01*
X218294000Y-76740000D02*
X218294000Y-80740000D01*
X223884000Y-75710000D02*
X218584000Y-75710000D01*
X223884000Y-81730000D02*
X223884000Y-75710000D01*
X218584000Y-81730000D02*
X223884000Y-81730000D01*
X218584000Y-75710000D02*
X218584000Y-81730000D01*
%TO.C,JP6*%
X236004000Y-76564000D02*
X236004000Y-75964000D01*
X234404000Y-76564000D02*
X236004000Y-76564000D01*
X234404000Y-75964000D02*
X234404000Y-76564000D01*
X233464000Y-76564000D02*
X233464000Y-75964000D01*
X231864000Y-76564000D02*
X233464000Y-76564000D01*
X231864000Y-75964000D02*
X231864000Y-76564000D01*
X234954000Y-81984000D02*
X234954000Y-80984000D01*
X232914000Y-81984000D02*
X232914000Y-80984000D01*
X234954000Y-80454000D02*
X235204000Y-80984000D01*
X232914000Y-80454000D02*
X234954000Y-80454000D01*
X232664000Y-80984000D02*
X232914000Y-80454000D01*
X235204000Y-80984000D02*
X235204000Y-81984000D01*
X232664000Y-80984000D02*
X235204000Y-80984000D01*
X232664000Y-81984000D02*
X232664000Y-80984000D01*
X230994000Y-76994000D02*
X230994000Y-80994000D01*
X236584000Y-75964000D02*
X231284000Y-75964000D01*
X236584000Y-81984000D02*
X236584000Y-75964000D01*
X231284000Y-81984000D02*
X236584000Y-81984000D01*
X231284000Y-75964000D02*
X231284000Y-81984000D01*
%TO.C,JP7*%
X231284000Y-88156000D02*
X231284000Y-94176000D01*
X231284000Y-94176000D02*
X236584000Y-94176000D01*
X236584000Y-94176000D02*
X236584000Y-88156000D01*
X236584000Y-88156000D02*
X231284000Y-88156000D01*
X230994000Y-89186000D02*
X230994000Y-93186000D01*
X232664000Y-94176000D02*
X232664000Y-93176000D01*
X232664000Y-93176000D02*
X235204000Y-93176000D01*
X235204000Y-93176000D02*
X235204000Y-94176000D01*
X232664000Y-93176000D02*
X232914000Y-92646000D01*
X232914000Y-92646000D02*
X234954000Y-92646000D01*
X234954000Y-92646000D02*
X235204000Y-93176000D01*
X232914000Y-94176000D02*
X232914000Y-93176000D01*
X234954000Y-94176000D02*
X234954000Y-93176000D01*
X231864000Y-88156000D02*
X231864000Y-88756000D01*
X231864000Y-88756000D02*
X233464000Y-88756000D01*
X233464000Y-88756000D02*
X233464000Y-88156000D01*
X234404000Y-88156000D02*
X234404000Y-88756000D01*
X234404000Y-88756000D02*
X236004000Y-88756000D01*
X236004000Y-88756000D02*
X236004000Y-88156000D01*
%TO.C,JP5*%
X254546000Y-120506000D02*
X254546000Y-119906000D01*
X252946000Y-120506000D02*
X254546000Y-120506000D01*
X252946000Y-119906000D02*
X252946000Y-120506000D01*
X252006000Y-120506000D02*
X252006000Y-119906000D01*
X250406000Y-120506000D02*
X252006000Y-120506000D01*
X250406000Y-119906000D02*
X250406000Y-120506000D01*
X253496000Y-125926000D02*
X253496000Y-124926000D01*
X251456000Y-125926000D02*
X251456000Y-124926000D01*
X253496000Y-124396000D02*
X253746000Y-124926000D01*
X251456000Y-124396000D02*
X253496000Y-124396000D01*
X251206000Y-124926000D02*
X251456000Y-124396000D01*
X253746000Y-124926000D02*
X253746000Y-125926000D01*
X251206000Y-124926000D02*
X253746000Y-124926000D01*
X251206000Y-125926000D02*
X251206000Y-124926000D01*
X249536000Y-120936000D02*
X249536000Y-124936000D01*
X255126000Y-119906000D02*
X249826000Y-119906000D01*
X255126000Y-125926000D02*
X255126000Y-119906000D01*
X249826000Y-125926000D02*
X255126000Y-125926000D01*
X249826000Y-119906000D02*
X249826000Y-125926000D01*
%TO.C,R33*%
D13*
X275026380Y-112656857D02*
X274550190Y-112990190D01*
X275026380Y-113228285D02*
X274026380Y-113228285D01*
X274026380Y-112847333D01*
X274074000Y-112752095D01*
X274121619Y-112704476D01*
X274216857Y-112656857D01*
X274359714Y-112656857D01*
X274454952Y-112704476D01*
X274502571Y-112752095D01*
X274550190Y-112847333D01*
X274550190Y-113228285D01*
X274026380Y-112323523D02*
X274026380Y-111704476D01*
X274407333Y-112037809D01*
X274407333Y-111894952D01*
X274454952Y-111799714D01*
X274502571Y-111752095D01*
X274597809Y-111704476D01*
X274835904Y-111704476D01*
X274931142Y-111752095D01*
X274978761Y-111799714D01*
X275026380Y-111894952D01*
X275026380Y-112180666D01*
X274978761Y-112275904D01*
X274931142Y-112323523D01*
X274026380Y-111371142D02*
X274026380Y-110752095D01*
X274407333Y-111085428D01*
X274407333Y-110942571D01*
X274454952Y-110847333D01*
X274502571Y-110799714D01*
X274597809Y-110752095D01*
X274835904Y-110752095D01*
X274931142Y-110799714D01*
X274978761Y-110847333D01*
X275026380Y-110942571D01*
X275026380Y-111228285D01*
X274978761Y-111323523D01*
X274931142Y-111371142D01*
%TO.C,C11*%
X260579142Y-89288857D02*
X260626761Y-89336476D01*
X260674380Y-89479333D01*
X260674380Y-89574571D01*
X260626761Y-89717428D01*
X260531523Y-89812666D01*
X260436285Y-89860285D01*
X260245809Y-89907904D01*
X260102952Y-89907904D01*
X259912476Y-89860285D01*
X259817238Y-89812666D01*
X259722000Y-89717428D01*
X259674380Y-89574571D01*
X259674380Y-89479333D01*
X259722000Y-89336476D01*
X259769619Y-89288857D01*
X260674380Y-88336476D02*
X260674380Y-88907904D01*
X260674380Y-88622190D02*
X259674380Y-88622190D01*
X259817238Y-88717428D01*
X259912476Y-88812666D01*
X259960095Y-88907904D01*
X260674380Y-87384095D02*
X260674380Y-87955523D01*
X260674380Y-87669809D02*
X259674380Y-87669809D01*
X259817238Y-87765047D01*
X259912476Y-87860285D01*
X259960095Y-87955523D01*
%TO.C,TP1*%
X210574095Y-100722380D02*
X211145523Y-100722380D01*
X210859809Y-101722380D02*
X210859809Y-100722380D01*
X211478857Y-101722380D02*
X211478857Y-100722380D01*
X211859809Y-100722380D01*
X211955047Y-100770000D01*
X212002666Y-100817619D01*
X212050285Y-100912857D01*
X212050285Y-101055714D01*
X212002666Y-101150952D01*
X211955047Y-101198571D01*
X211859809Y-101246190D01*
X211478857Y-101246190D01*
X213002666Y-101722380D02*
X212431238Y-101722380D01*
X212716952Y-101722380D02*
X212716952Y-100722380D01*
X212621714Y-100865238D01*
X212526476Y-100960476D01*
X212431238Y-101008095D01*
%TO.C,D15*%
X243895714Y-116276380D02*
X243895714Y-115276380D01*
X244133809Y-115276380D01*
X244276666Y-115324000D01*
X244371904Y-115419238D01*
X244419523Y-115514476D01*
X244467142Y-115704952D01*
X244467142Y-115847809D01*
X244419523Y-116038285D01*
X244371904Y-116133523D01*
X244276666Y-116228761D01*
X244133809Y-116276380D01*
X243895714Y-116276380D01*
X245419523Y-116276380D02*
X244848095Y-116276380D01*
X245133809Y-116276380D02*
X245133809Y-115276380D01*
X245038571Y-115419238D01*
X244943333Y-115514476D01*
X244848095Y-115562095D01*
X246324285Y-115276380D02*
X245848095Y-115276380D01*
X245800476Y-115752571D01*
X245848095Y-115704952D01*
X245943333Y-115657333D01*
X246181428Y-115657333D01*
X246276666Y-115704952D01*
X246324285Y-115752571D01*
X246371904Y-115847809D01*
X246371904Y-116085904D01*
X246324285Y-116181142D01*
X246276666Y-116228761D01*
X246181428Y-116276380D01*
X245943333Y-116276380D01*
X245848095Y-116228761D01*
X245800476Y-116181142D01*
%TO.C,C19*%
X245213142Y-112901857D02*
X245260761Y-112949476D01*
X245308380Y-113092333D01*
X245308380Y-113187571D01*
X245260761Y-113330428D01*
X245165523Y-113425666D01*
X245070285Y-113473285D01*
X244879809Y-113520904D01*
X244736952Y-113520904D01*
X244546476Y-113473285D01*
X244451238Y-113425666D01*
X244356000Y-113330428D01*
X244308380Y-113187571D01*
X244308380Y-113092333D01*
X244356000Y-112949476D01*
X244403619Y-112901857D01*
X245308380Y-111949476D02*
X245308380Y-112520904D01*
X245308380Y-112235190D02*
X244308380Y-112235190D01*
X244451238Y-112330428D01*
X244546476Y-112425666D01*
X244594095Y-112520904D01*
X245308380Y-111473285D02*
X245308380Y-111282809D01*
X245260761Y-111187571D01*
X245213142Y-111139952D01*
X245070285Y-111044714D01*
X244879809Y-110997095D01*
X244498857Y-110997095D01*
X244403619Y-111044714D01*
X244356000Y-111092333D01*
X244308380Y-111187571D01*
X244308380Y-111378047D01*
X244356000Y-111473285D01*
X244403619Y-111520904D01*
X244498857Y-111568523D01*
X244736952Y-111568523D01*
X244832190Y-111520904D01*
X244879809Y-111473285D01*
X244927428Y-111378047D01*
X244927428Y-111187571D01*
X244879809Y-111092333D01*
X244832190Y-111044714D01*
X244736952Y-110997095D01*
%TO.C,JP2*%
X222928380Y-114371333D02*
X223642666Y-114371333D01*
X223785523Y-114418952D01*
X223880761Y-114514190D01*
X223928380Y-114657047D01*
X223928380Y-114752285D01*
X223928380Y-113895142D02*
X222928380Y-113895142D01*
X222928380Y-113514190D01*
X222976000Y-113418952D01*
X223023619Y-113371333D01*
X223118857Y-113323714D01*
X223261714Y-113323714D01*
X223356952Y-113371333D01*
X223404571Y-113418952D01*
X223452190Y-113514190D01*
X223452190Y-113895142D01*
X223023619Y-112942761D02*
X222976000Y-112895142D01*
X222928380Y-112799904D01*
X222928380Y-112561809D01*
X222976000Y-112466571D01*
X223023619Y-112418952D01*
X223118857Y-112371333D01*
X223214095Y-112371333D01*
X223356952Y-112418952D01*
X223928380Y-112990380D01*
X223928380Y-112371333D01*
%TO.C,C25*%
X238229142Y-112901857D02*
X238276761Y-112949476D01*
X238324380Y-113092333D01*
X238324380Y-113187571D01*
X238276761Y-113330428D01*
X238181523Y-113425666D01*
X238086285Y-113473285D01*
X237895809Y-113520904D01*
X237752952Y-113520904D01*
X237562476Y-113473285D01*
X237467238Y-113425666D01*
X237372000Y-113330428D01*
X237324380Y-113187571D01*
X237324380Y-113092333D01*
X237372000Y-112949476D01*
X237419619Y-112901857D01*
X237419619Y-112520904D02*
X237372000Y-112473285D01*
X237324380Y-112378047D01*
X237324380Y-112139952D01*
X237372000Y-112044714D01*
X237419619Y-111997095D01*
X237514857Y-111949476D01*
X237610095Y-111949476D01*
X237752952Y-111997095D01*
X238324380Y-112568523D01*
X238324380Y-111949476D01*
X237324380Y-111044714D02*
X237324380Y-111520904D01*
X237800571Y-111568523D01*
X237752952Y-111520904D01*
X237705333Y-111425666D01*
X237705333Y-111187571D01*
X237752952Y-111092333D01*
X237800571Y-111044714D01*
X237895809Y-110997095D01*
X238133904Y-110997095D01*
X238229142Y-111044714D01*
X238276761Y-111092333D01*
X238324380Y-111187571D01*
X238324380Y-111425666D01*
X238276761Y-111520904D01*
X238229142Y-111568523D01*
%TO.C,D16*%
X239501514Y-116289080D02*
X239501514Y-115289080D01*
X239739609Y-115289080D01*
X239882466Y-115336700D01*
X239977704Y-115431938D01*
X240025323Y-115527176D01*
X240072942Y-115717652D01*
X240072942Y-115860509D01*
X240025323Y-116050985D01*
X239977704Y-116146223D01*
X239882466Y-116241461D01*
X239739609Y-116289080D01*
X239501514Y-116289080D01*
X241025323Y-116289080D02*
X240453895Y-116289080D01*
X240739609Y-116289080D02*
X240739609Y-115289080D01*
X240644371Y-115431938D01*
X240549133Y-115527176D01*
X240453895Y-115574795D01*
X241882466Y-115289080D02*
X241691990Y-115289080D01*
X241596752Y-115336700D01*
X241549133Y-115384319D01*
X241453895Y-115527176D01*
X241406276Y-115717652D01*
X241406276Y-116098604D01*
X241453895Y-116193842D01*
X241501514Y-116241461D01*
X241596752Y-116289080D01*
X241787228Y-116289080D01*
X241882466Y-116241461D01*
X241930085Y-116193842D01*
X241977704Y-116098604D01*
X241977704Y-115860509D01*
X241930085Y-115765271D01*
X241882466Y-115717652D01*
X241787228Y-115670033D01*
X241596752Y-115670033D01*
X241501514Y-115717652D01*
X241453895Y-115765271D01*
X241406276Y-115860509D01*
%TO.C,C22*%
X244966142Y-104877142D02*
X244918523Y-104924761D01*
X244775666Y-104972380D01*
X244680428Y-104972380D01*
X244537571Y-104924761D01*
X244442333Y-104829523D01*
X244394714Y-104734285D01*
X244347095Y-104543809D01*
X244347095Y-104400952D01*
X244394714Y-104210476D01*
X244442333Y-104115238D01*
X244537571Y-104020000D01*
X244680428Y-103972380D01*
X244775666Y-103972380D01*
X244918523Y-104020000D01*
X244966142Y-104067619D01*
X245347095Y-104067619D02*
X245394714Y-104020000D01*
X245489952Y-103972380D01*
X245728047Y-103972380D01*
X245823285Y-104020000D01*
X245870904Y-104067619D01*
X245918523Y-104162857D01*
X245918523Y-104258095D01*
X245870904Y-104400952D01*
X245299476Y-104972380D01*
X245918523Y-104972380D01*
X246299476Y-104067619D02*
X246347095Y-104020000D01*
X246442333Y-103972380D01*
X246680428Y-103972380D01*
X246775666Y-104020000D01*
X246823285Y-104067619D01*
X246870904Y-104162857D01*
X246870904Y-104258095D01*
X246823285Y-104400952D01*
X246251857Y-104972380D01*
X246870904Y-104972380D01*
%TO.C,JP1*%
X222928380Y-108783333D02*
X223642666Y-108783333D01*
X223785523Y-108830952D01*
X223880761Y-108926190D01*
X223928380Y-109069047D01*
X223928380Y-109164285D01*
X223928380Y-108307142D02*
X222928380Y-108307142D01*
X222928380Y-107926190D01*
X222976000Y-107830952D01*
X223023619Y-107783333D01*
X223118857Y-107735714D01*
X223261714Y-107735714D01*
X223356952Y-107783333D01*
X223404571Y-107830952D01*
X223452190Y-107926190D01*
X223452190Y-108307142D01*
X223928380Y-106783333D02*
X223928380Y-107354761D01*
X223928380Y-107069047D02*
X222928380Y-107069047D01*
X223071238Y-107164285D01*
X223166476Y-107259523D01*
X223214095Y-107354761D01*
%TO.C,L2*%
X235402380Y-106084666D02*
X235402380Y-106560857D01*
X234402380Y-106560857D01*
X234497619Y-105798952D02*
X234450000Y-105751333D01*
X234402380Y-105656095D01*
X234402380Y-105418000D01*
X234450000Y-105322761D01*
X234497619Y-105275142D01*
X234592857Y-105227523D01*
X234688095Y-105227523D01*
X234830952Y-105275142D01*
X235402380Y-105846571D01*
X235402380Y-105227523D01*
%TO.C,C24*%
X241785142Y-112901857D02*
X241832761Y-112949476D01*
X241880380Y-113092333D01*
X241880380Y-113187571D01*
X241832761Y-113330428D01*
X241737523Y-113425666D01*
X241642285Y-113473285D01*
X241451809Y-113520904D01*
X241308952Y-113520904D01*
X241118476Y-113473285D01*
X241023238Y-113425666D01*
X240928000Y-113330428D01*
X240880380Y-113187571D01*
X240880380Y-113092333D01*
X240928000Y-112949476D01*
X240975619Y-112901857D01*
X240975619Y-112520904D02*
X240928000Y-112473285D01*
X240880380Y-112378047D01*
X240880380Y-112139952D01*
X240928000Y-112044714D01*
X240975619Y-111997095D01*
X241070857Y-111949476D01*
X241166095Y-111949476D01*
X241308952Y-111997095D01*
X241880380Y-112568523D01*
X241880380Y-111949476D01*
X241213714Y-111092333D02*
X241880380Y-111092333D01*
X240832761Y-111330428D02*
X241547047Y-111568523D01*
X241547047Y-110949476D01*
%TO.C,R39*%
X248788180Y-112936257D02*
X248311990Y-113269590D01*
X248788180Y-113507685D02*
X247788180Y-113507685D01*
X247788180Y-113126733D01*
X247835800Y-113031495D01*
X247883419Y-112983876D01*
X247978657Y-112936257D01*
X248121514Y-112936257D01*
X248216752Y-112983876D01*
X248264371Y-113031495D01*
X248311990Y-113126733D01*
X248311990Y-113507685D01*
X247788180Y-112602923D02*
X247788180Y-111983876D01*
X248169133Y-112317209D01*
X248169133Y-112174352D01*
X248216752Y-112079114D01*
X248264371Y-112031495D01*
X248359609Y-111983876D01*
X248597704Y-111983876D01*
X248692942Y-112031495D01*
X248740561Y-112079114D01*
X248788180Y-112174352D01*
X248788180Y-112460066D01*
X248740561Y-112555304D01*
X248692942Y-112602923D01*
X248788180Y-111507685D02*
X248788180Y-111317209D01*
X248740561Y-111221971D01*
X248692942Y-111174352D01*
X248550085Y-111079114D01*
X248359609Y-111031495D01*
X247978657Y-111031495D01*
X247883419Y-111079114D01*
X247835800Y-111126733D01*
X247788180Y-111221971D01*
X247788180Y-111412447D01*
X247835800Y-111507685D01*
X247883419Y-111555304D01*
X247978657Y-111602923D01*
X248216752Y-111602923D01*
X248311990Y-111555304D01*
X248359609Y-111507685D01*
X248407228Y-111412447D01*
X248407228Y-111221971D01*
X248359609Y-111126733D01*
X248311990Y-111079114D01*
X248216752Y-111031495D01*
%TO.C,R40*%
X234945180Y-112834657D02*
X234468990Y-113167990D01*
X234945180Y-113406085D02*
X233945180Y-113406085D01*
X233945180Y-113025133D01*
X233992800Y-112929895D01*
X234040419Y-112882276D01*
X234135657Y-112834657D01*
X234278514Y-112834657D01*
X234373752Y-112882276D01*
X234421371Y-112929895D01*
X234468990Y-113025133D01*
X234468990Y-113406085D01*
X234278514Y-111977514D02*
X234945180Y-111977514D01*
X233897561Y-112215609D02*
X234611847Y-112453704D01*
X234611847Y-111834657D01*
X233945180Y-111263228D02*
X233945180Y-111167990D01*
X233992800Y-111072752D01*
X234040419Y-111025133D01*
X234135657Y-110977514D01*
X234326133Y-110929895D01*
X234564228Y-110929895D01*
X234754704Y-110977514D01*
X234849942Y-111025133D01*
X234897561Y-111072752D01*
X234945180Y-111167990D01*
X234945180Y-111263228D01*
X234897561Y-111358466D01*
X234849942Y-111406085D01*
X234754704Y-111453704D01*
X234564228Y-111501323D01*
X234326133Y-111501323D01*
X234135657Y-111453704D01*
X234040419Y-111406085D01*
X233992800Y-111358466D01*
X233945180Y-111263228D01*
%TO.C,U5*%
X243123381Y-108292903D02*
X243932905Y-108292903D01*
X244028143Y-108245284D01*
X244075762Y-108197665D01*
X244123381Y-108102427D01*
X244123381Y-107911951D01*
X244075762Y-107816713D01*
X244028143Y-107769094D01*
X243932905Y-107721475D01*
X243123381Y-107721475D01*
X243123381Y-106769094D02*
X243123381Y-107245284D01*
X243599572Y-107292903D01*
X243551953Y-107245284D01*
X243504334Y-107150046D01*
X243504334Y-106911951D01*
X243551953Y-106816713D01*
X243599572Y-106769094D01*
X243694810Y-106721475D01*
X243932905Y-106721475D01*
X244028143Y-106769094D01*
X244075762Y-106816713D01*
X244123381Y-106911951D01*
X244123381Y-107150046D01*
X244075762Y-107245284D01*
X244028143Y-107292903D01*
%TO.C,C26*%
X206477142Y-86757857D02*
X206524761Y-86805476D01*
X206572380Y-86948333D01*
X206572380Y-87043571D01*
X206524761Y-87186428D01*
X206429523Y-87281666D01*
X206334285Y-87329285D01*
X206143809Y-87376904D01*
X206000952Y-87376904D01*
X205810476Y-87329285D01*
X205715238Y-87281666D01*
X205620000Y-87186428D01*
X205572380Y-87043571D01*
X205572380Y-86948333D01*
X205620000Y-86805476D01*
X205667619Y-86757857D01*
X205667619Y-86376904D02*
X205620000Y-86329285D01*
X205572380Y-86234047D01*
X205572380Y-85995952D01*
X205620000Y-85900714D01*
X205667619Y-85853095D01*
X205762857Y-85805476D01*
X205858095Y-85805476D01*
X206000952Y-85853095D01*
X206572380Y-86424523D01*
X206572380Y-85805476D01*
X205572380Y-84948333D02*
X205572380Y-85138809D01*
X205620000Y-85234047D01*
X205667619Y-85281666D01*
X205810476Y-85376904D01*
X206000952Y-85424523D01*
X206381904Y-85424523D01*
X206477142Y-85376904D01*
X206524761Y-85329285D01*
X206572380Y-85234047D01*
X206572380Y-85043571D01*
X206524761Y-84948333D01*
X206477142Y-84900714D01*
X206381904Y-84853095D01*
X206143809Y-84853095D01*
X206048571Y-84900714D01*
X206000952Y-84948333D01*
X205953333Y-85043571D01*
X205953333Y-85234047D01*
X206000952Y-85329285D01*
X206048571Y-85376904D01*
X206143809Y-85424523D01*
%TO.C,C27*%
X201033142Y-84811142D02*
X200985523Y-84858761D01*
X200842666Y-84906380D01*
X200747428Y-84906380D01*
X200604571Y-84858761D01*
X200509333Y-84763523D01*
X200461714Y-84668285D01*
X200414095Y-84477809D01*
X200414095Y-84334952D01*
X200461714Y-84144476D01*
X200509333Y-84049238D01*
X200604571Y-83954000D01*
X200747428Y-83906380D01*
X200842666Y-83906380D01*
X200985523Y-83954000D01*
X201033142Y-84001619D01*
X201414095Y-84001619D02*
X201461714Y-83954000D01*
X201556952Y-83906380D01*
X201795047Y-83906380D01*
X201890285Y-83954000D01*
X201937904Y-84001619D01*
X201985523Y-84096857D01*
X201985523Y-84192095D01*
X201937904Y-84334952D01*
X201366476Y-84906380D01*
X201985523Y-84906380D01*
X202318857Y-83906380D02*
X202985523Y-83906380D01*
X202556952Y-84906380D01*
%TO.C,C28*%
X208145142Y-87225142D02*
X208097523Y-87272761D01*
X207954666Y-87320380D01*
X207859428Y-87320380D01*
X207716571Y-87272761D01*
X207621333Y-87177523D01*
X207573714Y-87082285D01*
X207526095Y-86891809D01*
X207526095Y-86748952D01*
X207573714Y-86558476D01*
X207621333Y-86463238D01*
X207716571Y-86368000D01*
X207859428Y-86320380D01*
X207954666Y-86320380D01*
X208097523Y-86368000D01*
X208145142Y-86415619D01*
X208526095Y-86415619D02*
X208573714Y-86368000D01*
X208668952Y-86320380D01*
X208907047Y-86320380D01*
X209002285Y-86368000D01*
X209049904Y-86415619D01*
X209097523Y-86510857D01*
X209097523Y-86606095D01*
X209049904Y-86748952D01*
X208478476Y-87320380D01*
X209097523Y-87320380D01*
X209668952Y-86748952D02*
X209573714Y-86701333D01*
X209526095Y-86653714D01*
X209478476Y-86558476D01*
X209478476Y-86510857D01*
X209526095Y-86415619D01*
X209573714Y-86368000D01*
X209668952Y-86320380D01*
X209859428Y-86320380D01*
X209954666Y-86368000D01*
X210002285Y-86415619D01*
X210049904Y-86510857D01*
X210049904Y-86558476D01*
X210002285Y-86653714D01*
X209954666Y-86701333D01*
X209859428Y-86748952D01*
X209668952Y-86748952D01*
X209573714Y-86796571D01*
X209526095Y-86844190D01*
X209478476Y-86939428D01*
X209478476Y-87129904D01*
X209526095Y-87225142D01*
X209573714Y-87272761D01*
X209668952Y-87320380D01*
X209859428Y-87320380D01*
X209954666Y-87272761D01*
X210002285Y-87225142D01*
X210049904Y-87129904D01*
X210049904Y-86939428D01*
X210002285Y-86844190D01*
X209954666Y-86796571D01*
X209859428Y-86748952D01*
%TO.C,C29*%
X208136142Y-90781142D02*
X208088523Y-90828761D01*
X207945666Y-90876380D01*
X207850428Y-90876380D01*
X207707571Y-90828761D01*
X207612333Y-90733523D01*
X207564714Y-90638285D01*
X207517095Y-90447809D01*
X207517095Y-90304952D01*
X207564714Y-90114476D01*
X207612333Y-90019238D01*
X207707571Y-89924000D01*
X207850428Y-89876380D01*
X207945666Y-89876380D01*
X208088523Y-89924000D01*
X208136142Y-89971619D01*
X208517095Y-89971619D02*
X208564714Y-89924000D01*
X208659952Y-89876380D01*
X208898047Y-89876380D01*
X208993285Y-89924000D01*
X209040904Y-89971619D01*
X209088523Y-90066857D01*
X209088523Y-90162095D01*
X209040904Y-90304952D01*
X208469476Y-90876380D01*
X209088523Y-90876380D01*
X209564714Y-90876380D02*
X209755190Y-90876380D01*
X209850428Y-90828761D01*
X209898047Y-90781142D01*
X209993285Y-90638285D01*
X210040904Y-90447809D01*
X210040904Y-90066857D01*
X209993285Y-89971619D01*
X209945666Y-89924000D01*
X209850428Y-89876380D01*
X209659952Y-89876380D01*
X209564714Y-89924000D01*
X209517095Y-89971619D01*
X209469476Y-90066857D01*
X209469476Y-90304952D01*
X209517095Y-90400190D01*
X209564714Y-90447809D01*
X209659952Y-90495428D01*
X209850428Y-90495428D01*
X209945666Y-90447809D01*
X209993285Y-90400190D01*
X210040904Y-90304952D01*
%TO.C,C30*%
X212447142Y-90812857D02*
X212494761Y-90860476D01*
X212542380Y-91003333D01*
X212542380Y-91098571D01*
X212494761Y-91241428D01*
X212399523Y-91336666D01*
X212304285Y-91384285D01*
X212113809Y-91431904D01*
X211970952Y-91431904D01*
X211780476Y-91384285D01*
X211685238Y-91336666D01*
X211590000Y-91241428D01*
X211542380Y-91098571D01*
X211542380Y-91003333D01*
X211590000Y-90860476D01*
X211637619Y-90812857D01*
X211542380Y-90479523D02*
X211542380Y-89860476D01*
X211923333Y-90193809D01*
X211923333Y-90050952D01*
X211970952Y-89955714D01*
X212018571Y-89908095D01*
X212113809Y-89860476D01*
X212351904Y-89860476D01*
X212447142Y-89908095D01*
X212494761Y-89955714D01*
X212542380Y-90050952D01*
X212542380Y-90336666D01*
X212494761Y-90431904D01*
X212447142Y-90479523D01*
X211542380Y-89241428D02*
X211542380Y-89146190D01*
X211590000Y-89050952D01*
X211637619Y-89003333D01*
X211732857Y-88955714D01*
X211923333Y-88908095D01*
X212161428Y-88908095D01*
X212351904Y-88955714D01*
X212447142Y-89003333D01*
X212494761Y-89050952D01*
X212542380Y-89146190D01*
X212542380Y-89241428D01*
X212494761Y-89336666D01*
X212447142Y-89384285D01*
X212351904Y-89431904D01*
X212161428Y-89479523D01*
X211923333Y-89479523D01*
X211732857Y-89431904D01*
X211637619Y-89384285D01*
X211590000Y-89336666D01*
X211542380Y-89241428D01*
%TO.C,C31*%
X265304142Y-107291142D02*
X265256523Y-107338761D01*
X265113666Y-107386380D01*
X265018428Y-107386380D01*
X264875571Y-107338761D01*
X264780333Y-107243523D01*
X264732714Y-107148285D01*
X264685095Y-106957809D01*
X264685095Y-106814952D01*
X264732714Y-106624476D01*
X264780333Y-106529238D01*
X264875571Y-106434000D01*
X265018428Y-106386380D01*
X265113666Y-106386380D01*
X265256523Y-106434000D01*
X265304142Y-106481619D01*
X265637476Y-106386380D02*
X266256523Y-106386380D01*
X265923190Y-106767333D01*
X266066047Y-106767333D01*
X266161285Y-106814952D01*
X266208904Y-106862571D01*
X266256523Y-106957809D01*
X266256523Y-107195904D01*
X266208904Y-107291142D01*
X266161285Y-107338761D01*
X266066047Y-107386380D01*
X265780333Y-107386380D01*
X265685095Y-107338761D01*
X265637476Y-107291142D01*
X267208904Y-107386380D02*
X266637476Y-107386380D01*
X266923190Y-107386380D02*
X266923190Y-106386380D01*
X266827952Y-106529238D01*
X266732714Y-106624476D01*
X266637476Y-106672095D01*
%TO.C,D1*%
X194333904Y-110942380D02*
X194333904Y-109942380D01*
X194572000Y-109942380D01*
X194714857Y-109990000D01*
X194810095Y-110085238D01*
X194857714Y-110180476D01*
X194905333Y-110370952D01*
X194905333Y-110513809D01*
X194857714Y-110704285D01*
X194810095Y-110799523D01*
X194714857Y-110894761D01*
X194572000Y-110942380D01*
X194333904Y-110942380D01*
X195857714Y-110942380D02*
X195286285Y-110942380D01*
X195572000Y-110942380D02*
X195572000Y-109942380D01*
X195476761Y-110085238D01*
X195381523Y-110180476D01*
X195286285Y-110228095D01*
%TO.C,D2*%
X194333904Y-113482380D02*
X194333904Y-112482380D01*
X194572000Y-112482380D01*
X194714857Y-112530000D01*
X194810095Y-112625238D01*
X194857714Y-112720476D01*
X194905333Y-112910952D01*
X194905333Y-113053809D01*
X194857714Y-113244285D01*
X194810095Y-113339523D01*
X194714857Y-113434761D01*
X194572000Y-113482380D01*
X194333904Y-113482380D01*
X195286285Y-112577619D02*
X195333904Y-112530000D01*
X195429142Y-112482380D01*
X195667238Y-112482380D01*
X195762476Y-112530000D01*
X195810095Y-112577619D01*
X195857714Y-112672857D01*
X195857714Y-112768095D01*
X195810095Y-112910952D01*
X195238666Y-113482380D01*
X195857714Y-113482380D01*
%TO.C,D3*%
X268422380Y-119990095D02*
X267422380Y-119990095D01*
X267422380Y-119752000D01*
X267470000Y-119609142D01*
X267565238Y-119513904D01*
X267660476Y-119466285D01*
X267850952Y-119418666D01*
X267993809Y-119418666D01*
X268184285Y-119466285D01*
X268279523Y-119513904D01*
X268374761Y-119609142D01*
X268422380Y-119752000D01*
X268422380Y-119990095D01*
X267422380Y-119085333D02*
X267422380Y-118466285D01*
X267803333Y-118799619D01*
X267803333Y-118656761D01*
X267850952Y-118561523D01*
X267898571Y-118513904D01*
X267993809Y-118466285D01*
X268231904Y-118466285D01*
X268327142Y-118513904D01*
X268374761Y-118561523D01*
X268422380Y-118656761D01*
X268422380Y-118942476D01*
X268374761Y-119037714D01*
X268327142Y-119085333D01*
%TO.C,D4*%
X268832104Y-130347980D02*
X268832104Y-129347980D01*
X269070200Y-129347980D01*
X269213057Y-129395600D01*
X269308295Y-129490838D01*
X269355914Y-129586076D01*
X269403533Y-129776552D01*
X269403533Y-129919409D01*
X269355914Y-130109885D01*
X269308295Y-130205123D01*
X269213057Y-130300361D01*
X269070200Y-130347980D01*
X268832104Y-130347980D01*
X270260676Y-129681314D02*
X270260676Y-130347980D01*
X270022580Y-129300361D02*
X269784485Y-130014647D01*
X270403533Y-130014647D01*
%TO.C,D5*%
X271216380Y-120119095D02*
X270216380Y-120119095D01*
X270216380Y-119881000D01*
X270264000Y-119738142D01*
X270359238Y-119642904D01*
X270454476Y-119595285D01*
X270644952Y-119547666D01*
X270787809Y-119547666D01*
X270978285Y-119595285D01*
X271073523Y-119642904D01*
X271168761Y-119738142D01*
X271216380Y-119881000D01*
X271216380Y-120119095D01*
X270216380Y-118642904D02*
X270216380Y-119119095D01*
X270692571Y-119166714D01*
X270644952Y-119119095D01*
X270597333Y-119023857D01*
X270597333Y-118785761D01*
X270644952Y-118690523D01*
X270692571Y-118642904D01*
X270787809Y-118595285D01*
X271025904Y-118595285D01*
X271121142Y-118642904D01*
X271168761Y-118690523D01*
X271216380Y-118785761D01*
X271216380Y-119023857D01*
X271168761Y-119119095D01*
X271121142Y-119166714D01*
%TO.C,D6*%
X211097904Y-117136380D02*
X211097904Y-116136380D01*
X211336000Y-116136380D01*
X211478857Y-116184000D01*
X211574095Y-116279238D01*
X211621714Y-116374476D01*
X211669333Y-116564952D01*
X211669333Y-116707809D01*
X211621714Y-116898285D01*
X211574095Y-116993523D01*
X211478857Y-117088761D01*
X211336000Y-117136380D01*
X211097904Y-117136380D01*
X212526476Y-116136380D02*
X212336000Y-116136380D01*
X212240761Y-116184000D01*
X212193142Y-116231619D01*
X212097904Y-116374476D01*
X212050285Y-116564952D01*
X212050285Y-116945904D01*
X212097904Y-117041142D01*
X212145523Y-117088761D01*
X212240761Y-117136380D01*
X212431238Y-117136380D01*
X212526476Y-117088761D01*
X212574095Y-117041142D01*
X212621714Y-116945904D01*
X212621714Y-116707809D01*
X212574095Y-116612571D01*
X212526476Y-116564952D01*
X212431238Y-116517333D01*
X212240761Y-116517333D01*
X212145523Y-116564952D01*
X212097904Y-116612571D01*
X212050285Y-116707809D01*
%TO.C,J1*%
X263318666Y-90351380D02*
X263318666Y-91065666D01*
X263271047Y-91208523D01*
X263175809Y-91303761D01*
X263032952Y-91351380D01*
X262937714Y-91351380D01*
X264318666Y-91351380D02*
X263747238Y-91351380D01*
X264032952Y-91351380D02*
X264032952Y-90351380D01*
X263937714Y-90494238D01*
X263842476Y-90589476D01*
X263747238Y-90637095D01*
%TO.C,J2*%
X186106666Y-117408380D02*
X186106666Y-118122666D01*
X186059047Y-118265523D01*
X185963809Y-118360761D01*
X185820952Y-118408380D01*
X185725714Y-118408380D01*
X186535238Y-117503619D02*
X186582857Y-117456000D01*
X186678095Y-117408380D01*
X186916190Y-117408380D01*
X187011428Y-117456000D01*
X187059047Y-117503619D01*
X187106666Y-117598857D01*
X187106666Y-117694095D01*
X187059047Y-117836952D01*
X186487619Y-118408380D01*
X187106666Y-118408380D01*
%TO.C,J3*%
X186106666Y-100644380D02*
X186106666Y-101358666D01*
X186059047Y-101501523D01*
X185963809Y-101596761D01*
X185820952Y-101644380D01*
X185725714Y-101644380D01*
X186487619Y-100644380D02*
X187106666Y-100644380D01*
X186773333Y-101025333D01*
X186916190Y-101025333D01*
X187011428Y-101072952D01*
X187059047Y-101120571D01*
X187106666Y-101215809D01*
X187106666Y-101453904D01*
X187059047Y-101549142D01*
X187011428Y-101596761D01*
X186916190Y-101644380D01*
X186630476Y-101644380D01*
X186535238Y-101596761D01*
X186487619Y-101549142D01*
%TO.C,J8*%
X199350380Y-79073333D02*
X200064666Y-79073333D01*
X200207523Y-79120952D01*
X200302761Y-79216190D01*
X200350380Y-79359047D01*
X200350380Y-79454285D01*
X199778952Y-78454285D02*
X199731333Y-78549523D01*
X199683714Y-78597142D01*
X199588476Y-78644761D01*
X199540857Y-78644761D01*
X199445619Y-78597142D01*
X199398000Y-78549523D01*
X199350380Y-78454285D01*
X199350380Y-78263809D01*
X199398000Y-78168571D01*
X199445619Y-78120952D01*
X199540857Y-78073333D01*
X199588476Y-78073333D01*
X199683714Y-78120952D01*
X199731333Y-78168571D01*
X199778952Y-78263809D01*
X199778952Y-78454285D01*
X199826571Y-78549523D01*
X199874190Y-78597142D01*
X199969428Y-78644761D01*
X200159904Y-78644761D01*
X200255142Y-78597142D01*
X200302761Y-78549523D01*
X200350380Y-78454285D01*
X200350380Y-78263809D01*
X200302761Y-78168571D01*
X200255142Y-78120952D01*
X200159904Y-78073333D01*
X199969428Y-78073333D01*
X199874190Y-78120952D01*
X199826571Y-78168571D01*
X199778952Y-78263809D01*
%TO.C,R1*%
X195667333Y-96718380D02*
X195334000Y-96242190D01*
X195095904Y-96718380D02*
X195095904Y-95718380D01*
X195476857Y-95718380D01*
X195572095Y-95766000D01*
X195619714Y-95813619D01*
X195667333Y-95908857D01*
X195667333Y-96051714D01*
X195619714Y-96146952D01*
X195572095Y-96194571D01*
X195476857Y-96242190D01*
X195095904Y-96242190D01*
X196619714Y-96718380D02*
X196048285Y-96718380D01*
X196334000Y-96718380D02*
X196334000Y-95718380D01*
X196238761Y-95861238D01*
X196143523Y-95956476D01*
X196048285Y-96004095D01*
%TO.C,R2*%
X194669333Y-108529380D02*
X194336000Y-108053190D01*
X194097904Y-108529380D02*
X194097904Y-107529380D01*
X194478857Y-107529380D01*
X194574095Y-107577000D01*
X194621714Y-107624619D01*
X194669333Y-107719857D01*
X194669333Y-107862714D01*
X194621714Y-107957952D01*
X194574095Y-108005571D01*
X194478857Y-108053190D01*
X194097904Y-108053190D01*
X195050285Y-107624619D02*
X195097904Y-107577000D01*
X195193142Y-107529380D01*
X195431238Y-107529380D01*
X195526476Y-107577000D01*
X195574095Y-107624619D01*
X195621714Y-107719857D01*
X195621714Y-107815095D01*
X195574095Y-107957952D01*
X195002666Y-108529380D01*
X195621714Y-108529380D01*
%TO.C,R3*%
X195667333Y-91130380D02*
X195334000Y-90654190D01*
X195095904Y-91130380D02*
X195095904Y-90130380D01*
X195476857Y-90130380D01*
X195572095Y-90178000D01*
X195619714Y-90225619D01*
X195667333Y-90320857D01*
X195667333Y-90463714D01*
X195619714Y-90558952D01*
X195572095Y-90606571D01*
X195476857Y-90654190D01*
X195095904Y-90654190D01*
X196000666Y-90130380D02*
X196619714Y-90130380D01*
X196286380Y-90511333D01*
X196429238Y-90511333D01*
X196524476Y-90558952D01*
X196572095Y-90606571D01*
X196619714Y-90701809D01*
X196619714Y-90939904D01*
X196572095Y-91035142D01*
X196524476Y-91082761D01*
X196429238Y-91130380D01*
X196143523Y-91130380D01*
X196048285Y-91082761D01*
X196000666Y-91035142D01*
%TO.C,R4*%
X195667333Y-88844380D02*
X195334000Y-88368190D01*
X195095904Y-88844380D02*
X195095904Y-87844380D01*
X195476857Y-87844380D01*
X195572095Y-87892000D01*
X195619714Y-87939619D01*
X195667333Y-88034857D01*
X195667333Y-88177714D01*
X195619714Y-88272952D01*
X195572095Y-88320571D01*
X195476857Y-88368190D01*
X195095904Y-88368190D01*
X196524476Y-88177714D02*
X196524476Y-88844380D01*
X196286380Y-87796761D02*
X196048285Y-88511047D01*
X196667333Y-88511047D01*
%TO.C,R5*%
X195667333Y-101290380D02*
X195334000Y-100814190D01*
X195095904Y-101290380D02*
X195095904Y-100290380D01*
X195476857Y-100290380D01*
X195572095Y-100338000D01*
X195619714Y-100385619D01*
X195667333Y-100480857D01*
X195667333Y-100623714D01*
X195619714Y-100718952D01*
X195572095Y-100766571D01*
X195476857Y-100814190D01*
X195095904Y-100814190D01*
X196572095Y-100290380D02*
X196095904Y-100290380D01*
X196048285Y-100766571D01*
X196095904Y-100718952D01*
X196191142Y-100671333D01*
X196429238Y-100671333D01*
X196524476Y-100718952D01*
X196572095Y-100766571D01*
X196619714Y-100861809D01*
X196619714Y-101099904D01*
X196572095Y-101195142D01*
X196524476Y-101242761D01*
X196429238Y-101290380D01*
X196191142Y-101290380D01*
X196095904Y-101242761D01*
X196048285Y-101195142D01*
%TO.C,R6*%
X204668380Y-96423666D02*
X204192190Y-96757000D01*
X204668380Y-96995095D02*
X203668380Y-96995095D01*
X203668380Y-96614142D01*
X203716000Y-96518904D01*
X203763619Y-96471285D01*
X203858857Y-96423666D01*
X204001714Y-96423666D01*
X204096952Y-96471285D01*
X204144571Y-96518904D01*
X204192190Y-96614142D01*
X204192190Y-96995095D01*
X203668380Y-95566523D02*
X203668380Y-95757000D01*
X203716000Y-95852238D01*
X203763619Y-95899857D01*
X203906476Y-95995095D01*
X204096952Y-96042714D01*
X204477904Y-96042714D01*
X204573142Y-95995095D01*
X204620761Y-95947476D01*
X204668380Y-95852238D01*
X204668380Y-95661761D01*
X204620761Y-95566523D01*
X204573142Y-95518904D01*
X204477904Y-95471285D01*
X204239809Y-95471285D01*
X204144571Y-95518904D01*
X204096952Y-95566523D01*
X204049333Y-95661761D01*
X204049333Y-95852238D01*
X204096952Y-95947476D01*
X204144571Y-95995095D01*
X204239809Y-96042714D01*
%TO.C,R7*%
X207360333Y-102178380D02*
X207027000Y-101702190D01*
X206788904Y-102178380D02*
X206788904Y-101178380D01*
X207169857Y-101178380D01*
X207265095Y-101226000D01*
X207312714Y-101273619D01*
X207360333Y-101368857D01*
X207360333Y-101511714D01*
X207312714Y-101606952D01*
X207265095Y-101654571D01*
X207169857Y-101702190D01*
X206788904Y-101702190D01*
X207693666Y-101178380D02*
X208360333Y-101178380D01*
X207931761Y-102178380D01*
%TO.C,R8*%
X210636380Y-96931666D02*
X210160190Y-97265000D01*
X210636380Y-97503095D02*
X209636380Y-97503095D01*
X209636380Y-97122142D01*
X209684000Y-97026904D01*
X209731619Y-96979285D01*
X209826857Y-96931666D01*
X209969714Y-96931666D01*
X210064952Y-96979285D01*
X210112571Y-97026904D01*
X210160190Y-97122142D01*
X210160190Y-97503095D01*
X210064952Y-96360238D02*
X210017333Y-96455476D01*
X209969714Y-96503095D01*
X209874476Y-96550714D01*
X209826857Y-96550714D01*
X209731619Y-96503095D01*
X209684000Y-96455476D01*
X209636380Y-96360238D01*
X209636380Y-96169761D01*
X209684000Y-96074523D01*
X209731619Y-96026904D01*
X209826857Y-95979285D01*
X209874476Y-95979285D01*
X209969714Y-96026904D01*
X210017333Y-96074523D01*
X210064952Y-96169761D01*
X210064952Y-96360238D01*
X210112571Y-96455476D01*
X210160190Y-96503095D01*
X210255428Y-96550714D01*
X210445904Y-96550714D01*
X210541142Y-96503095D01*
X210588761Y-96455476D01*
X210636380Y-96360238D01*
X210636380Y-96169761D01*
X210588761Y-96074523D01*
X210541142Y-96026904D01*
X210445904Y-95979285D01*
X210255428Y-95979285D01*
X210160190Y-96026904D01*
X210112571Y-96074523D01*
X210064952Y-96169761D01*
%TO.C,R9*%
X206081333Y-110942380D02*
X205748000Y-110466190D01*
X205509904Y-110942380D02*
X205509904Y-109942380D01*
X205890857Y-109942380D01*
X205986095Y-109990000D01*
X206033714Y-110037619D01*
X206081333Y-110132857D01*
X206081333Y-110275714D01*
X206033714Y-110370952D01*
X205986095Y-110418571D01*
X205890857Y-110466190D01*
X205509904Y-110466190D01*
X206557523Y-110942380D02*
X206748000Y-110942380D01*
X206843238Y-110894761D01*
X206890857Y-110847142D01*
X206986095Y-110704285D01*
X207033714Y-110513809D01*
X207033714Y-110132857D01*
X206986095Y-110037619D01*
X206938476Y-109990000D01*
X206843238Y-109942380D01*
X206652761Y-109942380D01*
X206557523Y-109990000D01*
X206509904Y-110037619D01*
X206462285Y-110132857D01*
X206462285Y-110370952D01*
X206509904Y-110466190D01*
X206557523Y-110513809D01*
X206652761Y-110561428D01*
X206843238Y-110561428D01*
X206938476Y-110513809D01*
X206986095Y-110466190D01*
X207033714Y-110370952D01*
%TO.C,R10*%
X215003142Y-107132380D02*
X214669809Y-106656190D01*
X214431714Y-107132380D02*
X214431714Y-106132380D01*
X214812666Y-106132380D01*
X214907904Y-106180000D01*
X214955523Y-106227619D01*
X215003142Y-106322857D01*
X215003142Y-106465714D01*
X214955523Y-106560952D01*
X214907904Y-106608571D01*
X214812666Y-106656190D01*
X214431714Y-106656190D01*
X215955523Y-107132380D02*
X215384095Y-107132380D01*
X215669809Y-107132380D02*
X215669809Y-106132380D01*
X215574571Y-106275238D01*
X215479333Y-106370476D01*
X215384095Y-106418095D01*
X216574571Y-106132380D02*
X216669809Y-106132380D01*
X216765047Y-106180000D01*
X216812666Y-106227619D01*
X216860285Y-106322857D01*
X216907904Y-106513333D01*
X216907904Y-106751428D01*
X216860285Y-106941904D01*
X216812666Y-107037142D01*
X216765047Y-107084761D01*
X216669809Y-107132380D01*
X216574571Y-107132380D01*
X216479333Y-107084761D01*
X216431714Y-107037142D01*
X216384095Y-106941904D01*
X216336476Y-106751428D01*
X216336476Y-106513333D01*
X216384095Y-106322857D01*
X216431714Y-106227619D01*
X216479333Y-106180000D01*
X216574571Y-106132380D01*
%TO.C,R11*%
X185539142Y-77922380D02*
X185205809Y-77446190D01*
X184967714Y-77922380D02*
X184967714Y-76922380D01*
X185348666Y-76922380D01*
X185443904Y-76970000D01*
X185491523Y-77017619D01*
X185539142Y-77112857D01*
X185539142Y-77255714D01*
X185491523Y-77350952D01*
X185443904Y-77398571D01*
X185348666Y-77446190D01*
X184967714Y-77446190D01*
X186491523Y-77922380D02*
X185920095Y-77922380D01*
X186205809Y-77922380D02*
X186205809Y-76922380D01*
X186110571Y-77065238D01*
X186015333Y-77160476D01*
X185920095Y-77208095D01*
X187443904Y-77922380D02*
X186872476Y-77922380D01*
X187158190Y-77922380D02*
X187158190Y-76922380D01*
X187062952Y-77065238D01*
X186967714Y-77160476D01*
X186872476Y-77208095D01*
%TO.C,R12*%
X215003142Y-109418380D02*
X214669809Y-108942190D01*
X214431714Y-109418380D02*
X214431714Y-108418380D01*
X214812666Y-108418380D01*
X214907904Y-108466000D01*
X214955523Y-108513619D01*
X215003142Y-108608857D01*
X215003142Y-108751714D01*
X214955523Y-108846952D01*
X214907904Y-108894571D01*
X214812666Y-108942190D01*
X214431714Y-108942190D01*
X215955523Y-109418380D02*
X215384095Y-109418380D01*
X215669809Y-109418380D02*
X215669809Y-108418380D01*
X215574571Y-108561238D01*
X215479333Y-108656476D01*
X215384095Y-108704095D01*
X216336476Y-108513619D02*
X216384095Y-108466000D01*
X216479333Y-108418380D01*
X216717428Y-108418380D01*
X216812666Y-108466000D01*
X216860285Y-108513619D01*
X216907904Y-108608857D01*
X216907904Y-108704095D01*
X216860285Y-108846952D01*
X216288857Y-109418380D01*
X216907904Y-109418380D01*
%TO.C,R13*%
X194254380Y-81160857D02*
X193778190Y-81494190D01*
X194254380Y-81732285D02*
X193254380Y-81732285D01*
X193254380Y-81351333D01*
X193302000Y-81256095D01*
X193349619Y-81208476D01*
X193444857Y-81160857D01*
X193587714Y-81160857D01*
X193682952Y-81208476D01*
X193730571Y-81256095D01*
X193778190Y-81351333D01*
X193778190Y-81732285D01*
X194254380Y-80208476D02*
X194254380Y-80779904D01*
X194254380Y-80494190D02*
X193254380Y-80494190D01*
X193397238Y-80589428D01*
X193492476Y-80684666D01*
X193540095Y-80779904D01*
X193254380Y-79875142D02*
X193254380Y-79256095D01*
X193635333Y-79589428D01*
X193635333Y-79446571D01*
X193682952Y-79351333D01*
X193730571Y-79303714D01*
X193825809Y-79256095D01*
X194063904Y-79256095D01*
X194159142Y-79303714D01*
X194206761Y-79351333D01*
X194254380Y-79446571D01*
X194254380Y-79732285D01*
X194206761Y-79827523D01*
X194159142Y-79875142D01*
%TO.C,R14*%
X261818380Y-136269857D02*
X261342190Y-136603190D01*
X261818380Y-136841285D02*
X260818380Y-136841285D01*
X260818380Y-136460333D01*
X260866000Y-136365095D01*
X260913619Y-136317476D01*
X261008857Y-136269857D01*
X261151714Y-136269857D01*
X261246952Y-136317476D01*
X261294571Y-136365095D01*
X261342190Y-136460333D01*
X261342190Y-136841285D01*
X261818380Y-135317476D02*
X261818380Y-135888904D01*
X261818380Y-135603190D02*
X260818380Y-135603190D01*
X260961238Y-135698428D01*
X261056476Y-135793666D01*
X261104095Y-135888904D01*
X261151714Y-134460333D02*
X261818380Y-134460333D01*
X260770761Y-134698428D02*
X261485047Y-134936523D01*
X261485047Y-134317476D01*
%TO.C,R15*%
X267660380Y-136278857D02*
X267184190Y-136612190D01*
X267660380Y-136850285D02*
X266660380Y-136850285D01*
X266660380Y-136469333D01*
X266708000Y-136374095D01*
X266755619Y-136326476D01*
X266850857Y-136278857D01*
X266993714Y-136278857D01*
X267088952Y-136326476D01*
X267136571Y-136374095D01*
X267184190Y-136469333D01*
X267184190Y-136850285D01*
X267660380Y-135326476D02*
X267660380Y-135897904D01*
X267660380Y-135612190D02*
X266660380Y-135612190D01*
X266803238Y-135707428D01*
X266898476Y-135802666D01*
X266946095Y-135897904D01*
X266660380Y-134421714D02*
X266660380Y-134897904D01*
X267136571Y-134945523D01*
X267088952Y-134897904D01*
X267041333Y-134802666D01*
X267041333Y-134564571D01*
X267088952Y-134469333D01*
X267136571Y-134421714D01*
X267231809Y-134374095D01*
X267469904Y-134374095D01*
X267565142Y-134421714D01*
X267612761Y-134469333D01*
X267660380Y-134564571D01*
X267660380Y-134802666D01*
X267612761Y-134897904D01*
X267565142Y-134945523D01*
%TO.C,R16*%
X212034380Y-135770857D02*
X211558190Y-136104190D01*
X212034380Y-136342285D02*
X211034380Y-136342285D01*
X211034380Y-135961333D01*
X211082000Y-135866095D01*
X211129619Y-135818476D01*
X211224857Y-135770857D01*
X211367714Y-135770857D01*
X211462952Y-135818476D01*
X211510571Y-135866095D01*
X211558190Y-135961333D01*
X211558190Y-136342285D01*
X212034380Y-134818476D02*
X212034380Y-135389904D01*
X212034380Y-135104190D02*
X211034380Y-135104190D01*
X211177238Y-135199428D01*
X211272476Y-135294666D01*
X211320095Y-135389904D01*
X211034380Y-133961333D02*
X211034380Y-134151809D01*
X211082000Y-134247047D01*
X211129619Y-134294666D01*
X211272476Y-134389904D01*
X211462952Y-134437523D01*
X211843904Y-134437523D01*
X211939142Y-134389904D01*
X211986761Y-134342285D01*
X212034380Y-134247047D01*
X212034380Y-134056571D01*
X211986761Y-133961333D01*
X211939142Y-133913714D01*
X211843904Y-133866095D01*
X211605809Y-133866095D01*
X211510571Y-133913714D01*
X211462952Y-133961333D01*
X211415333Y-134056571D01*
X211415333Y-134247047D01*
X211462952Y-134342285D01*
X211510571Y-134389904D01*
X211605809Y-134437523D01*
%TO.C,R17*%
X217622380Y-117482857D02*
X217146190Y-117816190D01*
X217622380Y-118054285D02*
X216622380Y-118054285D01*
X216622380Y-117673333D01*
X216670000Y-117578095D01*
X216717619Y-117530476D01*
X216812857Y-117482857D01*
X216955714Y-117482857D01*
X217050952Y-117530476D01*
X217098571Y-117578095D01*
X217146190Y-117673333D01*
X217146190Y-118054285D01*
X217622380Y-116530476D02*
X217622380Y-117101904D01*
X217622380Y-116816190D02*
X216622380Y-116816190D01*
X216765238Y-116911428D01*
X216860476Y-117006666D01*
X216908095Y-117101904D01*
X216622380Y-116197142D02*
X216622380Y-115530476D01*
X217622380Y-115959047D01*
%TO.C,R18*%
X218258380Y-108601857D02*
X217782190Y-108935190D01*
X218258380Y-109173285D02*
X217258380Y-109173285D01*
X217258380Y-108792333D01*
X217306000Y-108697095D01*
X217353619Y-108649476D01*
X217448857Y-108601857D01*
X217591714Y-108601857D01*
X217686952Y-108649476D01*
X217734571Y-108697095D01*
X217782190Y-108792333D01*
X217782190Y-109173285D01*
X218258380Y-107649476D02*
X218258380Y-108220904D01*
X218258380Y-107935190D02*
X217258380Y-107935190D01*
X217401238Y-108030428D01*
X217496476Y-108125666D01*
X217544095Y-108220904D01*
X217686952Y-107078047D02*
X217639333Y-107173285D01*
X217591714Y-107220904D01*
X217496476Y-107268523D01*
X217448857Y-107268523D01*
X217353619Y-107220904D01*
X217306000Y-107173285D01*
X217258380Y-107078047D01*
X217258380Y-106887571D01*
X217306000Y-106792333D01*
X217353619Y-106744714D01*
X217448857Y-106697095D01*
X217496476Y-106697095D01*
X217591714Y-106744714D01*
X217639333Y-106792333D01*
X217686952Y-106887571D01*
X217686952Y-107078047D01*
X217734571Y-107173285D01*
X217782190Y-107220904D01*
X217877428Y-107268523D01*
X218067904Y-107268523D01*
X218163142Y-107220904D01*
X218210761Y-107173285D01*
X218258380Y-107078047D01*
X218258380Y-106887571D01*
X218210761Y-106792333D01*
X218163142Y-106744714D01*
X218067904Y-106697095D01*
X217877428Y-106697095D01*
X217782190Y-106744714D01*
X217734571Y-106792333D01*
X217686952Y-106887571D01*
%TO.C,R19*%
X211955142Y-104592380D02*
X211621809Y-104116190D01*
X211383714Y-104592380D02*
X211383714Y-103592380D01*
X211764666Y-103592380D01*
X211859904Y-103640000D01*
X211907523Y-103687619D01*
X211955142Y-103782857D01*
X211955142Y-103925714D01*
X211907523Y-104020952D01*
X211859904Y-104068571D01*
X211764666Y-104116190D01*
X211383714Y-104116190D01*
X212907523Y-104592380D02*
X212336095Y-104592380D01*
X212621809Y-104592380D02*
X212621809Y-103592380D01*
X212526571Y-103735238D01*
X212431333Y-103830476D01*
X212336095Y-103878095D01*
X213383714Y-104592380D02*
X213574190Y-104592380D01*
X213669428Y-104544761D01*
X213717047Y-104497142D01*
X213812285Y-104354285D01*
X213859904Y-104163809D01*
X213859904Y-103782857D01*
X213812285Y-103687619D01*
X213764666Y-103640000D01*
X213669428Y-103592380D01*
X213478952Y-103592380D01*
X213383714Y-103640000D01*
X213336095Y-103687619D01*
X213288476Y-103782857D01*
X213288476Y-104020952D01*
X213336095Y-104116190D01*
X213383714Y-104163809D01*
X213478952Y-104211428D01*
X213669428Y-104211428D01*
X213764666Y-104163809D01*
X213812285Y-104116190D01*
X213859904Y-104020952D01*
%TO.C,R20*%
X246499142Y-71572380D02*
X246165809Y-71096190D01*
X245927714Y-71572380D02*
X245927714Y-70572380D01*
X246308666Y-70572380D01*
X246403904Y-70620000D01*
X246451523Y-70667619D01*
X246499142Y-70762857D01*
X246499142Y-70905714D01*
X246451523Y-71000952D01*
X246403904Y-71048571D01*
X246308666Y-71096190D01*
X245927714Y-71096190D01*
X246880095Y-70667619D02*
X246927714Y-70620000D01*
X247022952Y-70572380D01*
X247261047Y-70572380D01*
X247356285Y-70620000D01*
X247403904Y-70667619D01*
X247451523Y-70762857D01*
X247451523Y-70858095D01*
X247403904Y-71000952D01*
X246832476Y-71572380D01*
X247451523Y-71572380D01*
X248070571Y-70572380D02*
X248165809Y-70572380D01*
X248261047Y-70620000D01*
X248308666Y-70667619D01*
X248356285Y-70762857D01*
X248403904Y-70953333D01*
X248403904Y-71191428D01*
X248356285Y-71381904D01*
X248308666Y-71477142D01*
X248261047Y-71524761D01*
X248165809Y-71572380D01*
X248070571Y-71572380D01*
X247975333Y-71524761D01*
X247927714Y-71477142D01*
X247880095Y-71381904D01*
X247832476Y-71191428D01*
X247832476Y-70953333D01*
X247880095Y-70762857D01*
X247927714Y-70667619D01*
X247975333Y-70620000D01*
X248070571Y-70572380D01*
%TO.C,R21*%
X246236142Y-92782380D02*
X245902809Y-92306190D01*
X245664714Y-92782380D02*
X245664714Y-91782380D01*
X246045666Y-91782380D01*
X246140904Y-91830000D01*
X246188523Y-91877619D01*
X246236142Y-91972857D01*
X246236142Y-92115714D01*
X246188523Y-92210952D01*
X246140904Y-92258571D01*
X246045666Y-92306190D01*
X245664714Y-92306190D01*
X246617095Y-91877619D02*
X246664714Y-91830000D01*
X246759952Y-91782380D01*
X246998047Y-91782380D01*
X247093285Y-91830000D01*
X247140904Y-91877619D01*
X247188523Y-91972857D01*
X247188523Y-92068095D01*
X247140904Y-92210952D01*
X246569476Y-92782380D01*
X247188523Y-92782380D01*
X248140904Y-92782380D02*
X247569476Y-92782380D01*
X247855190Y-92782380D02*
X247855190Y-91782380D01*
X247759952Y-91925238D01*
X247664714Y-92020476D01*
X247569476Y-92068095D01*
%TO.C,R22*%
X215511142Y-100528380D02*
X215177809Y-100052190D01*
X214939714Y-100528380D02*
X214939714Y-99528380D01*
X215320666Y-99528380D01*
X215415904Y-99576000D01*
X215463523Y-99623619D01*
X215511142Y-99718857D01*
X215511142Y-99861714D01*
X215463523Y-99956952D01*
X215415904Y-100004571D01*
X215320666Y-100052190D01*
X214939714Y-100052190D01*
X215892095Y-99623619D02*
X215939714Y-99576000D01*
X216034952Y-99528380D01*
X216273047Y-99528380D01*
X216368285Y-99576000D01*
X216415904Y-99623619D01*
X216463523Y-99718857D01*
X216463523Y-99814095D01*
X216415904Y-99956952D01*
X215844476Y-100528380D01*
X216463523Y-100528380D01*
X216844476Y-99623619D02*
X216892095Y-99576000D01*
X216987333Y-99528380D01*
X217225428Y-99528380D01*
X217320666Y-99576000D01*
X217368285Y-99623619D01*
X217415904Y-99718857D01*
X217415904Y-99814095D01*
X217368285Y-99956952D01*
X216796857Y-100528380D01*
X217415904Y-100528380D01*
%TO.C,R23*%
X246236142Y-96338380D02*
X245902809Y-95862190D01*
X245664714Y-96338380D02*
X245664714Y-95338380D01*
X246045666Y-95338380D01*
X246140904Y-95386000D01*
X246188523Y-95433619D01*
X246236142Y-95528857D01*
X246236142Y-95671714D01*
X246188523Y-95766952D01*
X246140904Y-95814571D01*
X246045666Y-95862190D01*
X245664714Y-95862190D01*
X246617095Y-95433619D02*
X246664714Y-95386000D01*
X246759952Y-95338380D01*
X246998047Y-95338380D01*
X247093285Y-95386000D01*
X247140904Y-95433619D01*
X247188523Y-95528857D01*
X247188523Y-95624095D01*
X247140904Y-95766952D01*
X246569476Y-96338380D01*
X247188523Y-96338380D01*
X247521857Y-95338380D02*
X248140904Y-95338380D01*
X247807571Y-95719333D01*
X247950428Y-95719333D01*
X248045666Y-95766952D01*
X248093285Y-95814571D01*
X248140904Y-95909809D01*
X248140904Y-96147904D01*
X248093285Y-96243142D01*
X248045666Y-96290761D01*
X247950428Y-96338380D01*
X247664714Y-96338380D01*
X247569476Y-96290761D01*
X247521857Y-96243142D01*
%TO.C,R24*%
X260478142Y-107386380D02*
X260144809Y-106910190D01*
X259906714Y-107386380D02*
X259906714Y-106386380D01*
X260287666Y-106386380D01*
X260382904Y-106434000D01*
X260430523Y-106481619D01*
X260478142Y-106576857D01*
X260478142Y-106719714D01*
X260430523Y-106814952D01*
X260382904Y-106862571D01*
X260287666Y-106910190D01*
X259906714Y-106910190D01*
X260859095Y-106481619D02*
X260906714Y-106434000D01*
X261001952Y-106386380D01*
X261240047Y-106386380D01*
X261335285Y-106434000D01*
X261382904Y-106481619D01*
X261430523Y-106576857D01*
X261430523Y-106672095D01*
X261382904Y-106814952D01*
X260811476Y-107386380D01*
X261430523Y-107386380D01*
X262287666Y-106719714D02*
X262287666Y-107386380D01*
X262049571Y-106338761D02*
X261811476Y-107053047D01*
X262430523Y-107053047D01*
%TO.C,R25*%
X244038380Y-134246857D02*
X243562190Y-134580190D01*
X244038380Y-134818285D02*
X243038380Y-134818285D01*
X243038380Y-134437333D01*
X243086000Y-134342095D01*
X243133619Y-134294476D01*
X243228857Y-134246857D01*
X243371714Y-134246857D01*
X243466952Y-134294476D01*
X243514571Y-134342095D01*
X243562190Y-134437333D01*
X243562190Y-134818285D01*
X243133619Y-133865904D02*
X243086000Y-133818285D01*
X243038380Y-133723047D01*
X243038380Y-133484952D01*
X243086000Y-133389714D01*
X243133619Y-133342095D01*
X243228857Y-133294476D01*
X243324095Y-133294476D01*
X243466952Y-133342095D01*
X244038380Y-133913523D01*
X244038380Y-133294476D01*
X243038380Y-132389714D02*
X243038380Y-132865904D01*
X243514571Y-132913523D01*
X243466952Y-132865904D01*
X243419333Y-132770666D01*
X243419333Y-132532571D01*
X243466952Y-132437333D01*
X243514571Y-132389714D01*
X243609809Y-132342095D01*
X243847904Y-132342095D01*
X243943142Y-132389714D01*
X243990761Y-132437333D01*
X244038380Y-132532571D01*
X244038380Y-132770666D01*
X243990761Y-132865904D01*
X243943142Y-132913523D01*
%TO.C,R26*%
X226442142Y-71318380D02*
X226108809Y-70842190D01*
X225870714Y-71318380D02*
X225870714Y-70318380D01*
X226251666Y-70318380D01*
X226346904Y-70366000D01*
X226394523Y-70413619D01*
X226442142Y-70508857D01*
X226442142Y-70651714D01*
X226394523Y-70746952D01*
X226346904Y-70794571D01*
X226251666Y-70842190D01*
X225870714Y-70842190D01*
X226823095Y-70413619D02*
X226870714Y-70366000D01*
X226965952Y-70318380D01*
X227204047Y-70318380D01*
X227299285Y-70366000D01*
X227346904Y-70413619D01*
X227394523Y-70508857D01*
X227394523Y-70604095D01*
X227346904Y-70746952D01*
X226775476Y-71318380D01*
X227394523Y-71318380D01*
X228251666Y-70318380D02*
X228061190Y-70318380D01*
X227965952Y-70366000D01*
X227918333Y-70413619D01*
X227823095Y-70556476D01*
X227775476Y-70746952D01*
X227775476Y-71127904D01*
X227823095Y-71223142D01*
X227870714Y-71270761D01*
X227965952Y-71318380D01*
X228156428Y-71318380D01*
X228251666Y-71270761D01*
X228299285Y-71223142D01*
X228346904Y-71127904D01*
X228346904Y-70889809D01*
X228299285Y-70794571D01*
X228251666Y-70746952D01*
X228156428Y-70699333D01*
X227965952Y-70699333D01*
X227870714Y-70746952D01*
X227823095Y-70794571D01*
X227775476Y-70889809D01*
%TO.C,R27*%
X226424142Y-83764380D02*
X226090809Y-83288190D01*
X225852714Y-83764380D02*
X225852714Y-82764380D01*
X226233666Y-82764380D01*
X226328904Y-82812000D01*
X226376523Y-82859619D01*
X226424142Y-82954857D01*
X226424142Y-83097714D01*
X226376523Y-83192952D01*
X226328904Y-83240571D01*
X226233666Y-83288190D01*
X225852714Y-83288190D01*
X226805095Y-82859619D02*
X226852714Y-82812000D01*
X226947952Y-82764380D01*
X227186047Y-82764380D01*
X227281285Y-82812000D01*
X227328904Y-82859619D01*
X227376523Y-82954857D01*
X227376523Y-83050095D01*
X227328904Y-83192952D01*
X226757476Y-83764380D01*
X227376523Y-83764380D01*
X227709857Y-82764380D02*
X228376523Y-82764380D01*
X227947952Y-83764380D01*
%TO.C,R28*%
X247848380Y-134246857D02*
X247372190Y-134580190D01*
X247848380Y-134818285D02*
X246848380Y-134818285D01*
X246848380Y-134437333D01*
X246896000Y-134342095D01*
X246943619Y-134294476D01*
X247038857Y-134246857D01*
X247181714Y-134246857D01*
X247276952Y-134294476D01*
X247324571Y-134342095D01*
X247372190Y-134437333D01*
X247372190Y-134818285D01*
X246943619Y-133865904D02*
X246896000Y-133818285D01*
X246848380Y-133723047D01*
X246848380Y-133484952D01*
X246896000Y-133389714D01*
X246943619Y-133342095D01*
X247038857Y-133294476D01*
X247134095Y-133294476D01*
X247276952Y-133342095D01*
X247848380Y-133913523D01*
X247848380Y-133294476D01*
X247276952Y-132723047D02*
X247229333Y-132818285D01*
X247181714Y-132865904D01*
X247086476Y-132913523D01*
X247038857Y-132913523D01*
X246943619Y-132865904D01*
X246896000Y-132818285D01*
X246848380Y-132723047D01*
X246848380Y-132532571D01*
X246896000Y-132437333D01*
X246943619Y-132389714D01*
X247038857Y-132342095D01*
X247086476Y-132342095D01*
X247181714Y-132389714D01*
X247229333Y-132437333D01*
X247276952Y-132532571D01*
X247276952Y-132723047D01*
X247324571Y-132818285D01*
X247372190Y-132865904D01*
X247467428Y-132913523D01*
X247657904Y-132913523D01*
X247753142Y-132865904D01*
X247800761Y-132818285D01*
X247848380Y-132723047D01*
X247848380Y-132532571D01*
X247800761Y-132437333D01*
X247753142Y-132389714D01*
X247657904Y-132342095D01*
X247467428Y-132342095D01*
X247372190Y-132389714D01*
X247324571Y-132437333D01*
X247276952Y-132532571D01*
%TO.C,R41*%
X203144380Y-79890857D02*
X202668190Y-80224190D01*
X203144380Y-80462285D02*
X202144380Y-80462285D01*
X202144380Y-80081333D01*
X202192000Y-79986095D01*
X202239619Y-79938476D01*
X202334857Y-79890857D01*
X202477714Y-79890857D01*
X202572952Y-79938476D01*
X202620571Y-79986095D01*
X202668190Y-80081333D01*
X202668190Y-80462285D01*
X202477714Y-79033714D02*
X203144380Y-79033714D01*
X202096761Y-79271809D02*
X202811047Y-79509904D01*
X202811047Y-78890857D01*
X203144380Y-77986095D02*
X203144380Y-78557523D01*
X203144380Y-78271809D02*
X202144380Y-78271809D01*
X202287238Y-78367047D01*
X202382476Y-78462285D01*
X202430095Y-78557523D01*
%TO.C,R42*%
X267914380Y-113164857D02*
X267438190Y-113498190D01*
X267914380Y-113736285D02*
X266914380Y-113736285D01*
X266914380Y-113355333D01*
X266962000Y-113260095D01*
X267009619Y-113212476D01*
X267104857Y-113164857D01*
X267247714Y-113164857D01*
X267342952Y-113212476D01*
X267390571Y-113260095D01*
X267438190Y-113355333D01*
X267438190Y-113736285D01*
X267247714Y-112307714D02*
X267914380Y-112307714D01*
X266866761Y-112545809D02*
X267581047Y-112783904D01*
X267581047Y-112164857D01*
X267009619Y-111831523D02*
X266962000Y-111783904D01*
X266914380Y-111688666D01*
X266914380Y-111450571D01*
X266962000Y-111355333D01*
X267009619Y-111307714D01*
X267104857Y-111260095D01*
X267200095Y-111260095D01*
X267342952Y-111307714D01*
X267914380Y-111879142D01*
X267914380Y-111260095D01*
%TO.C,R43*%
X254949942Y-115514380D02*
X254616609Y-115038190D01*
X254378514Y-115514380D02*
X254378514Y-114514380D01*
X254759466Y-114514380D01*
X254854704Y-114562000D01*
X254902323Y-114609619D01*
X254949942Y-114704857D01*
X254949942Y-114847714D01*
X254902323Y-114942952D01*
X254854704Y-114990571D01*
X254759466Y-115038190D01*
X254378514Y-115038190D01*
X255807085Y-114847714D02*
X255807085Y-115514380D01*
X255568990Y-114466761D02*
X255330895Y-115181047D01*
X255949942Y-115181047D01*
X256235657Y-114514380D02*
X256854704Y-114514380D01*
X256521371Y-114895333D01*
X256664228Y-114895333D01*
X256759466Y-114942952D01*
X256807085Y-114990571D01*
X256854704Y-115085809D01*
X256854704Y-115323904D01*
X256807085Y-115419142D01*
X256759466Y-115466761D01*
X256664228Y-115514380D01*
X256378514Y-115514380D01*
X256283276Y-115466761D01*
X256235657Y-115419142D01*
%TO.C,R44*%
X255976380Y-112656857D02*
X255500190Y-112990190D01*
X255976380Y-113228285D02*
X254976380Y-113228285D01*
X254976380Y-112847333D01*
X255024000Y-112752095D01*
X255071619Y-112704476D01*
X255166857Y-112656857D01*
X255309714Y-112656857D01*
X255404952Y-112704476D01*
X255452571Y-112752095D01*
X255500190Y-112847333D01*
X255500190Y-113228285D01*
X255309714Y-111799714D02*
X255976380Y-111799714D01*
X254928761Y-112037809D02*
X255643047Y-112275904D01*
X255643047Y-111656857D01*
X255309714Y-110847333D02*
X255976380Y-110847333D01*
X254928761Y-111085428D02*
X255643047Y-111323523D01*
X255643047Y-110704476D01*
%TO.C,SJ1*%
X215288761Y-90550857D02*
X215336380Y-90408000D01*
X215336380Y-90169904D01*
X215288761Y-90074666D01*
X215241142Y-90027047D01*
X215145904Y-89979428D01*
X215050666Y-89979428D01*
X214955428Y-90027047D01*
X214907809Y-90074666D01*
X214860190Y-90169904D01*
X214812571Y-90360380D01*
X214764952Y-90455619D01*
X214717333Y-90503238D01*
X214622095Y-90550857D01*
X214526857Y-90550857D01*
X214431619Y-90503238D01*
X214384000Y-90455619D01*
X214336380Y-90360380D01*
X214336380Y-90122285D01*
X214384000Y-89979428D01*
X214336380Y-89265142D02*
X215050666Y-89265142D01*
X215193523Y-89312761D01*
X215288761Y-89408000D01*
X215336380Y-89550857D01*
X215336380Y-89646095D01*
X215336380Y-88265142D02*
X215336380Y-88836571D01*
X215336380Y-88550857D02*
X214336380Y-88550857D01*
X214479238Y-88646095D01*
X214574476Y-88741333D01*
X214622095Y-88836571D01*
%TO.C,X1*%
X263858476Y-138216380D02*
X264525142Y-139216380D01*
X264525142Y-138216380D02*
X263858476Y-139216380D01*
X265429904Y-139216380D02*
X264858476Y-139216380D01*
X265144190Y-139216380D02*
X265144190Y-138216380D01*
X265048952Y-138359238D01*
X264953714Y-138454476D01*
X264858476Y-138502095D01*
%TO.C,D7*%
X212034380Y-146534095D02*
X211034380Y-146534095D01*
X211034380Y-146296000D01*
X211082000Y-146153142D01*
X211177238Y-146057904D01*
X211272476Y-146010285D01*
X211462952Y-145962666D01*
X211605809Y-145962666D01*
X211796285Y-146010285D01*
X211891523Y-146057904D01*
X211986761Y-146153142D01*
X212034380Y-146296000D01*
X212034380Y-146534095D01*
X211034380Y-145629333D02*
X211034380Y-144962666D01*
X212034380Y-145391238D01*
%TO.C,D8*%
X245308380Y-71359095D02*
X244308380Y-71359095D01*
X244308380Y-71121000D01*
X244356000Y-70978142D01*
X244451238Y-70882904D01*
X244546476Y-70835285D01*
X244736952Y-70787666D01*
X244879809Y-70787666D01*
X245070285Y-70835285D01*
X245165523Y-70882904D01*
X245260761Y-70978142D01*
X245308380Y-71121000D01*
X245308380Y-71359095D01*
X244736952Y-70216238D02*
X244689333Y-70311476D01*
X244641714Y-70359095D01*
X244546476Y-70406714D01*
X244498857Y-70406714D01*
X244403619Y-70359095D01*
X244356000Y-70311476D01*
X244308380Y-70216238D01*
X244308380Y-70025761D01*
X244356000Y-69930523D01*
X244403619Y-69882904D01*
X244498857Y-69835285D01*
X244546476Y-69835285D01*
X244641714Y-69882904D01*
X244689333Y-69930523D01*
X244736952Y-70025761D01*
X244736952Y-70216238D01*
X244784571Y-70311476D01*
X244832190Y-70359095D01*
X244927428Y-70406714D01*
X245117904Y-70406714D01*
X245213142Y-70359095D01*
X245260761Y-70311476D01*
X245308380Y-70216238D01*
X245308380Y-70025761D01*
X245260761Y-69930523D01*
X245213142Y-69882904D01*
X245117904Y-69835285D01*
X244927428Y-69835285D01*
X244832190Y-69882904D01*
X244784571Y-69930523D01*
X244736952Y-70025761D01*
%TO.C,D9*%
X251220904Y-92654380D02*
X251220904Y-91654380D01*
X251459000Y-91654380D01*
X251601857Y-91702000D01*
X251697095Y-91797238D01*
X251744714Y-91892476D01*
X251792333Y-92082952D01*
X251792333Y-92225809D01*
X251744714Y-92416285D01*
X251697095Y-92511523D01*
X251601857Y-92606761D01*
X251459000Y-92654380D01*
X251220904Y-92654380D01*
X252268523Y-92654380D02*
X252459000Y-92654380D01*
X252554238Y-92606761D01*
X252601857Y-92559142D01*
X252697095Y-92416285D01*
X252744714Y-92225809D01*
X252744714Y-91844857D01*
X252697095Y-91749619D01*
X252649476Y-91702000D01*
X252554238Y-91654380D01*
X252363761Y-91654380D01*
X252268523Y-91702000D01*
X252220904Y-91749619D01*
X252173285Y-91844857D01*
X252173285Y-92082952D01*
X252220904Y-92178190D01*
X252268523Y-92225809D01*
X252363761Y-92273428D01*
X252554238Y-92273428D01*
X252649476Y-92225809D01*
X252697095Y-92178190D01*
X252744714Y-92082952D01*
%TO.C,D10*%
X250499714Y-96210380D02*
X250499714Y-95210380D01*
X250737809Y-95210380D01*
X250880666Y-95258000D01*
X250975904Y-95353238D01*
X251023523Y-95448476D01*
X251071142Y-95638952D01*
X251071142Y-95781809D01*
X251023523Y-95972285D01*
X250975904Y-96067523D01*
X250880666Y-96162761D01*
X250737809Y-96210380D01*
X250499714Y-96210380D01*
X252023523Y-96210380D02*
X251452095Y-96210380D01*
X251737809Y-96210380D02*
X251737809Y-95210380D01*
X251642571Y-95353238D01*
X251547333Y-95448476D01*
X251452095Y-95496095D01*
X252642571Y-95210380D02*
X252737809Y-95210380D01*
X252833047Y-95258000D01*
X252880666Y-95305619D01*
X252928285Y-95400857D01*
X252975904Y-95591333D01*
X252975904Y-95829428D01*
X252928285Y-96019904D01*
X252880666Y-96115142D01*
X252833047Y-96162761D01*
X252737809Y-96210380D01*
X252642571Y-96210380D01*
X252547333Y-96162761D01*
X252499714Y-96115142D01*
X252452095Y-96019904D01*
X252404476Y-95829428D01*
X252404476Y-95591333D01*
X252452095Y-95400857D01*
X252499714Y-95305619D01*
X252547333Y-95258000D01*
X252642571Y-95210380D01*
%TO.C,D11*%
X255334714Y-103958380D02*
X255334714Y-102958380D01*
X255572809Y-102958380D01*
X255715666Y-103006000D01*
X255810904Y-103101238D01*
X255858523Y-103196476D01*
X255906142Y-103386952D01*
X255906142Y-103529809D01*
X255858523Y-103720285D01*
X255810904Y-103815523D01*
X255715666Y-103910761D01*
X255572809Y-103958380D01*
X255334714Y-103958380D01*
X256858523Y-103958380D02*
X256287095Y-103958380D01*
X256572809Y-103958380D02*
X256572809Y-102958380D01*
X256477571Y-103101238D01*
X256382333Y-103196476D01*
X256287095Y-103244095D01*
X257810904Y-103958380D02*
X257239476Y-103958380D01*
X257525190Y-103958380D02*
X257525190Y-102958380D01*
X257429952Y-103101238D01*
X257334714Y-103196476D01*
X257239476Y-103244095D01*
%TO.C,D12*%
X219765714Y-83764380D02*
X219765714Y-82764380D01*
X220003809Y-82764380D01*
X220146666Y-82812000D01*
X220241904Y-82907238D01*
X220289523Y-83002476D01*
X220337142Y-83192952D01*
X220337142Y-83335809D01*
X220289523Y-83526285D01*
X220241904Y-83621523D01*
X220146666Y-83716761D01*
X220003809Y-83764380D01*
X219765714Y-83764380D01*
X221289523Y-83764380D02*
X220718095Y-83764380D01*
X221003809Y-83764380D02*
X221003809Y-82764380D01*
X220908571Y-82907238D01*
X220813333Y-83002476D01*
X220718095Y-83050095D01*
X221670476Y-82859619D02*
X221718095Y-82812000D01*
X221813333Y-82764380D01*
X222051428Y-82764380D01*
X222146666Y-82812000D01*
X222194285Y-82859619D01*
X222241904Y-82954857D01*
X222241904Y-83050095D01*
X222194285Y-83192952D01*
X221622857Y-83764380D01*
X222241904Y-83764380D01*
%TO.C,D13*%
X219765714Y-71318380D02*
X219765714Y-70318380D01*
X220003809Y-70318380D01*
X220146666Y-70366000D01*
X220241904Y-70461238D01*
X220289523Y-70556476D01*
X220337142Y-70746952D01*
X220337142Y-70889809D01*
X220289523Y-71080285D01*
X220241904Y-71175523D01*
X220146666Y-71270761D01*
X220003809Y-71318380D01*
X219765714Y-71318380D01*
X221289523Y-71318380D02*
X220718095Y-71318380D01*
X221003809Y-71318380D02*
X221003809Y-70318380D01*
X220908571Y-70461238D01*
X220813333Y-70556476D01*
X220718095Y-70604095D01*
X221622857Y-70318380D02*
X222241904Y-70318380D01*
X221908571Y-70699333D01*
X222051428Y-70699333D01*
X222146666Y-70746952D01*
X222194285Y-70794571D01*
X222241904Y-70889809D01*
X222241904Y-71127904D01*
X222194285Y-71223142D01*
X222146666Y-71270761D01*
X222051428Y-71318380D01*
X221765714Y-71318380D01*
X221670476Y-71270761D01*
X221622857Y-71223142D01*
%TO.C,R31*%
X212980142Y-65096380D02*
X212646809Y-64620190D01*
X212408714Y-65096380D02*
X212408714Y-64096380D01*
X212789666Y-64096380D01*
X212884904Y-64144000D01*
X212932523Y-64191619D01*
X212980142Y-64286857D01*
X212980142Y-64429714D01*
X212932523Y-64524952D01*
X212884904Y-64572571D01*
X212789666Y-64620190D01*
X212408714Y-64620190D01*
X213313476Y-64096380D02*
X213932523Y-64096380D01*
X213599190Y-64477333D01*
X213742047Y-64477333D01*
X213837285Y-64524952D01*
X213884904Y-64572571D01*
X213932523Y-64667809D01*
X213932523Y-64905904D01*
X213884904Y-65001142D01*
X213837285Y-65048761D01*
X213742047Y-65096380D01*
X213456333Y-65096380D01*
X213361095Y-65048761D01*
X213313476Y-65001142D01*
X214884904Y-65096380D02*
X214313476Y-65096380D01*
X214599190Y-65096380D02*
X214599190Y-64096380D01*
X214503952Y-64239238D01*
X214408714Y-64334476D01*
X214313476Y-64382095D01*
%TO.C,R32*%
X271598380Y-112393857D02*
X271122190Y-112727190D01*
X271598380Y-112965285D02*
X270598380Y-112965285D01*
X270598380Y-112584333D01*
X270646000Y-112489095D01*
X270693619Y-112441476D01*
X270788857Y-112393857D01*
X270931714Y-112393857D01*
X271026952Y-112441476D01*
X271074571Y-112489095D01*
X271122190Y-112584333D01*
X271122190Y-112965285D01*
X270598380Y-112060523D02*
X270598380Y-111441476D01*
X270979333Y-111774809D01*
X270979333Y-111631952D01*
X271026952Y-111536714D01*
X271074571Y-111489095D01*
X271169809Y-111441476D01*
X271407904Y-111441476D01*
X271503142Y-111489095D01*
X271550761Y-111536714D01*
X271598380Y-111631952D01*
X271598380Y-111917666D01*
X271550761Y-112012904D01*
X271503142Y-112060523D01*
X270693619Y-111060523D02*
X270646000Y-111012904D01*
X270598380Y-110917666D01*
X270598380Y-110679571D01*
X270646000Y-110584333D01*
X270693619Y-110536714D01*
X270788857Y-110489095D01*
X270884095Y-110489095D01*
X271026952Y-110536714D01*
X271598380Y-111108142D01*
X271598380Y-110489095D01*
%TO.C,U1*%
X188468095Y-86214380D02*
X188468095Y-87023904D01*
X188515714Y-87119142D01*
X188563333Y-87166761D01*
X188658571Y-87214380D01*
X188849047Y-87214380D01*
X188944285Y-87166761D01*
X188991904Y-87119142D01*
X189039523Y-87023904D01*
X189039523Y-86214380D01*
X190039523Y-87214380D02*
X189468095Y-87214380D01*
X189753809Y-87214380D02*
X189753809Y-86214380D01*
X189658571Y-86357238D01*
X189563333Y-86452476D01*
X189468095Y-86500095D01*
%TO.C,U6*%
X215098380Y-80517904D02*
X215907904Y-80517904D01*
X216003142Y-80470285D01*
X216050761Y-80422666D01*
X216098380Y-80327428D01*
X216098380Y-80136952D01*
X216050761Y-80041714D01*
X216003142Y-79994095D01*
X215907904Y-79946476D01*
X215098380Y-79946476D01*
X215098380Y-79041714D02*
X215098380Y-79232190D01*
X215146000Y-79327428D01*
X215193619Y-79375047D01*
X215336476Y-79470285D01*
X215526952Y-79517904D01*
X215907904Y-79517904D01*
X216003142Y-79470285D01*
X216050761Y-79422666D01*
X216098380Y-79327428D01*
X216098380Y-79136952D01*
X216050761Y-79041714D01*
X216003142Y-78994095D01*
X215907904Y-78946476D01*
X215669809Y-78946476D01*
X215574571Y-78994095D01*
X215526952Y-79041714D01*
X215479333Y-79136952D01*
X215479333Y-79327428D01*
X215526952Y-79422666D01*
X215574571Y-79470285D01*
X215669809Y-79517904D01*
%TO.C,U7*%
X261366095Y-114006380D02*
X261366095Y-114815904D01*
X261413714Y-114911142D01*
X261461333Y-114958761D01*
X261556571Y-115006380D01*
X261747047Y-115006380D01*
X261842285Y-114958761D01*
X261889904Y-114911142D01*
X261937523Y-114815904D01*
X261937523Y-114006380D01*
X262318476Y-114006380D02*
X262985142Y-114006380D01*
X262556571Y-115006380D01*
%TO.C,U2*%
X204470095Y-102428380D02*
X204470095Y-103237904D01*
X204517714Y-103333142D01*
X204565333Y-103380761D01*
X204660571Y-103428380D01*
X204851047Y-103428380D01*
X204946285Y-103380761D01*
X204993904Y-103333142D01*
X205041523Y-103237904D01*
X205041523Y-102428380D01*
X205470095Y-102523619D02*
X205517714Y-102476000D01*
X205612952Y-102428380D01*
X205851047Y-102428380D01*
X205946285Y-102476000D01*
X205993904Y-102523619D01*
X206041523Y-102618857D01*
X206041523Y-102714095D01*
X205993904Y-102856952D01*
X205422476Y-103428380D01*
X206041523Y-103428380D01*
%TO.C,C13*%
X276201142Y-77087857D02*
X276248761Y-77135476D01*
X276296380Y-77278333D01*
X276296380Y-77373571D01*
X276248761Y-77516428D01*
X276153523Y-77611666D01*
X276058285Y-77659285D01*
X275867809Y-77706904D01*
X275724952Y-77706904D01*
X275534476Y-77659285D01*
X275439238Y-77611666D01*
X275344000Y-77516428D01*
X275296380Y-77373571D01*
X275296380Y-77278333D01*
X275344000Y-77135476D01*
X275391619Y-77087857D01*
X276296380Y-76135476D02*
X276296380Y-76706904D01*
X276296380Y-76421190D02*
X275296380Y-76421190D01*
X275439238Y-76516428D01*
X275534476Y-76611666D01*
X275582095Y-76706904D01*
X275296380Y-75802142D02*
X275296380Y-75183095D01*
X275677333Y-75516428D01*
X275677333Y-75373571D01*
X275724952Y-75278333D01*
X275772571Y-75230714D01*
X275867809Y-75183095D01*
X276105904Y-75183095D01*
X276201142Y-75230714D01*
X276248761Y-75278333D01*
X276296380Y-75373571D01*
X276296380Y-75659285D01*
X276248761Y-75754523D01*
X276201142Y-75802142D01*
%TO.C,C14*%
X276073142Y-82929857D02*
X276120761Y-82977476D01*
X276168380Y-83120333D01*
X276168380Y-83215571D01*
X276120761Y-83358428D01*
X276025523Y-83453666D01*
X275930285Y-83501285D01*
X275739809Y-83548904D01*
X275596952Y-83548904D01*
X275406476Y-83501285D01*
X275311238Y-83453666D01*
X275216000Y-83358428D01*
X275168380Y-83215571D01*
X275168380Y-83120333D01*
X275216000Y-82977476D01*
X275263619Y-82929857D01*
X276168380Y-81977476D02*
X276168380Y-82548904D01*
X276168380Y-82263190D02*
X275168380Y-82263190D01*
X275311238Y-82358428D01*
X275406476Y-82453666D01*
X275454095Y-82548904D01*
X275501714Y-81120333D02*
X276168380Y-81120333D01*
X275120761Y-81358428D02*
X275835047Y-81596523D01*
X275835047Y-80977476D01*
%TO.C,C15*%
X269217142Y-88780857D02*
X269264761Y-88828476D01*
X269312380Y-88971333D01*
X269312380Y-89066571D01*
X269264761Y-89209428D01*
X269169523Y-89304666D01*
X269074285Y-89352285D01*
X268883809Y-89399904D01*
X268740952Y-89399904D01*
X268550476Y-89352285D01*
X268455238Y-89304666D01*
X268360000Y-89209428D01*
X268312380Y-89066571D01*
X268312380Y-88971333D01*
X268360000Y-88828476D01*
X268407619Y-88780857D01*
X269312380Y-87828476D02*
X269312380Y-88399904D01*
X269312380Y-88114190D02*
X268312380Y-88114190D01*
X268455238Y-88209428D01*
X268550476Y-88304666D01*
X268598095Y-88399904D01*
X268312380Y-86923714D02*
X268312380Y-87399904D01*
X268788571Y-87447523D01*
X268740952Y-87399904D01*
X268693333Y-87304666D01*
X268693333Y-87066571D01*
X268740952Y-86971333D01*
X268788571Y-86923714D01*
X268883809Y-86876095D01*
X269121904Y-86876095D01*
X269217142Y-86923714D01*
X269264761Y-86971333D01*
X269312380Y-87066571D01*
X269312380Y-87304666D01*
X269264761Y-87399904D01*
X269217142Y-87447523D01*
%TO.C,C16*%
X246991142Y-87519857D02*
X247038761Y-87567476D01*
X247086380Y-87710333D01*
X247086380Y-87805571D01*
X247038761Y-87948428D01*
X246943523Y-88043666D01*
X246848285Y-88091285D01*
X246657809Y-88138904D01*
X246514952Y-88138904D01*
X246324476Y-88091285D01*
X246229238Y-88043666D01*
X246134000Y-87948428D01*
X246086380Y-87805571D01*
X246086380Y-87710333D01*
X246134000Y-87567476D01*
X246181619Y-87519857D01*
X247086380Y-86567476D02*
X247086380Y-87138904D01*
X247086380Y-86853190D02*
X246086380Y-86853190D01*
X246229238Y-86948428D01*
X246324476Y-87043666D01*
X246372095Y-87138904D01*
X246086380Y-85710333D02*
X246086380Y-85900809D01*
X246134000Y-85996047D01*
X246181619Y-86043666D01*
X246324476Y-86138904D01*
X246514952Y-86186523D01*
X246895904Y-86186523D01*
X246991142Y-86138904D01*
X247038761Y-86091285D01*
X247086380Y-85996047D01*
X247086380Y-85805571D01*
X247038761Y-85710333D01*
X246991142Y-85662714D01*
X246895904Y-85615095D01*
X246657809Y-85615095D01*
X246562571Y-85662714D01*
X246514952Y-85710333D01*
X246467333Y-85805571D01*
X246467333Y-85996047D01*
X246514952Y-86091285D01*
X246562571Y-86138904D01*
X246657809Y-86186523D01*
%TO.C,C17*%
X249277142Y-89052857D02*
X249324761Y-89100476D01*
X249372380Y-89243333D01*
X249372380Y-89338571D01*
X249324761Y-89481428D01*
X249229523Y-89576666D01*
X249134285Y-89624285D01*
X248943809Y-89671904D01*
X248800952Y-89671904D01*
X248610476Y-89624285D01*
X248515238Y-89576666D01*
X248420000Y-89481428D01*
X248372380Y-89338571D01*
X248372380Y-89243333D01*
X248420000Y-89100476D01*
X248467619Y-89052857D01*
X249372380Y-88100476D02*
X249372380Y-88671904D01*
X249372380Y-88386190D02*
X248372380Y-88386190D01*
X248515238Y-88481428D01*
X248610476Y-88576666D01*
X248658095Y-88671904D01*
X248372380Y-87767142D02*
X248372380Y-87100476D01*
X249372380Y-87529047D01*
%TO.C,C18*%
X255119142Y-89034857D02*
X255166761Y-89082476D01*
X255214380Y-89225333D01*
X255214380Y-89320571D01*
X255166761Y-89463428D01*
X255071523Y-89558666D01*
X254976285Y-89606285D01*
X254785809Y-89653904D01*
X254642952Y-89653904D01*
X254452476Y-89606285D01*
X254357238Y-89558666D01*
X254262000Y-89463428D01*
X254214380Y-89320571D01*
X254214380Y-89225333D01*
X254262000Y-89082476D01*
X254309619Y-89034857D01*
X255214380Y-88082476D02*
X255214380Y-88653904D01*
X255214380Y-88368190D02*
X254214380Y-88368190D01*
X254357238Y-88463428D01*
X254452476Y-88558666D01*
X254500095Y-88653904D01*
X254642952Y-87511047D02*
X254595333Y-87606285D01*
X254547714Y-87653904D01*
X254452476Y-87701523D01*
X254404857Y-87701523D01*
X254309619Y-87653904D01*
X254262000Y-87606285D01*
X254214380Y-87511047D01*
X254214380Y-87320571D01*
X254262000Y-87225333D01*
X254309619Y-87177714D01*
X254404857Y-87130095D01*
X254452476Y-87130095D01*
X254547714Y-87177714D01*
X254595333Y-87225333D01*
X254642952Y-87320571D01*
X254642952Y-87511047D01*
X254690571Y-87606285D01*
X254738190Y-87653904D01*
X254833428Y-87701523D01*
X255023904Y-87701523D01*
X255119142Y-87653904D01*
X255166761Y-87606285D01*
X255214380Y-87511047D01*
X255214380Y-87320571D01*
X255166761Y-87225333D01*
X255119142Y-87177714D01*
X255023904Y-87130095D01*
X254833428Y-87130095D01*
X254738190Y-87177714D01*
X254690571Y-87225333D01*
X254642952Y-87320571D01*
%TO.C,J7*%
X275064380Y-88471333D02*
X275778666Y-88471333D01*
X275921523Y-88518952D01*
X276016761Y-88614190D01*
X276064380Y-88757047D01*
X276064380Y-88852285D01*
X275064380Y-88090380D02*
X275064380Y-87423714D01*
X276064380Y-87852285D01*
%TO.C,R34*%
X265756380Y-88789857D02*
X265280190Y-89123190D01*
X265756380Y-89361285D02*
X264756380Y-89361285D01*
X264756380Y-88980333D01*
X264804000Y-88885095D01*
X264851619Y-88837476D01*
X264946857Y-88789857D01*
X265089714Y-88789857D01*
X265184952Y-88837476D01*
X265232571Y-88885095D01*
X265280190Y-88980333D01*
X265280190Y-89361285D01*
X264756380Y-88456523D02*
X264756380Y-87837476D01*
X265137333Y-88170809D01*
X265137333Y-88027952D01*
X265184952Y-87932714D01*
X265232571Y-87885095D01*
X265327809Y-87837476D01*
X265565904Y-87837476D01*
X265661142Y-87885095D01*
X265708761Y-87932714D01*
X265756380Y-88027952D01*
X265756380Y-88313666D01*
X265708761Y-88408904D01*
X265661142Y-88456523D01*
X265089714Y-86980333D02*
X265756380Y-86980333D01*
X264708761Y-87218428D02*
X265423047Y-87456523D01*
X265423047Y-86837476D01*
%TO.C,R35*%
X265120380Y-80398857D02*
X264644190Y-80732190D01*
X265120380Y-80970285D02*
X264120380Y-80970285D01*
X264120380Y-80589333D01*
X264168000Y-80494095D01*
X264215619Y-80446476D01*
X264310857Y-80398857D01*
X264453714Y-80398857D01*
X264548952Y-80446476D01*
X264596571Y-80494095D01*
X264644190Y-80589333D01*
X264644190Y-80970285D01*
X264120380Y-80065523D02*
X264120380Y-79446476D01*
X264501333Y-79779809D01*
X264501333Y-79636952D01*
X264548952Y-79541714D01*
X264596571Y-79494095D01*
X264691809Y-79446476D01*
X264929904Y-79446476D01*
X265025142Y-79494095D01*
X265072761Y-79541714D01*
X265120380Y-79636952D01*
X265120380Y-79922666D01*
X265072761Y-80017904D01*
X265025142Y-80065523D01*
X264120380Y-78541714D02*
X264120380Y-79017904D01*
X264596571Y-79065523D01*
X264548952Y-79017904D01*
X264501333Y-78922666D01*
X264501333Y-78684571D01*
X264548952Y-78589333D01*
X264596571Y-78541714D01*
X264691809Y-78494095D01*
X264929904Y-78494095D01*
X265025142Y-78541714D01*
X265072761Y-78589333D01*
X265120380Y-78684571D01*
X265120380Y-78922666D01*
X265072761Y-79017904D01*
X265025142Y-79065523D01*
%TO.C,R36*%
X248277142Y-71572380D02*
X247943809Y-71096190D01*
X247705714Y-71572380D02*
X247705714Y-70572380D01*
X248086666Y-70572380D01*
X248181904Y-70620000D01*
X248229523Y-70667619D01*
X248277142Y-70762857D01*
X248277142Y-70905714D01*
X248229523Y-71000952D01*
X248181904Y-71048571D01*
X248086666Y-71096190D01*
X247705714Y-71096190D01*
X248610476Y-70572380D02*
X249229523Y-70572380D01*
X248896190Y-70953333D01*
X249039047Y-70953333D01*
X249134285Y-71000952D01*
X249181904Y-71048571D01*
X249229523Y-71143809D01*
X249229523Y-71381904D01*
X249181904Y-71477142D01*
X249134285Y-71524761D01*
X249039047Y-71572380D01*
X248753333Y-71572380D01*
X248658095Y-71524761D01*
X248610476Y-71477142D01*
X250086666Y-70572380D02*
X249896190Y-70572380D01*
X249800952Y-70620000D01*
X249753333Y-70667619D01*
X249658095Y-70810476D01*
X249610476Y-71000952D01*
X249610476Y-71381904D01*
X249658095Y-71477142D01*
X249705714Y-71524761D01*
X249800952Y-71572380D01*
X249991428Y-71572380D01*
X250086666Y-71524761D01*
X250134285Y-71477142D01*
X250181904Y-71381904D01*
X250181904Y-71143809D01*
X250134285Y-71048571D01*
X250086666Y-71000952D01*
X249991428Y-70953333D01*
X249800952Y-70953333D01*
X249705714Y-71000952D01*
X249658095Y-71048571D01*
X249610476Y-71143809D01*
%TO.C,U3*%
X249050380Y-80263904D02*
X249859904Y-80263904D01*
X249955142Y-80216285D01*
X250002761Y-80168666D01*
X250050380Y-80073428D01*
X250050380Y-79882952D01*
X250002761Y-79787714D01*
X249955142Y-79740095D01*
X249859904Y-79692476D01*
X249050380Y-79692476D01*
X249050380Y-79311523D02*
X249050380Y-78692476D01*
X249431333Y-79025809D01*
X249431333Y-78882952D01*
X249478952Y-78787714D01*
X249526571Y-78740095D01*
X249621809Y-78692476D01*
X249859904Y-78692476D01*
X249955142Y-78740095D01*
X250002761Y-78787714D01*
X250050380Y-78882952D01*
X250050380Y-79168666D01*
X250002761Y-79263904D01*
X249955142Y-79311523D01*
%TO.C,Y1*%
X272674190Y-79842690D02*
X273150380Y-79842690D01*
X272150380Y-80176023D02*
X272674190Y-79842690D01*
X272150380Y-79509357D01*
X273150380Y-78652214D02*
X273150380Y-79223642D01*
X273150380Y-78937928D02*
X272150380Y-78937928D01*
X272293238Y-79033166D01*
X272388476Y-79128404D01*
X272436095Y-79223642D01*
%TO.C,Q1*%
X230311619Y-80343238D02*
X230264000Y-80438476D01*
X230168761Y-80533714D01*
X230025904Y-80676571D01*
X229978285Y-80771809D01*
X229978285Y-80867047D01*
X230216380Y-80819428D02*
X230168761Y-80914666D01*
X230073523Y-81009904D01*
X229883047Y-81057523D01*
X229549714Y-81057523D01*
X229359238Y-81009904D01*
X229264000Y-80914666D01*
X229216380Y-80819428D01*
X229216380Y-80628952D01*
X229264000Y-80533714D01*
X229359238Y-80438476D01*
X229549714Y-80390857D01*
X229883047Y-80390857D01*
X230073523Y-80438476D01*
X230168761Y-80533714D01*
X230216380Y-80628952D01*
X230216380Y-80819428D01*
X230216380Y-79438476D02*
X230216380Y-80009904D01*
X230216380Y-79724190D02*
X229216380Y-79724190D01*
X229359238Y-79819428D01*
X229454476Y-79914666D01*
X229502095Y-80009904D01*
%TO.C,Q2*%
X230377619Y-92789238D02*
X230330000Y-92884476D01*
X230234761Y-92979714D01*
X230091904Y-93122571D01*
X230044285Y-93217809D01*
X230044285Y-93313047D01*
X230282380Y-93265428D02*
X230234761Y-93360666D01*
X230139523Y-93455904D01*
X229949047Y-93503523D01*
X229615714Y-93503523D01*
X229425238Y-93455904D01*
X229330000Y-93360666D01*
X229282380Y-93265428D01*
X229282380Y-93074952D01*
X229330000Y-92979714D01*
X229425238Y-92884476D01*
X229615714Y-92836857D01*
X229949047Y-92836857D01*
X230139523Y-92884476D01*
X230234761Y-92979714D01*
X230282380Y-93074952D01*
X230282380Y-93265428D01*
X229377619Y-92455904D02*
X229330000Y-92408285D01*
X229282380Y-92313047D01*
X229282380Y-92074952D01*
X229330000Y-91979714D01*
X229377619Y-91932095D01*
X229472857Y-91884476D01*
X229568095Y-91884476D01*
X229710952Y-91932095D01*
X230282380Y-92503523D01*
X230282380Y-91884476D01*
%TO.C,C21*%
X255881142Y-123070857D02*
X255928761Y-123118476D01*
X255976380Y-123261333D01*
X255976380Y-123356571D01*
X255928761Y-123499428D01*
X255833523Y-123594666D01*
X255738285Y-123642285D01*
X255547809Y-123689904D01*
X255404952Y-123689904D01*
X255214476Y-123642285D01*
X255119238Y-123594666D01*
X255024000Y-123499428D01*
X254976380Y-123356571D01*
X254976380Y-123261333D01*
X255024000Y-123118476D01*
X255071619Y-123070857D01*
X255071619Y-122689904D02*
X255024000Y-122642285D01*
X254976380Y-122547047D01*
X254976380Y-122308952D01*
X255024000Y-122213714D01*
X255071619Y-122166095D01*
X255166857Y-122118476D01*
X255262095Y-122118476D01*
X255404952Y-122166095D01*
X255976380Y-122737523D01*
X255976380Y-122118476D01*
X255976380Y-121166095D02*
X255976380Y-121737523D01*
X255976380Y-121451809D02*
X254976380Y-121451809D01*
X255119238Y-121547047D01*
X255214476Y-121642285D01*
X255262095Y-121737523D01*
%TO.C,C23*%
X258041142Y-127125857D02*
X258088761Y-127173476D01*
X258136380Y-127316333D01*
X258136380Y-127411571D01*
X258088761Y-127554428D01*
X257993523Y-127649666D01*
X257898285Y-127697285D01*
X257707809Y-127744904D01*
X257564952Y-127744904D01*
X257374476Y-127697285D01*
X257279238Y-127649666D01*
X257184000Y-127554428D01*
X257136380Y-127411571D01*
X257136380Y-127316333D01*
X257184000Y-127173476D01*
X257231619Y-127125857D01*
X257231619Y-126744904D02*
X257184000Y-126697285D01*
X257136380Y-126602047D01*
X257136380Y-126363952D01*
X257184000Y-126268714D01*
X257231619Y-126221095D01*
X257326857Y-126173476D01*
X257422095Y-126173476D01*
X257564952Y-126221095D01*
X258136380Y-126792523D01*
X258136380Y-126173476D01*
X257136380Y-125840142D02*
X257136380Y-125221095D01*
X257517333Y-125554428D01*
X257517333Y-125411571D01*
X257564952Y-125316333D01*
X257612571Y-125268714D01*
X257707809Y-125221095D01*
X257945904Y-125221095D01*
X258041142Y-125268714D01*
X258088761Y-125316333D01*
X258136380Y-125411571D01*
X258136380Y-125697285D01*
X258088761Y-125792523D01*
X258041142Y-125840142D01*
%TO.C,C33*%
X255135142Y-130151142D02*
X255087523Y-130198761D01*
X254944666Y-130246380D01*
X254849428Y-130246380D01*
X254706571Y-130198761D01*
X254611333Y-130103523D01*
X254563714Y-130008285D01*
X254516095Y-129817809D01*
X254516095Y-129674952D01*
X254563714Y-129484476D01*
X254611333Y-129389238D01*
X254706571Y-129294000D01*
X254849428Y-129246380D01*
X254944666Y-129246380D01*
X255087523Y-129294000D01*
X255135142Y-129341619D01*
X255468476Y-129246380D02*
X256087523Y-129246380D01*
X255754190Y-129627333D01*
X255897047Y-129627333D01*
X255992285Y-129674952D01*
X256039904Y-129722571D01*
X256087523Y-129817809D01*
X256087523Y-130055904D01*
X256039904Y-130151142D01*
X255992285Y-130198761D01*
X255897047Y-130246380D01*
X255611333Y-130246380D01*
X255516095Y-130198761D01*
X255468476Y-130151142D01*
X256420857Y-129246380D02*
X257039904Y-129246380D01*
X256706571Y-129627333D01*
X256849428Y-129627333D01*
X256944666Y-129674952D01*
X256992285Y-129722571D01*
X257039904Y-129817809D01*
X257039904Y-130055904D01*
X256992285Y-130151142D01*
X256944666Y-130198761D01*
X256849428Y-130246380D01*
X256563714Y-130246380D01*
X256468476Y-130198761D01*
X256420857Y-130151142D01*
%TO.C,D14*%
X243784380Y-130754285D02*
X242784380Y-130754285D01*
X242784380Y-130516190D01*
X242832000Y-130373333D01*
X242927238Y-130278095D01*
X243022476Y-130230476D01*
X243212952Y-130182857D01*
X243355809Y-130182857D01*
X243546285Y-130230476D01*
X243641523Y-130278095D01*
X243736761Y-130373333D01*
X243784380Y-130516190D01*
X243784380Y-130754285D01*
X243784380Y-129230476D02*
X243784380Y-129801904D01*
X243784380Y-129516190D02*
X242784380Y-129516190D01*
X242927238Y-129611428D01*
X243022476Y-129706666D01*
X243070095Y-129801904D01*
X243117714Y-128373333D02*
X243784380Y-128373333D01*
X242736761Y-128611428D02*
X243451047Y-128849523D01*
X243451047Y-128230476D01*
%TO.C,D17*%
X232710714Y-71446380D02*
X232710714Y-70446380D01*
X232948809Y-70446380D01*
X233091666Y-70494000D01*
X233186904Y-70589238D01*
X233234523Y-70684476D01*
X233282142Y-70874952D01*
X233282142Y-71017809D01*
X233234523Y-71208285D01*
X233186904Y-71303523D01*
X233091666Y-71398761D01*
X232948809Y-71446380D01*
X232710714Y-71446380D01*
X234234523Y-71446380D02*
X233663095Y-71446380D01*
X233948809Y-71446380D02*
X233948809Y-70446380D01*
X233853571Y-70589238D01*
X233758333Y-70684476D01*
X233663095Y-70732095D01*
X234567857Y-70446380D02*
X235234523Y-70446380D01*
X234805952Y-71446380D01*
%TO.C,D18*%
X232202714Y-83892380D02*
X232202714Y-82892380D01*
X232440809Y-82892380D01*
X232583666Y-82940000D01*
X232678904Y-83035238D01*
X232726523Y-83130476D01*
X232774142Y-83320952D01*
X232774142Y-83463809D01*
X232726523Y-83654285D01*
X232678904Y-83749523D01*
X232583666Y-83844761D01*
X232440809Y-83892380D01*
X232202714Y-83892380D01*
X233726523Y-83892380D02*
X233155095Y-83892380D01*
X233440809Y-83892380D02*
X233440809Y-82892380D01*
X233345571Y-83035238D01*
X233250333Y-83130476D01*
X233155095Y-83178095D01*
X234297952Y-83320952D02*
X234202714Y-83273333D01*
X234155095Y-83225714D01*
X234107476Y-83130476D01*
X234107476Y-83082857D01*
X234155095Y-82987619D01*
X234202714Y-82940000D01*
X234297952Y-82892380D01*
X234488428Y-82892380D01*
X234583666Y-82940000D01*
X234631285Y-82987619D01*
X234678904Y-83082857D01*
X234678904Y-83130476D01*
X234631285Y-83225714D01*
X234583666Y-83273333D01*
X234488428Y-83320952D01*
X234297952Y-83320952D01*
X234202714Y-83368571D01*
X234155095Y-83416190D01*
X234107476Y-83511428D01*
X234107476Y-83701904D01*
X234155095Y-83797142D01*
X234202714Y-83844761D01*
X234297952Y-83892380D01*
X234488428Y-83892380D01*
X234583666Y-83844761D01*
X234631285Y-83797142D01*
X234678904Y-83701904D01*
X234678904Y-83511428D01*
X234631285Y-83416190D01*
X234583666Y-83368571D01*
X234488428Y-83320952D01*
%TO.C,Q3*%
X243853619Y-126079238D02*
X243806000Y-126174476D01*
X243710761Y-126269714D01*
X243567904Y-126412571D01*
X243520285Y-126507809D01*
X243520285Y-126603047D01*
X243758380Y-126555428D02*
X243710761Y-126650666D01*
X243615523Y-126745904D01*
X243425047Y-126793523D01*
X243091714Y-126793523D01*
X242901238Y-126745904D01*
X242806000Y-126650666D01*
X242758380Y-126555428D01*
X242758380Y-126364952D01*
X242806000Y-126269714D01*
X242901238Y-126174476D01*
X243091714Y-126126857D01*
X243425047Y-126126857D01*
X243615523Y-126174476D01*
X243710761Y-126269714D01*
X243758380Y-126364952D01*
X243758380Y-126555428D01*
X242758380Y-125793523D02*
X242758380Y-125174476D01*
X243139333Y-125507809D01*
X243139333Y-125364952D01*
X243186952Y-125269714D01*
X243234571Y-125222095D01*
X243329809Y-125174476D01*
X243567904Y-125174476D01*
X243663142Y-125222095D01*
X243710761Y-125269714D01*
X243758380Y-125364952D01*
X243758380Y-125650666D01*
X243710761Y-125745904D01*
X243663142Y-125793523D01*
%TO.C,Q4*%
X242823619Y-80629238D02*
X242776000Y-80724476D01*
X242680761Y-80819714D01*
X242537904Y-80962571D01*
X242490285Y-81057809D01*
X242490285Y-81153047D01*
X242728380Y-81105428D02*
X242680761Y-81200666D01*
X242585523Y-81295904D01*
X242395047Y-81343523D01*
X242061714Y-81343523D01*
X241871238Y-81295904D01*
X241776000Y-81200666D01*
X241728380Y-81105428D01*
X241728380Y-80914952D01*
X241776000Y-80819714D01*
X241871238Y-80724476D01*
X242061714Y-80676857D01*
X242395047Y-80676857D01*
X242585523Y-80724476D01*
X242680761Y-80819714D01*
X242728380Y-80914952D01*
X242728380Y-81105428D01*
X242061714Y-79819714D02*
X242728380Y-79819714D01*
X241680761Y-80057809D02*
X242395047Y-80295904D01*
X242395047Y-79676857D01*
%TO.C,Q5*%
X242823619Y-92821238D02*
X242776000Y-92916476D01*
X242680761Y-93011714D01*
X242537904Y-93154571D01*
X242490285Y-93249809D01*
X242490285Y-93345047D01*
X242728380Y-93297428D02*
X242680761Y-93392666D01*
X242585523Y-93487904D01*
X242395047Y-93535523D01*
X242061714Y-93535523D01*
X241871238Y-93487904D01*
X241776000Y-93392666D01*
X241728380Y-93297428D01*
X241728380Y-93106952D01*
X241776000Y-93011714D01*
X241871238Y-92916476D01*
X242061714Y-92868857D01*
X242395047Y-92868857D01*
X242585523Y-92916476D01*
X242680761Y-93011714D01*
X242728380Y-93106952D01*
X242728380Y-93297428D01*
X241728380Y-91964095D02*
X241728380Y-92440285D01*
X242204571Y-92487904D01*
X242156952Y-92440285D01*
X242109333Y-92345047D01*
X242109333Y-92106952D01*
X242156952Y-92011714D01*
X242204571Y-91964095D01*
X242299809Y-91916476D01*
X242537904Y-91916476D01*
X242633142Y-91964095D01*
X242680761Y-92011714D01*
X242728380Y-92106952D01*
X242728380Y-92345047D01*
X242680761Y-92440285D01*
X242633142Y-92487904D01*
%TO.C,R29*%
X259786380Y-119768857D02*
X259310190Y-120102190D01*
X259786380Y-120340285D02*
X258786380Y-120340285D01*
X258786380Y-119959333D01*
X258834000Y-119864095D01*
X258881619Y-119816476D01*
X258976857Y-119768857D01*
X259119714Y-119768857D01*
X259214952Y-119816476D01*
X259262571Y-119864095D01*
X259310190Y-119959333D01*
X259310190Y-120340285D01*
X258881619Y-119387904D02*
X258834000Y-119340285D01*
X258786380Y-119245047D01*
X258786380Y-119006952D01*
X258834000Y-118911714D01*
X258881619Y-118864095D01*
X258976857Y-118816476D01*
X259072095Y-118816476D01*
X259214952Y-118864095D01*
X259786380Y-119435523D01*
X259786380Y-118816476D01*
X259786380Y-118340285D02*
X259786380Y-118149809D01*
X259738761Y-118054571D01*
X259691142Y-118006952D01*
X259548285Y-117911714D01*
X259357809Y-117864095D01*
X258976857Y-117864095D01*
X258881619Y-117911714D01*
X258834000Y-117959333D01*
X258786380Y-118054571D01*
X258786380Y-118245047D01*
X258834000Y-118340285D01*
X258881619Y-118387904D01*
X258976857Y-118435523D01*
X259214952Y-118435523D01*
X259310190Y-118387904D01*
X259357809Y-118340285D01*
X259405428Y-118245047D01*
X259405428Y-118054571D01*
X259357809Y-117959333D01*
X259310190Y-117911714D01*
X259214952Y-117864095D01*
%TO.C,R30*%
X262326380Y-119768857D02*
X261850190Y-120102190D01*
X262326380Y-120340285D02*
X261326380Y-120340285D01*
X261326380Y-119959333D01*
X261374000Y-119864095D01*
X261421619Y-119816476D01*
X261516857Y-119768857D01*
X261659714Y-119768857D01*
X261754952Y-119816476D01*
X261802571Y-119864095D01*
X261850190Y-119959333D01*
X261850190Y-120340285D01*
X261326380Y-119435523D02*
X261326380Y-118816476D01*
X261707333Y-119149809D01*
X261707333Y-119006952D01*
X261754952Y-118911714D01*
X261802571Y-118864095D01*
X261897809Y-118816476D01*
X262135904Y-118816476D01*
X262231142Y-118864095D01*
X262278761Y-118911714D01*
X262326380Y-119006952D01*
X262326380Y-119292666D01*
X262278761Y-119387904D01*
X262231142Y-119435523D01*
X261326380Y-118197428D02*
X261326380Y-118102190D01*
X261374000Y-118006952D01*
X261421619Y-117959333D01*
X261516857Y-117911714D01*
X261707333Y-117864095D01*
X261945428Y-117864095D01*
X262135904Y-117911714D01*
X262231142Y-117959333D01*
X262278761Y-118006952D01*
X262326380Y-118102190D01*
X262326380Y-118197428D01*
X262278761Y-118292666D01*
X262231142Y-118340285D01*
X262135904Y-118387904D01*
X261945428Y-118435523D01*
X261707333Y-118435523D01*
X261516857Y-118387904D01*
X261421619Y-118340285D01*
X261374000Y-118292666D01*
X261326380Y-118197428D01*
%TO.C,R37*%
X266262380Y-123070857D02*
X265786190Y-123404190D01*
X266262380Y-123642285D02*
X265262380Y-123642285D01*
X265262380Y-123261333D01*
X265310000Y-123166095D01*
X265357619Y-123118476D01*
X265452857Y-123070857D01*
X265595714Y-123070857D01*
X265690952Y-123118476D01*
X265738571Y-123166095D01*
X265786190Y-123261333D01*
X265786190Y-123642285D01*
X265262380Y-122737523D02*
X265262380Y-122118476D01*
X265643333Y-122451809D01*
X265643333Y-122308952D01*
X265690952Y-122213714D01*
X265738571Y-122166095D01*
X265833809Y-122118476D01*
X266071904Y-122118476D01*
X266167142Y-122166095D01*
X266214761Y-122213714D01*
X266262380Y-122308952D01*
X266262380Y-122594666D01*
X266214761Y-122689904D01*
X266167142Y-122737523D01*
X265262380Y-121785142D02*
X265262380Y-121118476D01*
X266262380Y-121547047D01*
%TO.C,R38*%
X259698142Y-131896380D02*
X259364809Y-131420190D01*
X259126714Y-131896380D02*
X259126714Y-130896380D01*
X259507666Y-130896380D01*
X259602904Y-130944000D01*
X259650523Y-130991619D01*
X259698142Y-131086857D01*
X259698142Y-131229714D01*
X259650523Y-131324952D01*
X259602904Y-131372571D01*
X259507666Y-131420190D01*
X259126714Y-131420190D01*
X260031476Y-130896380D02*
X260650523Y-130896380D01*
X260317190Y-131277333D01*
X260460047Y-131277333D01*
X260555285Y-131324952D01*
X260602904Y-131372571D01*
X260650523Y-131467809D01*
X260650523Y-131705904D01*
X260602904Y-131801142D01*
X260555285Y-131848761D01*
X260460047Y-131896380D01*
X260174333Y-131896380D01*
X260079095Y-131848761D01*
X260031476Y-131801142D01*
X261221952Y-131324952D02*
X261126714Y-131277333D01*
X261079095Y-131229714D01*
X261031476Y-131134476D01*
X261031476Y-131086857D01*
X261079095Y-130991619D01*
X261126714Y-130944000D01*
X261221952Y-130896380D01*
X261412428Y-130896380D01*
X261507666Y-130944000D01*
X261555285Y-130991619D01*
X261602904Y-131086857D01*
X261602904Y-131134476D01*
X261555285Y-131229714D01*
X261507666Y-131277333D01*
X261412428Y-131324952D01*
X261221952Y-131324952D01*
X261126714Y-131372571D01*
X261079095Y-131420190D01*
X261031476Y-131515428D01*
X261031476Y-131705904D01*
X261079095Y-131801142D01*
X261126714Y-131848761D01*
X261221952Y-131896380D01*
X261412428Y-131896380D01*
X261507666Y-131848761D01*
X261555285Y-131801142D01*
X261602904Y-131705904D01*
X261602904Y-131515428D01*
X261555285Y-131420190D01*
X261507666Y-131372571D01*
X261412428Y-131324952D01*
%TO.C,R45*%
X255135142Y-128214380D02*
X254801809Y-127738190D01*
X254563714Y-128214380D02*
X254563714Y-127214380D01*
X254944666Y-127214380D01*
X255039904Y-127262000D01*
X255087523Y-127309619D01*
X255135142Y-127404857D01*
X255135142Y-127547714D01*
X255087523Y-127642952D01*
X255039904Y-127690571D01*
X254944666Y-127738190D01*
X254563714Y-127738190D01*
X255992285Y-127547714D02*
X255992285Y-128214380D01*
X255754190Y-127166761D02*
X255516095Y-127881047D01*
X256135142Y-127881047D01*
X256992285Y-127214380D02*
X256516095Y-127214380D01*
X256468476Y-127690571D01*
X256516095Y-127642952D01*
X256611333Y-127595333D01*
X256849428Y-127595333D01*
X256944666Y-127642952D01*
X256992285Y-127690571D01*
X257039904Y-127785809D01*
X257039904Y-128023904D01*
X256992285Y-128119142D01*
X256944666Y-128166761D01*
X256849428Y-128214380D01*
X256611333Y-128214380D01*
X256516095Y-128166761D01*
X256468476Y-128119142D01*
%TO.C,R46*%
X264025142Y-132024380D02*
X263691809Y-131548190D01*
X263453714Y-132024380D02*
X263453714Y-131024380D01*
X263834666Y-131024380D01*
X263929904Y-131072000D01*
X263977523Y-131119619D01*
X264025142Y-131214857D01*
X264025142Y-131357714D01*
X263977523Y-131452952D01*
X263929904Y-131500571D01*
X263834666Y-131548190D01*
X263453714Y-131548190D01*
X264882285Y-131357714D02*
X264882285Y-132024380D01*
X264644190Y-130976761D02*
X264406095Y-131691047D01*
X265025142Y-131691047D01*
X265834666Y-131024380D02*
X265644190Y-131024380D01*
X265548952Y-131072000D01*
X265501333Y-131119619D01*
X265406095Y-131262476D01*
X265358476Y-131452952D01*
X265358476Y-131833904D01*
X265406095Y-131929142D01*
X265453714Y-131976761D01*
X265548952Y-132024380D01*
X265739428Y-132024380D01*
X265834666Y-131976761D01*
X265882285Y-131929142D01*
X265929904Y-131833904D01*
X265929904Y-131595809D01*
X265882285Y-131500571D01*
X265834666Y-131452952D01*
X265739428Y-131405333D01*
X265548952Y-131405333D01*
X265453714Y-131452952D01*
X265406095Y-131500571D01*
X265358476Y-131595809D01*
%TO.C,R47*%
X238870142Y-71318380D02*
X238536809Y-70842190D01*
X238298714Y-71318380D02*
X238298714Y-70318380D01*
X238679666Y-70318380D01*
X238774904Y-70366000D01*
X238822523Y-70413619D01*
X238870142Y-70508857D01*
X238870142Y-70651714D01*
X238822523Y-70746952D01*
X238774904Y-70794571D01*
X238679666Y-70842190D01*
X238298714Y-70842190D01*
X239727285Y-70651714D02*
X239727285Y-71318380D01*
X239489190Y-70270761D02*
X239251095Y-70985047D01*
X239870142Y-70985047D01*
X240155857Y-70318380D02*
X240822523Y-70318380D01*
X240393952Y-71318380D01*
%TO.C,R48*%
X238870142Y-83764380D02*
X238536809Y-83288190D01*
X238298714Y-83764380D02*
X238298714Y-82764380D01*
X238679666Y-82764380D01*
X238774904Y-82812000D01*
X238822523Y-82859619D01*
X238870142Y-82954857D01*
X238870142Y-83097714D01*
X238822523Y-83192952D01*
X238774904Y-83240571D01*
X238679666Y-83288190D01*
X238298714Y-83288190D01*
X239727285Y-83097714D02*
X239727285Y-83764380D01*
X239489190Y-82716761D02*
X239251095Y-83431047D01*
X239870142Y-83431047D01*
X240393952Y-83192952D02*
X240298714Y-83145333D01*
X240251095Y-83097714D01*
X240203476Y-83002476D01*
X240203476Y-82954857D01*
X240251095Y-82859619D01*
X240298714Y-82812000D01*
X240393952Y-82764380D01*
X240584428Y-82764380D01*
X240679666Y-82812000D01*
X240727285Y-82859619D01*
X240774904Y-82954857D01*
X240774904Y-83002476D01*
X240727285Y-83097714D01*
X240679666Y-83145333D01*
X240584428Y-83192952D01*
X240393952Y-83192952D01*
X240298714Y-83240571D01*
X240251095Y-83288190D01*
X240203476Y-83383428D01*
X240203476Y-83573904D01*
X240251095Y-83669142D01*
X240298714Y-83716761D01*
X240393952Y-83764380D01*
X240584428Y-83764380D01*
X240679666Y-83716761D01*
X240727285Y-83669142D01*
X240774904Y-83573904D01*
X240774904Y-83383428D01*
X240727285Y-83288190D01*
X240679666Y-83240571D01*
X240584428Y-83192952D01*
%TO.C,U4*%
X276098095Y-119340380D02*
X276098095Y-120149904D01*
X276145714Y-120245142D01*
X276193333Y-120292761D01*
X276288571Y-120340380D01*
X276479047Y-120340380D01*
X276574285Y-120292761D01*
X276621904Y-120245142D01*
X276669523Y-120149904D01*
X276669523Y-119340380D01*
X277574285Y-119673714D02*
X277574285Y-120340380D01*
X277336190Y-119292761D02*
X277098095Y-120007047D01*
X277717142Y-120007047D01*
%TO.C,U9*%
X264922095Y-125944380D02*
X264922095Y-126753904D01*
X264969714Y-126849142D01*
X265017333Y-126896761D01*
X265112571Y-126944380D01*
X265303047Y-126944380D01*
X265398285Y-126896761D01*
X265445904Y-126849142D01*
X265493523Y-126753904D01*
X265493523Y-125944380D01*
X266017333Y-126944380D02*
X266207809Y-126944380D01*
X266303047Y-126896761D01*
X266350666Y-126849142D01*
X266445904Y-126706285D01*
X266493523Y-126515809D01*
X266493523Y-126134857D01*
X266445904Y-126039619D01*
X266398285Y-125992000D01*
X266303047Y-125944380D01*
X266112571Y-125944380D01*
X266017333Y-125992000D01*
X265969714Y-126039619D01*
X265922095Y-126134857D01*
X265922095Y-126372952D01*
X265969714Y-126468190D01*
X266017333Y-126515809D01*
X266112571Y-126563428D01*
X266303047Y-126563428D01*
X266398285Y-126515809D01*
X266445904Y-126468190D01*
X266493523Y-126372952D01*
%TO.C,H1*%
X182880095Y-140524380D02*
X182880095Y-139524380D01*
X182880095Y-140000571D02*
X183451523Y-140000571D01*
X183451523Y-140524380D02*
X183451523Y-139524380D01*
X184451523Y-140524380D02*
X183880095Y-140524380D01*
X184165809Y-140524380D02*
X184165809Y-139524380D01*
X184070571Y-139667238D01*
X183975333Y-139762476D01*
X183880095Y-139810095D01*
%TO.C,H2*%
X274320095Y-140524380D02*
X274320095Y-139524380D01*
X274320095Y-140000571D02*
X274891523Y-140000571D01*
X274891523Y-140524380D02*
X274891523Y-139524380D01*
X275320095Y-139619619D02*
X275367714Y-139572000D01*
X275462952Y-139524380D01*
X275701047Y-139524380D01*
X275796285Y-139572000D01*
X275843904Y-139619619D01*
X275891523Y-139714857D01*
X275891523Y-139810095D01*
X275843904Y-139952952D01*
X275272476Y-140524380D01*
X275891523Y-140524380D01*
%TO.C,H3*%
X182880095Y-70438380D02*
X182880095Y-69438380D01*
X182880095Y-69914571D02*
X183451523Y-69914571D01*
X183451523Y-70438380D02*
X183451523Y-69438380D01*
X183832476Y-69438380D02*
X184451523Y-69438380D01*
X184118190Y-69819333D01*
X184261047Y-69819333D01*
X184356285Y-69866952D01*
X184403904Y-69914571D01*
X184451523Y-70009809D01*
X184451523Y-70247904D01*
X184403904Y-70343142D01*
X184356285Y-70390761D01*
X184261047Y-70438380D01*
X183975333Y-70438380D01*
X183880095Y-70390761D01*
X183832476Y-70343142D01*
%TO.C,H4*%
X274320095Y-70438380D02*
X274320095Y-69438380D01*
X274320095Y-69914571D02*
X274891523Y-69914571D01*
X274891523Y-70438380D02*
X274891523Y-69438380D01*
X275796285Y-69771714D02*
X275796285Y-70438380D01*
X275558190Y-69390761D02*
X275320095Y-70105047D01*
X275939142Y-70105047D01*
%TO.C,C1*%
X195413333Y-84177142D02*
X195365714Y-84224761D01*
X195222857Y-84272380D01*
X195127619Y-84272380D01*
X194984761Y-84224761D01*
X194889523Y-84129523D01*
X194841904Y-84034285D01*
X194794285Y-83843809D01*
X194794285Y-83700952D01*
X194841904Y-83510476D01*
X194889523Y-83415238D01*
X194984761Y-83320000D01*
X195127619Y-83272380D01*
X195222857Y-83272380D01*
X195365714Y-83320000D01*
X195413333Y-83367619D01*
X196365714Y-84272380D02*
X195794285Y-84272380D01*
X196080000Y-84272380D02*
X196080000Y-83272380D01*
X195984761Y-83415238D01*
X195889523Y-83510476D01*
X195794285Y-83558095D01*
%TO.C,C2*%
X195754833Y-98909142D02*
X195707214Y-98956761D01*
X195564357Y-99004380D01*
X195469119Y-99004380D01*
X195326261Y-98956761D01*
X195231023Y-98861523D01*
X195183404Y-98766285D01*
X195135785Y-98575809D01*
X195135785Y-98432952D01*
X195183404Y-98242476D01*
X195231023Y-98147238D01*
X195326261Y-98052000D01*
X195469119Y-98004380D01*
X195564357Y-98004380D01*
X195707214Y-98052000D01*
X195754833Y-98099619D01*
X196135785Y-98099619D02*
X196183404Y-98052000D01*
X196278642Y-98004380D01*
X196516738Y-98004380D01*
X196611976Y-98052000D01*
X196659595Y-98099619D01*
X196707214Y-98194857D01*
X196707214Y-98290095D01*
X196659595Y-98432952D01*
X196088166Y-99004380D01*
X196707214Y-99004380D01*
%TO.C,C3*%
X195667333Y-86463142D02*
X195619714Y-86510761D01*
X195476857Y-86558380D01*
X195381619Y-86558380D01*
X195238761Y-86510761D01*
X195143523Y-86415523D01*
X195095904Y-86320285D01*
X195048285Y-86129809D01*
X195048285Y-85986952D01*
X195095904Y-85796476D01*
X195143523Y-85701238D01*
X195238761Y-85606000D01*
X195381619Y-85558380D01*
X195476857Y-85558380D01*
X195619714Y-85606000D01*
X195667333Y-85653619D01*
X196000666Y-85558380D02*
X196619714Y-85558380D01*
X196286380Y-85939333D01*
X196429238Y-85939333D01*
X196524476Y-85986952D01*
X196572095Y-86034571D01*
X196619714Y-86129809D01*
X196619714Y-86367904D01*
X196572095Y-86463142D01*
X196524476Y-86510761D01*
X196429238Y-86558380D01*
X196143523Y-86558380D01*
X196048285Y-86510761D01*
X196000666Y-86463142D01*
%TO.C,C4*%
X202287142Y-99988666D02*
X202334761Y-100036285D01*
X202382380Y-100179142D01*
X202382380Y-100274380D01*
X202334761Y-100417238D01*
X202239523Y-100512476D01*
X202144285Y-100560095D01*
X201953809Y-100607714D01*
X201810952Y-100607714D01*
X201620476Y-100560095D01*
X201525238Y-100512476D01*
X201430000Y-100417238D01*
X201382380Y-100274380D01*
X201382380Y-100179142D01*
X201430000Y-100036285D01*
X201477619Y-99988666D01*
X201715714Y-99131523D02*
X202382380Y-99131523D01*
X201334761Y-99369619D02*
X202049047Y-99607714D01*
X202049047Y-98988666D01*
%TO.C,C5*%
X198895433Y-101831142D02*
X198847814Y-101878761D01*
X198704957Y-101926380D01*
X198609719Y-101926380D01*
X198466861Y-101878761D01*
X198371623Y-101783523D01*
X198324004Y-101688285D01*
X198276385Y-101497809D01*
X198276385Y-101354952D01*
X198324004Y-101164476D01*
X198371623Y-101069238D01*
X198466861Y-100974000D01*
X198609719Y-100926380D01*
X198704957Y-100926380D01*
X198847814Y-100974000D01*
X198895433Y-101021619D01*
X199800195Y-100926380D02*
X199324004Y-100926380D01*
X199276385Y-101402571D01*
X199324004Y-101354952D01*
X199419242Y-101307333D01*
X199657338Y-101307333D01*
X199752576Y-101354952D01*
X199800195Y-101402571D01*
X199847814Y-101497809D01*
X199847814Y-101735904D01*
X199800195Y-101831142D01*
X199752576Y-101878761D01*
X199657338Y-101926380D01*
X199419242Y-101926380D01*
X199324004Y-101878761D01*
X199276385Y-101831142D01*
%TO.C,C6*%
X277201333Y-126087142D02*
X277153714Y-126134761D01*
X277010857Y-126182380D01*
X276915619Y-126182380D01*
X276772761Y-126134761D01*
X276677523Y-126039523D01*
X276629904Y-125944285D01*
X276582285Y-125753809D01*
X276582285Y-125610952D01*
X276629904Y-125420476D01*
X276677523Y-125325238D01*
X276772761Y-125230000D01*
X276915619Y-125182380D01*
X277010857Y-125182380D01*
X277153714Y-125230000D01*
X277201333Y-125277619D01*
X278058476Y-125182380D02*
X277868000Y-125182380D01*
X277772761Y-125230000D01*
X277725142Y-125277619D01*
X277629904Y-125420476D01*
X277582285Y-125610952D01*
X277582285Y-125991904D01*
X277629904Y-126087142D01*
X277677523Y-126134761D01*
X277772761Y-126182380D01*
X277963238Y-126182380D01*
X278058476Y-126134761D01*
X278106095Y-126087142D01*
X278153714Y-125991904D01*
X278153714Y-125753809D01*
X278106095Y-125658571D01*
X278058476Y-125610952D01*
X277963238Y-125563333D01*
X277772761Y-125563333D01*
X277677523Y-125610952D01*
X277629904Y-125658571D01*
X277582285Y-125753809D01*
%TO.C,C7*%
X277201333Y-123547142D02*
X277153714Y-123594761D01*
X277010857Y-123642380D01*
X276915619Y-123642380D01*
X276772761Y-123594761D01*
X276677523Y-123499523D01*
X276629904Y-123404285D01*
X276582285Y-123213809D01*
X276582285Y-123070952D01*
X276629904Y-122880476D01*
X276677523Y-122785238D01*
X276772761Y-122690000D01*
X276915619Y-122642380D01*
X277010857Y-122642380D01*
X277153714Y-122690000D01*
X277201333Y-122737619D01*
X277534666Y-122642380D02*
X278201333Y-122642380D01*
X277772761Y-123642380D01*
%TO.C,C8*%
X202954833Y-111483142D02*
X202907214Y-111530761D01*
X202764357Y-111578380D01*
X202669119Y-111578380D01*
X202526261Y-111530761D01*
X202431023Y-111435523D01*
X202383404Y-111340285D01*
X202335785Y-111149809D01*
X202335785Y-111006952D01*
X202383404Y-110816476D01*
X202431023Y-110721238D01*
X202526261Y-110626000D01*
X202669119Y-110578380D01*
X202764357Y-110578380D01*
X202907214Y-110626000D01*
X202954833Y-110673619D01*
X203526261Y-111006952D02*
X203431023Y-110959333D01*
X203383404Y-110911714D01*
X203335785Y-110816476D01*
X203335785Y-110768857D01*
X203383404Y-110673619D01*
X203431023Y-110626000D01*
X203526261Y-110578380D01*
X203716738Y-110578380D01*
X203811976Y-110626000D01*
X203859595Y-110673619D01*
X203907214Y-110768857D01*
X203907214Y-110816476D01*
X203859595Y-110911714D01*
X203811976Y-110959333D01*
X203716738Y-111006952D01*
X203526261Y-111006952D01*
X203431023Y-111054571D01*
X203383404Y-111102190D01*
X203335785Y-111197428D01*
X203335785Y-111387904D01*
X203383404Y-111483142D01*
X203431023Y-111530761D01*
X203526261Y-111578380D01*
X203716738Y-111578380D01*
X203811976Y-111530761D01*
X203859595Y-111483142D01*
X203907214Y-111387904D01*
X203907214Y-111197428D01*
X203859595Y-111102190D01*
X203811976Y-111054571D01*
X203716738Y-111006952D01*
%TO.C,C9*%
X191619142Y-77636666D02*
X191666761Y-77684285D01*
X191714380Y-77827142D01*
X191714380Y-77922380D01*
X191666761Y-78065238D01*
X191571523Y-78160476D01*
X191476285Y-78208095D01*
X191285809Y-78255714D01*
X191142952Y-78255714D01*
X190952476Y-78208095D01*
X190857238Y-78160476D01*
X190762000Y-78065238D01*
X190714380Y-77922380D01*
X190714380Y-77827142D01*
X190762000Y-77684285D01*
X190809619Y-77636666D01*
X191714380Y-77160476D02*
X191714380Y-76970000D01*
X191666761Y-76874761D01*
X191619142Y-76827142D01*
X191476285Y-76731904D01*
X191285809Y-76684285D01*
X190904857Y-76684285D01*
X190809619Y-76731904D01*
X190762000Y-76779523D01*
X190714380Y-76874761D01*
X190714380Y-77065238D01*
X190762000Y-77160476D01*
X190809619Y-77208095D01*
X190904857Y-77255714D01*
X191142952Y-77255714D01*
X191238190Y-77208095D01*
X191285809Y-77160476D01*
X191333428Y-77065238D01*
X191333428Y-76874761D01*
X191285809Y-76779523D01*
X191238190Y-76731904D01*
X191142952Y-76684285D01*
%TO.C,C10*%
X193833642Y-105817942D02*
X193786023Y-105865561D01*
X193643166Y-105913180D01*
X193547928Y-105913180D01*
X193405071Y-105865561D01*
X193309833Y-105770323D01*
X193262214Y-105675085D01*
X193214595Y-105484609D01*
X193214595Y-105341752D01*
X193262214Y-105151276D01*
X193309833Y-105056038D01*
X193405071Y-104960800D01*
X193547928Y-104913180D01*
X193643166Y-104913180D01*
X193786023Y-104960800D01*
X193833642Y-105008419D01*
X194786023Y-105913180D02*
X194214595Y-105913180D01*
X194500309Y-105913180D02*
X194500309Y-104913180D01*
X194405071Y-105056038D01*
X194309833Y-105151276D01*
X194214595Y-105198895D01*
X195405071Y-104913180D02*
X195500309Y-104913180D01*
X195595547Y-104960800D01*
X195643166Y-105008419D01*
X195690785Y-105103657D01*
X195738404Y-105294133D01*
X195738404Y-105532228D01*
X195690785Y-105722704D01*
X195643166Y-105817942D01*
X195595547Y-105865561D01*
X195500309Y-105913180D01*
X195405071Y-105913180D01*
X195309833Y-105865561D01*
X195262214Y-105817942D01*
X195214595Y-105722704D01*
X195166976Y-105532228D01*
X195166976Y-105294133D01*
X195214595Y-105103657D01*
X195262214Y-105008419D01*
X195309833Y-104960800D01*
X195405071Y-104913180D01*
%TO.C,C12*%
X218163142Y-113926857D02*
X218210761Y-113974476D01*
X218258380Y-114117333D01*
X218258380Y-114212571D01*
X218210761Y-114355428D01*
X218115523Y-114450666D01*
X218020285Y-114498285D01*
X217829809Y-114545904D01*
X217686952Y-114545904D01*
X217496476Y-114498285D01*
X217401238Y-114450666D01*
X217306000Y-114355428D01*
X217258380Y-114212571D01*
X217258380Y-114117333D01*
X217306000Y-113974476D01*
X217353619Y-113926857D01*
X218258380Y-112974476D02*
X218258380Y-113545904D01*
X218258380Y-113260190D02*
X217258380Y-113260190D01*
X217401238Y-113355428D01*
X217496476Y-113450666D01*
X217544095Y-113545904D01*
X217353619Y-112593523D02*
X217306000Y-112545904D01*
X217258380Y-112450666D01*
X217258380Y-112212571D01*
X217306000Y-112117333D01*
X217353619Y-112069714D01*
X217448857Y-112022095D01*
X217544095Y-112022095D01*
X217686952Y-112069714D01*
X218258380Y-112641142D01*
X218258380Y-112022095D01*
%TO.C,C20*%
X270121142Y-116943142D02*
X270073523Y-116990761D01*
X269930666Y-117038380D01*
X269835428Y-117038380D01*
X269692571Y-116990761D01*
X269597333Y-116895523D01*
X269549714Y-116800285D01*
X269502095Y-116609809D01*
X269502095Y-116466952D01*
X269549714Y-116276476D01*
X269597333Y-116181238D01*
X269692571Y-116086000D01*
X269835428Y-116038380D01*
X269930666Y-116038380D01*
X270073523Y-116086000D01*
X270121142Y-116133619D01*
X270502095Y-116133619D02*
X270549714Y-116086000D01*
X270644952Y-116038380D01*
X270883047Y-116038380D01*
X270978285Y-116086000D01*
X271025904Y-116133619D01*
X271073523Y-116228857D01*
X271073523Y-116324095D01*
X271025904Y-116466952D01*
X270454476Y-117038380D01*
X271073523Y-117038380D01*
X271692571Y-116038380D02*
X271787809Y-116038380D01*
X271883047Y-116086000D01*
X271930666Y-116133619D01*
X271978285Y-116228857D01*
X272025904Y-116419333D01*
X272025904Y-116657428D01*
X271978285Y-116847904D01*
X271930666Y-116943142D01*
X271883047Y-116990761D01*
X271787809Y-117038380D01*
X271692571Y-117038380D01*
X271597333Y-116990761D01*
X271549714Y-116943142D01*
X271502095Y-116847904D01*
X271454476Y-116657428D01*
X271454476Y-116419333D01*
X271502095Y-116228857D01*
X271549714Y-116133619D01*
X271597333Y-116086000D01*
X271692571Y-116038380D01*
%TO.C,R49*%
X240228380Y-127388857D02*
X239752190Y-127722190D01*
X240228380Y-127960285D02*
X239228380Y-127960285D01*
X239228380Y-127579333D01*
X239276000Y-127484095D01*
X239323619Y-127436476D01*
X239418857Y-127388857D01*
X239561714Y-127388857D01*
X239656952Y-127436476D01*
X239704571Y-127484095D01*
X239752190Y-127579333D01*
X239752190Y-127960285D01*
X239561714Y-126531714D02*
X240228380Y-126531714D01*
X239180761Y-126769809D02*
X239895047Y-127007904D01*
X239895047Y-126388857D01*
X240228380Y-125960285D02*
X240228380Y-125769809D01*
X240180761Y-125674571D01*
X240133142Y-125626952D01*
X239990285Y-125531714D01*
X239799809Y-125484095D01*
X239418857Y-125484095D01*
X239323619Y-125531714D01*
X239276000Y-125579333D01*
X239228380Y-125674571D01*
X239228380Y-125865047D01*
X239276000Y-125960285D01*
X239323619Y-126007904D01*
X239418857Y-126055523D01*
X239656952Y-126055523D01*
X239752190Y-126007904D01*
X239799809Y-125960285D01*
X239847428Y-125865047D01*
X239847428Y-125674571D01*
X239799809Y-125579333D01*
X239752190Y-125531714D01*
X239656952Y-125484095D01*
%TO.C,R50*%
X226004380Y-127388857D02*
X225528190Y-127722190D01*
X226004380Y-127960285D02*
X225004380Y-127960285D01*
X225004380Y-127579333D01*
X225052000Y-127484095D01*
X225099619Y-127436476D01*
X225194857Y-127388857D01*
X225337714Y-127388857D01*
X225432952Y-127436476D01*
X225480571Y-127484095D01*
X225528190Y-127579333D01*
X225528190Y-127960285D01*
X225004380Y-126484095D02*
X225004380Y-126960285D01*
X225480571Y-127007904D01*
X225432952Y-126960285D01*
X225385333Y-126865047D01*
X225385333Y-126626952D01*
X225432952Y-126531714D01*
X225480571Y-126484095D01*
X225575809Y-126436476D01*
X225813904Y-126436476D01*
X225909142Y-126484095D01*
X225956761Y-126531714D01*
X226004380Y-126626952D01*
X226004380Y-126865047D01*
X225956761Y-126960285D01*
X225909142Y-127007904D01*
X225004380Y-125817428D02*
X225004380Y-125722190D01*
X225052000Y-125626952D01*
X225099619Y-125579333D01*
X225194857Y-125531714D01*
X225385333Y-125484095D01*
X225623428Y-125484095D01*
X225813904Y-125531714D01*
X225909142Y-125579333D01*
X225956761Y-125626952D01*
X226004380Y-125722190D01*
X226004380Y-125817428D01*
X225956761Y-125912666D01*
X225909142Y-125960285D01*
X225813904Y-126007904D01*
X225623428Y-126055523D01*
X225385333Y-126055523D01*
X225194857Y-126007904D01*
X225099619Y-125960285D01*
X225052000Y-125912666D01*
X225004380Y-125817428D01*
%TO.C,R51*%
X237688380Y-127388857D02*
X237212190Y-127722190D01*
X237688380Y-127960285D02*
X236688380Y-127960285D01*
X236688380Y-127579333D01*
X236736000Y-127484095D01*
X236783619Y-127436476D01*
X236878857Y-127388857D01*
X237021714Y-127388857D01*
X237116952Y-127436476D01*
X237164571Y-127484095D01*
X237212190Y-127579333D01*
X237212190Y-127960285D01*
X236688380Y-126484095D02*
X236688380Y-126960285D01*
X237164571Y-127007904D01*
X237116952Y-126960285D01*
X237069333Y-126865047D01*
X237069333Y-126626952D01*
X237116952Y-126531714D01*
X237164571Y-126484095D01*
X237259809Y-126436476D01*
X237497904Y-126436476D01*
X237593142Y-126484095D01*
X237640761Y-126531714D01*
X237688380Y-126626952D01*
X237688380Y-126865047D01*
X237640761Y-126960285D01*
X237593142Y-127007904D01*
X237688380Y-125484095D02*
X237688380Y-126055523D01*
X237688380Y-125769809D02*
X236688380Y-125769809D01*
X236831238Y-125865047D01*
X236926476Y-125960285D01*
X236974095Y-126055523D01*
%TO.C,R52*%
X223718380Y-127388857D02*
X223242190Y-127722190D01*
X223718380Y-127960285D02*
X222718380Y-127960285D01*
X222718380Y-127579333D01*
X222766000Y-127484095D01*
X222813619Y-127436476D01*
X222908857Y-127388857D01*
X223051714Y-127388857D01*
X223146952Y-127436476D01*
X223194571Y-127484095D01*
X223242190Y-127579333D01*
X223242190Y-127960285D01*
X222718380Y-126484095D02*
X222718380Y-126960285D01*
X223194571Y-127007904D01*
X223146952Y-126960285D01*
X223099333Y-126865047D01*
X223099333Y-126626952D01*
X223146952Y-126531714D01*
X223194571Y-126484095D01*
X223289809Y-126436476D01*
X223527904Y-126436476D01*
X223623142Y-126484095D01*
X223670761Y-126531714D01*
X223718380Y-126626952D01*
X223718380Y-126865047D01*
X223670761Y-126960285D01*
X223623142Y-127007904D01*
X222813619Y-126055523D02*
X222766000Y-126007904D01*
X222718380Y-125912666D01*
X222718380Y-125674571D01*
X222766000Y-125579333D01*
X222813619Y-125531714D01*
X222908857Y-125484095D01*
X223004095Y-125484095D01*
X223146952Y-125531714D01*
X223718380Y-126103142D01*
X223718380Y-125484095D01*
%TO.C,R53*%
X229814380Y-127388857D02*
X229338190Y-127722190D01*
X229814380Y-127960285D02*
X228814380Y-127960285D01*
X228814380Y-127579333D01*
X228862000Y-127484095D01*
X228909619Y-127436476D01*
X229004857Y-127388857D01*
X229147714Y-127388857D01*
X229242952Y-127436476D01*
X229290571Y-127484095D01*
X229338190Y-127579333D01*
X229338190Y-127960285D01*
X228814380Y-126484095D02*
X228814380Y-126960285D01*
X229290571Y-127007904D01*
X229242952Y-126960285D01*
X229195333Y-126865047D01*
X229195333Y-126626952D01*
X229242952Y-126531714D01*
X229290571Y-126484095D01*
X229385809Y-126436476D01*
X229623904Y-126436476D01*
X229719142Y-126484095D01*
X229766761Y-126531714D01*
X229814380Y-126626952D01*
X229814380Y-126865047D01*
X229766761Y-126960285D01*
X229719142Y-127007904D01*
X228814380Y-126103142D02*
X228814380Y-125484095D01*
X229195333Y-125817428D01*
X229195333Y-125674571D01*
X229242952Y-125579333D01*
X229290571Y-125531714D01*
X229385809Y-125484095D01*
X229623904Y-125484095D01*
X229719142Y-125531714D01*
X229766761Y-125579333D01*
X229814380Y-125674571D01*
X229814380Y-125960285D01*
X229766761Y-126055523D01*
X229719142Y-126103142D01*
%TO.C,R54*%
X216098380Y-127388857D02*
X215622190Y-127722190D01*
X216098380Y-127960285D02*
X215098380Y-127960285D01*
X215098380Y-127579333D01*
X215146000Y-127484095D01*
X215193619Y-127436476D01*
X215288857Y-127388857D01*
X215431714Y-127388857D01*
X215526952Y-127436476D01*
X215574571Y-127484095D01*
X215622190Y-127579333D01*
X215622190Y-127960285D01*
X215098380Y-126484095D02*
X215098380Y-126960285D01*
X215574571Y-127007904D01*
X215526952Y-126960285D01*
X215479333Y-126865047D01*
X215479333Y-126626952D01*
X215526952Y-126531714D01*
X215574571Y-126484095D01*
X215669809Y-126436476D01*
X215907904Y-126436476D01*
X216003142Y-126484095D01*
X216050761Y-126531714D01*
X216098380Y-126626952D01*
X216098380Y-126865047D01*
X216050761Y-126960285D01*
X216003142Y-127007904D01*
X215431714Y-125579333D02*
X216098380Y-125579333D01*
X215050761Y-125817428D02*
X215765047Y-126055523D01*
X215765047Y-125436476D01*
%TO.C,R55*%
X232100380Y-127388857D02*
X231624190Y-127722190D01*
X232100380Y-127960285D02*
X231100380Y-127960285D01*
X231100380Y-127579333D01*
X231148000Y-127484095D01*
X231195619Y-127436476D01*
X231290857Y-127388857D01*
X231433714Y-127388857D01*
X231528952Y-127436476D01*
X231576571Y-127484095D01*
X231624190Y-127579333D01*
X231624190Y-127960285D01*
X231100380Y-126484095D02*
X231100380Y-126960285D01*
X231576571Y-127007904D01*
X231528952Y-126960285D01*
X231481333Y-126865047D01*
X231481333Y-126626952D01*
X231528952Y-126531714D01*
X231576571Y-126484095D01*
X231671809Y-126436476D01*
X231909904Y-126436476D01*
X232005142Y-126484095D01*
X232052761Y-126531714D01*
X232100380Y-126626952D01*
X232100380Y-126865047D01*
X232052761Y-126960285D01*
X232005142Y-127007904D01*
X231100380Y-125531714D02*
X231100380Y-126007904D01*
X231576571Y-126055523D01*
X231528952Y-126007904D01*
X231481333Y-125912666D01*
X231481333Y-125674571D01*
X231528952Y-125579333D01*
X231576571Y-125531714D01*
X231671809Y-125484095D01*
X231909904Y-125484095D01*
X232005142Y-125531714D01*
X232052761Y-125579333D01*
X232100380Y-125674571D01*
X232100380Y-125912666D01*
X232052761Y-126007904D01*
X232005142Y-126055523D01*
%TO.C,R56*%
X218384380Y-127388857D02*
X217908190Y-127722190D01*
X218384380Y-127960285D02*
X217384380Y-127960285D01*
X217384380Y-127579333D01*
X217432000Y-127484095D01*
X217479619Y-127436476D01*
X217574857Y-127388857D01*
X217717714Y-127388857D01*
X217812952Y-127436476D01*
X217860571Y-127484095D01*
X217908190Y-127579333D01*
X217908190Y-127960285D01*
X217384380Y-126484095D02*
X217384380Y-126960285D01*
X217860571Y-127007904D01*
X217812952Y-126960285D01*
X217765333Y-126865047D01*
X217765333Y-126626952D01*
X217812952Y-126531714D01*
X217860571Y-126484095D01*
X217955809Y-126436476D01*
X218193904Y-126436476D01*
X218289142Y-126484095D01*
X218336761Y-126531714D01*
X218384380Y-126626952D01*
X218384380Y-126865047D01*
X218336761Y-126960285D01*
X218289142Y-127007904D01*
X217384380Y-125579333D02*
X217384380Y-125769809D01*
X217432000Y-125865047D01*
X217479619Y-125912666D01*
X217622476Y-126007904D01*
X217812952Y-126055523D01*
X218193904Y-126055523D01*
X218289142Y-126007904D01*
X218336761Y-125960285D01*
X218384380Y-125865047D01*
X218384380Y-125674571D01*
X218336761Y-125579333D01*
X218289142Y-125531714D01*
X218193904Y-125484095D01*
X217955809Y-125484095D01*
X217860571Y-125531714D01*
X217812952Y-125579333D01*
X217765333Y-125674571D01*
X217765333Y-125865047D01*
X217812952Y-125960285D01*
X217860571Y-126007904D01*
X217955809Y-126055523D01*
%TO.C,J5*%
X248840666Y-151852380D02*
X248840666Y-152566666D01*
X248793047Y-152709523D01*
X248697809Y-152804761D01*
X248554952Y-152852380D01*
X248459714Y-152852380D01*
X249793047Y-151852380D02*
X249316857Y-151852380D01*
X249269238Y-152328571D01*
X249316857Y-152280952D01*
X249412095Y-152233333D01*
X249650190Y-152233333D01*
X249745428Y-152280952D01*
X249793047Y-152328571D01*
X249840666Y-152423809D01*
X249840666Y-152661904D01*
X249793047Y-152757142D01*
X249745428Y-152804761D01*
X249650190Y-152852380D01*
X249412095Y-152852380D01*
X249316857Y-152804761D01*
X249269238Y-152757142D01*
X252984000Y-137882380D02*
X252984000Y-138120476D01*
X252745904Y-138025238D02*
X252984000Y-138120476D01*
X253222095Y-138025238D01*
X252841142Y-138310952D02*
X252984000Y-138120476D01*
X253126857Y-138310952D01*
%TO.C,J4*%
X240752380Y-146327333D02*
X241466666Y-146327333D01*
X241609523Y-146374952D01*
X241704761Y-146470190D01*
X241752380Y-146613047D01*
X241752380Y-146708285D01*
X241085714Y-145422571D02*
X241752380Y-145422571D01*
X240704761Y-145660666D02*
X241419047Y-145898761D01*
X241419047Y-145279714D01*
%TO.C,J6*%
X227042380Y-146327333D02*
X227756666Y-146327333D01*
X227899523Y-146374952D01*
X227994761Y-146470190D01*
X228042380Y-146613047D01*
X228042380Y-146708285D01*
X227042380Y-145422571D02*
X227042380Y-145613047D01*
X227090000Y-145708285D01*
X227137619Y-145755904D01*
X227280476Y-145851142D01*
X227470952Y-145898761D01*
X227851904Y-145898761D01*
X227947142Y-145851142D01*
X227994761Y-145803523D01*
X228042380Y-145708285D01*
X228042380Y-145517809D01*
X227994761Y-145422571D01*
X227947142Y-145374952D01*
X227851904Y-145327333D01*
X227613809Y-145327333D01*
X227518571Y-145374952D01*
X227470952Y-145422571D01*
X227423333Y-145517809D01*
X227423333Y-145708285D01*
X227470952Y-145803523D01*
X227518571Y-145851142D01*
X227613809Y-145898761D01*
%TO.C,D19*%
X234386380Y-127960285D02*
X233386380Y-127960285D01*
X233386380Y-127722190D01*
X233434000Y-127579333D01*
X233529238Y-127484095D01*
X233624476Y-127436476D01*
X233814952Y-127388857D01*
X233957809Y-127388857D01*
X234148285Y-127436476D01*
X234243523Y-127484095D01*
X234338761Y-127579333D01*
X234386380Y-127722190D01*
X234386380Y-127960285D01*
X234386380Y-126436476D02*
X234386380Y-127007904D01*
X234386380Y-126722190D02*
X233386380Y-126722190D01*
X233529238Y-126817428D01*
X233624476Y-126912666D01*
X233672095Y-127007904D01*
X234386380Y-125960285D02*
X234386380Y-125769809D01*
X234338761Y-125674571D01*
X234291142Y-125626952D01*
X234148285Y-125531714D01*
X233957809Y-125484095D01*
X233576857Y-125484095D01*
X233481619Y-125531714D01*
X233434000Y-125579333D01*
X233386380Y-125674571D01*
X233386380Y-125865047D01*
X233434000Y-125960285D01*
X233481619Y-126007904D01*
X233576857Y-126055523D01*
X233814952Y-126055523D01*
X233910190Y-126007904D01*
X233957809Y-125960285D01*
X234005428Y-125865047D01*
X234005428Y-125674571D01*
X233957809Y-125579333D01*
X233910190Y-125531714D01*
X233814952Y-125484095D01*
%TO.C,D20*%
X220670380Y-127960285D02*
X219670380Y-127960285D01*
X219670380Y-127722190D01*
X219718000Y-127579333D01*
X219813238Y-127484095D01*
X219908476Y-127436476D01*
X220098952Y-127388857D01*
X220241809Y-127388857D01*
X220432285Y-127436476D01*
X220527523Y-127484095D01*
X220622761Y-127579333D01*
X220670380Y-127722190D01*
X220670380Y-127960285D01*
X219765619Y-127007904D02*
X219718000Y-126960285D01*
X219670380Y-126865047D01*
X219670380Y-126626952D01*
X219718000Y-126531714D01*
X219765619Y-126484095D01*
X219860857Y-126436476D01*
X219956095Y-126436476D01*
X220098952Y-126484095D01*
X220670380Y-127055523D01*
X220670380Y-126436476D01*
X219670380Y-125817428D02*
X219670380Y-125722190D01*
X219718000Y-125626952D01*
X219765619Y-125579333D01*
X219860857Y-125531714D01*
X220051333Y-125484095D01*
X220289428Y-125484095D01*
X220479904Y-125531714D01*
X220575142Y-125579333D01*
X220622761Y-125626952D01*
X220670380Y-125722190D01*
X220670380Y-125817428D01*
X220622761Y-125912666D01*
X220575142Y-125960285D01*
X220479904Y-126007904D01*
X220289428Y-126055523D01*
X220051333Y-126055523D01*
X219860857Y-126007904D01*
X219765619Y-125960285D01*
X219718000Y-125912666D01*
X219670380Y-125817428D01*
%TO.C,JP3*%
X220400666Y-86518380D02*
X220400666Y-87232666D01*
X220353047Y-87375523D01*
X220257809Y-87470761D01*
X220114952Y-87518380D01*
X220019714Y-87518380D01*
X220876857Y-87518380D02*
X220876857Y-86518380D01*
X221257809Y-86518380D01*
X221353047Y-86566000D01*
X221400666Y-86613619D01*
X221448285Y-86708857D01*
X221448285Y-86851714D01*
X221400666Y-86946952D01*
X221353047Y-86994571D01*
X221257809Y-87042190D01*
X220876857Y-87042190D01*
X221781619Y-86518380D02*
X222400666Y-86518380D01*
X222067333Y-86899333D01*
X222210190Y-86899333D01*
X222305428Y-86946952D01*
X222353047Y-86994571D01*
X222400666Y-87089809D01*
X222400666Y-87327904D01*
X222353047Y-87423142D01*
X222305428Y-87470761D01*
X222210190Y-87518380D01*
X221924476Y-87518380D01*
X221829238Y-87470761D01*
X221781619Y-87423142D01*
%TO.C,JP4*%
X220400666Y-74072380D02*
X220400666Y-74786666D01*
X220353047Y-74929523D01*
X220257809Y-75024761D01*
X220114952Y-75072380D01*
X220019714Y-75072380D01*
X220876857Y-75072380D02*
X220876857Y-74072380D01*
X221257809Y-74072380D01*
X221353047Y-74120000D01*
X221400666Y-74167619D01*
X221448285Y-74262857D01*
X221448285Y-74405714D01*
X221400666Y-74500952D01*
X221353047Y-74548571D01*
X221257809Y-74596190D01*
X220876857Y-74596190D01*
X222305428Y-74405714D02*
X222305428Y-75072380D01*
X222067333Y-74024761D02*
X221829238Y-74739047D01*
X222448285Y-74739047D01*
%TO.C,JP6*%
X233100666Y-74326380D02*
X233100666Y-75040666D01*
X233053047Y-75183523D01*
X232957809Y-75278761D01*
X232814952Y-75326380D01*
X232719714Y-75326380D01*
X233576857Y-75326380D02*
X233576857Y-74326380D01*
X233957809Y-74326380D01*
X234053047Y-74374000D01*
X234100666Y-74421619D01*
X234148285Y-74516857D01*
X234148285Y-74659714D01*
X234100666Y-74754952D01*
X234053047Y-74802571D01*
X233957809Y-74850190D01*
X233576857Y-74850190D01*
X235005428Y-74326380D02*
X234814952Y-74326380D01*
X234719714Y-74374000D01*
X234672095Y-74421619D01*
X234576857Y-74564476D01*
X234529238Y-74754952D01*
X234529238Y-75135904D01*
X234576857Y-75231142D01*
X234624476Y-75278761D01*
X234719714Y-75326380D01*
X234910190Y-75326380D01*
X235005428Y-75278761D01*
X235053047Y-75231142D01*
X235100666Y-75135904D01*
X235100666Y-74897809D01*
X235053047Y-74802571D01*
X235005428Y-74754952D01*
X234910190Y-74707333D01*
X234719714Y-74707333D01*
X234624476Y-74754952D01*
X234576857Y-74802571D01*
X234529238Y-74897809D01*
%TO.C,JP7*%
X233100666Y-86518380D02*
X233100666Y-87232666D01*
X233053047Y-87375523D01*
X232957809Y-87470761D01*
X232814952Y-87518380D01*
X232719714Y-87518380D01*
X233576857Y-87518380D02*
X233576857Y-86518380D01*
X233957809Y-86518380D01*
X234053047Y-86566000D01*
X234100666Y-86613619D01*
X234148285Y-86708857D01*
X234148285Y-86851714D01*
X234100666Y-86946952D01*
X234053047Y-86994571D01*
X233957809Y-87042190D01*
X233576857Y-87042190D01*
X234481619Y-86518380D02*
X235148285Y-86518380D01*
X234719714Y-87518380D01*
%TO.C,JP5*%
X251896666Y-118324380D02*
X251896666Y-119038666D01*
X251849047Y-119181523D01*
X251753809Y-119276761D01*
X251610952Y-119324380D01*
X251515714Y-119324380D01*
X252372857Y-119324380D02*
X252372857Y-118324380D01*
X252753809Y-118324380D01*
X252849047Y-118372000D01*
X252896666Y-118419619D01*
X252944285Y-118514857D01*
X252944285Y-118657714D01*
X252896666Y-118752952D01*
X252849047Y-118800571D01*
X252753809Y-118848190D01*
X252372857Y-118848190D01*
X253849047Y-118324380D02*
X253372857Y-118324380D01*
X253325238Y-118800571D01*
X253372857Y-118752952D01*
X253468095Y-118705333D01*
X253706190Y-118705333D01*
X253801428Y-118752952D01*
X253849047Y-118800571D01*
X253896666Y-118895809D01*
X253896666Y-119133904D01*
X253849047Y-119229142D01*
X253801428Y-119276761D01*
X253706190Y-119324380D01*
X253468095Y-119324380D01*
X253372857Y-119276761D01*
X253325238Y-119229142D01*
%TD*%
M02*
