%TF.GenerationSoftware,KiCad,Pcbnew,5.1.6-c6e7f7d~87~ubuntu18.04.1*%
%TF.CreationDate,2020-07-30T09:40:34-05:00*%
%TF.ProjectId,pHMeter,70484d65-7465-4722-9e6b-696361645f70,0.1*%
%TF.SameCoordinates,Original*%
%TF.FileFunction,Paste,Top*%
%TF.FilePolarity,Positive*%
%FSLAX46Y46*%
G04 Gerber Fmt 4.6, Leading zero omitted, Abs format (unit mm)*
G04 Created by KiCad (PCBNEW 5.1.6-c6e7f7d~87~ubuntu18.04.1) date 2020-07-30 09:40:34*
%MOMM*%
%LPD*%
G01*
G04 APERTURE LIST*
%ADD10R,0.650000X1.220000*%
%ADD11R,0.900000X1.200000*%
%ADD12R,1.200000X0.900000*%
%ADD13R,1.000000X0.800000*%
%ADD14R,0.500000X2.000000*%
%ADD15R,2.000000X1.700000*%
%ADD16R,1.700000X0.650000*%
%ADD17R,0.550000X1.500000*%
%ADD18R,1.500000X0.550000*%
%ADD19R,2.500000X3.325000*%
%ADD20R,0.800000X0.900000*%
%ADD21R,0.900000X0.800000*%
%ADD22R,1.060000X0.650000*%
G04 APERTURE END LIST*
%TO.C,R33*%
G36*
G01*
X275901999Y-110169000D02*
X276802001Y-110169000D01*
G75*
G02*
X277052000Y-110418999I0J-249999D01*
G01*
X277052000Y-111069001D01*
G75*
G02*
X276802001Y-111319000I-249999J0D01*
G01*
X275901999Y-111319000D01*
G75*
G02*
X275652000Y-111069001I0J249999D01*
G01*
X275652000Y-110418999D01*
G75*
G02*
X275901999Y-110169000I249999J0D01*
G01*
G37*
G36*
G01*
X275901999Y-112219000D02*
X276802001Y-112219000D01*
G75*
G02*
X277052000Y-112468999I0J-249999D01*
G01*
X277052000Y-113119001D01*
G75*
G02*
X276802001Y-113369000I-249999J0D01*
G01*
X275901999Y-113369000D01*
G75*
G02*
X275652000Y-113119001I0J249999D01*
G01*
X275652000Y-112468999D01*
G75*
G02*
X275901999Y-112219000I249999J0D01*
G01*
G37*
%TD*%
%TO.C,C11*%
G36*
G01*
X258121999Y-89096000D02*
X259022001Y-89096000D01*
G75*
G02*
X259272000Y-89345999I0J-249999D01*
G01*
X259272000Y-89996001D01*
G75*
G02*
X259022001Y-90246000I-249999J0D01*
G01*
X258121999Y-90246000D01*
G75*
G02*
X257872000Y-89996001I0J249999D01*
G01*
X257872000Y-89345999D01*
G75*
G02*
X258121999Y-89096000I249999J0D01*
G01*
G37*
G36*
G01*
X258121999Y-87046000D02*
X259022001Y-87046000D01*
G75*
G02*
X259272000Y-87295999I0J-249999D01*
G01*
X259272000Y-87946001D01*
G75*
G02*
X259022001Y-88196000I-249999J0D01*
G01*
X258121999Y-88196000D01*
G75*
G02*
X257872000Y-87946001I0J249999D01*
G01*
X257872000Y-87295999D01*
G75*
G02*
X258121999Y-87046000I249999J0D01*
G01*
G37*
%TD*%
%TO.C,D15*%
G36*
G01*
X247075000Y-116274001D02*
X247075000Y-115373999D01*
G75*
G02*
X247324999Y-115124000I249999J0D01*
G01*
X247975001Y-115124000D01*
G75*
G02*
X248225000Y-115373999I0J-249999D01*
G01*
X248225000Y-116274001D01*
G75*
G02*
X247975001Y-116524000I-249999J0D01*
G01*
X247324999Y-116524000D01*
G75*
G02*
X247075000Y-116274001I0J249999D01*
G01*
G37*
G36*
G01*
X249125000Y-116274001D02*
X249125000Y-115373999D01*
G75*
G02*
X249374999Y-115124000I249999J0D01*
G01*
X250025001Y-115124000D01*
G75*
G02*
X250275000Y-115373999I0J-249999D01*
G01*
X250275000Y-116274001D01*
G75*
G02*
X250025001Y-116524000I-249999J0D01*
G01*
X249374999Y-116524000D01*
G75*
G02*
X249125000Y-116274001I0J249999D01*
G01*
G37*
%TD*%
%TO.C,C19*%
G36*
G01*
X246183999Y-110659000D02*
X247084001Y-110659000D01*
G75*
G02*
X247334000Y-110908999I0J-249999D01*
G01*
X247334000Y-111559001D01*
G75*
G02*
X247084001Y-111809000I-249999J0D01*
G01*
X246183999Y-111809000D01*
G75*
G02*
X245934000Y-111559001I0J249999D01*
G01*
X245934000Y-110908999D01*
G75*
G02*
X246183999Y-110659000I249999J0D01*
G01*
G37*
G36*
G01*
X246183999Y-112709000D02*
X247084001Y-112709000D01*
G75*
G02*
X247334000Y-112958999I0J-249999D01*
G01*
X247334000Y-113609001D01*
G75*
G02*
X247084001Y-113859000I-249999J0D01*
G01*
X246183999Y-113859000D01*
G75*
G02*
X245934000Y-113609001I0J249999D01*
G01*
X245934000Y-112958999D01*
G75*
G02*
X246183999Y-112709000I249999J0D01*
G01*
G37*
%TD*%
%TO.C,C25*%
G36*
G01*
X239972001Y-111809000D02*
X239071999Y-111809000D01*
G75*
G02*
X238822000Y-111559001I0J249999D01*
G01*
X238822000Y-110908999D01*
G75*
G02*
X239071999Y-110659000I249999J0D01*
G01*
X239972001Y-110659000D01*
G75*
G02*
X240222000Y-110908999I0J-249999D01*
G01*
X240222000Y-111559001D01*
G75*
G02*
X239972001Y-111809000I-249999J0D01*
G01*
G37*
G36*
G01*
X239972001Y-113859000D02*
X239071999Y-113859000D01*
G75*
G02*
X238822000Y-113609001I0J249999D01*
G01*
X238822000Y-112958999D01*
G75*
G02*
X239071999Y-112709000I249999J0D01*
G01*
X239972001Y-112709000D01*
G75*
G02*
X240222000Y-112958999I0J-249999D01*
G01*
X240222000Y-113609001D01*
G75*
G02*
X239972001Y-113859000I-249999J0D01*
G01*
G37*
%TD*%
%TO.C,D16*%
G36*
G01*
X236795000Y-115373999D02*
X236795000Y-116274001D01*
G75*
G02*
X236545001Y-116524000I-249999J0D01*
G01*
X235894999Y-116524000D01*
G75*
G02*
X235645000Y-116274001I0J249999D01*
G01*
X235645000Y-115373999D01*
G75*
G02*
X235894999Y-115124000I249999J0D01*
G01*
X236545001Y-115124000D01*
G75*
G02*
X236795000Y-115373999I0J-249999D01*
G01*
G37*
G36*
G01*
X238845000Y-115373999D02*
X238845000Y-116274001D01*
G75*
G02*
X238595001Y-116524000I-249999J0D01*
G01*
X237944999Y-116524000D01*
G75*
G02*
X237695000Y-116274001I0J249999D01*
G01*
X237695000Y-115373999D01*
G75*
G02*
X237944999Y-115124000I249999J0D01*
G01*
X238595001Y-115124000D01*
G75*
G02*
X238845000Y-115373999I0J-249999D01*
G01*
G37*
%TD*%
%TO.C,C22*%
G36*
G01*
X245159000Y-102419999D02*
X245159000Y-103320001D01*
G75*
G02*
X244909001Y-103570000I-249999J0D01*
G01*
X244258999Y-103570000D01*
G75*
G02*
X244009000Y-103320001I0J249999D01*
G01*
X244009000Y-102419999D01*
G75*
G02*
X244258999Y-102170000I249999J0D01*
G01*
X244909001Y-102170000D01*
G75*
G02*
X245159000Y-102419999I0J-249999D01*
G01*
G37*
G36*
G01*
X247209000Y-102419999D02*
X247209000Y-103320001D01*
G75*
G02*
X246959001Y-103570000I-249999J0D01*
G01*
X246308999Y-103570000D01*
G75*
G02*
X246059000Y-103320001I0J249999D01*
G01*
X246059000Y-102419999D01*
G75*
G02*
X246308999Y-102170000I249999J0D01*
G01*
X246959001Y-102170000D01*
G75*
G02*
X247209000Y-102419999I0J-249999D01*
G01*
G37*
%TD*%
%TO.C,L2*%
G36*
G01*
X238543000Y-102418000D02*
X239993000Y-102418000D01*
G75*
G02*
X240368000Y-102793000I0J-375000D01*
G01*
X240368000Y-103543000D01*
G75*
G02*
X239993000Y-103918000I-375000J0D01*
G01*
X238543000Y-103918000D01*
G75*
G02*
X238168000Y-103543000I0J375000D01*
G01*
X238168000Y-102793000D01*
G75*
G02*
X238543000Y-102418000I375000J0D01*
G01*
G37*
G36*
G01*
X238543000Y-107918000D02*
X239993000Y-107918000D01*
G75*
G02*
X240368000Y-108293000I0J-375000D01*
G01*
X240368000Y-109043000D01*
G75*
G02*
X239993000Y-109418000I-375000J0D01*
G01*
X238543000Y-109418000D01*
G75*
G02*
X238168000Y-109043000I0J375000D01*
G01*
X238168000Y-108293000D01*
G75*
G02*
X238543000Y-107918000I375000J0D01*
G01*
G37*
%TD*%
%TO.C,C24*%
G36*
G01*
X243528001Y-111809000D02*
X242627999Y-111809000D01*
G75*
G02*
X242378000Y-111559001I0J249999D01*
G01*
X242378000Y-110908999D01*
G75*
G02*
X242627999Y-110659000I249999J0D01*
G01*
X243528001Y-110659000D01*
G75*
G02*
X243778000Y-110908999I0J-249999D01*
G01*
X243778000Y-111559001D01*
G75*
G02*
X243528001Y-111809000I-249999J0D01*
G01*
G37*
G36*
G01*
X243528001Y-113859000D02*
X242627999Y-113859000D01*
G75*
G02*
X242378000Y-113609001I0J249999D01*
G01*
X242378000Y-112958999D01*
G75*
G02*
X242627999Y-112709000I249999J0D01*
G01*
X243528001Y-112709000D01*
G75*
G02*
X243778000Y-112958999I0J-249999D01*
G01*
X243778000Y-113609001D01*
G75*
G02*
X243528001Y-113859000I-249999J0D01*
G01*
G37*
%TD*%
%TO.C,R39*%
G36*
G01*
X249485999Y-112709000D02*
X250386001Y-112709000D01*
G75*
G02*
X250636000Y-112958999I0J-249999D01*
G01*
X250636000Y-113609001D01*
G75*
G02*
X250386001Y-113859000I-249999J0D01*
G01*
X249485999Y-113859000D01*
G75*
G02*
X249236000Y-113609001I0J249999D01*
G01*
X249236000Y-112958999D01*
G75*
G02*
X249485999Y-112709000I249999J0D01*
G01*
G37*
G36*
G01*
X249485999Y-110659000D02*
X250386001Y-110659000D01*
G75*
G02*
X250636000Y-110908999I0J-249999D01*
G01*
X250636000Y-111559001D01*
G75*
G02*
X250386001Y-111809000I-249999J0D01*
G01*
X249485999Y-111809000D01*
G75*
G02*
X249236000Y-111559001I0J249999D01*
G01*
X249236000Y-110908999D01*
G75*
G02*
X249485999Y-110659000I249999J0D01*
G01*
G37*
%TD*%
%TO.C,R40*%
G36*
G01*
X235642999Y-110651600D02*
X236543001Y-110651600D01*
G75*
G02*
X236793000Y-110901599I0J-249999D01*
G01*
X236793000Y-111551601D01*
G75*
G02*
X236543001Y-111801600I-249999J0D01*
G01*
X235642999Y-111801600D01*
G75*
G02*
X235393000Y-111551601I0J249999D01*
G01*
X235393000Y-110901599D01*
G75*
G02*
X235642999Y-110651600I249999J0D01*
G01*
G37*
G36*
G01*
X235642999Y-112701600D02*
X236543001Y-112701600D01*
G75*
G02*
X236793000Y-112951599I0J-249999D01*
G01*
X236793000Y-113601601D01*
G75*
G02*
X236543001Y-113851600I-249999J0D01*
G01*
X235642999Y-113851600D01*
G75*
G02*
X235393000Y-113601601I0J249999D01*
G01*
X235393000Y-112951599D01*
G75*
G02*
X235642999Y-112701600I249999J0D01*
G01*
G37*
%TD*%
D10*
%TO.C,U5*%
X245171001Y-108840999D03*
X246121001Y-108840999D03*
X247071001Y-108840999D03*
X247071001Y-106220999D03*
X246121001Y-106220999D03*
X245171001Y-106220999D03*
%TD*%
%TO.C,C26*%
G36*
G01*
X204019999Y-86565000D02*
X204920001Y-86565000D01*
G75*
G02*
X205170000Y-86814999I0J-249999D01*
G01*
X205170000Y-87465001D01*
G75*
G02*
X204920001Y-87715000I-249999J0D01*
G01*
X204019999Y-87715000D01*
G75*
G02*
X203770000Y-87465001I0J249999D01*
G01*
X203770000Y-86814999D01*
G75*
G02*
X204019999Y-86565000I249999J0D01*
G01*
G37*
G36*
G01*
X204019999Y-84515000D02*
X204920001Y-84515000D01*
G75*
G02*
X205170000Y-84764999I0J-249999D01*
G01*
X205170000Y-85415001D01*
G75*
G02*
X204920001Y-85665000I-249999J0D01*
G01*
X204019999Y-85665000D01*
G75*
G02*
X203770000Y-85415001I0J249999D01*
G01*
X203770000Y-84764999D01*
G75*
G02*
X204019999Y-84515000I249999J0D01*
G01*
G37*
%TD*%
%TO.C,C27*%
G36*
G01*
X201226000Y-82353999D02*
X201226000Y-83254001D01*
G75*
G02*
X200976001Y-83504000I-249999J0D01*
G01*
X200325999Y-83504000D01*
G75*
G02*
X200076000Y-83254001I0J249999D01*
G01*
X200076000Y-82353999D01*
G75*
G02*
X200325999Y-82104000I249999J0D01*
G01*
X200976001Y-82104000D01*
G75*
G02*
X201226000Y-82353999I0J-249999D01*
G01*
G37*
G36*
G01*
X203276000Y-82353999D02*
X203276000Y-83254001D01*
G75*
G02*
X203026001Y-83504000I-249999J0D01*
G01*
X202375999Y-83504000D01*
G75*
G02*
X202126000Y-83254001I0J249999D01*
G01*
X202126000Y-82353999D01*
G75*
G02*
X202375999Y-82104000I249999J0D01*
G01*
X203026001Y-82104000D01*
G75*
G02*
X203276000Y-82353999I0J-249999D01*
G01*
G37*
%TD*%
%TO.C,C28*%
G36*
G01*
X209229000Y-85540001D02*
X209229000Y-84639999D01*
G75*
G02*
X209478999Y-84390000I249999J0D01*
G01*
X210129001Y-84390000D01*
G75*
G02*
X210379000Y-84639999I0J-249999D01*
G01*
X210379000Y-85540001D01*
G75*
G02*
X210129001Y-85790000I-249999J0D01*
G01*
X209478999Y-85790000D01*
G75*
G02*
X209229000Y-85540001I0J249999D01*
G01*
G37*
G36*
G01*
X207179000Y-85540001D02*
X207179000Y-84639999D01*
G75*
G02*
X207428999Y-84390000I249999J0D01*
G01*
X208079001Y-84390000D01*
G75*
G02*
X208329000Y-84639999I0J-249999D01*
G01*
X208329000Y-85540001D01*
G75*
G02*
X208079001Y-85790000I-249999J0D01*
G01*
X207428999Y-85790000D01*
G75*
G02*
X207179000Y-85540001I0J249999D01*
G01*
G37*
%TD*%
%TO.C,C29*%
G36*
G01*
X207179000Y-89096001D02*
X207179000Y-88195999D01*
G75*
G02*
X207428999Y-87946000I249999J0D01*
G01*
X208079001Y-87946000D01*
G75*
G02*
X208329000Y-88195999I0J-249999D01*
G01*
X208329000Y-89096001D01*
G75*
G02*
X208079001Y-89346000I-249999J0D01*
G01*
X207428999Y-89346000D01*
G75*
G02*
X207179000Y-89096001I0J249999D01*
G01*
G37*
G36*
G01*
X209229000Y-89096001D02*
X209229000Y-88195999D01*
G75*
G02*
X209478999Y-87946000I249999J0D01*
G01*
X210129001Y-87946000D01*
G75*
G02*
X210379000Y-88195999I0J-249999D01*
G01*
X210379000Y-89096001D01*
G75*
G02*
X210129001Y-89346000I-249999J0D01*
G01*
X209478999Y-89346000D01*
G75*
G02*
X209229000Y-89096001I0J249999D01*
G01*
G37*
%TD*%
%TO.C,C30*%
G36*
G01*
X212540001Y-88223000D02*
X211639999Y-88223000D01*
G75*
G02*
X211390000Y-87973001I0J249999D01*
G01*
X211390000Y-87322999D01*
G75*
G02*
X211639999Y-87073000I249999J0D01*
G01*
X212540001Y-87073000D01*
G75*
G02*
X212790000Y-87322999I0J-249999D01*
G01*
X212790000Y-87973001D01*
G75*
G02*
X212540001Y-88223000I-249999J0D01*
G01*
G37*
G36*
G01*
X212540001Y-86173000D02*
X211639999Y-86173000D01*
G75*
G02*
X211390000Y-85923001I0J249999D01*
G01*
X211390000Y-85272999D01*
G75*
G02*
X211639999Y-85023000I249999J0D01*
G01*
X212540001Y-85023000D01*
G75*
G02*
X212790000Y-85272999I0J-249999D01*
G01*
X212790000Y-85923001D01*
G75*
G02*
X212540001Y-86173000I-249999J0D01*
G01*
G37*
%TD*%
%TO.C,C31*%
G36*
G01*
X264347000Y-105606001D02*
X264347000Y-104705999D01*
G75*
G02*
X264596999Y-104456000I249999J0D01*
G01*
X265247001Y-104456000D01*
G75*
G02*
X265497000Y-104705999I0J-249999D01*
G01*
X265497000Y-105606001D01*
G75*
G02*
X265247001Y-105856000I-249999J0D01*
G01*
X264596999Y-105856000D01*
G75*
G02*
X264347000Y-105606001I0J249999D01*
G01*
G37*
G36*
G01*
X266397000Y-105606001D02*
X266397000Y-104705999D01*
G75*
G02*
X266646999Y-104456000I249999J0D01*
G01*
X267297001Y-104456000D01*
G75*
G02*
X267547000Y-104705999I0J-249999D01*
G01*
X267547000Y-105606001D01*
G75*
G02*
X267297001Y-105856000I-249999J0D01*
G01*
X266646999Y-105856000D01*
G75*
G02*
X266397000Y-105606001I0J249999D01*
G01*
G37*
%TD*%
D11*
%TO.C,D1*%
X196850000Y-110490000D03*
X200150000Y-110490000D03*
%TD*%
%TO.C,D2*%
X196852000Y-113030000D03*
X200152000Y-113030000D03*
%TD*%
D12*
%TO.C,D3*%
X267970000Y-124586000D03*
X267970000Y-121286000D03*
%TD*%
D11*
%TO.C,D4*%
X267996400Y-128066800D03*
X271296400Y-128066800D03*
%TD*%
D12*
%TO.C,D5*%
X270764000Y-121160000D03*
X270764000Y-124460000D03*
%TD*%
D13*
%TO.C,D6*%
X208761000Y-114554000D03*
X208761000Y-112014000D03*
X214911000Y-112014000D03*
X214911000Y-114554000D03*
%TD*%
%TO.C,R1*%
G36*
G01*
X200491000Y-95815999D02*
X200491000Y-96716001D01*
G75*
G02*
X200241001Y-96966000I-249999J0D01*
G01*
X199590999Y-96966000D01*
G75*
G02*
X199341000Y-96716001I0J249999D01*
G01*
X199341000Y-95815999D01*
G75*
G02*
X199590999Y-95566000I249999J0D01*
G01*
X200241001Y-95566000D01*
G75*
G02*
X200491000Y-95815999I0J-249999D01*
G01*
G37*
G36*
G01*
X198441000Y-95815999D02*
X198441000Y-96716001D01*
G75*
G02*
X198191001Y-96966000I-249999J0D01*
G01*
X197540999Y-96966000D01*
G75*
G02*
X197291000Y-96716001I0J249999D01*
G01*
X197291000Y-95815999D01*
G75*
G02*
X197540999Y-95566000I249999J0D01*
G01*
X198191001Y-95566000D01*
G75*
G02*
X198441000Y-95815999I0J-249999D01*
G01*
G37*
%TD*%
%TO.C,R2*%
G36*
G01*
X199475000Y-107626999D02*
X199475000Y-108527001D01*
G75*
G02*
X199225001Y-108777000I-249999J0D01*
G01*
X198574999Y-108777000D01*
G75*
G02*
X198325000Y-108527001I0J249999D01*
G01*
X198325000Y-107626999D01*
G75*
G02*
X198574999Y-107377000I249999J0D01*
G01*
X199225001Y-107377000D01*
G75*
G02*
X199475000Y-107626999I0J-249999D01*
G01*
G37*
G36*
G01*
X197425000Y-107626999D02*
X197425000Y-108527001D01*
G75*
G02*
X197175001Y-108777000I-249999J0D01*
G01*
X196524999Y-108777000D01*
G75*
G02*
X196275000Y-108527001I0J249999D01*
G01*
X196275000Y-107626999D01*
G75*
G02*
X196524999Y-107377000I249999J0D01*
G01*
X197175001Y-107377000D01*
G75*
G02*
X197425000Y-107626999I0J-249999D01*
G01*
G37*
%TD*%
%TO.C,R3*%
G36*
G01*
X193227000Y-91128001D02*
X193227000Y-90227999D01*
G75*
G02*
X193476999Y-89978000I249999J0D01*
G01*
X194127001Y-89978000D01*
G75*
G02*
X194377000Y-90227999I0J-249999D01*
G01*
X194377000Y-91128001D01*
G75*
G02*
X194127001Y-91378000I-249999J0D01*
G01*
X193476999Y-91378000D01*
G75*
G02*
X193227000Y-91128001I0J249999D01*
G01*
G37*
G36*
G01*
X191177000Y-91128001D02*
X191177000Y-90227999D01*
G75*
G02*
X191426999Y-89978000I249999J0D01*
G01*
X192077001Y-89978000D01*
G75*
G02*
X192327000Y-90227999I0J-249999D01*
G01*
X192327000Y-91128001D01*
G75*
G02*
X192077001Y-91378000I-249999J0D01*
G01*
X191426999Y-91378000D01*
G75*
G02*
X191177000Y-91128001I0J249999D01*
G01*
G37*
%TD*%
%TO.C,R4*%
G36*
G01*
X191177000Y-88842001D02*
X191177000Y-87941999D01*
G75*
G02*
X191426999Y-87692000I249999J0D01*
G01*
X192077001Y-87692000D01*
G75*
G02*
X192327000Y-87941999I0J-249999D01*
G01*
X192327000Y-88842001D01*
G75*
G02*
X192077001Y-89092000I-249999J0D01*
G01*
X191426999Y-89092000D01*
G75*
G02*
X191177000Y-88842001I0J249999D01*
G01*
G37*
G36*
G01*
X193227000Y-88842001D02*
X193227000Y-87941999D01*
G75*
G02*
X193476999Y-87692000I249999J0D01*
G01*
X194127001Y-87692000D01*
G75*
G02*
X194377000Y-87941999I0J-249999D01*
G01*
X194377000Y-88842001D01*
G75*
G02*
X194127001Y-89092000I-249999J0D01*
G01*
X193476999Y-89092000D01*
G75*
G02*
X193227000Y-88842001I0J249999D01*
G01*
G37*
%TD*%
%TO.C,R5*%
G36*
G01*
X200473000Y-100387999D02*
X200473000Y-101288001D01*
G75*
G02*
X200223001Y-101538000I-249999J0D01*
G01*
X199572999Y-101538000D01*
G75*
G02*
X199323000Y-101288001I0J249999D01*
G01*
X199323000Y-100387999D01*
G75*
G02*
X199572999Y-100138000I249999J0D01*
G01*
X200223001Y-100138000D01*
G75*
G02*
X200473000Y-100387999I0J-249999D01*
G01*
G37*
G36*
G01*
X198423000Y-100387999D02*
X198423000Y-101288001D01*
G75*
G02*
X198173001Y-101538000I-249999J0D01*
G01*
X197522999Y-101538000D01*
G75*
G02*
X197273000Y-101288001I0J249999D01*
G01*
X197273000Y-100387999D01*
G75*
G02*
X197522999Y-100138000I249999J0D01*
G01*
X198173001Y-100138000D01*
G75*
G02*
X198423000Y-100387999I0J-249999D01*
G01*
G37*
%TD*%
%TO.C,R6*%
G36*
G01*
X204666001Y-98864000D02*
X203765999Y-98864000D01*
G75*
G02*
X203516000Y-98614001I0J249999D01*
G01*
X203516000Y-97963999D01*
G75*
G02*
X203765999Y-97714000I249999J0D01*
G01*
X204666001Y-97714000D01*
G75*
G02*
X204916000Y-97963999I0J-249999D01*
G01*
X204916000Y-98614001D01*
G75*
G02*
X204666001Y-98864000I-249999J0D01*
G01*
G37*
G36*
G01*
X204666001Y-100914000D02*
X203765999Y-100914000D01*
G75*
G02*
X203516000Y-100664001I0J249999D01*
G01*
X203516000Y-100013999D01*
G75*
G02*
X203765999Y-99764000I249999J0D01*
G01*
X204666001Y-99764000D01*
G75*
G02*
X204916000Y-100013999I0J-249999D01*
G01*
X204916000Y-100664001D01*
G75*
G02*
X204666001Y-100914000I-249999J0D01*
G01*
G37*
%TD*%
%TO.C,R7*%
G36*
G01*
X207077000Y-99625999D02*
X207077000Y-100526001D01*
G75*
G02*
X206827001Y-100776000I-249999J0D01*
G01*
X206176999Y-100776000D01*
G75*
G02*
X205927000Y-100526001I0J249999D01*
G01*
X205927000Y-99625999D01*
G75*
G02*
X206176999Y-99376000I249999J0D01*
G01*
X206827001Y-99376000D01*
G75*
G02*
X207077000Y-99625999I0J-249999D01*
G01*
G37*
G36*
G01*
X209127000Y-99625999D02*
X209127000Y-100526001D01*
G75*
G02*
X208877001Y-100776000I-249999J0D01*
G01*
X208226999Y-100776000D01*
G75*
G02*
X207977000Y-100526001I0J249999D01*
G01*
X207977000Y-99625999D01*
G75*
G02*
X208226999Y-99376000I249999J0D01*
G01*
X208877001Y-99376000D01*
G75*
G02*
X209127000Y-99625999I0J-249999D01*
G01*
G37*
%TD*%
%TO.C,R8*%
G36*
G01*
X208083999Y-95165000D02*
X208984001Y-95165000D01*
G75*
G02*
X209234000Y-95414999I0J-249999D01*
G01*
X209234000Y-96065001D01*
G75*
G02*
X208984001Y-96315000I-249999J0D01*
G01*
X208083999Y-96315000D01*
G75*
G02*
X207834000Y-96065001I0J249999D01*
G01*
X207834000Y-95414999D01*
G75*
G02*
X208083999Y-95165000I249999J0D01*
G01*
G37*
G36*
G01*
X208083999Y-97215000D02*
X208984001Y-97215000D01*
G75*
G02*
X209234000Y-97464999I0J-249999D01*
G01*
X209234000Y-98115001D01*
G75*
G02*
X208984001Y-98365000I-249999J0D01*
G01*
X208083999Y-98365000D01*
G75*
G02*
X207834000Y-98115001I0J249999D01*
G01*
X207834000Y-97464999D01*
G75*
G02*
X208083999Y-97215000I249999J0D01*
G01*
G37*
%TD*%
%TO.C,R9*%
G36*
G01*
X203659000Y-110940001D02*
X203659000Y-110039999D01*
G75*
G02*
X203908999Y-109790000I249999J0D01*
G01*
X204559001Y-109790000D01*
G75*
G02*
X204809000Y-110039999I0J-249999D01*
G01*
X204809000Y-110940001D01*
G75*
G02*
X204559001Y-111190000I-249999J0D01*
G01*
X203908999Y-111190000D01*
G75*
G02*
X203659000Y-110940001I0J249999D01*
G01*
G37*
G36*
G01*
X201609000Y-110940001D02*
X201609000Y-110039999D01*
G75*
G02*
X201858999Y-109790000I249999J0D01*
G01*
X202509001Y-109790000D01*
G75*
G02*
X202759000Y-110039999I0J-249999D01*
G01*
X202759000Y-110940001D01*
G75*
G02*
X202509001Y-111190000I-249999J0D01*
G01*
X201858999Y-111190000D01*
G75*
G02*
X201609000Y-110940001I0J249999D01*
G01*
G37*
%TD*%
%TO.C,R10*%
G36*
G01*
X213699000Y-106229999D02*
X213699000Y-107130001D01*
G75*
G02*
X213449001Y-107380000I-249999J0D01*
G01*
X212798999Y-107380000D01*
G75*
G02*
X212549000Y-107130001I0J249999D01*
G01*
X212549000Y-106229999D01*
G75*
G02*
X212798999Y-105980000I249999J0D01*
G01*
X213449001Y-105980000D01*
G75*
G02*
X213699000Y-106229999I0J-249999D01*
G01*
G37*
G36*
G01*
X211649000Y-106229999D02*
X211649000Y-107130001D01*
G75*
G02*
X211399001Y-107380000I-249999J0D01*
G01*
X210748999Y-107380000D01*
G75*
G02*
X210499000Y-107130001I0J249999D01*
G01*
X210499000Y-106229999D01*
G75*
G02*
X210748999Y-105980000I249999J0D01*
G01*
X211399001Y-105980000D01*
G75*
G02*
X211649000Y-106229999I0J-249999D01*
G01*
G37*
%TD*%
%TO.C,R11*%
G36*
G01*
X187791000Y-78797999D02*
X187791000Y-79698001D01*
G75*
G02*
X187541001Y-79948000I-249999J0D01*
G01*
X186890999Y-79948000D01*
G75*
G02*
X186641000Y-79698001I0J249999D01*
G01*
X186641000Y-78797999D01*
G75*
G02*
X186890999Y-78548000I249999J0D01*
G01*
X187541001Y-78548000D01*
G75*
G02*
X187791000Y-78797999I0J-249999D01*
G01*
G37*
G36*
G01*
X185741000Y-78797999D02*
X185741000Y-79698001D01*
G75*
G02*
X185491001Y-79948000I-249999J0D01*
G01*
X184840999Y-79948000D01*
G75*
G02*
X184591000Y-79698001I0J249999D01*
G01*
X184591000Y-78797999D01*
G75*
G02*
X184840999Y-78548000I249999J0D01*
G01*
X185491001Y-78548000D01*
G75*
G02*
X185741000Y-78797999I0J-249999D01*
G01*
G37*
%TD*%
%TO.C,R12*%
G36*
G01*
X211649000Y-108515999D02*
X211649000Y-109416001D01*
G75*
G02*
X211399001Y-109666000I-249999J0D01*
G01*
X210748999Y-109666000D01*
G75*
G02*
X210499000Y-109416001I0J249999D01*
G01*
X210499000Y-108515999D01*
G75*
G02*
X210748999Y-108266000I249999J0D01*
G01*
X211399001Y-108266000D01*
G75*
G02*
X211649000Y-108515999I0J-249999D01*
G01*
G37*
G36*
G01*
X213699000Y-108515999D02*
X213699000Y-109416001D01*
G75*
G02*
X213449001Y-109666000I-249999J0D01*
G01*
X212798999Y-109666000D01*
G75*
G02*
X212549000Y-109416001I0J249999D01*
G01*
X212549000Y-108515999D01*
G75*
G02*
X212798999Y-108266000I249999J0D01*
G01*
X213449001Y-108266000D01*
G75*
G02*
X213699000Y-108515999I0J-249999D01*
G01*
G37*
%TD*%
%TO.C,R13*%
G36*
G01*
X192474001Y-80077000D02*
X191573999Y-80077000D01*
G75*
G02*
X191324000Y-79827001I0J249999D01*
G01*
X191324000Y-79176999D01*
G75*
G02*
X191573999Y-78927000I249999J0D01*
G01*
X192474001Y-78927000D01*
G75*
G02*
X192724000Y-79176999I0J-249999D01*
G01*
X192724000Y-79827001D01*
G75*
G02*
X192474001Y-80077000I-249999J0D01*
G01*
G37*
G36*
G01*
X192474001Y-82127000D02*
X191573999Y-82127000D01*
G75*
G02*
X191324000Y-81877001I0J249999D01*
G01*
X191324000Y-81226999D01*
G75*
G02*
X191573999Y-80977000I249999J0D01*
G01*
X192474001Y-80977000D01*
G75*
G02*
X192724000Y-81226999I0J-249999D01*
G01*
X192724000Y-81877001D01*
G75*
G02*
X192474001Y-82127000I-249999J0D01*
G01*
G37*
%TD*%
%TO.C,R14*%
G36*
G01*
X262693999Y-136077000D02*
X263594001Y-136077000D01*
G75*
G02*
X263844000Y-136326999I0J-249999D01*
G01*
X263844000Y-136977001D01*
G75*
G02*
X263594001Y-137227000I-249999J0D01*
G01*
X262693999Y-137227000D01*
G75*
G02*
X262444000Y-136977001I0J249999D01*
G01*
X262444000Y-136326999D01*
G75*
G02*
X262693999Y-136077000I249999J0D01*
G01*
G37*
G36*
G01*
X262693999Y-134027000D02*
X263594001Y-134027000D01*
G75*
G02*
X263844000Y-134276999I0J-249999D01*
G01*
X263844000Y-134927001D01*
G75*
G02*
X263594001Y-135177000I-249999J0D01*
G01*
X262693999Y-135177000D01*
G75*
G02*
X262444000Y-134927001I0J249999D01*
G01*
X262444000Y-134276999D01*
G75*
G02*
X262693999Y-134027000I249999J0D01*
G01*
G37*
%TD*%
%TO.C,R15*%
G36*
G01*
X264979999Y-136077000D02*
X265880001Y-136077000D01*
G75*
G02*
X266130000Y-136326999I0J-249999D01*
G01*
X266130000Y-136977001D01*
G75*
G02*
X265880001Y-137227000I-249999J0D01*
G01*
X264979999Y-137227000D01*
G75*
G02*
X264730000Y-136977001I0J249999D01*
G01*
X264730000Y-136326999D01*
G75*
G02*
X264979999Y-136077000I249999J0D01*
G01*
G37*
G36*
G01*
X264979999Y-134027000D02*
X265880001Y-134027000D01*
G75*
G02*
X266130000Y-134276999I0J-249999D01*
G01*
X266130000Y-134927001D01*
G75*
G02*
X265880001Y-135177000I-249999J0D01*
G01*
X264979999Y-135177000D01*
G75*
G02*
X264730000Y-134927001I0J249999D01*
G01*
X264730000Y-134276999D01*
G75*
G02*
X264979999Y-134027000I249999J0D01*
G01*
G37*
%TD*%
%TO.C,R16*%
G36*
G01*
X211131999Y-138871000D02*
X212032001Y-138871000D01*
G75*
G02*
X212282000Y-139120999I0J-249999D01*
G01*
X212282000Y-139771001D01*
G75*
G02*
X212032001Y-140021000I-249999J0D01*
G01*
X211131999Y-140021000D01*
G75*
G02*
X210882000Y-139771001I0J249999D01*
G01*
X210882000Y-139120999D01*
G75*
G02*
X211131999Y-138871000I249999J0D01*
G01*
G37*
G36*
G01*
X211131999Y-136821000D02*
X212032001Y-136821000D01*
G75*
G02*
X212282000Y-137070999I0J-249999D01*
G01*
X212282000Y-137721001D01*
G75*
G02*
X212032001Y-137971000I-249999J0D01*
G01*
X211131999Y-137971000D01*
G75*
G02*
X210882000Y-137721001I0J249999D01*
G01*
X210882000Y-137070999D01*
G75*
G02*
X211131999Y-136821000I249999J0D01*
G01*
G37*
%TD*%
%TO.C,R17*%
G36*
G01*
X217620001Y-114893000D02*
X216719999Y-114893000D01*
G75*
G02*
X216470000Y-114643001I0J249999D01*
G01*
X216470000Y-113992999D01*
G75*
G02*
X216719999Y-113743000I249999J0D01*
G01*
X217620001Y-113743000D01*
G75*
G02*
X217870000Y-113992999I0J-249999D01*
G01*
X217870000Y-114643001D01*
G75*
G02*
X217620001Y-114893000I-249999J0D01*
G01*
G37*
G36*
G01*
X217620001Y-112843000D02*
X216719999Y-112843000D01*
G75*
G02*
X216470000Y-112593001I0J249999D01*
G01*
X216470000Y-111942999D01*
G75*
G02*
X216719999Y-111693000I249999J0D01*
G01*
X217620001Y-111693000D01*
G75*
G02*
X217870000Y-111942999I0J-249999D01*
G01*
X217870000Y-112593001D01*
G75*
G02*
X217620001Y-112843000I-249999J0D01*
G01*
G37*
%TD*%
%TO.C,R18*%
G36*
G01*
X219906001Y-107509000D02*
X219005999Y-107509000D01*
G75*
G02*
X218756000Y-107259001I0J249999D01*
G01*
X218756000Y-106608999D01*
G75*
G02*
X219005999Y-106359000I249999J0D01*
G01*
X219906001Y-106359000D01*
G75*
G02*
X220156000Y-106608999I0J-249999D01*
G01*
X220156000Y-107259001D01*
G75*
G02*
X219906001Y-107509000I-249999J0D01*
G01*
G37*
G36*
G01*
X219906001Y-109559000D02*
X219005999Y-109559000D01*
G75*
G02*
X218756000Y-109309001I0J249999D01*
G01*
X218756000Y-108658999D01*
G75*
G02*
X219005999Y-108409000I249999J0D01*
G01*
X219906001Y-108409000D01*
G75*
G02*
X220156000Y-108658999I0J-249999D01*
G01*
X220156000Y-109309001D01*
G75*
G02*
X219906001Y-109559000I-249999J0D01*
G01*
G37*
%TD*%
%TO.C,R19*%
G36*
G01*
X217745000Y-103689999D02*
X217745000Y-104590001D01*
G75*
G02*
X217495001Y-104840000I-249999J0D01*
G01*
X216844999Y-104840000D01*
G75*
G02*
X216595000Y-104590001I0J249999D01*
G01*
X216595000Y-103689999D01*
G75*
G02*
X216844999Y-103440000I249999J0D01*
G01*
X217495001Y-103440000D01*
G75*
G02*
X217745000Y-103689999I0J-249999D01*
G01*
G37*
G36*
G01*
X215695000Y-103689999D02*
X215695000Y-104590001D01*
G75*
G02*
X215445001Y-104840000I-249999J0D01*
G01*
X214794999Y-104840000D01*
G75*
G02*
X214545000Y-104590001I0J249999D01*
G01*
X214545000Y-103689999D01*
G75*
G02*
X214794999Y-103440000I249999J0D01*
G01*
X215445001Y-103440000D01*
G75*
G02*
X215695000Y-103689999I0J-249999D01*
G01*
G37*
%TD*%
%TO.C,R20*%
G36*
G01*
X246437999Y-74110000D02*
X247338001Y-74110000D01*
G75*
G02*
X247588000Y-74359999I0J-249999D01*
G01*
X247588000Y-75010001D01*
G75*
G02*
X247338001Y-75260000I-249999J0D01*
G01*
X246437999Y-75260000D01*
G75*
G02*
X246188000Y-75010001I0J249999D01*
G01*
X246188000Y-74359999D01*
G75*
G02*
X246437999Y-74110000I249999J0D01*
G01*
G37*
G36*
G01*
X246437999Y-72060000D02*
X247338001Y-72060000D01*
G75*
G02*
X247588000Y-72309999I0J-249999D01*
G01*
X247588000Y-72960001D01*
G75*
G02*
X247338001Y-73210000I-249999J0D01*
G01*
X246437999Y-73210000D01*
G75*
G02*
X246188000Y-72960001I0J249999D01*
G01*
X246188000Y-72309999D01*
G75*
G02*
X246437999Y-72060000I249999J0D01*
G01*
G37*
%TD*%
%TO.C,R21*%
G36*
G01*
X245279000Y-94430001D02*
X245279000Y-93529999D01*
G75*
G02*
X245528999Y-93280000I249999J0D01*
G01*
X246179001Y-93280000D01*
G75*
G02*
X246429000Y-93529999I0J-249999D01*
G01*
X246429000Y-94430001D01*
G75*
G02*
X246179001Y-94680000I-249999J0D01*
G01*
X245528999Y-94680000D01*
G75*
G02*
X245279000Y-94430001I0J249999D01*
G01*
G37*
G36*
G01*
X247329000Y-94430001D02*
X247329000Y-93529999D01*
G75*
G02*
X247578999Y-93280000I249999J0D01*
G01*
X248229001Y-93280000D01*
G75*
G02*
X248479000Y-93529999I0J-249999D01*
G01*
X248479000Y-94430001D01*
G75*
G02*
X248229001Y-94680000I-249999J0D01*
G01*
X247578999Y-94680000D01*
G75*
G02*
X247329000Y-94430001I0J249999D01*
G01*
G37*
%TD*%
%TO.C,R22*%
G36*
G01*
X215695000Y-101403999D02*
X215695000Y-102304001D01*
G75*
G02*
X215445001Y-102554000I-249999J0D01*
G01*
X214794999Y-102554000D01*
G75*
G02*
X214545000Y-102304001I0J249999D01*
G01*
X214545000Y-101403999D01*
G75*
G02*
X214794999Y-101154000I249999J0D01*
G01*
X215445001Y-101154000D01*
G75*
G02*
X215695000Y-101403999I0J-249999D01*
G01*
G37*
G36*
G01*
X217745000Y-101403999D02*
X217745000Y-102304001D01*
G75*
G02*
X217495001Y-102554000I-249999J0D01*
G01*
X216844999Y-102554000D01*
G75*
G02*
X216595000Y-102304001I0J249999D01*
G01*
X216595000Y-101403999D01*
G75*
G02*
X216844999Y-101154000I249999J0D01*
G01*
X217495001Y-101154000D01*
G75*
G02*
X217745000Y-101403999I0J-249999D01*
G01*
G37*
%TD*%
%TO.C,R23*%
G36*
G01*
X245279000Y-97986001D02*
X245279000Y-97085999D01*
G75*
G02*
X245528999Y-96836000I249999J0D01*
G01*
X246179001Y-96836000D01*
G75*
G02*
X246429000Y-97085999I0J-249999D01*
G01*
X246429000Y-97986001D01*
G75*
G02*
X246179001Y-98236000I-249999J0D01*
G01*
X245528999Y-98236000D01*
G75*
G02*
X245279000Y-97986001I0J249999D01*
G01*
G37*
G36*
G01*
X247329000Y-97986001D02*
X247329000Y-97085999D01*
G75*
G02*
X247578999Y-96836000I249999J0D01*
G01*
X248229001Y-96836000D01*
G75*
G02*
X248479000Y-97085999I0J-249999D01*
G01*
X248479000Y-97986001D01*
G75*
G02*
X248229001Y-98236000I-249999J0D01*
G01*
X247578999Y-98236000D01*
G75*
G02*
X247329000Y-97986001I0J249999D01*
G01*
G37*
%TD*%
%TO.C,R24*%
G36*
G01*
X260671000Y-104705999D02*
X260671000Y-105606001D01*
G75*
G02*
X260421001Y-105856000I-249999J0D01*
G01*
X259770999Y-105856000D01*
G75*
G02*
X259521000Y-105606001I0J249999D01*
G01*
X259521000Y-104705999D01*
G75*
G02*
X259770999Y-104456000I249999J0D01*
G01*
X260421001Y-104456000D01*
G75*
G02*
X260671000Y-104705999I0J-249999D01*
G01*
G37*
G36*
G01*
X262721000Y-104705999D02*
X262721000Y-105606001D01*
G75*
G02*
X262471001Y-105856000I-249999J0D01*
G01*
X261820999Y-105856000D01*
G75*
G02*
X261571000Y-105606001I0J249999D01*
G01*
X261571000Y-104705999D01*
G75*
G02*
X261820999Y-104456000I249999J0D01*
G01*
X262471001Y-104456000D01*
G75*
G02*
X262721000Y-104705999I0J-249999D01*
G01*
G37*
%TD*%
%TO.C,R25*%
G36*
G01*
X244913999Y-134299000D02*
X245814001Y-134299000D01*
G75*
G02*
X246064000Y-134548999I0J-249999D01*
G01*
X246064000Y-135199001D01*
G75*
G02*
X245814001Y-135449000I-249999J0D01*
G01*
X244913999Y-135449000D01*
G75*
G02*
X244664000Y-135199001I0J249999D01*
G01*
X244664000Y-134548999D01*
G75*
G02*
X244913999Y-134299000I249999J0D01*
G01*
G37*
G36*
G01*
X244913999Y-132249000D02*
X245814001Y-132249000D01*
G75*
G02*
X246064000Y-132498999I0J-249999D01*
G01*
X246064000Y-133149001D01*
G75*
G02*
X245814001Y-133399000I-249999J0D01*
G01*
X244913999Y-133399000D01*
G75*
G02*
X244664000Y-133149001I0J249999D01*
G01*
X244664000Y-132498999D01*
G75*
G02*
X244913999Y-132249000I249999J0D01*
G01*
G37*
%TD*%
%TO.C,R26*%
G36*
G01*
X228685000Y-72193999D02*
X228685000Y-73094001D01*
G75*
G02*
X228435001Y-73344000I-249999J0D01*
G01*
X227784999Y-73344000D01*
G75*
G02*
X227535000Y-73094001I0J249999D01*
G01*
X227535000Y-72193999D01*
G75*
G02*
X227784999Y-71944000I249999J0D01*
G01*
X228435001Y-71944000D01*
G75*
G02*
X228685000Y-72193999I0J-249999D01*
G01*
G37*
G36*
G01*
X226635000Y-72193999D02*
X226635000Y-73094001D01*
G75*
G02*
X226385001Y-73344000I-249999J0D01*
G01*
X225734999Y-73344000D01*
G75*
G02*
X225485000Y-73094001I0J249999D01*
G01*
X225485000Y-72193999D01*
G75*
G02*
X225734999Y-71944000I249999J0D01*
G01*
X226385001Y-71944000D01*
G75*
G02*
X226635000Y-72193999I0J-249999D01*
G01*
G37*
%TD*%
%TO.C,R27*%
G36*
G01*
X226617000Y-84639999D02*
X226617000Y-85540001D01*
G75*
G02*
X226367001Y-85790000I-249999J0D01*
G01*
X225716999Y-85790000D01*
G75*
G02*
X225467000Y-85540001I0J249999D01*
G01*
X225467000Y-84639999D01*
G75*
G02*
X225716999Y-84390000I249999J0D01*
G01*
X226367001Y-84390000D01*
G75*
G02*
X226617000Y-84639999I0J-249999D01*
G01*
G37*
G36*
G01*
X228667000Y-84639999D02*
X228667000Y-85540001D01*
G75*
G02*
X228417001Y-85790000I-249999J0D01*
G01*
X227766999Y-85790000D01*
G75*
G02*
X227517000Y-85540001I0J249999D01*
G01*
X227517000Y-84639999D01*
G75*
G02*
X227766999Y-84390000I249999J0D01*
G01*
X228417001Y-84390000D01*
G75*
G02*
X228667000Y-84639999I0J-249999D01*
G01*
G37*
%TD*%
%TO.C,R28*%
G36*
G01*
X248723999Y-132249000D02*
X249624001Y-132249000D01*
G75*
G02*
X249874000Y-132498999I0J-249999D01*
G01*
X249874000Y-133149001D01*
G75*
G02*
X249624001Y-133399000I-249999J0D01*
G01*
X248723999Y-133399000D01*
G75*
G02*
X248474000Y-133149001I0J249999D01*
G01*
X248474000Y-132498999D01*
G75*
G02*
X248723999Y-132249000I249999J0D01*
G01*
G37*
G36*
G01*
X248723999Y-134299000D02*
X249624001Y-134299000D01*
G75*
G02*
X249874000Y-134548999I0J-249999D01*
G01*
X249874000Y-135199001D01*
G75*
G02*
X249624001Y-135449000I-249999J0D01*
G01*
X248723999Y-135449000D01*
G75*
G02*
X248474000Y-135199001I0J249999D01*
G01*
X248474000Y-134548999D01*
G75*
G02*
X248723999Y-134299000I249999J0D01*
G01*
G37*
%TD*%
%TO.C,R41*%
G36*
G01*
X203142001Y-77555000D02*
X202241999Y-77555000D01*
G75*
G02*
X201992000Y-77305001I0J249999D01*
G01*
X201992000Y-76654999D01*
G75*
G02*
X202241999Y-76405000I249999J0D01*
G01*
X203142001Y-76405000D01*
G75*
G02*
X203392000Y-76654999I0J-249999D01*
G01*
X203392000Y-77305001D01*
G75*
G02*
X203142001Y-77555000I-249999J0D01*
G01*
G37*
G36*
G01*
X203142001Y-75505000D02*
X202241999Y-75505000D01*
G75*
G02*
X201992000Y-75255001I0J249999D01*
G01*
X201992000Y-74604999D01*
G75*
G02*
X202241999Y-74355000I249999J0D01*
G01*
X203142001Y-74355000D01*
G75*
G02*
X203392000Y-74604999I0J-249999D01*
G01*
X203392000Y-75255001D01*
G75*
G02*
X203142001Y-75505000I-249999J0D01*
G01*
G37*
%TD*%
%TO.C,R42*%
G36*
G01*
X264093000Y-115512001D02*
X264093000Y-114611999D01*
G75*
G02*
X264342999Y-114362000I249999J0D01*
G01*
X264993001Y-114362000D01*
G75*
G02*
X265243000Y-114611999I0J-249999D01*
G01*
X265243000Y-115512001D01*
G75*
G02*
X264993001Y-115762000I-249999J0D01*
G01*
X264342999Y-115762000D01*
G75*
G02*
X264093000Y-115512001I0J249999D01*
G01*
G37*
G36*
G01*
X266143000Y-115512001D02*
X266143000Y-114611999D01*
G75*
G02*
X266392999Y-114362000I249999J0D01*
G01*
X267043001Y-114362000D01*
G75*
G02*
X267293000Y-114611999I0J-249999D01*
G01*
X267293000Y-115512001D01*
G75*
G02*
X267043001Y-115762000I-249999J0D01*
G01*
X266392999Y-115762000D01*
G75*
G02*
X266143000Y-115512001I0J249999D01*
G01*
G37*
%TD*%
%TO.C,R43*%
G36*
G01*
X259589800Y-115512001D02*
X259589800Y-114611999D01*
G75*
G02*
X259839799Y-114362000I249999J0D01*
G01*
X260489801Y-114362000D01*
G75*
G02*
X260739800Y-114611999I0J-249999D01*
G01*
X260739800Y-115512001D01*
G75*
G02*
X260489801Y-115762000I-249999J0D01*
G01*
X259839799Y-115762000D01*
G75*
G02*
X259589800Y-115512001I0J249999D01*
G01*
G37*
G36*
G01*
X257539800Y-115512001D02*
X257539800Y-114611999D01*
G75*
G02*
X257789799Y-114362000I249999J0D01*
G01*
X258439801Y-114362000D01*
G75*
G02*
X258689800Y-114611999I0J-249999D01*
G01*
X258689800Y-115512001D01*
G75*
G02*
X258439801Y-115762000I-249999J0D01*
G01*
X257789799Y-115762000D01*
G75*
G02*
X257539800Y-115512001I0J249999D01*
G01*
G37*
%TD*%
%TO.C,R44*%
G36*
G01*
X255974001Y-110067000D02*
X255073999Y-110067000D01*
G75*
G02*
X254824000Y-109817001I0J249999D01*
G01*
X254824000Y-109166999D01*
G75*
G02*
X255073999Y-108917000I249999J0D01*
G01*
X255974001Y-108917000D01*
G75*
G02*
X256224000Y-109166999I0J-249999D01*
G01*
X256224000Y-109817001D01*
G75*
G02*
X255974001Y-110067000I-249999J0D01*
G01*
G37*
G36*
G01*
X255974001Y-108017000D02*
X255073999Y-108017000D01*
G75*
G02*
X254824000Y-107767001I0J249999D01*
G01*
X254824000Y-107116999D01*
G75*
G02*
X255073999Y-106867000I249999J0D01*
G01*
X255974001Y-106867000D01*
G75*
G02*
X256224000Y-107116999I0J-249999D01*
G01*
X256224000Y-107767001D01*
G75*
G02*
X255974001Y-108017000I-249999J0D01*
G01*
G37*
%TD*%
D14*
%TO.C,X1*%
X263068000Y-141064000D03*
X263868000Y-141064000D03*
X264668000Y-141064000D03*
X265468000Y-141064000D03*
X266268000Y-141064000D03*
D15*
X260218000Y-141164000D03*
X260218000Y-146614000D03*
X269118000Y-141164000D03*
X269118000Y-146614000D03*
%TD*%
%TO.C,D7*%
G36*
G01*
X212006000Y-144236001D02*
X211105998Y-144236001D01*
G75*
G02*
X210855999Y-143986002I0J249999D01*
G01*
X210855999Y-143336000D01*
G75*
G02*
X211105998Y-143086001I249999J0D01*
G01*
X212006000Y-143086001D01*
G75*
G02*
X212255999Y-143336000I0J-249999D01*
G01*
X212255999Y-143986002D01*
G75*
G02*
X212006000Y-144236001I-249999J0D01*
G01*
G37*
G36*
G01*
X212006000Y-142186001D02*
X211105998Y-142186001D01*
G75*
G02*
X210855999Y-141936002I0J249999D01*
G01*
X210855999Y-141286000D01*
G75*
G02*
X211105998Y-141036001I249999J0D01*
G01*
X212006000Y-141036001D01*
G75*
G02*
X212255999Y-141286000I0J-249999D01*
G01*
X212255999Y-141936002D01*
G75*
G02*
X212006000Y-142186001I-249999J0D01*
G01*
G37*
%TD*%
%TO.C,D8*%
G36*
G01*
X244405999Y-74110000D02*
X245306001Y-74110000D01*
G75*
G02*
X245556000Y-74359999I0J-249999D01*
G01*
X245556000Y-75010001D01*
G75*
G02*
X245306001Y-75260000I-249999J0D01*
G01*
X244405999Y-75260000D01*
G75*
G02*
X244156000Y-75010001I0J249999D01*
G01*
X244156000Y-74359999D01*
G75*
G02*
X244405999Y-74110000I249999J0D01*
G01*
G37*
G36*
G01*
X244405999Y-72060000D02*
X245306001Y-72060000D01*
G75*
G02*
X245556000Y-72309999I0J-249999D01*
G01*
X245556000Y-72960001D01*
G75*
G02*
X245306001Y-73210000I-249999J0D01*
G01*
X244405999Y-73210000D01*
G75*
G02*
X244156000Y-72960001I0J249999D01*
G01*
X244156000Y-72309999D01*
G75*
G02*
X244405999Y-72060000I249999J0D01*
G01*
G37*
%TD*%
%TO.C,D9*%
G36*
G01*
X253559000Y-93529999D02*
X253559000Y-94430001D01*
G75*
G02*
X253309001Y-94680000I-249999J0D01*
G01*
X252658999Y-94680000D01*
G75*
G02*
X252409000Y-94430001I0J249999D01*
G01*
X252409000Y-93529999D01*
G75*
G02*
X252658999Y-93280000I249999J0D01*
G01*
X253309001Y-93280000D01*
G75*
G02*
X253559000Y-93529999I0J-249999D01*
G01*
G37*
G36*
G01*
X251509000Y-93529999D02*
X251509000Y-94430001D01*
G75*
G02*
X251259001Y-94680000I-249999J0D01*
G01*
X250608999Y-94680000D01*
G75*
G02*
X250359000Y-94430001I0J249999D01*
G01*
X250359000Y-93529999D01*
G75*
G02*
X250608999Y-93280000I249999J0D01*
G01*
X251259001Y-93280000D01*
G75*
G02*
X251509000Y-93529999I0J-249999D01*
G01*
G37*
%TD*%
%TO.C,D10*%
G36*
G01*
X253568000Y-97085999D02*
X253568000Y-97986001D01*
G75*
G02*
X253318001Y-98236000I-249999J0D01*
G01*
X252667999Y-98236000D01*
G75*
G02*
X252418000Y-97986001I0J249999D01*
G01*
X252418000Y-97085999D01*
G75*
G02*
X252667999Y-96836000I249999J0D01*
G01*
X253318001Y-96836000D01*
G75*
G02*
X253568000Y-97085999I0J-249999D01*
G01*
G37*
G36*
G01*
X251518000Y-97085999D02*
X251518000Y-97986001D01*
G75*
G02*
X251268001Y-98236000I-249999J0D01*
G01*
X250617999Y-98236000D01*
G75*
G02*
X250368000Y-97986001I0J249999D01*
G01*
X250368000Y-97085999D01*
G75*
G02*
X250617999Y-96836000I249999J0D01*
G01*
X251268001Y-96836000D01*
G75*
G02*
X251518000Y-97085999I0J-249999D01*
G01*
G37*
%TD*%
%TO.C,D11*%
G36*
G01*
X256999000Y-105606001D02*
X256999000Y-104705999D01*
G75*
G02*
X257248999Y-104456000I249999J0D01*
G01*
X257899001Y-104456000D01*
G75*
G02*
X258149000Y-104705999I0J-249999D01*
G01*
X258149000Y-105606001D01*
G75*
G02*
X257899001Y-105856000I-249999J0D01*
G01*
X257248999Y-105856000D01*
G75*
G02*
X256999000Y-105606001I0J249999D01*
G01*
G37*
G36*
G01*
X254949000Y-105606001D02*
X254949000Y-104705999D01*
G75*
G02*
X255198999Y-104456000I249999J0D01*
G01*
X255849001Y-104456000D01*
G75*
G02*
X256099000Y-104705999I0J-249999D01*
G01*
X256099000Y-105606001D01*
G75*
G02*
X255849001Y-105856000I-249999J0D01*
G01*
X255198999Y-105856000D01*
G75*
G02*
X254949000Y-105606001I0J249999D01*
G01*
G37*
%TD*%
%TO.C,D12*%
G36*
G01*
X221439000Y-85540001D02*
X221439000Y-84639999D01*
G75*
G02*
X221688999Y-84390000I249999J0D01*
G01*
X222339001Y-84390000D01*
G75*
G02*
X222589000Y-84639999I0J-249999D01*
G01*
X222589000Y-85540001D01*
G75*
G02*
X222339001Y-85790000I-249999J0D01*
G01*
X221688999Y-85790000D01*
G75*
G02*
X221439000Y-85540001I0J249999D01*
G01*
G37*
G36*
G01*
X219389000Y-85540001D02*
X219389000Y-84639999D01*
G75*
G02*
X219638999Y-84390000I249999J0D01*
G01*
X220289001Y-84390000D01*
G75*
G02*
X220539000Y-84639999I0J-249999D01*
G01*
X220539000Y-85540001D01*
G75*
G02*
X220289001Y-85790000I-249999J0D01*
G01*
X219638999Y-85790000D01*
G75*
G02*
X219389000Y-85540001I0J249999D01*
G01*
G37*
%TD*%
%TO.C,D13*%
G36*
G01*
X219371000Y-73094001D02*
X219371000Y-72193999D01*
G75*
G02*
X219620999Y-71944000I249999J0D01*
G01*
X220271001Y-71944000D01*
G75*
G02*
X220521000Y-72193999I0J-249999D01*
G01*
X220521000Y-73094001D01*
G75*
G02*
X220271001Y-73344000I-249999J0D01*
G01*
X219620999Y-73344000D01*
G75*
G02*
X219371000Y-73094001I0J249999D01*
G01*
G37*
G36*
G01*
X221421000Y-73094001D02*
X221421000Y-72193999D01*
G75*
G02*
X221670999Y-71944000I249999J0D01*
G01*
X222321001Y-71944000D01*
G75*
G02*
X222571000Y-72193999I0J-249999D01*
G01*
X222571000Y-73094001D01*
G75*
G02*
X222321001Y-73344000I-249999J0D01*
G01*
X221670999Y-73344000D01*
G75*
G02*
X221421000Y-73094001I0J249999D01*
G01*
G37*
%TD*%
%TO.C,R31*%
G36*
G01*
X214073000Y-66744001D02*
X214073000Y-65843999D01*
G75*
G02*
X214322999Y-65594000I249999J0D01*
G01*
X214973001Y-65594000D01*
G75*
G02*
X215223000Y-65843999I0J-249999D01*
G01*
X215223000Y-66744001D01*
G75*
G02*
X214973001Y-66994000I-249999J0D01*
G01*
X214322999Y-66994000D01*
G75*
G02*
X214073000Y-66744001I0J249999D01*
G01*
G37*
G36*
G01*
X212023000Y-66744001D02*
X212023000Y-65843999D01*
G75*
G02*
X212272999Y-65594000I249999J0D01*
G01*
X212923001Y-65594000D01*
G75*
G02*
X213173000Y-65843999I0J-249999D01*
G01*
X213173000Y-66744001D01*
G75*
G02*
X212923001Y-66994000I-249999J0D01*
G01*
X212272999Y-66994000D01*
G75*
G02*
X212023000Y-66744001I0J249999D01*
G01*
G37*
%TD*%
%TO.C,R32*%
G36*
G01*
X273246001Y-111301000D02*
X272345999Y-111301000D01*
G75*
G02*
X272096000Y-111051001I0J249999D01*
G01*
X272096000Y-110400999D01*
G75*
G02*
X272345999Y-110151000I249999J0D01*
G01*
X273246001Y-110151000D01*
G75*
G02*
X273496000Y-110400999I0J-249999D01*
G01*
X273496000Y-111051001D01*
G75*
G02*
X273246001Y-111301000I-249999J0D01*
G01*
G37*
G36*
G01*
X273246001Y-113351000D02*
X272345999Y-113351000D01*
G75*
G02*
X272096000Y-113101001I0J249999D01*
G01*
X272096000Y-112450999D01*
G75*
G02*
X272345999Y-112201000I249999J0D01*
G01*
X273246001Y-112201000D01*
G75*
G02*
X273496000Y-112450999I0J-249999D01*
G01*
X273496000Y-113101001D01*
G75*
G02*
X273246001Y-113351000I-249999J0D01*
G01*
G37*
%TD*%
%TO.C,U1*%
G36*
G01*
X184057000Y-85162000D02*
X184057000Y-85362000D01*
G75*
G02*
X183957000Y-85462000I-100000J0D01*
G01*
X182682000Y-85462000D01*
G75*
G02*
X182582000Y-85362000I0J100000D01*
G01*
X182582000Y-85162000D01*
G75*
G02*
X182682000Y-85062000I100000J0D01*
G01*
X183957000Y-85062000D01*
G75*
G02*
X184057000Y-85162000I0J-100000D01*
G01*
G37*
G36*
G01*
X184057000Y-84512000D02*
X184057000Y-84712000D01*
G75*
G02*
X183957000Y-84812000I-100000J0D01*
G01*
X182682000Y-84812000D01*
G75*
G02*
X182582000Y-84712000I0J100000D01*
G01*
X182582000Y-84512000D01*
G75*
G02*
X182682000Y-84412000I100000J0D01*
G01*
X183957000Y-84412000D01*
G75*
G02*
X184057000Y-84512000I0J-100000D01*
G01*
G37*
G36*
G01*
X184057000Y-83862000D02*
X184057000Y-84062000D01*
G75*
G02*
X183957000Y-84162000I-100000J0D01*
G01*
X182682000Y-84162000D01*
G75*
G02*
X182582000Y-84062000I0J100000D01*
G01*
X182582000Y-83862000D01*
G75*
G02*
X182682000Y-83762000I100000J0D01*
G01*
X183957000Y-83762000D01*
G75*
G02*
X184057000Y-83862000I0J-100000D01*
G01*
G37*
G36*
G01*
X184057000Y-83212000D02*
X184057000Y-83412000D01*
G75*
G02*
X183957000Y-83512000I-100000J0D01*
G01*
X182682000Y-83512000D01*
G75*
G02*
X182582000Y-83412000I0J100000D01*
G01*
X182582000Y-83212000D01*
G75*
G02*
X182682000Y-83112000I100000J0D01*
G01*
X183957000Y-83112000D01*
G75*
G02*
X184057000Y-83212000I0J-100000D01*
G01*
G37*
G36*
G01*
X184057000Y-82562000D02*
X184057000Y-82762000D01*
G75*
G02*
X183957000Y-82862000I-100000J0D01*
G01*
X182682000Y-82862000D01*
G75*
G02*
X182582000Y-82762000I0J100000D01*
G01*
X182582000Y-82562000D01*
G75*
G02*
X182682000Y-82462000I100000J0D01*
G01*
X183957000Y-82462000D01*
G75*
G02*
X184057000Y-82562000I0J-100000D01*
G01*
G37*
G36*
G01*
X184057000Y-81912000D02*
X184057000Y-82112000D01*
G75*
G02*
X183957000Y-82212000I-100000J0D01*
G01*
X182682000Y-82212000D01*
G75*
G02*
X182582000Y-82112000I0J100000D01*
G01*
X182582000Y-81912000D01*
G75*
G02*
X182682000Y-81812000I100000J0D01*
G01*
X183957000Y-81812000D01*
G75*
G02*
X184057000Y-81912000I0J-100000D01*
G01*
G37*
G36*
G01*
X184057000Y-81262000D02*
X184057000Y-81462000D01*
G75*
G02*
X183957000Y-81562000I-100000J0D01*
G01*
X182682000Y-81562000D01*
G75*
G02*
X182582000Y-81462000I0J100000D01*
G01*
X182582000Y-81262000D01*
G75*
G02*
X182682000Y-81162000I100000J0D01*
G01*
X183957000Y-81162000D01*
G75*
G02*
X184057000Y-81262000I0J-100000D01*
G01*
G37*
G36*
G01*
X189782000Y-81262000D02*
X189782000Y-81462000D01*
G75*
G02*
X189682000Y-81562000I-100000J0D01*
G01*
X188407000Y-81562000D01*
G75*
G02*
X188307000Y-81462000I0J100000D01*
G01*
X188307000Y-81262000D01*
G75*
G02*
X188407000Y-81162000I100000J0D01*
G01*
X189682000Y-81162000D01*
G75*
G02*
X189782000Y-81262000I0J-100000D01*
G01*
G37*
G36*
G01*
X189782000Y-81912000D02*
X189782000Y-82112000D01*
G75*
G02*
X189682000Y-82212000I-100000J0D01*
G01*
X188407000Y-82212000D01*
G75*
G02*
X188307000Y-82112000I0J100000D01*
G01*
X188307000Y-81912000D01*
G75*
G02*
X188407000Y-81812000I100000J0D01*
G01*
X189682000Y-81812000D01*
G75*
G02*
X189782000Y-81912000I0J-100000D01*
G01*
G37*
G36*
G01*
X189782000Y-82562000D02*
X189782000Y-82762000D01*
G75*
G02*
X189682000Y-82862000I-100000J0D01*
G01*
X188407000Y-82862000D01*
G75*
G02*
X188307000Y-82762000I0J100000D01*
G01*
X188307000Y-82562000D01*
G75*
G02*
X188407000Y-82462000I100000J0D01*
G01*
X189682000Y-82462000D01*
G75*
G02*
X189782000Y-82562000I0J-100000D01*
G01*
G37*
G36*
G01*
X189782000Y-83212000D02*
X189782000Y-83412000D01*
G75*
G02*
X189682000Y-83512000I-100000J0D01*
G01*
X188407000Y-83512000D01*
G75*
G02*
X188307000Y-83412000I0J100000D01*
G01*
X188307000Y-83212000D01*
G75*
G02*
X188407000Y-83112000I100000J0D01*
G01*
X189682000Y-83112000D01*
G75*
G02*
X189782000Y-83212000I0J-100000D01*
G01*
G37*
G36*
G01*
X189782000Y-83862000D02*
X189782000Y-84062000D01*
G75*
G02*
X189682000Y-84162000I-100000J0D01*
G01*
X188407000Y-84162000D01*
G75*
G02*
X188307000Y-84062000I0J100000D01*
G01*
X188307000Y-83862000D01*
G75*
G02*
X188407000Y-83762000I100000J0D01*
G01*
X189682000Y-83762000D01*
G75*
G02*
X189782000Y-83862000I0J-100000D01*
G01*
G37*
G36*
G01*
X189782000Y-84512000D02*
X189782000Y-84712000D01*
G75*
G02*
X189682000Y-84812000I-100000J0D01*
G01*
X188407000Y-84812000D01*
G75*
G02*
X188307000Y-84712000I0J100000D01*
G01*
X188307000Y-84512000D01*
G75*
G02*
X188407000Y-84412000I100000J0D01*
G01*
X189682000Y-84412000D01*
G75*
G02*
X189782000Y-84512000I0J-100000D01*
G01*
G37*
G36*
G01*
X189782000Y-85162000D02*
X189782000Y-85362000D01*
G75*
G02*
X189682000Y-85462000I-100000J0D01*
G01*
X188407000Y-85462000D01*
G75*
G02*
X188307000Y-85362000I0J100000D01*
G01*
X188307000Y-85162000D01*
G75*
G02*
X188407000Y-85062000I100000J0D01*
G01*
X189682000Y-85062000D01*
G75*
G02*
X189782000Y-85162000I0J-100000D01*
G01*
G37*
%TD*%
%TO.C,U6*%
G36*
G01*
X205255000Y-78256000D02*
X204955000Y-78256000D01*
G75*
G02*
X204805000Y-78106000I0J150000D01*
G01*
X204805000Y-76456000D01*
G75*
G02*
X204955000Y-76306000I150000J0D01*
G01*
X205255000Y-76306000D01*
G75*
G02*
X205405000Y-76456000I0J-150000D01*
G01*
X205405000Y-78106000D01*
G75*
G02*
X205255000Y-78256000I-150000J0D01*
G01*
G37*
G36*
G01*
X206525000Y-78256000D02*
X206225000Y-78256000D01*
G75*
G02*
X206075000Y-78106000I0J150000D01*
G01*
X206075000Y-76456000D01*
G75*
G02*
X206225000Y-76306000I150000J0D01*
G01*
X206525000Y-76306000D01*
G75*
G02*
X206675000Y-76456000I0J-150000D01*
G01*
X206675000Y-78106000D01*
G75*
G02*
X206525000Y-78256000I-150000J0D01*
G01*
G37*
G36*
G01*
X207795000Y-78256000D02*
X207495000Y-78256000D01*
G75*
G02*
X207345000Y-78106000I0J150000D01*
G01*
X207345000Y-76456000D01*
G75*
G02*
X207495000Y-76306000I150000J0D01*
G01*
X207795000Y-76306000D01*
G75*
G02*
X207945000Y-76456000I0J-150000D01*
G01*
X207945000Y-78106000D01*
G75*
G02*
X207795000Y-78256000I-150000J0D01*
G01*
G37*
G36*
G01*
X209065000Y-78256000D02*
X208765000Y-78256000D01*
G75*
G02*
X208615000Y-78106000I0J150000D01*
G01*
X208615000Y-76456000D01*
G75*
G02*
X208765000Y-76306000I150000J0D01*
G01*
X209065000Y-76306000D01*
G75*
G02*
X209215000Y-76456000I0J-150000D01*
G01*
X209215000Y-78106000D01*
G75*
G02*
X209065000Y-78256000I-150000J0D01*
G01*
G37*
G36*
G01*
X210335000Y-78256000D02*
X210035000Y-78256000D01*
G75*
G02*
X209885000Y-78106000I0J150000D01*
G01*
X209885000Y-76456000D01*
G75*
G02*
X210035000Y-76306000I150000J0D01*
G01*
X210335000Y-76306000D01*
G75*
G02*
X210485000Y-76456000I0J-150000D01*
G01*
X210485000Y-78106000D01*
G75*
G02*
X210335000Y-78256000I-150000J0D01*
G01*
G37*
G36*
G01*
X211605000Y-78256000D02*
X211305000Y-78256000D01*
G75*
G02*
X211155000Y-78106000I0J150000D01*
G01*
X211155000Y-76456000D01*
G75*
G02*
X211305000Y-76306000I150000J0D01*
G01*
X211605000Y-76306000D01*
G75*
G02*
X211755000Y-76456000I0J-150000D01*
G01*
X211755000Y-78106000D01*
G75*
G02*
X211605000Y-78256000I-150000J0D01*
G01*
G37*
G36*
G01*
X212875000Y-78256000D02*
X212575000Y-78256000D01*
G75*
G02*
X212425000Y-78106000I0J150000D01*
G01*
X212425000Y-76456000D01*
G75*
G02*
X212575000Y-76306000I150000J0D01*
G01*
X212875000Y-76306000D01*
G75*
G02*
X213025000Y-76456000I0J-150000D01*
G01*
X213025000Y-78106000D01*
G75*
G02*
X212875000Y-78256000I-150000J0D01*
G01*
G37*
G36*
G01*
X214145000Y-78256000D02*
X213845000Y-78256000D01*
G75*
G02*
X213695000Y-78106000I0J150000D01*
G01*
X213695000Y-76456000D01*
G75*
G02*
X213845000Y-76306000I150000J0D01*
G01*
X214145000Y-76306000D01*
G75*
G02*
X214295000Y-76456000I0J-150000D01*
G01*
X214295000Y-78106000D01*
G75*
G02*
X214145000Y-78256000I-150000J0D01*
G01*
G37*
G36*
G01*
X214145000Y-83206000D02*
X213845000Y-83206000D01*
G75*
G02*
X213695000Y-83056000I0J150000D01*
G01*
X213695000Y-81406000D01*
G75*
G02*
X213845000Y-81256000I150000J0D01*
G01*
X214145000Y-81256000D01*
G75*
G02*
X214295000Y-81406000I0J-150000D01*
G01*
X214295000Y-83056000D01*
G75*
G02*
X214145000Y-83206000I-150000J0D01*
G01*
G37*
G36*
G01*
X212875000Y-83206000D02*
X212575000Y-83206000D01*
G75*
G02*
X212425000Y-83056000I0J150000D01*
G01*
X212425000Y-81406000D01*
G75*
G02*
X212575000Y-81256000I150000J0D01*
G01*
X212875000Y-81256000D01*
G75*
G02*
X213025000Y-81406000I0J-150000D01*
G01*
X213025000Y-83056000D01*
G75*
G02*
X212875000Y-83206000I-150000J0D01*
G01*
G37*
G36*
G01*
X211605000Y-83206000D02*
X211305000Y-83206000D01*
G75*
G02*
X211155000Y-83056000I0J150000D01*
G01*
X211155000Y-81406000D01*
G75*
G02*
X211305000Y-81256000I150000J0D01*
G01*
X211605000Y-81256000D01*
G75*
G02*
X211755000Y-81406000I0J-150000D01*
G01*
X211755000Y-83056000D01*
G75*
G02*
X211605000Y-83206000I-150000J0D01*
G01*
G37*
G36*
G01*
X210335000Y-83206000D02*
X210035000Y-83206000D01*
G75*
G02*
X209885000Y-83056000I0J150000D01*
G01*
X209885000Y-81406000D01*
G75*
G02*
X210035000Y-81256000I150000J0D01*
G01*
X210335000Y-81256000D01*
G75*
G02*
X210485000Y-81406000I0J-150000D01*
G01*
X210485000Y-83056000D01*
G75*
G02*
X210335000Y-83206000I-150000J0D01*
G01*
G37*
G36*
G01*
X209065000Y-83206000D02*
X208765000Y-83206000D01*
G75*
G02*
X208615000Y-83056000I0J150000D01*
G01*
X208615000Y-81406000D01*
G75*
G02*
X208765000Y-81256000I150000J0D01*
G01*
X209065000Y-81256000D01*
G75*
G02*
X209215000Y-81406000I0J-150000D01*
G01*
X209215000Y-83056000D01*
G75*
G02*
X209065000Y-83206000I-150000J0D01*
G01*
G37*
G36*
G01*
X207795000Y-83206000D02*
X207495000Y-83206000D01*
G75*
G02*
X207345000Y-83056000I0J150000D01*
G01*
X207345000Y-81406000D01*
G75*
G02*
X207495000Y-81256000I150000J0D01*
G01*
X207795000Y-81256000D01*
G75*
G02*
X207945000Y-81406000I0J-150000D01*
G01*
X207945000Y-83056000D01*
G75*
G02*
X207795000Y-83206000I-150000J0D01*
G01*
G37*
G36*
G01*
X206525000Y-83206000D02*
X206225000Y-83206000D01*
G75*
G02*
X206075000Y-83056000I0J150000D01*
G01*
X206075000Y-81406000D01*
G75*
G02*
X206225000Y-81256000I150000J0D01*
G01*
X206525000Y-81256000D01*
G75*
G02*
X206675000Y-81406000I0J-150000D01*
G01*
X206675000Y-83056000D01*
G75*
G02*
X206525000Y-83206000I-150000J0D01*
G01*
G37*
G36*
G01*
X205255000Y-83206000D02*
X204955000Y-83206000D01*
G75*
G02*
X204805000Y-83056000I0J150000D01*
G01*
X204805000Y-81406000D01*
G75*
G02*
X204955000Y-81256000I150000J0D01*
G01*
X205255000Y-81256000D01*
G75*
G02*
X205405000Y-81406000I0J-150000D01*
G01*
X205405000Y-83056000D01*
G75*
G02*
X205255000Y-83206000I-150000J0D01*
G01*
G37*
%TD*%
D16*
%TO.C,U7*%
X257970000Y-108839000D03*
X257970000Y-110109000D03*
X257970000Y-111379000D03*
X257970000Y-112649000D03*
X265270000Y-112649000D03*
X265270000Y-111379000D03*
X265270000Y-110109000D03*
X265270000Y-108839000D03*
%TD*%
%TO.C,U2*%
G36*
G01*
X207357000Y-104576000D02*
X207357000Y-104376000D01*
G75*
G02*
X207457000Y-104276000I100000J0D01*
G01*
X208732000Y-104276000D01*
G75*
G02*
X208832000Y-104376000I0J-100000D01*
G01*
X208832000Y-104576000D01*
G75*
G02*
X208732000Y-104676000I-100000J0D01*
G01*
X207457000Y-104676000D01*
G75*
G02*
X207357000Y-104576000I0J100000D01*
G01*
G37*
G36*
G01*
X207357000Y-105226000D02*
X207357000Y-105026000D01*
G75*
G02*
X207457000Y-104926000I100000J0D01*
G01*
X208732000Y-104926000D01*
G75*
G02*
X208832000Y-105026000I0J-100000D01*
G01*
X208832000Y-105226000D01*
G75*
G02*
X208732000Y-105326000I-100000J0D01*
G01*
X207457000Y-105326000D01*
G75*
G02*
X207357000Y-105226000I0J100000D01*
G01*
G37*
G36*
G01*
X207357000Y-105876000D02*
X207357000Y-105676000D01*
G75*
G02*
X207457000Y-105576000I100000J0D01*
G01*
X208732000Y-105576000D01*
G75*
G02*
X208832000Y-105676000I0J-100000D01*
G01*
X208832000Y-105876000D01*
G75*
G02*
X208732000Y-105976000I-100000J0D01*
G01*
X207457000Y-105976000D01*
G75*
G02*
X207357000Y-105876000I0J100000D01*
G01*
G37*
G36*
G01*
X207357000Y-106526000D02*
X207357000Y-106326000D01*
G75*
G02*
X207457000Y-106226000I100000J0D01*
G01*
X208732000Y-106226000D01*
G75*
G02*
X208832000Y-106326000I0J-100000D01*
G01*
X208832000Y-106526000D01*
G75*
G02*
X208732000Y-106626000I-100000J0D01*
G01*
X207457000Y-106626000D01*
G75*
G02*
X207357000Y-106526000I0J100000D01*
G01*
G37*
G36*
G01*
X207357000Y-107176000D02*
X207357000Y-106976000D01*
G75*
G02*
X207457000Y-106876000I100000J0D01*
G01*
X208732000Y-106876000D01*
G75*
G02*
X208832000Y-106976000I0J-100000D01*
G01*
X208832000Y-107176000D01*
G75*
G02*
X208732000Y-107276000I-100000J0D01*
G01*
X207457000Y-107276000D01*
G75*
G02*
X207357000Y-107176000I0J100000D01*
G01*
G37*
G36*
G01*
X207357000Y-107826000D02*
X207357000Y-107626000D01*
G75*
G02*
X207457000Y-107526000I100000J0D01*
G01*
X208732000Y-107526000D01*
G75*
G02*
X208832000Y-107626000I0J-100000D01*
G01*
X208832000Y-107826000D01*
G75*
G02*
X208732000Y-107926000I-100000J0D01*
G01*
X207457000Y-107926000D01*
G75*
G02*
X207357000Y-107826000I0J100000D01*
G01*
G37*
G36*
G01*
X207357000Y-108476000D02*
X207357000Y-108276000D01*
G75*
G02*
X207457000Y-108176000I100000J0D01*
G01*
X208732000Y-108176000D01*
G75*
G02*
X208832000Y-108276000I0J-100000D01*
G01*
X208832000Y-108476000D01*
G75*
G02*
X208732000Y-108576000I-100000J0D01*
G01*
X207457000Y-108576000D01*
G75*
G02*
X207357000Y-108476000I0J100000D01*
G01*
G37*
G36*
G01*
X201632000Y-108476000D02*
X201632000Y-108276000D01*
G75*
G02*
X201732000Y-108176000I100000J0D01*
G01*
X203007000Y-108176000D01*
G75*
G02*
X203107000Y-108276000I0J-100000D01*
G01*
X203107000Y-108476000D01*
G75*
G02*
X203007000Y-108576000I-100000J0D01*
G01*
X201732000Y-108576000D01*
G75*
G02*
X201632000Y-108476000I0J100000D01*
G01*
G37*
G36*
G01*
X201632000Y-107826000D02*
X201632000Y-107626000D01*
G75*
G02*
X201732000Y-107526000I100000J0D01*
G01*
X203007000Y-107526000D01*
G75*
G02*
X203107000Y-107626000I0J-100000D01*
G01*
X203107000Y-107826000D01*
G75*
G02*
X203007000Y-107926000I-100000J0D01*
G01*
X201732000Y-107926000D01*
G75*
G02*
X201632000Y-107826000I0J100000D01*
G01*
G37*
G36*
G01*
X201632000Y-107176000D02*
X201632000Y-106976000D01*
G75*
G02*
X201732000Y-106876000I100000J0D01*
G01*
X203007000Y-106876000D01*
G75*
G02*
X203107000Y-106976000I0J-100000D01*
G01*
X203107000Y-107176000D01*
G75*
G02*
X203007000Y-107276000I-100000J0D01*
G01*
X201732000Y-107276000D01*
G75*
G02*
X201632000Y-107176000I0J100000D01*
G01*
G37*
G36*
G01*
X201632000Y-106526000D02*
X201632000Y-106326000D01*
G75*
G02*
X201732000Y-106226000I100000J0D01*
G01*
X203007000Y-106226000D01*
G75*
G02*
X203107000Y-106326000I0J-100000D01*
G01*
X203107000Y-106526000D01*
G75*
G02*
X203007000Y-106626000I-100000J0D01*
G01*
X201732000Y-106626000D01*
G75*
G02*
X201632000Y-106526000I0J100000D01*
G01*
G37*
G36*
G01*
X201632000Y-105876000D02*
X201632000Y-105676000D01*
G75*
G02*
X201732000Y-105576000I100000J0D01*
G01*
X203007000Y-105576000D01*
G75*
G02*
X203107000Y-105676000I0J-100000D01*
G01*
X203107000Y-105876000D01*
G75*
G02*
X203007000Y-105976000I-100000J0D01*
G01*
X201732000Y-105976000D01*
G75*
G02*
X201632000Y-105876000I0J100000D01*
G01*
G37*
G36*
G01*
X201632000Y-105226000D02*
X201632000Y-105026000D01*
G75*
G02*
X201732000Y-104926000I100000J0D01*
G01*
X203007000Y-104926000D01*
G75*
G02*
X203107000Y-105026000I0J-100000D01*
G01*
X203107000Y-105226000D01*
G75*
G02*
X203007000Y-105326000I-100000J0D01*
G01*
X201732000Y-105326000D01*
G75*
G02*
X201632000Y-105226000I0J100000D01*
G01*
G37*
G36*
G01*
X201632000Y-104576000D02*
X201632000Y-104376000D01*
G75*
G02*
X201732000Y-104276000I100000J0D01*
G01*
X203007000Y-104276000D01*
G75*
G02*
X203107000Y-104376000I0J-100000D01*
G01*
X203107000Y-104576000D01*
G75*
G02*
X203007000Y-104676000I-100000J0D01*
G01*
X201732000Y-104676000D01*
G75*
G02*
X201632000Y-104576000I0J100000D01*
G01*
G37*
%TD*%
%TO.C,C13*%
G36*
G01*
X274516001Y-78045000D02*
X273615999Y-78045000D01*
G75*
G02*
X273366000Y-77795001I0J249999D01*
G01*
X273366000Y-77144999D01*
G75*
G02*
X273615999Y-76895000I249999J0D01*
G01*
X274516001Y-76895000D01*
G75*
G02*
X274766000Y-77144999I0J-249999D01*
G01*
X274766000Y-77795001D01*
G75*
G02*
X274516001Y-78045000I-249999J0D01*
G01*
G37*
G36*
G01*
X274516001Y-75995000D02*
X273615999Y-75995000D01*
G75*
G02*
X273366000Y-75745001I0J249999D01*
G01*
X273366000Y-75094999D01*
G75*
G02*
X273615999Y-74845000I249999J0D01*
G01*
X274516001Y-74845000D01*
G75*
G02*
X274766000Y-75094999I0J-249999D01*
G01*
X274766000Y-75745001D01*
G75*
G02*
X274516001Y-75995000I-249999J0D01*
G01*
G37*
%TD*%
%TO.C,C14*%
G36*
G01*
X273615999Y-82737000D02*
X274516001Y-82737000D01*
G75*
G02*
X274766000Y-82986999I0J-249999D01*
G01*
X274766000Y-83637001D01*
G75*
G02*
X274516001Y-83887000I-249999J0D01*
G01*
X273615999Y-83887000D01*
G75*
G02*
X273366000Y-83637001I0J249999D01*
G01*
X273366000Y-82986999D01*
G75*
G02*
X273615999Y-82737000I249999J0D01*
G01*
G37*
G36*
G01*
X273615999Y-80687000D02*
X274516001Y-80687000D01*
G75*
G02*
X274766000Y-80936999I0J-249999D01*
G01*
X274766000Y-81587001D01*
G75*
G02*
X274516001Y-81837000I-249999J0D01*
G01*
X273615999Y-81837000D01*
G75*
G02*
X273366000Y-81587001I0J249999D01*
G01*
X273366000Y-80936999D01*
G75*
G02*
X273615999Y-80687000I249999J0D01*
G01*
G37*
%TD*%
%TO.C,C15*%
G36*
G01*
X270960001Y-87688000D02*
X270059999Y-87688000D01*
G75*
G02*
X269810000Y-87438001I0J249999D01*
G01*
X269810000Y-86787999D01*
G75*
G02*
X270059999Y-86538000I249999J0D01*
G01*
X270960001Y-86538000D01*
G75*
G02*
X271210000Y-86787999I0J-249999D01*
G01*
X271210000Y-87438001D01*
G75*
G02*
X270960001Y-87688000I-249999J0D01*
G01*
G37*
G36*
G01*
X270960001Y-89738000D02*
X270059999Y-89738000D01*
G75*
G02*
X269810000Y-89488001I0J249999D01*
G01*
X269810000Y-88837999D01*
G75*
G02*
X270059999Y-88588000I249999J0D01*
G01*
X270960001Y-88588000D01*
G75*
G02*
X271210000Y-88837999I0J-249999D01*
G01*
X271210000Y-89488001D01*
G75*
G02*
X270960001Y-89738000I-249999J0D01*
G01*
G37*
%TD*%
%TO.C,C16*%
G36*
G01*
X246183999Y-81975000D02*
X247084001Y-81975000D01*
G75*
G02*
X247334000Y-82224999I0J-249999D01*
G01*
X247334000Y-82875001D01*
G75*
G02*
X247084001Y-83125000I-249999J0D01*
G01*
X246183999Y-83125000D01*
G75*
G02*
X245934000Y-82875001I0J249999D01*
G01*
X245934000Y-82224999D01*
G75*
G02*
X246183999Y-81975000I249999J0D01*
G01*
G37*
G36*
G01*
X246183999Y-84025000D02*
X247084001Y-84025000D01*
G75*
G02*
X247334000Y-84274999I0J-249999D01*
G01*
X247334000Y-84925001D01*
G75*
G02*
X247084001Y-85175000I-249999J0D01*
G01*
X246183999Y-85175000D01*
G75*
G02*
X245934000Y-84925001I0J249999D01*
G01*
X245934000Y-84274999D01*
G75*
G02*
X246183999Y-84025000I249999J0D01*
G01*
G37*
%TD*%
%TO.C,C17*%
G36*
G01*
X248469999Y-85295000D02*
X249370001Y-85295000D01*
G75*
G02*
X249620000Y-85544999I0J-249999D01*
G01*
X249620000Y-86195001D01*
G75*
G02*
X249370001Y-86445000I-249999J0D01*
G01*
X248469999Y-86445000D01*
G75*
G02*
X248220000Y-86195001I0J249999D01*
G01*
X248220000Y-85544999D01*
G75*
G02*
X248469999Y-85295000I249999J0D01*
G01*
G37*
G36*
G01*
X248469999Y-83245000D02*
X249370001Y-83245000D01*
G75*
G02*
X249620000Y-83494999I0J-249999D01*
G01*
X249620000Y-84145001D01*
G75*
G02*
X249370001Y-84395000I-249999J0D01*
G01*
X248469999Y-84395000D01*
G75*
G02*
X248220000Y-84145001I0J249999D01*
G01*
X248220000Y-83494999D01*
G75*
G02*
X248469999Y-83245000I249999J0D01*
G01*
G37*
%TD*%
%TO.C,C18*%
G36*
G01*
X256089999Y-86783000D02*
X256990001Y-86783000D01*
G75*
G02*
X257240000Y-87032999I0J-249999D01*
G01*
X257240000Y-87683001D01*
G75*
G02*
X256990001Y-87933000I-249999J0D01*
G01*
X256089999Y-87933000D01*
G75*
G02*
X255840000Y-87683001I0J249999D01*
G01*
X255840000Y-87032999D01*
G75*
G02*
X256089999Y-86783000I249999J0D01*
G01*
G37*
G36*
G01*
X256089999Y-88833000D02*
X256990001Y-88833000D01*
G75*
G02*
X257240000Y-89082999I0J-249999D01*
G01*
X257240000Y-89733001D01*
G75*
G02*
X256990001Y-89983000I-249999J0D01*
G01*
X256089999Y-89983000D01*
G75*
G02*
X255840000Y-89733001I0J249999D01*
G01*
X255840000Y-89082999D01*
G75*
G02*
X256089999Y-88833000I249999J0D01*
G01*
G37*
%TD*%
%TO.C,R34*%
G36*
G01*
X267404001Y-89747000D02*
X266503999Y-89747000D01*
G75*
G02*
X266254000Y-89497001I0J249999D01*
G01*
X266254000Y-88846999D01*
G75*
G02*
X266503999Y-88597000I249999J0D01*
G01*
X267404001Y-88597000D01*
G75*
G02*
X267654000Y-88846999I0J-249999D01*
G01*
X267654000Y-89497001D01*
G75*
G02*
X267404001Y-89747000I-249999J0D01*
G01*
G37*
G36*
G01*
X267404001Y-87697000D02*
X266503999Y-87697000D01*
G75*
G02*
X266254000Y-87447001I0J249999D01*
G01*
X266254000Y-86796999D01*
G75*
G02*
X266503999Y-86547000I249999J0D01*
G01*
X267404001Y-86547000D01*
G75*
G02*
X267654000Y-86796999I0J-249999D01*
G01*
X267654000Y-87447001D01*
G75*
G02*
X267404001Y-87697000I-249999J0D01*
G01*
G37*
%TD*%
%TO.C,R35*%
G36*
G01*
X265741999Y-80215000D02*
X266642001Y-80215000D01*
G75*
G02*
X266892000Y-80464999I0J-249999D01*
G01*
X266892000Y-81115001D01*
G75*
G02*
X266642001Y-81365000I-249999J0D01*
G01*
X265741999Y-81365000D01*
G75*
G02*
X265492000Y-81115001I0J249999D01*
G01*
X265492000Y-80464999D01*
G75*
G02*
X265741999Y-80215000I249999J0D01*
G01*
G37*
G36*
G01*
X265741999Y-78165000D02*
X266642001Y-78165000D01*
G75*
G02*
X266892000Y-78414999I0J-249999D01*
G01*
X266892000Y-79065001D01*
G75*
G02*
X266642001Y-79315000I-249999J0D01*
G01*
X265741999Y-79315000D01*
G75*
G02*
X265492000Y-79065001I0J249999D01*
G01*
X265492000Y-78414999D01*
G75*
G02*
X265741999Y-78165000I249999J0D01*
G01*
G37*
%TD*%
%TO.C,R36*%
G36*
G01*
X249370001Y-75260000D02*
X248469999Y-75260000D01*
G75*
G02*
X248220000Y-75010001I0J249999D01*
G01*
X248220000Y-74359999D01*
G75*
G02*
X248469999Y-74110000I249999J0D01*
G01*
X249370001Y-74110000D01*
G75*
G02*
X249620000Y-74359999I0J-249999D01*
G01*
X249620000Y-75010001D01*
G75*
G02*
X249370001Y-75260000I-249999J0D01*
G01*
G37*
G36*
G01*
X249370001Y-73210000D02*
X248469999Y-73210000D01*
G75*
G02*
X248220000Y-72960001I0J249999D01*
G01*
X248220000Y-72309999D01*
G75*
G02*
X248469999Y-72060000I249999J0D01*
G01*
X249370001Y-72060000D01*
G75*
G02*
X249620000Y-72309999I0J-249999D01*
G01*
X249620000Y-72960001D01*
G75*
G02*
X249370001Y-73210000I-249999J0D01*
G01*
G37*
%TD*%
D17*
%TO.C,U3*%
X253048000Y-85202000D03*
X253848000Y-85202000D03*
X254648000Y-85202000D03*
X255448000Y-85202000D03*
X256248000Y-85202000D03*
X257048000Y-85202000D03*
X257848000Y-85202000D03*
X258648000Y-85202000D03*
X259448000Y-85202000D03*
X260248000Y-85202000D03*
X261048000Y-85202000D03*
D18*
X262748000Y-83502000D03*
X262748000Y-82702000D03*
X262748000Y-81902000D03*
X262748000Y-81102000D03*
X262748000Y-80302000D03*
X262748000Y-79502000D03*
X262748000Y-78702000D03*
X262748000Y-77902000D03*
X262748000Y-77102000D03*
X262748000Y-76302000D03*
X262748000Y-75502000D03*
D17*
X261048000Y-73802000D03*
X260248000Y-73802000D03*
X259448000Y-73802000D03*
X258648000Y-73802000D03*
X257848000Y-73802000D03*
X257048000Y-73802000D03*
X256248000Y-73802000D03*
X255448000Y-73802000D03*
X254648000Y-73802000D03*
X253848000Y-73802000D03*
X253048000Y-73802000D03*
D18*
X251348000Y-75502000D03*
X251348000Y-76302000D03*
X251348000Y-77102000D03*
X251348000Y-77902000D03*
X251348000Y-78702000D03*
X251348000Y-79502000D03*
X251348000Y-80302000D03*
X251348000Y-81102000D03*
X251348000Y-81902000D03*
X251348000Y-82702000D03*
X251348000Y-83502000D03*
%TD*%
D19*
%TO.C,Y1*%
X269748000Y-76454000D03*
X269748000Y-82279000D03*
%TD*%
D20*
%TO.C,Q1*%
X228214000Y-79248000D03*
X226314000Y-79248000D03*
X227264000Y-81248000D03*
%TD*%
%TO.C,Q2*%
X227330000Y-93694000D03*
X226380000Y-91694000D03*
X228280000Y-91694000D03*
%TD*%
%TO.C,C21*%
G36*
G01*
X257498001Y-124037000D02*
X256597999Y-124037000D01*
G75*
G02*
X256348000Y-123787001I0J249999D01*
G01*
X256348000Y-123136999D01*
G75*
G02*
X256597999Y-122887000I249999J0D01*
G01*
X257498001Y-122887000D01*
G75*
G02*
X257748000Y-123136999I0J-249999D01*
G01*
X257748000Y-123787001D01*
G75*
G02*
X257498001Y-124037000I-249999J0D01*
G01*
G37*
G36*
G01*
X257498001Y-121987000D02*
X256597999Y-121987000D01*
G75*
G02*
X256348000Y-121737001I0J249999D01*
G01*
X256348000Y-121086999D01*
G75*
G02*
X256597999Y-120837000I249999J0D01*
G01*
X257498001Y-120837000D01*
G75*
G02*
X257748000Y-121086999I0J-249999D01*
G01*
X257748000Y-121737001D01*
G75*
G02*
X257498001Y-121987000I-249999J0D01*
G01*
G37*
%TD*%
%TO.C,C23*%
G36*
G01*
X259784001Y-126033000D02*
X258883999Y-126033000D01*
G75*
G02*
X258634000Y-125783001I0J249999D01*
G01*
X258634000Y-125132999D01*
G75*
G02*
X258883999Y-124883000I249999J0D01*
G01*
X259784001Y-124883000D01*
G75*
G02*
X260034000Y-125132999I0J-249999D01*
G01*
X260034000Y-125783001D01*
G75*
G02*
X259784001Y-126033000I-249999J0D01*
G01*
G37*
G36*
G01*
X259784001Y-128083000D02*
X258883999Y-128083000D01*
G75*
G02*
X258634000Y-127833001I0J249999D01*
G01*
X258634000Y-127182999D01*
G75*
G02*
X258883999Y-126933000I249999J0D01*
G01*
X259784001Y-126933000D01*
G75*
G02*
X260034000Y-127182999I0J-249999D01*
G01*
X260034000Y-127833001D01*
G75*
G02*
X259784001Y-128083000I-249999J0D01*
G01*
G37*
%TD*%
%TO.C,C33*%
G36*
G01*
X254067000Y-129343999D02*
X254067000Y-130244001D01*
G75*
G02*
X253817001Y-130494000I-249999J0D01*
G01*
X253166999Y-130494000D01*
G75*
G02*
X252917000Y-130244001I0J249999D01*
G01*
X252917000Y-129343999D01*
G75*
G02*
X253166999Y-129094000I249999J0D01*
G01*
X253817001Y-129094000D01*
G75*
G02*
X254067000Y-129343999I0J-249999D01*
G01*
G37*
G36*
G01*
X252017000Y-129343999D02*
X252017000Y-130244001D01*
G75*
G02*
X251767001Y-130494000I-249999J0D01*
G01*
X251116999Y-130494000D01*
G75*
G02*
X250867000Y-130244001I0J249999D01*
G01*
X250867000Y-129343999D01*
G75*
G02*
X251116999Y-129094000I249999J0D01*
G01*
X251767001Y-129094000D01*
G75*
G02*
X252017000Y-129343999I0J-249999D01*
G01*
G37*
%TD*%
D11*
%TO.C,D14*%
X248030000Y-129540000D03*
X244730000Y-129540000D03*
%TD*%
%TO.C,D17*%
G36*
G01*
X234375000Y-73094001D02*
X234375000Y-72193999D01*
G75*
G02*
X234624999Y-71944000I249999J0D01*
G01*
X235275001Y-71944000D01*
G75*
G02*
X235525000Y-72193999I0J-249999D01*
G01*
X235525000Y-73094001D01*
G75*
G02*
X235275001Y-73344000I-249999J0D01*
G01*
X234624999Y-73344000D01*
G75*
G02*
X234375000Y-73094001I0J249999D01*
G01*
G37*
G36*
G01*
X232325000Y-73094001D02*
X232325000Y-72193999D01*
G75*
G02*
X232574999Y-71944000I249999J0D01*
G01*
X233225001Y-71944000D01*
G75*
G02*
X233475000Y-72193999I0J-249999D01*
G01*
X233475000Y-73094001D01*
G75*
G02*
X233225001Y-73344000I-249999J0D01*
G01*
X232574999Y-73344000D01*
G75*
G02*
X232325000Y-73094001I0J249999D01*
G01*
G37*
%TD*%
%TO.C,D18*%
G36*
G01*
X231817000Y-85540001D02*
X231817000Y-84639999D01*
G75*
G02*
X232066999Y-84390000I249999J0D01*
G01*
X232717001Y-84390000D01*
G75*
G02*
X232967000Y-84639999I0J-249999D01*
G01*
X232967000Y-85540001D01*
G75*
G02*
X232717001Y-85790000I-249999J0D01*
G01*
X232066999Y-85790000D01*
G75*
G02*
X231817000Y-85540001I0J249999D01*
G01*
G37*
G36*
G01*
X233867000Y-85540001D02*
X233867000Y-84639999D01*
G75*
G02*
X234116999Y-84390000I249999J0D01*
G01*
X234767001Y-84390000D01*
G75*
G02*
X235017000Y-84639999I0J-249999D01*
G01*
X235017000Y-85540001D01*
G75*
G02*
X234767001Y-85790000I-249999J0D01*
G01*
X234116999Y-85790000D01*
G75*
G02*
X233867000Y-85540001I0J249999D01*
G01*
G37*
%TD*%
D20*
%TO.C,Q3*%
X245806000Y-124984000D03*
X246756000Y-126984000D03*
X244856000Y-126984000D03*
%TD*%
%TO.C,Q4*%
X240726000Y-79534000D03*
X238826000Y-79534000D03*
X239776000Y-81534000D03*
%TD*%
%TO.C,Q5*%
X239776000Y-93726000D03*
X238826000Y-91726000D03*
X240726000Y-91726000D03*
%TD*%
%TO.C,R29*%
G36*
G01*
X259784001Y-124019000D02*
X258883999Y-124019000D01*
G75*
G02*
X258634000Y-123769001I0J249999D01*
G01*
X258634000Y-123118999D01*
G75*
G02*
X258883999Y-122869000I249999J0D01*
G01*
X259784001Y-122869000D01*
G75*
G02*
X260034000Y-123118999I0J-249999D01*
G01*
X260034000Y-123769001D01*
G75*
G02*
X259784001Y-124019000I-249999J0D01*
G01*
G37*
G36*
G01*
X259784001Y-121969000D02*
X258883999Y-121969000D01*
G75*
G02*
X258634000Y-121719001I0J249999D01*
G01*
X258634000Y-121068999D01*
G75*
G02*
X258883999Y-120819000I249999J0D01*
G01*
X259784001Y-120819000D01*
G75*
G02*
X260034000Y-121068999I0J-249999D01*
G01*
X260034000Y-121719001D01*
G75*
G02*
X259784001Y-121969000I-249999J0D01*
G01*
G37*
%TD*%
%TO.C,R30*%
G36*
G01*
X262324001Y-121969000D02*
X261423999Y-121969000D01*
G75*
G02*
X261174000Y-121719001I0J249999D01*
G01*
X261174000Y-121068999D01*
G75*
G02*
X261423999Y-120819000I249999J0D01*
G01*
X262324001Y-120819000D01*
G75*
G02*
X262574000Y-121068999I0J-249999D01*
G01*
X262574000Y-121719001D01*
G75*
G02*
X262324001Y-121969000I-249999J0D01*
G01*
G37*
G36*
G01*
X262324001Y-124019000D02*
X261423999Y-124019000D01*
G75*
G02*
X261174000Y-123769001I0J249999D01*
G01*
X261174000Y-123118999D01*
G75*
G02*
X261423999Y-122869000I249999J0D01*
G01*
X262324001Y-122869000D01*
G75*
G02*
X262574000Y-123118999I0J-249999D01*
G01*
X262574000Y-123769001D01*
G75*
G02*
X262324001Y-124019000I-249999J0D01*
G01*
G37*
%TD*%
%TO.C,R37*%
G36*
G01*
X263709999Y-122878000D02*
X264610001Y-122878000D01*
G75*
G02*
X264860000Y-123127999I0J-249999D01*
G01*
X264860000Y-123778001D01*
G75*
G02*
X264610001Y-124028000I-249999J0D01*
G01*
X263709999Y-124028000D01*
G75*
G02*
X263460000Y-123778001I0J249999D01*
G01*
X263460000Y-123127999D01*
G75*
G02*
X263709999Y-122878000I249999J0D01*
G01*
G37*
G36*
G01*
X263709999Y-120828000D02*
X264610001Y-120828000D01*
G75*
G02*
X264860000Y-121077999I0J-249999D01*
G01*
X264860000Y-121728001D01*
G75*
G02*
X264610001Y-121978000I-249999J0D01*
G01*
X263709999Y-121978000D01*
G75*
G02*
X263460000Y-121728001I0J249999D01*
G01*
X263460000Y-121077999D01*
G75*
G02*
X263709999Y-120828000I249999J0D01*
G01*
G37*
%TD*%
%TO.C,R38*%
G36*
G01*
X261941000Y-129343999D02*
X261941000Y-130244001D01*
G75*
G02*
X261691001Y-130494000I-249999J0D01*
G01*
X261040999Y-130494000D01*
G75*
G02*
X260791000Y-130244001I0J249999D01*
G01*
X260791000Y-129343999D01*
G75*
G02*
X261040999Y-129094000I249999J0D01*
G01*
X261691001Y-129094000D01*
G75*
G02*
X261941000Y-129343999I0J-249999D01*
G01*
G37*
G36*
G01*
X259891000Y-129343999D02*
X259891000Y-130244001D01*
G75*
G02*
X259641001Y-130494000I-249999J0D01*
G01*
X258990999Y-130494000D01*
G75*
G02*
X258741000Y-130244001I0J249999D01*
G01*
X258741000Y-129343999D01*
G75*
G02*
X258990999Y-129094000I249999J0D01*
G01*
X259641001Y-129094000D01*
G75*
G02*
X259891000Y-129343999I0J-249999D01*
G01*
G37*
%TD*%
%TO.C,R45*%
G36*
G01*
X254067000Y-127057999D02*
X254067000Y-127958001D01*
G75*
G02*
X253817001Y-128208000I-249999J0D01*
G01*
X253166999Y-128208000D01*
G75*
G02*
X252917000Y-127958001I0J249999D01*
G01*
X252917000Y-127057999D01*
G75*
G02*
X253166999Y-126808000I249999J0D01*
G01*
X253817001Y-126808000D01*
G75*
G02*
X254067000Y-127057999I0J-249999D01*
G01*
G37*
G36*
G01*
X252017000Y-127057999D02*
X252017000Y-127958001D01*
G75*
G02*
X251767001Y-128208000I-249999J0D01*
G01*
X251116999Y-128208000D01*
G75*
G02*
X250867000Y-127958001I0J249999D01*
G01*
X250867000Y-127057999D01*
G75*
G02*
X251116999Y-126808000I249999J0D01*
G01*
X251767001Y-126808000D01*
G75*
G02*
X252017000Y-127057999I0J-249999D01*
G01*
G37*
%TD*%
%TO.C,R46*%
G36*
G01*
X265381000Y-130244001D02*
X265381000Y-129343999D01*
G75*
G02*
X265630999Y-129094000I249999J0D01*
G01*
X266281001Y-129094000D01*
G75*
G02*
X266531000Y-129343999I0J-249999D01*
G01*
X266531000Y-130244001D01*
G75*
G02*
X266281001Y-130494000I-249999J0D01*
G01*
X265630999Y-130494000D01*
G75*
G02*
X265381000Y-130244001I0J249999D01*
G01*
G37*
G36*
G01*
X263331000Y-130244001D02*
X263331000Y-129343999D01*
G75*
G02*
X263580999Y-129094000I249999J0D01*
G01*
X264231001Y-129094000D01*
G75*
G02*
X264481000Y-129343999I0J-249999D01*
G01*
X264481000Y-130244001D01*
G75*
G02*
X264231001Y-130494000I-249999J0D01*
G01*
X263580999Y-130494000D01*
G75*
G02*
X263331000Y-130244001I0J249999D01*
G01*
G37*
%TD*%
%TO.C,R47*%
G36*
G01*
X239063000Y-72193999D02*
X239063000Y-73094001D01*
G75*
G02*
X238813001Y-73344000I-249999J0D01*
G01*
X238162999Y-73344000D01*
G75*
G02*
X237913000Y-73094001I0J249999D01*
G01*
X237913000Y-72193999D01*
G75*
G02*
X238162999Y-71944000I249999J0D01*
G01*
X238813001Y-71944000D01*
G75*
G02*
X239063000Y-72193999I0J-249999D01*
G01*
G37*
G36*
G01*
X241113000Y-72193999D02*
X241113000Y-73094001D01*
G75*
G02*
X240863001Y-73344000I-249999J0D01*
G01*
X240212999Y-73344000D01*
G75*
G02*
X239963000Y-73094001I0J249999D01*
G01*
X239963000Y-72193999D01*
G75*
G02*
X240212999Y-71944000I249999J0D01*
G01*
X240863001Y-71944000D01*
G75*
G02*
X241113000Y-72193999I0J-249999D01*
G01*
G37*
%TD*%
%TO.C,R48*%
G36*
G01*
X241113000Y-84639999D02*
X241113000Y-85540001D01*
G75*
G02*
X240863001Y-85790000I-249999J0D01*
G01*
X240212999Y-85790000D01*
G75*
G02*
X239963000Y-85540001I0J249999D01*
G01*
X239963000Y-84639999D01*
G75*
G02*
X240212999Y-84390000I249999J0D01*
G01*
X240863001Y-84390000D01*
G75*
G02*
X241113000Y-84639999I0J-249999D01*
G01*
G37*
G36*
G01*
X239063000Y-84639999D02*
X239063000Y-85540001D01*
G75*
G02*
X238813001Y-85790000I-249999J0D01*
G01*
X238162999Y-85790000D01*
G75*
G02*
X237913000Y-85540001I0J249999D01*
G01*
X237913000Y-84639999D01*
G75*
G02*
X238162999Y-84390000I249999J0D01*
G01*
X238813001Y-84390000D01*
G75*
G02*
X239063000Y-84639999I0J-249999D01*
G01*
G37*
%TD*%
D21*
%TO.C,U4*%
X275082000Y-119888000D03*
X273082000Y-120838000D03*
X273082000Y-118938000D03*
%TD*%
D22*
%TO.C,U9*%
X261585001Y-125589001D03*
X261585001Y-126539001D03*
X261585001Y-127489001D03*
X263785001Y-127489001D03*
X263785001Y-125589001D03*
%TD*%
%TO.C,C1*%
G36*
G01*
X193157500Y-84270001D02*
X193157500Y-83369999D01*
G75*
G02*
X193407499Y-83120000I249999J0D01*
G01*
X194057501Y-83120000D01*
G75*
G02*
X194307500Y-83369999I0J-249999D01*
G01*
X194307500Y-84270001D01*
G75*
G02*
X194057501Y-84520000I-249999J0D01*
G01*
X193407499Y-84520000D01*
G75*
G02*
X193157500Y-84270001I0J249999D01*
G01*
G37*
G36*
G01*
X191107500Y-84270001D02*
X191107500Y-83369999D01*
G75*
G02*
X191357499Y-83120000I249999J0D01*
G01*
X192007501Y-83120000D01*
G75*
G02*
X192257500Y-83369999I0J-249999D01*
G01*
X192257500Y-84270001D01*
G75*
G02*
X192007501Y-84520000I-249999J0D01*
G01*
X191357499Y-84520000D01*
G75*
G02*
X191107500Y-84270001I0J249999D01*
G01*
G37*
%TD*%
%TO.C,C2*%
G36*
G01*
X197291000Y-99002001D02*
X197291000Y-98101999D01*
G75*
G02*
X197540999Y-97852000I249999J0D01*
G01*
X198191001Y-97852000D01*
G75*
G02*
X198441000Y-98101999I0J-249999D01*
G01*
X198441000Y-99002001D01*
G75*
G02*
X198191001Y-99252000I-249999J0D01*
G01*
X197540999Y-99252000D01*
G75*
G02*
X197291000Y-99002001I0J249999D01*
G01*
G37*
G36*
G01*
X199341000Y-99002001D02*
X199341000Y-98101999D01*
G75*
G02*
X199590999Y-97852000I249999J0D01*
G01*
X200241001Y-97852000D01*
G75*
G02*
X200491000Y-98101999I0J-249999D01*
G01*
X200491000Y-99002001D01*
G75*
G02*
X200241001Y-99252000I-249999J0D01*
G01*
X199590999Y-99252000D01*
G75*
G02*
X199341000Y-99002001I0J249999D01*
G01*
G37*
%TD*%
%TO.C,C3*%
G36*
G01*
X191107500Y-86556001D02*
X191107500Y-85655999D01*
G75*
G02*
X191357499Y-85406000I249999J0D01*
G01*
X192007501Y-85406000D01*
G75*
G02*
X192257500Y-85655999I0J-249999D01*
G01*
X192257500Y-86556001D01*
G75*
G02*
X192007501Y-86806000I-249999J0D01*
G01*
X191357499Y-86806000D01*
G75*
G02*
X191107500Y-86556001I0J249999D01*
G01*
G37*
G36*
G01*
X193157500Y-86556001D02*
X193157500Y-85655999D01*
G75*
G02*
X193407499Y-85406000I249999J0D01*
G01*
X194057501Y-85406000D01*
G75*
G02*
X194307500Y-85655999I0J-249999D01*
G01*
X194307500Y-86556001D01*
G75*
G02*
X194057501Y-86806000I-249999J0D01*
G01*
X193407499Y-86806000D01*
G75*
G02*
X193157500Y-86556001I0J249999D01*
G01*
G37*
%TD*%
%TO.C,C4*%
G36*
G01*
X202380001Y-96499500D02*
X201479999Y-96499500D01*
G75*
G02*
X201230000Y-96249501I0J249999D01*
G01*
X201230000Y-95599499D01*
G75*
G02*
X201479999Y-95349500I249999J0D01*
G01*
X202380001Y-95349500D01*
G75*
G02*
X202630000Y-95599499I0J-249999D01*
G01*
X202630000Y-96249501D01*
G75*
G02*
X202380001Y-96499500I-249999J0D01*
G01*
G37*
G36*
G01*
X202380001Y-98549500D02*
X201479999Y-98549500D01*
G75*
G02*
X201230000Y-98299501I0J249999D01*
G01*
X201230000Y-97649499D01*
G75*
G02*
X201479999Y-97399500I249999J0D01*
G01*
X202380001Y-97399500D01*
G75*
G02*
X202630000Y-97649499I0J-249999D01*
G01*
X202630000Y-98299501D01*
G75*
G02*
X202380001Y-98549500I-249999J0D01*
G01*
G37*
%TD*%
%TO.C,C5*%
G36*
G01*
X199512100Y-103574001D02*
X199512100Y-102673999D01*
G75*
G02*
X199762099Y-102424000I249999J0D01*
G01*
X200412101Y-102424000D01*
G75*
G02*
X200662100Y-102673999I0J-249999D01*
G01*
X200662100Y-103574001D01*
G75*
G02*
X200412101Y-103824000I-249999J0D01*
G01*
X199762099Y-103824000D01*
G75*
G02*
X199512100Y-103574001I0J249999D01*
G01*
G37*
G36*
G01*
X197462100Y-103574001D02*
X197462100Y-102673999D01*
G75*
G02*
X197712099Y-102424000I249999J0D01*
G01*
X198362101Y-102424000D01*
G75*
G02*
X198612100Y-102673999I0J-249999D01*
G01*
X198612100Y-103574001D01*
G75*
G02*
X198362101Y-103824000I-249999J0D01*
G01*
X197712099Y-103824000D01*
G75*
G02*
X197462100Y-103574001I0J249999D01*
G01*
G37*
%TD*%
%TO.C,C6*%
G36*
G01*
X272798500Y-126180001D02*
X272798500Y-125279999D01*
G75*
G02*
X273048499Y-125030000I249999J0D01*
G01*
X273698501Y-125030000D01*
G75*
G02*
X273948500Y-125279999I0J-249999D01*
G01*
X273948500Y-126180001D01*
G75*
G02*
X273698501Y-126430000I-249999J0D01*
G01*
X273048499Y-126430000D01*
G75*
G02*
X272798500Y-126180001I0J249999D01*
G01*
G37*
G36*
G01*
X274848500Y-126180001D02*
X274848500Y-125279999D01*
G75*
G02*
X275098499Y-125030000I249999J0D01*
G01*
X275748501Y-125030000D01*
G75*
G02*
X275998500Y-125279999I0J-249999D01*
G01*
X275998500Y-126180001D01*
G75*
G02*
X275748501Y-126430000I-249999J0D01*
G01*
X275098499Y-126430000D01*
G75*
G02*
X274848500Y-126180001I0J249999D01*
G01*
G37*
%TD*%
%TO.C,C7*%
G36*
G01*
X272798500Y-123640001D02*
X272798500Y-122739999D01*
G75*
G02*
X273048499Y-122490000I249999J0D01*
G01*
X273698501Y-122490000D01*
G75*
G02*
X273948500Y-122739999I0J-249999D01*
G01*
X273948500Y-123640001D01*
G75*
G02*
X273698501Y-123890000I-249999J0D01*
G01*
X273048499Y-123890000D01*
G75*
G02*
X272798500Y-123640001I0J249999D01*
G01*
G37*
G36*
G01*
X274848500Y-123640001D02*
X274848500Y-122739999D01*
G75*
G02*
X275098499Y-122490000I249999J0D01*
G01*
X275748501Y-122490000D01*
G75*
G02*
X275998500Y-122739999I0J-249999D01*
G01*
X275998500Y-123640001D01*
G75*
G02*
X275748501Y-123890000I-249999J0D01*
G01*
X275098499Y-123890000D01*
G75*
G02*
X274848500Y-123640001I0J249999D01*
G01*
G37*
%TD*%
%TO.C,C8*%
G36*
G01*
X203571500Y-113226001D02*
X203571500Y-112325999D01*
G75*
G02*
X203821499Y-112076000I249999J0D01*
G01*
X204471501Y-112076000D01*
G75*
G02*
X204721500Y-112325999I0J-249999D01*
G01*
X204721500Y-113226001D01*
G75*
G02*
X204471501Y-113476000I-249999J0D01*
G01*
X203821499Y-113476000D01*
G75*
G02*
X203571500Y-113226001I0J249999D01*
G01*
G37*
G36*
G01*
X201521500Y-113226001D02*
X201521500Y-112325999D01*
G75*
G02*
X201771499Y-112076000I249999J0D01*
G01*
X202421501Y-112076000D01*
G75*
G02*
X202671500Y-112325999I0J-249999D01*
G01*
X202671500Y-113226001D01*
G75*
G02*
X202421501Y-113476000I-249999J0D01*
G01*
X201771499Y-113476000D01*
G75*
G02*
X201521500Y-113226001I0J249999D01*
G01*
G37*
%TD*%
%TO.C,C9*%
G36*
G01*
X189934001Y-80164500D02*
X189033999Y-80164500D01*
G75*
G02*
X188784000Y-79914501I0J249999D01*
G01*
X188784000Y-79264499D01*
G75*
G02*
X189033999Y-79014500I249999J0D01*
G01*
X189934001Y-79014500D01*
G75*
G02*
X190184000Y-79264499I0J-249999D01*
G01*
X190184000Y-79914501D01*
G75*
G02*
X189934001Y-80164500I-249999J0D01*
G01*
G37*
G36*
G01*
X189934001Y-78114500D02*
X189033999Y-78114500D01*
G75*
G02*
X188784000Y-77864501I0J249999D01*
G01*
X188784000Y-77214499D01*
G75*
G02*
X189033999Y-76964500I249999J0D01*
G01*
X189934001Y-76964500D01*
G75*
G02*
X190184000Y-77214499I0J-249999D01*
G01*
X190184000Y-77864501D01*
G75*
G02*
X189934001Y-78114500I-249999J0D01*
G01*
G37*
%TD*%
%TO.C,C10*%
G36*
G01*
X197407000Y-105010799D02*
X197407000Y-105910801D01*
G75*
G02*
X197157001Y-106160800I-249999J0D01*
G01*
X196506999Y-106160800D01*
G75*
G02*
X196257000Y-105910801I0J249999D01*
G01*
X196257000Y-105010799D01*
G75*
G02*
X196506999Y-104760800I249999J0D01*
G01*
X197157001Y-104760800D01*
G75*
G02*
X197407000Y-105010799I0J-249999D01*
G01*
G37*
G36*
G01*
X199457000Y-105010799D02*
X199457000Y-105910801D01*
G75*
G02*
X199207001Y-106160800I-249999J0D01*
G01*
X198556999Y-106160800D01*
G75*
G02*
X198307000Y-105910801I0J249999D01*
G01*
X198307000Y-105010799D01*
G75*
G02*
X198556999Y-104760800I249999J0D01*
G01*
X199207001Y-104760800D01*
G75*
G02*
X199457000Y-105010799I0J-249999D01*
G01*
G37*
%TD*%
%TO.C,C12*%
G36*
G01*
X219906001Y-112834000D02*
X219005999Y-112834000D01*
G75*
G02*
X218756000Y-112584001I0J249999D01*
G01*
X218756000Y-111933999D01*
G75*
G02*
X219005999Y-111684000I249999J0D01*
G01*
X219906001Y-111684000D01*
G75*
G02*
X220156000Y-111933999I0J-249999D01*
G01*
X220156000Y-112584001D01*
G75*
G02*
X219906001Y-112834000I-249999J0D01*
G01*
G37*
G36*
G01*
X219906001Y-114884000D02*
X219005999Y-114884000D01*
G75*
G02*
X218756000Y-114634001I0J249999D01*
G01*
X218756000Y-113983999D01*
G75*
G02*
X219005999Y-113734000I249999J0D01*
G01*
X219906001Y-113734000D01*
G75*
G02*
X220156000Y-113983999I0J-249999D01*
G01*
X220156000Y-114634001D01*
G75*
G02*
X219906001Y-114884000I-249999J0D01*
G01*
G37*
%TD*%
%TO.C,C20*%
G36*
G01*
X273616000Y-116135999D02*
X273616000Y-117036001D01*
G75*
G02*
X273366001Y-117286000I-249999J0D01*
G01*
X272715999Y-117286000D01*
G75*
G02*
X272466000Y-117036001I0J249999D01*
G01*
X272466000Y-116135999D01*
G75*
G02*
X272715999Y-115886000I249999J0D01*
G01*
X273366001Y-115886000D01*
G75*
G02*
X273616000Y-116135999I0J-249999D01*
G01*
G37*
G36*
G01*
X275666000Y-116135999D02*
X275666000Y-117036001D01*
G75*
G02*
X275416001Y-117286000I-249999J0D01*
G01*
X274765999Y-117286000D01*
G75*
G02*
X274516000Y-117036001I0J249999D01*
G01*
X274516000Y-116135999D01*
G75*
G02*
X274765999Y-115886000I249999J0D01*
G01*
X275416001Y-115886000D01*
G75*
G02*
X275666000Y-116135999I0J-249999D01*
G01*
G37*
%TD*%
%TO.C,R49*%
G36*
G01*
X239325999Y-128439000D02*
X240226001Y-128439000D01*
G75*
G02*
X240476000Y-128688999I0J-249999D01*
G01*
X240476000Y-129339001D01*
G75*
G02*
X240226001Y-129589000I-249999J0D01*
G01*
X239325999Y-129589000D01*
G75*
G02*
X239076000Y-129339001I0J249999D01*
G01*
X239076000Y-128688999D01*
G75*
G02*
X239325999Y-128439000I249999J0D01*
G01*
G37*
G36*
G01*
X239325999Y-130489000D02*
X240226001Y-130489000D01*
G75*
G02*
X240476000Y-130738999I0J-249999D01*
G01*
X240476000Y-131389001D01*
G75*
G02*
X240226001Y-131639000I-249999J0D01*
G01*
X239325999Y-131639000D01*
G75*
G02*
X239076000Y-131389001I0J249999D01*
G01*
X239076000Y-130738999D01*
G75*
G02*
X239325999Y-130489000I249999J0D01*
G01*
G37*
%TD*%
%TO.C,R50*%
G36*
G01*
X225101999Y-128439000D02*
X226002001Y-128439000D01*
G75*
G02*
X226252000Y-128688999I0J-249999D01*
G01*
X226252000Y-129339001D01*
G75*
G02*
X226002001Y-129589000I-249999J0D01*
G01*
X225101999Y-129589000D01*
G75*
G02*
X224852000Y-129339001I0J249999D01*
G01*
X224852000Y-128688999D01*
G75*
G02*
X225101999Y-128439000I249999J0D01*
G01*
G37*
G36*
G01*
X225101999Y-130489000D02*
X226002001Y-130489000D01*
G75*
G02*
X226252000Y-130738999I0J-249999D01*
G01*
X226252000Y-131389001D01*
G75*
G02*
X226002001Y-131639000I-249999J0D01*
G01*
X225101999Y-131639000D01*
G75*
G02*
X224852000Y-131389001I0J249999D01*
G01*
X224852000Y-130738999D01*
G75*
G02*
X225101999Y-130489000I249999J0D01*
G01*
G37*
%TD*%
%TO.C,R51*%
G36*
G01*
X237686001Y-129607000D02*
X236785999Y-129607000D01*
G75*
G02*
X236536000Y-129357001I0J249999D01*
G01*
X236536000Y-128706999D01*
G75*
G02*
X236785999Y-128457000I249999J0D01*
G01*
X237686001Y-128457000D01*
G75*
G02*
X237936000Y-128706999I0J-249999D01*
G01*
X237936000Y-129357001D01*
G75*
G02*
X237686001Y-129607000I-249999J0D01*
G01*
G37*
G36*
G01*
X237686001Y-131657000D02*
X236785999Y-131657000D01*
G75*
G02*
X236536000Y-131407001I0J249999D01*
G01*
X236536000Y-130756999D01*
G75*
G02*
X236785999Y-130507000I249999J0D01*
G01*
X237686001Y-130507000D01*
G75*
G02*
X237936000Y-130756999I0J-249999D01*
G01*
X237936000Y-131407001D01*
G75*
G02*
X237686001Y-131657000I-249999J0D01*
G01*
G37*
%TD*%
%TO.C,R52*%
G36*
G01*
X223716001Y-129607000D02*
X222815999Y-129607000D01*
G75*
G02*
X222566000Y-129357001I0J249999D01*
G01*
X222566000Y-128706999D01*
G75*
G02*
X222815999Y-128457000I249999J0D01*
G01*
X223716001Y-128457000D01*
G75*
G02*
X223966000Y-128706999I0J-249999D01*
G01*
X223966000Y-129357001D01*
G75*
G02*
X223716001Y-129607000I-249999J0D01*
G01*
G37*
G36*
G01*
X223716001Y-131657000D02*
X222815999Y-131657000D01*
G75*
G02*
X222566000Y-131407001I0J249999D01*
G01*
X222566000Y-130756999D01*
G75*
G02*
X222815999Y-130507000I249999J0D01*
G01*
X223716001Y-130507000D01*
G75*
G02*
X223966000Y-130756999I0J-249999D01*
G01*
X223966000Y-131407001D01*
G75*
G02*
X223716001Y-131657000I-249999J0D01*
G01*
G37*
%TD*%
%TO.C,R53*%
G36*
G01*
X229812001Y-131657000D02*
X228911999Y-131657000D01*
G75*
G02*
X228662000Y-131407001I0J249999D01*
G01*
X228662000Y-130756999D01*
G75*
G02*
X228911999Y-130507000I249999J0D01*
G01*
X229812001Y-130507000D01*
G75*
G02*
X230062000Y-130756999I0J-249999D01*
G01*
X230062000Y-131407001D01*
G75*
G02*
X229812001Y-131657000I-249999J0D01*
G01*
G37*
G36*
G01*
X229812001Y-129607000D02*
X228911999Y-129607000D01*
G75*
G02*
X228662000Y-129357001I0J249999D01*
G01*
X228662000Y-128706999D01*
G75*
G02*
X228911999Y-128457000I249999J0D01*
G01*
X229812001Y-128457000D01*
G75*
G02*
X230062000Y-128706999I0J-249999D01*
G01*
X230062000Y-129357001D01*
G75*
G02*
X229812001Y-129607000I-249999J0D01*
G01*
G37*
%TD*%
%TO.C,R54*%
G36*
G01*
X216096001Y-131648000D02*
X215195999Y-131648000D01*
G75*
G02*
X214946000Y-131398001I0J249999D01*
G01*
X214946000Y-130747999D01*
G75*
G02*
X215195999Y-130498000I249999J0D01*
G01*
X216096001Y-130498000D01*
G75*
G02*
X216346000Y-130747999I0J-249999D01*
G01*
X216346000Y-131398001D01*
G75*
G02*
X216096001Y-131648000I-249999J0D01*
G01*
G37*
G36*
G01*
X216096001Y-129598000D02*
X215195999Y-129598000D01*
G75*
G02*
X214946000Y-129348001I0J249999D01*
G01*
X214946000Y-128697999D01*
G75*
G02*
X215195999Y-128448000I249999J0D01*
G01*
X216096001Y-128448000D01*
G75*
G02*
X216346000Y-128697999I0J-249999D01*
G01*
X216346000Y-129348001D01*
G75*
G02*
X216096001Y-129598000I-249999J0D01*
G01*
G37*
%TD*%
%TO.C,R55*%
G36*
G01*
X232098001Y-129607000D02*
X231197999Y-129607000D01*
G75*
G02*
X230948000Y-129357001I0J249999D01*
G01*
X230948000Y-128706999D01*
G75*
G02*
X231197999Y-128457000I249999J0D01*
G01*
X232098001Y-128457000D01*
G75*
G02*
X232348000Y-128706999I0J-249999D01*
G01*
X232348000Y-129357001D01*
G75*
G02*
X232098001Y-129607000I-249999J0D01*
G01*
G37*
G36*
G01*
X232098001Y-131657000D02*
X231197999Y-131657000D01*
G75*
G02*
X230948000Y-131407001I0J249999D01*
G01*
X230948000Y-130756999D01*
G75*
G02*
X231197999Y-130507000I249999J0D01*
G01*
X232098001Y-130507000D01*
G75*
G02*
X232348000Y-130756999I0J-249999D01*
G01*
X232348000Y-131407001D01*
G75*
G02*
X232098001Y-131657000I-249999J0D01*
G01*
G37*
%TD*%
%TO.C,R56*%
G36*
G01*
X218382001Y-129607000D02*
X217481999Y-129607000D01*
G75*
G02*
X217232000Y-129357001I0J249999D01*
G01*
X217232000Y-128706999D01*
G75*
G02*
X217481999Y-128457000I249999J0D01*
G01*
X218382001Y-128457000D01*
G75*
G02*
X218632000Y-128706999I0J-249999D01*
G01*
X218632000Y-129357001D01*
G75*
G02*
X218382001Y-129607000I-249999J0D01*
G01*
G37*
G36*
G01*
X218382001Y-131657000D02*
X217481999Y-131657000D01*
G75*
G02*
X217232000Y-131407001I0J249999D01*
G01*
X217232000Y-130756999D01*
G75*
G02*
X217481999Y-130507000I249999J0D01*
G01*
X218382001Y-130507000D01*
G75*
G02*
X218632000Y-130756999I0J-249999D01*
G01*
X218632000Y-131407001D01*
G75*
G02*
X218382001Y-131657000I-249999J0D01*
G01*
G37*
%TD*%
%TO.C,D19*%
G36*
G01*
X233483999Y-130489000D02*
X234384001Y-130489000D01*
G75*
G02*
X234634000Y-130738999I0J-249999D01*
G01*
X234634000Y-131389001D01*
G75*
G02*
X234384001Y-131639000I-249999J0D01*
G01*
X233483999Y-131639000D01*
G75*
G02*
X233234000Y-131389001I0J249999D01*
G01*
X233234000Y-130738999D01*
G75*
G02*
X233483999Y-130489000I249999J0D01*
G01*
G37*
G36*
G01*
X233483999Y-128439000D02*
X234384001Y-128439000D01*
G75*
G02*
X234634000Y-128688999I0J-249999D01*
G01*
X234634000Y-129339001D01*
G75*
G02*
X234384001Y-129589000I-249999J0D01*
G01*
X233483999Y-129589000D01*
G75*
G02*
X233234000Y-129339001I0J249999D01*
G01*
X233234000Y-128688999D01*
G75*
G02*
X233483999Y-128439000I249999J0D01*
G01*
G37*
%TD*%
%TO.C,D20*%
G36*
G01*
X219767999Y-128448000D02*
X220668001Y-128448000D01*
G75*
G02*
X220918000Y-128697999I0J-249999D01*
G01*
X220918000Y-129348001D01*
G75*
G02*
X220668001Y-129598000I-249999J0D01*
G01*
X219767999Y-129598000D01*
G75*
G02*
X219518000Y-129348001I0J249999D01*
G01*
X219518000Y-128697999D01*
G75*
G02*
X219767999Y-128448000I249999J0D01*
G01*
G37*
G36*
G01*
X219767999Y-130498000D02*
X220668001Y-130498000D01*
G75*
G02*
X220918000Y-130747999I0J-249999D01*
G01*
X220918000Y-131398001D01*
G75*
G02*
X220668001Y-131648000I-249999J0D01*
G01*
X219767999Y-131648000D01*
G75*
G02*
X219518000Y-131398001I0J249999D01*
G01*
X219518000Y-130747999D01*
G75*
G02*
X219767999Y-130498000I249999J0D01*
G01*
G37*
%TD*%
M02*
